<svg width="128" height="128" viewBox="0 0 128 128" fill="none" xmlns="http://www.w3.org/2000/svg">
<path d="M95.2 59.8C95.2 50.6 87.8 43.4 78.8 43.4C76.8 43.4 75 43.8 73.2 44.4C72.6 37.6 67 32 60 32C52.6 32 46.6 38 46.6 45.4C46.6 47 47 48.6 47.4 50C46.8 49.8 46 49.8 45.4 49.8C38 49.8 32 55.8 32 63.2C32 70.4 37.8 76.4 45 76.6H79.4C88.2 75.6 95.2 68.6 95.2 59.8Z" fill="white" stroke="white" stroke-width="2.4" stroke-linejoin="round"/>
<path d="M34 84C53 84.0032 81 83.9987 91 84.0013" stroke="white" stroke-width="3" stroke-linecap="round"/>
<path d="M34 92C44.6667 92.0032 60.386 91.9987 66 92.0013" stroke="white" stroke-width="3" stroke-linecap="round"/>
<path d="M34 100C44.6667 100.003 60.386 99.9987 66 100.001" stroke="white" stroke-width="3" stroke-linecap="round"/>
</svg>
