<svg width="58" height="58" viewBox="0 0 58 58" fill="none" xmlns="http://www.w3.org/2000/svg">
<circle cx="29" cy="29" r="29" fill="#0032A0"/>
<path d="M42.7037 27.8785H40.6882C40.4248 25.1374 39.2158 22.5733 37.2686 20.6261C35.3214 18.6789 32.7573 17.4699 30.0162 17.2065V15.191C30.0162 14.9026 29.9016 14.626 29.6977 14.422C29.4937 14.2181 29.2171 14.1035 28.9287 14.1035C28.6402 14.1035 28.3636 14.2181 28.1597 14.422C27.9557 14.626 27.8412 14.9026 27.8412 15.191V17.2065C25.112 17.4831 22.5635 18.6982 20.6304 20.6445C18.6974 22.5908 17.4997 25.1476 17.2417 27.8785H15.2262C15.0834 27.8785 14.9419 27.9066 14.81 27.9613C14.6781 28.0159 14.5582 28.0961 14.4572 28.197C14.3562 28.298 14.2761 28.4179 14.2215 28.5498C14.1668 28.6818 14.1387 28.8232 14.1387 28.966C14.1387 29.1088 14.1668 29.2502 14.2215 29.3822C14.2761 29.5141 14.3562 29.634 14.4572 29.735C14.5582 29.836 14.6781 29.9161 14.81 29.9707C14.9419 30.0254 15.0834 30.0535 15.2262 30.0535H17.2417C17.5051 32.7946 18.7141 35.3587 20.6613 37.3059C22.6085 39.2531 25.1725 40.4621 27.9137 40.7255V42.741C27.9137 43.0294 28.0282 43.306 28.2322 43.51C28.4361 43.7139 28.7127 43.8285 29.0012 43.8285C29.2896 43.8285 29.5662 43.7139 29.7702 43.51C29.9741 43.306 30.0887 43.0294 30.0887 42.741V40.7255C32.8288 40.4594 35.3913 39.2495 37.338 37.3029C39.2847 35.3562 40.4946 32.7936 40.7607 30.0535H42.7762C42.919 30.0535 43.0604 30.0254 43.1923 29.9707C43.3243 29.9161 43.4442 29.836 43.5452 29.735C43.6461 29.634 43.7262 29.5141 43.7809 29.3822C43.8355 29.2502 43.8637 29.1088 43.8637 28.966C43.8637 28.8232 43.8355 28.6818 43.7809 28.5498C43.7262 28.4179 43.6461 28.298 43.5452 28.197C43.4442 28.0961 43.3243 28.0159 43.1923 27.9613C43.0604 27.9066 42.919 27.8785 42.7762 27.8785H42.7037ZM28.9287 38.594C27.0244 38.594 25.163 38.0293 23.5796 36.9714C21.9963 35.9135 20.7623 34.4098 20.0336 32.6505C19.3048 30.8912 19.1142 28.9553 19.4857 27.0877C19.8572 25.22 20.7741 23.5045 22.1206 22.158C23.4671 20.8115 25.1827 19.8945 27.0503 19.523C28.918 19.1515 30.8539 19.3422 32.6131 20.0709C34.3724 20.7996 35.8761 22.0337 36.9341 23.617C37.992 25.2003 38.5567 27.0618 38.5567 28.966C38.5567 31.5209 37.5428 33.9713 35.7376 35.7792C33.9324 37.5871 31.4835 38.6047 28.9287 38.6085V38.594Z" fill="white"/>
<path d="M35.4941 28.9785C35.4941 30.2811 35.1077 31.5545 34.3837 32.6373C33.6597 33.7202 32.6307 34.564 31.427 35.0618C30.2232 35.5596 28.8989 35.6891 27.6215 35.434C26.3441 35.1788 25.1712 34.5504 24.2511 33.6283C23.331 32.7062 22.7052 31.5318 22.4529 30.2539C22.2005 28.976 22.3329 27.6519 22.8334 26.4493C23.3339 25.2466 24.1799 24.2195 25.2644 23.4979C26.3488 22.7763 27.623 22.3927 28.9256 22.3955C29.7894 22.3955 30.6448 22.5659 31.4426 22.8969C32.2405 23.2279 32.9653 23.713 33.5754 24.3245C34.1855 24.936 34.6691 25.6618 34.9983 26.4604C35.3275 27.259 35.496 28.1147 35.4941 28.9785Z" fill="white"/>
</svg>
