<svg width="414" height="414" viewBox="0 0 414 414" fill="none" xmlns="http://www.w3.org/2000/svg">
<rect width="414" height="414" rx="40" fill="url(#paint0_linear_228_612)"/>
<path d="M182 82C175.096 82 169.5 87.5964 169.5 94.5C169.5 101.404 175.096 107 182 107C188.904 107 194.5 101.404 194.5 94.5C194.5 87.5964 188.904 82 182 82Z" fill="#F5D54A"/>
<path d="M119.5 107C112.596 107 107 112.596 107 119.5C107 126.404 112.596 132 119.5 132C126.404 132 132 126.404 132 119.5C132 112.596 126.404 107 119.5 107Z" fill="#F5D54A"/>
<path d="M244.5 107C237.596 107 232 112.596 232 119.5C232 126.404 237.596 132 244.5 132C251.404 132 257 126.404 257 119.5C257 112.596 251.404 107 244.5 107Z" fill="#F5D54A"/>
<path d="M107 182C107 175.096 101.404 169.5 94.5 169.5C87.5964 169.5 82 175.096 82 182C82 188.904 87.5964 194.5 94.5 194.5C101.404 194.5 107 188.904 107 182Z" fill="#F5D54A"/>
<path d="M132 182C132 154.386 154.386 132 182 132C199.013 132 214.041 140.497 223.073 153.478C225.327 156.719 223.365 160.979 219.641 162.289C208.034 166.373 197.475 172.673 188.478 180.672C187.073 181.921 185.209 182.525 183.337 182.351C180.836 182.119 178.305 182 175.75 182C163.296 182 151.497 184.802 140.948 189.81C137.122 191.626 132.402 189.656 132.116 185.432C132.039 184.298 132 183.153 132 182Z" fill="#F5D54A"/>
<path opacity="0.5" d="M190.781 222.147L199.646 225.39L205.191 217.75C215.435 203.637 232.025 194.5 250.75 194.5C281.816 194.5 307 219.684 307 250.75C307 281.816 281.816 307 250.75 307H175.75C151.588 307 132 287.412 132 263.25C132 239.088 151.588 219.5 175.75 219.5C181.053 219.5 186.11 220.438 190.781 222.147Z" fill="white" stroke="white" stroke-width="25"/>
<defs>
<linearGradient id="paint0_linear_228_612" x1="207" y1="0" x2="207" y2="414" gradientUnits="userSpaceOnUse">
<stop stop-color="#1394FF"/>
<stop offset="1" stop-color="#0DC4FF"/>
</linearGradient>
</defs>
</svg>
