<svg width="127" height="66" viewBox="0 0 127 66" fill="none" xmlns="http://www.w3.org/2000/svg">
<g filter="url(#filter0_d_3318_19707)">
<path fill-rule="evenodd" clip-rule="evenodd" d="M103.145 26.1498L99.186 23.8637C98.9365 23.7194 98.7198 23.5102 98.5651 23.2425C98.4104 22.9747 98.3376 22.6821 98.3376 22.3936V17.6596C98.3376 16.7107 98.5769 15.7496 99.0853 14.8696C99.5932 13.9895 100.306 13.3008 101.127 12.8272L112.516 6.24878C112.799 6.08565 113.12 6 113.447 6C113.763 6 114.083 6.07987 114.375 6.24878L120.031 9.51578C119.738 9.34687 119.418 9.266 119.102 9.266C118.776 9.266 118.455 9.35265 118.172 9.51578L106.783 16.0932C105.962 16.5668 105.249 17.2555 104.741 18.1356C104.232 19.0158 103.994 19.9767 103.994 20.9256V25.66C103.994 25.8552 103.892 26.0453 103.711 26.1498C103.529 26.2546 103.314 26.2475 103.145 26.1498ZM119.546 10.3556C119.409 10.2764 119.259 10.2363 119.103 10.2363C118.946 10.2363 118.791 10.2774 118.657 10.3556L114.335 12.8514L119.143 15.6277C119.312 15.7254 119.527 15.7325 119.708 15.6277C119.89 15.5232 119.991 15.333 119.991 15.1379V11.1271C119.991 10.8101 119.821 10.5141 119.546 10.3556ZM119.183 18.8841L116.028 17.0614L115.184 16.5744C115.015 16.4767 114.8 16.4699 114.618 16.5744C114.437 16.6789 114.335 16.869 114.335 17.0641V21.2382C114.335 21.7596 114.247 22.2778 114.075 22.7675C113.98 23.0358 113.861 23.2954 113.718 23.5435C113.314 24.2433 112.731 24.8268 112.031 25.231L104.747 29.4378C104.894 29.693 104.963 29.9711 104.963 30.2462V34.3043C104.963 34.6212 105.133 34.9162 105.407 35.0745C105.545 35.1538 105.694 35.1938 105.851 35.1938C106.008 35.1938 106.162 35.1528 106.297 35.0745L117.687 28.4971C118.387 28.093 118.97 27.5095 119.373 26.8096C119.777 26.1095 119.991 25.3127 119.991 24.5043V21.0344V20.2837C119.991 20.0089 119.922 19.7305 119.775 19.4757C119.628 19.2205 119.421 19.0213 119.183 18.8841ZM93.1391 49.3339C94.6252 48.8927 96.0323 48.5668 98.2951 48.1262C99.2416 48.1113 100.921 49.5584 100.184 49.8116C97.463 49.9565 94.6813 50.6826 92.5904 51.439C92.4169 52.0923 92.2402 52.7449 92.0605 53.3964C91.8512 54.1549 91.631 54.9157 91.3803 55.663C89.9763 59.8411 88.0758 60.1728 86.6381 59.7639C83.753 58.9439 84.176 53.8998 87.5742 51.823C88.5983 51.1967 89.5482 50.692 90.5557 50.2587C90.6923 49.7479 90.8321 49.2249 90.9707 48.7003C90.4748 49.1244 89.9075 49.329 89.1851 49.3528C85.7169 49.4681 85.3013 46.7659 85.3606 45.0698C84.1697 47.0053 82.4613 48.7299 79.8193 49.1439C77.8453 49.4533 76.6258 48.528 76.3904 47.3081C74.0659 50.0273 69.3755 50.8825 70.9007 44.5282C71.068 43.8306 71.3051 42.9171 71.5392 42.0154L71.5395 42.0147L71.5397 42.0137C71.6696 41.5135 71.7985 41.0171 71.914 40.5631C72.3481 38.8552 72.5885 37.8611 72.1162 37.6248C70.9877 37.0605 68.6418 38.8849 67.7466 42.015C67.6762 42.3333 67.6063 42.6522 67.5386 42.969C67.2763 44.1964 67.041 45.2732 66.8442 46.174L66.844 46.175L66.844 46.1751L66.8439 46.1754C66.6045 47.2714 66.4219 48.107 66.3167 48.6366C66.1799 49.2039 63.5024 50.1373 63.6869 49.2417C63.7611 48.8953 63.8708 48.3489 64.0075 47.6678L64.0082 47.6646L64.0086 47.6626L64.0086 47.6622L64.0089 47.661L64.0101 47.655L64.0104 47.6534L64.0117 47.6469L64.0118 47.6463L64.0127 47.6422L64.0131 47.6399C64.1198 47.1085 64.2427 46.4965 64.3778 45.8344C62.0631 48.7848 59.3327 50.2108 56.9884 49.0283C56.0991 48.5801 55.4867 47.8828 55.0956 47.0418C52.7402 48.4326 49.6252 49.9181 47.7692 49.26C46.8028 48.9173 46.1494 48.283 45.7383 47.4744C44.6029 48.2615 43.4925 48.9411 42.7341 49.17C38.8665 50.3373 36.9404 46.4884 38.8409 43.3081C39.1637 42.7678 40.0405 41.2033 40.7382 39.9583L40.7385 39.9577L40.7391 39.9566L40.7395 39.9559L40.7399 39.9552C41.2441 39.0554 41.6545 38.3232 41.6939 38.2664C40.259 38.8623 38.7816 38.9654 37.7588 38.9207C37.0415 41.7219 34.4679 49.5196 28.3495 49.3831C26.9971 49.3531 23.5369 47.7645 25.0008 41.8241C25.5515 39.5885 27.2206 34.9186 31.3307 35.5982C32.0685 35.7201 34.0701 36.4907 34.0796 39.2221C34.0543 39.7647 31.9218 40.4403 31.8929 39.8325C31.8872 39.7542 31.8843 39.6587 31.881 39.5517V39.5517C31.8605 38.8803 31.8261 37.7555 31.0055 37.5842C28.5225 37.0671 27.5702 41.1836 27.3774 42.2589C26.7494 45.7562 27.9116 46.9197 28.8447 47.057C29.9955 47.2259 31.2886 46.8065 32.772 45.2094C34.4715 43.3801 35.2927 41.5905 36.1563 38.4254C35.9983 38.2269 35.9137 37.9424 35.9908 37.5273C36.1941 36.4339 37.9598 36.3854 38.1043 37.3986C39.6302 37.536 41.5612 36.6888 42.8333 36.1307C43.5241 35.8276 44.0205 35.6098 44.1523 35.6812C44.4209 35.8271 45.1201 37.0956 44.87 37.5169C44.6386 37.9072 44.0892 38.912 43.4533 40.0751L43.4533 40.0751C42.6393 41.5638 41.6836 43.3118 41.0714 44.3624C39.8218 46.5069 41.069 47.9139 42.8208 47.1309C43.497 46.8293 44.3327 46.3115 45.2223 45.6861C44.8916 42.9389 46.1013 39.4127 47.4325 37.5287C48.6023 35.8739 50.3776 35.3529 52.2592 35.6714C53.6439 35.9055 54.21 37.3349 53.8438 38.7288C52.9866 41.9941 50.3898 44.1034 48.6906 45.2901L48.6494 45.3217C48.3665 45.5384 48.0581 45.7746 47.7329 46.0205C47.9685 46.8291 48.4419 47.3664 49.2202 47.3948C50.9087 47.4559 52.865 46.4511 54.6109 45.3229C54.2589 42.6632 55.322 39.3991 56.8255 37.5287C58.0626 35.99 59.5495 35.3815 61.5366 35.6714C62.9261 35.8739 63.3935 37.2174 63.0342 38.6129C62.2246 41.7574 59.7008 43.9476 58.047 45.1361C57.9801 45.1869 57.8957 45.2457 57.7964 45.3135C57.5552 45.4813 57.3391 45.6248 57.1561 45.7441L57.0761 45.7973L57.0257 45.8305C57.2344 46.6748 57.6752 47.265 58.4101 47.3655C60.7608 47.6871 64.0714 45.0366 65.5292 40.5317C65.7598 39.5459 65.9735 38.6723 66.1562 37.9252C66.3193 37.2584 66.4577 36.6923 66.5617 36.2367C66.7302 35.4328 69.3208 34.912 69.2611 35.6135C69.1842 35.9454 69.0787 36.3823 68.9544 36.8954C70.4467 35.8739 72.2594 35.126 73.9203 35.9299C75.3589 36.6263 75.098 38.1316 74.7237 39.6759C74.4467 40.8193 73.6801 43.8756 73.3872 45.0154C72.5307 48.343 73.942 47.6532 76.5167 44.5903C76.9788 39.7647 77.9665 36.1331 79.6613 31.565C81.7849 25.8424 86.339 26.3861 86.0068 30.4145C85.6271 35.0294 82.6388 39.5744 81.6795 41.0333L81.679 41.0341L81.5754 41.1919L81.5251 41.269L81.5017 41.3053C80.8364 42.3412 79.8729 43.5216 78.795 44.7308C78.714 46.0332 78.8694 46.9949 79.4206 47.2691C80.5682 47.8402 84.8607 45.2378 86.5555 38.8894C86.6702 38.4078 86.7807 37.9159 86.875 37.4871C86.8757 37.482 86.8769 37.4772 86.878 37.4722L86.8791 37.4673L86.88 37.4627L86.8809 37.4594L86.8818 37.456C87.0081 36.8792 87.1035 36.4226 87.1346 36.2726C87.4507 35.2011 89.8002 35.0227 89.6448 35.6133C89.6448 35.6133 88.5867 39.8251 88.1445 41.6929C88.1248 41.776 88.1041 41.8625 88.0827 41.952L88.081 41.9588L88.0798 41.9639L88.0794 41.9656C87.6141 43.9079 86.8212 47.2182 89.0209 47.4233C90.3493 47.5473 91.556 45.9296 92.6927 41.6753C93.0649 40.0726 93.4374 38.4457 93.7022 37.2852C93.8027 36.8244 93.8789 36.4611 93.9117 36.3043L93.9184 36.2726C94.2343 35.2011 96.6433 35.0227 96.4876 35.6133C96.4876 35.6133 96.31 36.3211 96.0697 37.2852C95.9284 37.8933 95.7876 38.4933 95.7279 38.7357C95.4055 40.0471 95.0902 41.3602 94.775 42.6732L94.7745 42.6752C94.3321 44.518 93.8897 46.3606 93.4276 48.1986C93.3319 48.5772 93.2358 48.9557 93.1391 49.3339ZM51.7381 38.7397C52.3314 36.8578 50.3922 37.1763 49.326 38.6545C48.3963 39.9424 47.7111 42.0641 47.5743 43.8951C48.0014 43.5479 48.4201 43.1975 48.8208 42.8528C49.991 41.7914 51.209 40.4174 51.7381 38.7397ZM58.6896 38.6547C59.7503 37.2393 61.536 36.9173 60.9572 38.74C60.2641 40.9208 59.0658 41.9534 57.3279 43.4289C57.195 43.5239 57.0576 43.6226 56.9156 43.7247C57.0726 41.9402 57.7467 39.9127 58.6896 38.6547ZM83.8977 29.5731C83.0735 29.2496 82.3863 30.7974 81.5256 33.4544L81.5082 33.5081C81.1272 34.6844 80.0682 37.9544 79.3858 41.0209C82.8259 35.9556 84.9649 29.9921 83.8977 29.5731ZM89.659 53.674L89.606 53.8877C89.1562 55.7034 88.5363 58.2061 87.2702 57.8443C86.5323 57.6333 86.2909 54.496 89.3398 52.8942C89.5431 52.7874 89.742 52.6859 89.937 52.5884C89.8358 52.9765 89.7423 53.3404 89.659 53.674ZM24.7723 35.1335C25.1198 33.0206 24.6465 31.2841 23.1105 31.1074C21.1182 30.8786 20.3757 33.9112 21.2279 36.7543C21.4559 37.5149 21.6776 38.2291 21.8887 38.9093L21.8888 38.9094L21.8888 38.9094L21.8888 38.9095L21.8888 38.9095C22.6809 41.4613 23.324 43.5329 23.5855 45.7681C24.0479 49.7193 22.7597 52.8016 21.6243 54.567C20.4135 56.4494 17.1057 60.6663 11.304 59.7742C7.01702 59.1154 4.52222 54.5986 6.95398 47.8833C8.23956 44.3307 11.5116 41.4464 11.8956 41.23C12.3527 40.8912 13.5954 43.5089 13.1836 43.8929L13.117 43.9485C12.6376 44.347 10.6901 45.9662 9.57851 47.7902C8.05458 50.2913 6.92183 56.6599 12.0668 57.2525C14.3846 57.5195 17.6292 56.0643 19.3951 52.9232C20.3976 51.1401 21.1732 48.8722 20.9302 46.0097C20.7682 44.1038 19.9873 41.6026 19.4056 39.7394C19.1868 39.0386 18.9962 38.428 18.8773 37.9734C17.4208 32.4007 19.7237 29.1621 22.619 29.0671C26.0049 28.9559 27.5422 31.1348 27.1245 34.3195C27.0878 34.9842 24.8158 35.8238 24.7723 35.1335ZM103.994 30.806V34.3042C103.994 34.9465 104.327 35.5699 104.921 35.9135L99.2667 32.648C98.6712 32.3035 98.3374 31.6795 98.3374 31.0374V27.5863C98.3374 27.3913 98.4392 27.201 98.6202 27.0963C98.8016 26.9917 99.0171 26.9989 99.1858 27.0963L103.185 29.406C103.423 29.5433 103.63 29.7424 103.777 29.9976C103.924 30.2528 103.994 30.5312 103.994 30.806Z" fill="white"/>
</g>
<defs>
<filter id="filter0_d_3318_19707" x="0" y="0" width="126.031" height="65.8965" filterUnits="userSpaceOnUse" color-interpolation-filters="sRGB">
<feFlood flood-opacity="0" result="BackgroundImageFix"/>
<feColorMatrix in="SourceAlpha" type="matrix" values="0 0 0 0 0 0 0 0 0 0 0 0 0 0 0 0 0 0 127 0" result="hardAlpha"/>
<feOffset/>
<feGaussianBlur stdDeviation="3"/>
<feColorMatrix type="matrix" values="0 0 0 0 0.476765 0 0 0 0 0.237511 0 0 0 0 0.792134 0 0 0 1 0"/>
<feBlend mode="normal" in2="BackgroundImageFix" result="effect1_dropShadow_3318_19707"/>
<feBlend mode="normal" in="SourceGraphic" in2="effect1_dropShadow_3318_19707" result="shape"/>
</filter>
</defs>
</svg>
