<?xml version="1.0" encoding="UTF-8" standalone="no"?>
<svg
   width="414"
   height="414"
   viewBox="0 0 414 414"
   fill="none"
   version="1.1"
   id="svg10"
   sodipodi:docname="outlook-calendar-icon.svg"
   xml:space="preserve"
   inkscape:version="1.4.2 (1:1.4.2+202505120737+ebf0e940d0)"
   xmlns:inkscape="http://www.inkscape.org/namespaces/inkscape"
   xmlns:sodipodi="http://sodipodi.sourceforge.net/DTD/sodipodi-0.dtd"
   xmlns="http://www.w3.org/2000/svg"
   xmlns:svg="http://www.w3.org/2000/svg"><sodipodi:namedview
     id="namedview10"
     pagecolor="#ffffff"
     bordercolor="#000000"
     borderopacity="0.25"
     inkscape:showpageshadow="2"
     inkscape:pageopacity="0.0"
     inkscape:pagecheckerboard="0"
     inkscape:deskcolor="#d1d1d1"
     inkscape:zoom="1.0084541"
     inkscape:cx="49.580838"
     inkscape:cy="255.34132"
     inkscape:window-width="1860"
     inkscape:window-height="1043"
     inkscape:window-x="0"
     inkscape:window-y="0"
     inkscape:window-maximized="1"
     inkscape:current-layer="svg10" /><g
     mask="url(#mask0_5777_57326)"
     id="g2"><path
       d="M 374,0 H 40 C 17.9086,0 0,17.9086 0,40 v 334 c 0,22.091 17.9086,40 40,40 h 334 c 22.091,0 40,-17.909 40,-40 V 40 C 414,17.9086 396.091,0 374,0 Z"
       fill="#ffffff"
       id="path2" /></g><defs
     id="defs10"><mask
       id="mask0_5777_57326"
       style="mask-type:luminance"
       maskUnits="userSpaceOnUse"
       x="0"
       y="0"
       width="414"
       height="414"><path
         d="M398 0H16C7.16344 0 0 7.16344 0 16V398C0 406.837 7.16344 414 16 414H398C406.837 414 414 406.837 414 398V16C414 7.16344 406.837 0 398 0Z"
         fill="white"
         id="path1" /></mask><linearGradient
       id="a"
       x1="28.5"
       y1="25"
       x2="28.5"
       y2="44"
       gradientUnits="userSpaceOnUse"><stop
         offset="0"
         stop-color="#35b8f1"
         id="stop1" /><stop
         offset="1"
         stop-color="#28a8ea"
         id="stop2" /></linearGradient><linearGradient
       id="b"
       x1="5.822"
       y1="11.568"
       x2="20.178"
       y2="36.432"
       gradientUnits="userSpaceOnUse"><stop
         offset="0"
         stop-color="#1784d9"
         id="stop3" /><stop
         offset=".5"
         stop-color="#107ad5"
         id="stop4" /><stop
         offset="1"
         stop-color="#0a63c9"
         id="stop5" /></linearGradient></defs><g
     id="g10"
     transform="matrix(6.5365268,0,0,6.5365268,50.123353,50.123353)"><path
       d="m 45,25 a 0.96,0.96 0 0 0 -0.458,-0.825 h -0.005 l -0.018,-0.01 -14.9,-8.82 a 2.026,2.026 0 0 0 -0.2,-0.119 2,2 0 0 0 -1.834,0 2.026,2.026 0 0 0 -0.2,0.119 l -14.9,8.82 -0.018,0.01 a 0.971,0.971 0 0 0 0.023,1.663 l 14.9,8.82 a 2.241,2.241 0 0 0 0.2,0.119 2,2 0 0 0 1.834,0 2.241,2.241 0 0 0 0.2,-0.119 l 14.9,-8.82 A 0.959,0.959 0 0 0 45,25 Z"
       fill="#0a2767"
       id="path5" /><path
       fill="#0364b8"
       d="M 14.222,19.111 H 24 v 8.963 H 14.222 Z M 43,10 V 5.9 A 1.858,1.858 0 0 0 41.187,4 H 15.813 A 1.858,1.858 0 0 0 14,5.9 V 10 l 15,4 z"
       id="path6" /><path
       fill="#0078d4"
       d="m 14,10 h 10 v 9 H 14 Z"
       id="path7" /><path
       fill="#28a8ea"
       d="M 34,10 H 24 v 9 l 10,9 h 9 v -9 z"
       id="path8" /><path
       fill="#0078d4"
       d="m 24,19 h 10 v 9 H 24 Z"
       id="path9" /><path
       fill="#0364b8"
       d="m 24,28 h 10 v 9 H 24 Z"
       id="path10" /><path
       fill="#14447d"
       d="M 14.222,28.074 H 24 v 8.148 h -9.778 z"
       id="path11" /><path
       fill="#0078d4"
       d="m 34,28 h 9 v 9 h -9 z"
       id="path12" /><path
       d="m 44.542,25.783 -0.019,0.01 -14.9,8.38 c -0.065,0.04 -0.131,0.078 -0.2,0.112 a 2.077,2.077 0 0 1 -0.808,0.2 l -0.814,-0.476 a 2.033,2.033 0 0 1 -0.2,-0.115 l -15.1,-8.618 H 12.494 L 12,25 V 41.964 A 2.05,2.05 0 0 0 14.063,44 h 28.906 c 0.017,0 0.032,-0.008 0.05,-0.008 a 2.531,2.531 0 0 0 0.7,-0.146 A 2.019,2.019 0 0 0 44,43.7 c 0.067,-0.038 0.182,-0.121 0.182,-0.121 A 2.019,2.019 0 0 0 45,41.964 V 25 a 0.9,0.9 0 0 1 -0.458,0.783 z"
       fill="url(#a)"
       id="path13"
       style="fill:url(#a)" /><path
       d="m 44.2,24.933 v 1.04 L 28.62,36.7 12.49,25.283 a 0.01,0.01 0 0 0 -0.01,-0.01 L 11,24.383 v -0.75 l 0.61,-0.01 1.29,0.74 0.03,0.01 0.11,0.07 c 0,0 15.16,8.65 15.2,8.67 l 0.58,0.34 c 0.05,-0.02 0.1,-0.04 0.16,-0.06 0.03,-0.02 15.05,-8.47 15.05,-8.47 z"
       fill="#0a2767"
       opacity="0.5"
       id="path14" /><path
       fill="none"
       d="M 0,0 H 48 V 48 H 0 Z"
       id="path15" /><path
       d="m 44.542,25.783 -0.019,0.011 -14.9,8.38 c -0.065,0.04 -0.131,0.078 -0.2,0.112 a 2.089,2.089 0 0 1 -1.834,0 2.264,2.264 0 0 1 -0.2,-0.112 l -14.9,-8.38 -0.018,-0.011 A 0.9,0.9 0 0 1 12,25 V 41.964 A 2.049,2.049 0 0 0 14.062,44 H 42.938 A 2.049,2.049 0 0 0 45,41.964 V 25 a 0.9,0.9 0 0 1 -0.458,0.783 z"
       fill="#1490df"
       id="path16" /><path
       d="m 29.84,34.05 -0.223,0.125 a 2.183,2.183 0 0 1 -0.2,0.113 2.071,2.071 0 0 1 -0.786,0.208 L 34.3,41.2 44.189,43.583 A 2.038,2.038 0 0 0 44.816,42.8 Z"
       opacity="0.1"
       id="path17" /><path
       d="m 30.85,33.482 -1.233,0.693 a 2.183,2.183 0 0 1 -0.2,0.113 2.071,2.071 0 0 1 -0.786,0.208 l 2.656,7.323 12.905,1.761 A 2.022,2.022 0 0 0 45,41.964 v -0.219 z"
       opacity="0.05"
       id="path18" /><path
       d="M 14.09,44 H 42.935 A 2.074,2.074 0 0 0 44.17,43.6 L 27.8,34.011 A 2.033,2.033 0 0 1 27.6,33.896 L 12.5,25.278 H 12.493 L 12,25 V 41.906 A 2.092,2.092 0 0 0 14.09,44 Z"
       fill="#28a8ea"
       id="path19" /><path
       d="m 26,13.833 v 21.33 a 1.838,1.838 0 0 1 -1.15,1.7 1.723,1.723 0 0 1 -0.68,0.14 H 12 V 13 h 2 V 12 H 24.17 A 1.837,1.837 0 0 1 26,13.833 Z"
       opacity="0.1"
       id="path20" /><path
       d="m 25,14.833 v 21.33 a 1.629,1.629 0 0 1 -0.15,0.7 A 1.822,1.822 0 0 1 23.17,38 H 12 V 13 h 11.17 a 1.679,1.679 0 0 1 0.83,0.21 1.818,1.818 0 0 1 1,1.623 z"
       opacity="0.2"
       id="path21" /><path
       d="m 25,14.833 v 19.33 A 1.846,1.846 0 0 1 23.17,36 H 12 V 13 h 11.17 a 1.679,1.679 0 0 1 0.83,0.21 1.818,1.818 0 0 1 1,1.623 z"
       opacity="0.2"
       id="path22" /><path
       d="m 24,14.833 v 19.33 A 1.839,1.839 0 0 1 22.17,36 H 12 V 13 H 22.17 A 1.831,1.831 0 0 1 24,14.833 Z"
       opacity="0.2"
       id="path23" /><rect
       x="2"
       y="13"
       width="22"
       height="22"
       rx="1.8329999"
       fill="url(#b)"
       id="rect23"
       style="fill:url(#b)" /><path
       d="m 7.729,20.688 a 5.332,5.332 0 0 1 2.094,-2.313 6.33,6.33 0 0 1 3.327,-0.834 5.892,5.892 0 0 1 3.079,0.791 5.284,5.284 0 0 1 2.037,2.21 7.133,7.133 0 0 1 0.714,3.25 7.528,7.528 0 0 1 -0.735,3.4 5.41,5.41 0 0 1 -2.1,2.287 6.126,6.126 0 0 1 -3.194,0.812 6.02,6.02 0 0 1 -3.147,-0.8 A 5.366,5.366 0 0 1 7.74,27.277 6.963,6.963 0 0 1 7.018,24.066 7.733,7.733 0 0 1 7.729,20.688 Z m 2.232,5.43 a 3.461,3.461 0 0 0 1.178,1.522 3.077,3.077 0 0 0 1.84,0.554 3.223,3.223 0 0 0 1.964,-0.572 3.315,3.315 0 0 0 1.144,-1.522 5.908,5.908 0 0 0 0.365,-2.123 6.463,6.463 0 0 0 -0.344,-2.15 A 3.4,3.4 0 0 0 15,20.241 3.043,3.043 0 0 0 13.053,19.641 3.175,3.175 0 0 0 11.17,20.2 3.49,3.49 0 0 0 9.97,21.735 6.1,6.1 0 0 0 9.962,26.12 Z"
       fill="#ffffff"
       id="path24" /><path
       fill="#50d9ff"
       d="m 34,10 h 9 v 9 h -9 z"
       id="path25" /></g></svg>
