<svg width="128" height="128" viewBox="0 0 128 128" fill="none" xmlns="http://www.w3.org/2000/svg">
<path d="M48 74V80" stroke="#FFA500" stroke-width="4" stroke-linecap="round"/>
<path d="M35.2725 68.7285L31.0298 72.9712" stroke="#FFA500" stroke-width="4" stroke-linecap="round"/>
<path d="M30 56H24" stroke="#FFA500" stroke-width="4" stroke-linecap="round"/>
<path d="M35.2725 43.2715L31.0298 39.0288" stroke="#FFA500" stroke-width="4" stroke-linecap="round"/>
<path d="M48 38V32" stroke="#FFA500" stroke-width="4" stroke-linecap="round"/>
<path d="M60.7275 43.2715L64.9702 39.0288" stroke="#FFA500" stroke-width="4" stroke-linecap="round"/>
<path d="M66 56H72" stroke="#FFA500" stroke-width="4" stroke-linecap="round"/>
<path d="M60.7275 68.7285L64.9702 72.9712" stroke="#FFA500" stroke-width="4" stroke-linecap="round"/>
<path d="M48 66C53.5228 66 58 61.5228 58 56C58 50.4772 53.5228 46 48 46C42.4772 46 38 50.4772 38 56C38 61.5228 42.4772 66 48 66Z" fill="#FFA500" stroke="#FFA500" stroke-width="4"/>
<path d="M85.0401 58.68C85.0401 53.16 80.6001 48.84 75.2001 48.84C74.0001 48.84 72.9201 49.08 71.8401 49.44C71.4801 45.36 68.1201 42 63.9201 42C59.4801 42 55.8801 45.6 55.8801 50.04C55.8801 51 56.1201 51.96 56.3601 52.8C56.0001 52.68 55.5201 52.68 55.1601 52.68C50.7201 52.68 47.1201 56.28 47.1201 60.72C47.1201 65.04 50.6001 68.64 54.9201 68.76H75.5601C80.8401 68.16 85.0401 63.96 85.0401 58.68Z" fill="white" stroke="white" stroke-width="1.44" stroke-linejoin="round"/>
<path d="M103.2 81.0002C103.2 71.8002 95.8 64.6002 86.8 64.6002C84.8 64.6002 83 65.0002 81.2 65.6002C80.6 58.8002 75 53.2002 68 53.2002C60.6 53.2002 54.6 59.2002 54.6 66.6002C54.6 68.2002 55 69.8002 55.4 71.2002C54.8 71.0002 54 71.0002 53.4 71.0002C46 71.0002 40 77.0002 40 84.4002C40 91.6002 45.8 97.6002 53 97.8002H87.4C96.2 96.8002 103.2 89.8002 103.2 81.0002Z" fill="white" stroke="white" stroke-width="2.4" stroke-linejoin="round"/>
</svg>
