<svg width="128" height="128" viewBox="0 0 128 128" fill="none" xmlns="http://www.w3.org/2000/svg">
<path d="M77.2804 30.4004L78.4004 32.3204L80.3204 33.2804L78.4004 34.4004L77.2804 36.3204L76.3204 34.4004L74.4004 33.2804L76.3204 32.3204L77.2804 30.4004Z" fill="#FFA500"/>
<path d="M109.28 46.4004L110.4 48.3204L112.32 49.2804L110.4 50.4004L109.28 52.3204L108.32 50.4004L106.4 49.2804L108.32 48.3204L109.28 46.4004Z" fill="#FFA500"/>
<path d="M95.2002 49.1211C95.2002 43.2011 98.4002 38.0811 103.2 35.2011C100.8 33.7611 98.0802 33.1211 95.2002 33.1211C86.4002 33.1211 79.2002 40.3211 79.2002 49.1211C79.2002 57.9211 86.4002 65.1211 95.2002 65.1211C98.0802 65.1211 100.8 64.3211 103.2 63.0411C98.4002 60.3211 95.2002 55.0411 95.2002 49.1211Z" fill="#FFA500" stroke="#FFA500" stroke-width="3.2" stroke-linejoin="round"/>
<path d="M89.3453 49.9481C89.3453 43.3472 84.0359 38.1813 77.5785 38.1813C76.1435 38.1813 74.852 38.4683 73.5605 38.8988C73.13 34.0199 69.1121 30.002 64.0897 30.002C58.7803 30.002 54.4753 34.3069 54.4753 39.6163C54.4753 40.7643 54.7623 41.9123 55.0493 42.9168C54.6188 42.7733 54.0448 42.7733 53.6143 42.7733C48.3049 42.7733 44 47.0782 44 52.3876C44 57.5535 48.1614 61.8585 53.3274 62.002H78.009C84.3229 61.2845 89.3453 56.262 89.3453 49.9481Z" fill="white" stroke="white" stroke-width="1.72197" stroke-linejoin="round"/>
<path d="M95.4002 68.802C95.4002 59.602 88.0002 52.402 79.0002 52.402C77.0002 52.402 75.2002 52.802 73.4002 53.402C72.8002 46.602 67.2002 41.002 60.2002 41.002C52.8002 41.002 46.8002 47.002 46.8002 54.402C46.8002 56.002 47.2002 57.602 47.6002 59.002C47.0002 58.802 46.2002 58.802 45.6002 58.802C38.2002 58.802 32.2002 64.802 32.2002 72.202C32.2002 79.402 38.0002 85.402 45.2002 85.602H79.6002C88.4002 84.602 95.4002 77.602 95.4002 68.802Z" fill="white" stroke="white" stroke-width="2.4" stroke-linejoin="round"/>
</svg>
