<svg width="66" height="72" viewBox="0 0 66 72" fill="none" xmlns="http://www.w3.org/2000/svg">
<path d="M64.4002 29.0002C64.4002 19.8002 57.0002 12.6002 48.0002 12.6002C46.0002 12.6002 44.2002 13.0002 42.4002 13.6002C41.8002 6.8002 36.2002 1.2002 29.2002 1.2002C21.8002 1.2002 15.8002 7.2002 15.8002 14.6002C15.8002 16.2002 16.2002 17.8002 16.6002 19.2002C16.0002 19.0002 15.2002 19.0002 14.6002 19.0002C7.20019 19.0002 1.2002 25.0002 1.2002 32.4002C1.2002 39.6002 7.0002 45.6002 14.2002 45.8002H48.6002C57.4002 44.8002 64.4002 37.8002 64.4002 29.0002Z" fill="white" stroke="white" stroke-width="2.4" stroke-linejoin="round"/>
<path d="M22.7744 52.7803L19.996 68.5372" stroke="white" stroke-width="4" stroke-linecap="round" stroke-dasharray="8 8"/>
<path d="M31.3477 50.2305L28.5693 65.9874" stroke="white" stroke-width="4" stroke-linecap="round" stroke-dasharray="8 8"/>
<path d="M38.8779 53.5889L36.0996 69.3458" stroke="white" stroke-width="4" stroke-linecap="round" stroke-dasharray="8 8"/>
</svg>
