<svg width="66" height="79" viewBox="0 0 66 79" fill="none" xmlns="http://www.w3.org/2000/svg">
<path d="M46.2403 17.4002C46.2403 11.8802 41.8003 7.56022 36.4003 7.56022C35.2003 7.56022 34.1203 7.80022 33.0403 8.16022C32.6803 4.08022 29.3203 0.720215 25.1203 0.720215C20.6803 0.720215 17.0803 4.32022 17.0803 8.76021C17.0803 9.72021 17.3203 10.6802 17.5603 11.5202C17.2003 11.4002 16.7203 11.4002 16.3603 11.4002C11.9203 11.4002 8.32031 15.0002 8.32031 19.4402C8.32031 23.7602 11.8003 27.3602 16.1203 27.4802H36.7603C42.0403 26.8802 46.2403 22.6802 46.2403 17.4002Z" fill="white" stroke="white" stroke-width="1.44" stroke-linejoin="round"/>
<path d="M64.4002 35.7204C64.4002 26.5204 57.0002 19.3204 48.0002 19.3204C46.0002 19.3204 44.2002 19.7204 42.4002 20.3204C41.8002 13.5204 36.2002 7.92041 29.2002 7.92041C21.8002 7.92041 15.8002 13.9204 15.8002 21.3204C15.8002 22.9204 16.2002 24.5204 16.6002 25.9204C16.0002 25.7204 15.2002 25.7204 14.6002 25.7204C7.20019 25.7204 1.2002 31.7204 1.2002 39.1204C1.2002 46.3204 7.0002 52.3204 14.2002 52.5204H48.6002C57.4002 51.5204 64.4002 44.5204 64.4002 35.7204Z" fill="white" stroke="white" stroke-width="2.4" stroke-linejoin="round"/>
<path d="M25.3206 35.9604H40.2006L30.3606 53.2404H39.7206L18.6006 77.9604L26.7606 59.4804H17.6406L25.3206 35.9604Z" fill="#FFA500" stroke="white" stroke-width="2.4"/>
<path d="M11.9785 56.7202L9.20014 72.4771" stroke="white" stroke-width="4" stroke-linecap="round" stroke-dasharray="8 14"/>
<path d="M45.9785 58.7202L43.2001 74.4771" stroke="white" stroke-width="4" stroke-linecap="round" stroke-dasharray="8 14"/>
</svg>
