<?xml version="1.0" encoding="utf-8"?>
<!-- Generator: Adobe Illustrator 27.9.0, SVG Export Plug-In . SVG Version: 6.00 Build 0)  -->
<svg version="1.1" id="Layer_1" xmlns="http://www.w3.org/2000/svg" xmlns:xlink="http://www.w3.org/1999/xlink" x="0px" y="0px"
	 viewBox="0 0 423.8 260.7" style="enable-background:new 0 0 423.8 260.7;" xml:space="preserve">
<style type="text/css">
	.st0{fill:#E65352;}
	.st1{fill:#FFFFFF;}
	.st2{fill:#00CD00;}
</style>
<g>
	<polygon class="st0" points="423.8,191.4 0,260.7 0,215.7 423.8,146.5 	"/>
	<g>
		<path class="st1" d="M39.4,221.5l4.9-0.8l1.7,10.5l2.2-11.2l3.3-0.5l2.2,10.5l1.7-11.1l4.9-0.8l-4.1,21.6l-3.8,0.6l-2.5-9.2
			l-2.5,10l-3.9,0.6L39.4,221.5L39.4,221.5z"/>
		<path class="st1" d="M62,238.7v-20.9l10.6-1.7v4.8l-5.7,0.9v3l5.3-0.9v4.7l-5.3,0.9v3.5l5.7-0.9v4.8L62,238.7z"/>
		<path class="st1" d="M80.8,214.8l4.9-0.8l1.7,10.5l2.2-11.2l3.3-0.5l2.2,10.5l1.7-11.1l4.9-0.8L97.6,233l-3.8,0.6l-2.5-9.2
			l-2.5,10l-3.9,0.6L80.8,214.8L80.8,214.8z"/>
		<path class="st1" d="M100.9,232.4l4.9-21.7l5.9-0.9l4.8,20.2l-5.2,0.8l-0.7-3.8l-3.9,0.6l-0.7,4L100.9,232.4L100.9,232.4z
			 M107.5,223.1l2.3-0.4l-1.1-6.4L107.5,223.1L107.5,223.1z"/>
		<path class="st1" d="M118.2,229.6v-20.9l5-0.8l4.1,10v-10.7l5-0.8v20.9l-5,0.8l-4.1-9.6v10.3L118.2,229.6z"/>
		<path class="st1" d="M134.6,210.9v-4.8l12.4-2v4.8l-3.7,0.6v16.1l-4.9,0.8v-16.1L134.6,210.9L134.6,210.9z"/>
		<path class="st1" d="M155.4,207.6v-4.8l12.4-2v4.8l-3.7,0.6v16.1l-4.9,0.8V207L155.4,207.6L155.4,207.6z"/>
		<path class="st1" d="M169.2,215.5v-9.1c0-1.2,0.3-2.3,0.9-3.4c0.6-1.1,1.4-2,2.4-2.8c1-0.7,2.1-1.2,3.4-1.4
			c1.2-0.2,2.3-0.1,3.3,0.3s1.8,1.1,2.4,2s0.9,1.9,0.9,3.1v9.1c0,1.2-0.3,2.3-0.9,3.4c-0.6,1.1-1.4,2-2.4,2.8s-2.1,1.2-3.3,1.4
			c-1.2,0.2-2.3,0.1-3.4-0.3s-1.8-1.1-2.4-2S169.2,216.7,169.2,215.5L169.2,215.5z M174.2,214.7c0,0.5,0.2,0.9,0.5,1.2
			c0.3,0.3,0.7,0.4,1.2,0.3c0.5-0.1,0.9-0.3,1.2-0.7s0.5-0.8,0.5-1.3v-9.1c0-0.5-0.2-0.9-0.5-1.1s-0.8-0.4-1.2-0.3
			c-0.5,0.1-0.9,0.3-1.2,0.7s-0.5,0.8-0.5,1.3V214.7L174.2,214.7z"/>
		<path class="st1" d="M192,217.8v-20.9l5-0.8v7.7l2.8-0.4v-7.7l5-0.8v20.9l-5,0.8v-8.3l-2.8,0.4v8.3L192,217.8z"/>
		<path class="st1" d="M207.7,215.2v-20.9l10.6-1.7v4.8l-5.7,0.9v3l5.4-0.9v4.7l-5.4,0.9v3.5l5.7-0.9v4.8L207.7,215.2z"/>
		<path class="st1" d="M219.8,213.3l4.9-21.7l5.9-0.9l4.8,20.2l-5.2,0.8l-0.7-3.8l-3.9,0.6l-0.7,4L219.8,213.3L219.8,213.3z
			 M226.4,204l2.3-0.4l-1.1-6.4L226.4,204L226.4,204z"/>
		<path class="st1" d="M237.1,210.5v-20.9l6.7-1.1c1.9-0.3,3.3,0,4.4,1c1.1,1,1.6,2.4,1.6,4.2c0,0.8-0.2,1.6-0.6,2.5
			c-0.4,0.8-0.9,1.6-1.6,2.3c1.5,0.6,2.2,1.9,2.2,4v5.9l-5,0.8v-5.8c0-0.7-0.1-1.2-0.4-1.5s-0.7-0.4-1.3-0.3l-1,0.2v7.9L237.1,210.5
			L237.1,210.5z M242.1,197.1l1.2-0.2c0.5-0.1,0.9-0.3,1.2-0.6s0.5-0.8,0.5-1.4s-0.1-1-0.5-1.2c-0.3-0.3-0.7-0.4-1.2-0.3l-1.2,0.2
			V197.1z"/>
		<path class="st1" d="M259.5,206.9V186l10.5-1.7v4.8l-5.5,0.9v3l5.3-0.9v4.7l-5.3,0.9v8.4L259.5,206.9L259.5,206.9z"/>
		<path class="st1" d="M272.4,204.8v-20.9l6.7-1.1c1.8-0.3,3.3,0,4.4,1c1.1,1,1.6,2.4,1.6,4.2c0,0.8-0.2,1.6-0.6,2.5
			s-0.9,1.6-1.6,2.3c1.5,0.6,2.2,1.9,2.2,4v5.9l-5,0.8v-5.8c0-0.7-0.1-1.2-0.4-1.5s-0.7-0.4-1.3-0.3l-1,0.2v7.9L272.4,204.8
			L272.4,204.8z M277.4,191.4l1.2-0.2c0.5-0.1,0.9-0.3,1.2-0.6s0.5-0.8,0.5-1.4s-0.1-1-0.5-1.2s-0.7-0.4-1.2-0.3l-1.2,0.2V191.4z"/>
		<path class="st1" d="M287.5,196.5v-9.1c0-1.2,0.3-2.3,0.9-3.4c0.6-1.1,1.4-2,2.4-2.8c1-0.7,2.1-1.2,3.4-1.4
			c1.2-0.2,2.3-0.1,3.3,0.3c1,0.4,1.8,1.1,2.4,2s0.9,1.9,0.9,3.1v9.1c0,1.2-0.3,2.3-0.9,3.4c-0.6,1.1-1.4,2-2.4,2.8
			c-1,0.7-2.1,1.2-3.3,1.4c-1.2,0.2-2.3,0.1-3.4-0.3c-1-0.4-1.8-1.1-2.4-2C287.8,198.7,287.5,197.6,287.5,196.5L287.5,196.5z
			 M292.5,195.7c0,0.5,0.2,0.9,0.5,1.2s0.7,0.4,1.2,0.3c0.5-0.1,0.9-0.3,1.2-0.7s0.5-0.8,0.5-1.3V186c0-0.5-0.2-0.9-0.5-1.1
			s-0.8-0.4-1.2-0.3c-0.5,0.1-0.9,0.3-1.2,0.7s-0.5,0.8-0.5,1.3V195.7L292.5,195.7z"/>
		<path class="st1" d="M303.6,199.8v-20.9l5.6-0.9l3.5,10.5l3.6-11.7l5.6-0.9v20.9l-5,0.8v-10.5l-2.8,10.9l-3,0.5l-2.7-9.9V199
			L303.6,199.8L303.6,199.8z"/>
		<path class="st1" d="M330.5,174.5l5.3-0.9l2.3,6.9l2.3-7.7l5-0.8l-5,13.7v8l-5,0.8v-8L330.5,174.5L330.5,174.5z"/>
		<path class="st1" d="M346,187v-9.1c0-1.2,0.3-2.3,0.9-3.4c0.6-1.1,1.4-2,2.4-2.8c1-0.7,2.1-1.2,3.4-1.4c1.2-0.2,2.3-0.1,3.3,0.3
			s1.8,1.1,2.4,2c0.6,0.9,0.9,1.9,0.9,3.1v9.1c0,1.2-0.3,2.3-0.9,3.4c-0.6,1.1-1.4,2-2.4,2.8c-1,0.7-2.1,1.2-3.3,1.4
			c-1.2,0.2-2.3,0.1-3.4-0.3c-1-0.4-1.8-1.1-2.4-2C346.3,189.2,346,188.2,346,187L346,187z M351,186.2c0,0.5,0.2,0.9,0.5,1.2
			s0.7,0.4,1.2,0.3c0.5-0.1,0.9-0.3,1.2-0.7s0.5-0.8,0.5-1.3v-9.1c0-0.5-0.2-0.9-0.5-1.1s-0.8-0.4-1.2-0.3c-0.5,0.1-0.9,0.3-1.2,0.7
			s-0.5,0.8-0.5,1.3V186.2L351,186.2z"/>
		<path class="st1" d="M362.1,184.4v-15l5-0.8v15c0,0.5,0.2,0.9,0.5,1.2s0.7,0.4,1.2,0.3c0.5-0.1,0.9-0.3,1.2-0.7s0.5-0.8,0.5-1.3
			v-15l5-0.8v15c0,1.2-0.3,2.3-0.9,3.4s-1.4,2-2.4,2.8c-1,0.7-2.1,1.2-3.3,1.4c-1.2,0.2-2.3,0.1-3.4-0.3c-1-0.4-1.8-1.1-2.4-2
			C362.5,186.7,362.2,185.6,362.1,184.4L362.1,184.4z"/>
		<path class="st1" d="M378.5,187.7v-4.5l4.5-0.7v4.5L378.5,187.7z M378.5,166.8l4.5-0.7l-0.4,15.1l-3.7,0.6L378.5,166.8z"/>
	</g>
</g>
<g>
	<polygon class="st2" points="423.8,142.5 0,211.7 0,69.2 423.8,0 	"/>
	<g>
		<path class="st1" d="M66.9,125.5v-43l21.9-3.7v10l-11.7,2v6.2l11-1.9v9.7l-11,1.9v7.3l11.7-2v10L66.9,125.5L66.9,125.5z"/>
		<path class="st1" d="M91.9,78.2l10.7-1.8L108,102l5.3-27.5l10.2-1.8l-10.7,44.9l-10.7,1.8L91.9,78.2L91.9,78.2z"/>
		<path class="st1" d="M127.3,115.2v-43l21.9-3.7v10l-11.7,2v6.2l11-1.9v9.7l-11,1.9v7.3l11.7-2v10L127.3,115.2L127.3,115.2z"/>
		<path class="st1" d="M154.7,110.5v-43l13.8-2.4c3.8-0.7,6.8,0,9,2c2.2,2,3.3,4.9,3.3,8.6c0,1.7-0.4,3.4-1.2,5.1s-1.9,3.3-3.3,4.8
			c3,1.2,4.5,3.9,4.5,8.3V106l-10.2,1.8V95.9c0-1.5-0.3-2.5-0.8-3.1c-0.5-0.6-1.4-0.8-2.7-0.6l-2.1,0.4v16.2L154.7,110.5
			L154.7,110.5z M164.9,82.9l2.4-0.4c1-0.2,1.8-0.6,2.4-1.3c0.6-0.7,0.9-1.7,0.9-2.8s-0.3-2-0.9-2.5s-1.4-0.7-2.4-0.5l-2.4,0.4V82.9
			z"/>
		<path class="st1" d="M182.5,62.7l10.8-1.8l4.8,14.2l4.8-15.8l10.3-1.8l-10.3,28.4v16.4l-10.2,1.8V87.5L182.5,62.7z"/>
		<path class="st1" d="M229.4,84.6v-0.8l9.4-1.6v0.6c0,1.8,0.3,3.1,0.8,3.8s1.3,1,2.4,0.8c1.8-0.3,2.7-1.4,2.7-3.3
			c0-0.4,0-0.8-0.1-1.2c-0.1-0.3-0.3-0.8-0.7-1.3s-1-1-1.7-1.4l-4.6-2.7c-3-1.7-5.1-3.4-6.2-5.4s-1.7-4.3-1.7-7
			c0-2.3,0.6-4.5,1.9-6.6c1.2-2,2.9-3.7,4.8-5c2-1.3,4.1-2.1,6.3-2.5c1.3-0.2,2.6-0.3,3.7-0.2c1.2,0.1,2.3,0.4,3.4,0.9
			s2,1.2,2.8,2.2s1.4,2.2,1.9,3.8s0.7,3.5,0.7,5.6v0.8l-9,1.5v-0.9c0-3.4-1.1-4.8-3.3-4.5c-2,0.3-3,1.4-3,3.3c0,1.5,0.9,2.8,2.6,3.8
			l5.9,3.3c2.8,1.7,4.6,3.4,5.6,5.2c1,1.8,1.5,3.8,1.5,6.2c0,2.5-0.6,4.8-1.8,6.9c-1.2,2.1-2.8,3.8-4.7,5.2s-4.1,2.2-6.5,2.6
			c-1.8,0.3-3.4,0.3-4.9,0.1c-1.5-0.2-2.8-0.8-4.1-1.6c-1.2-0.8-2.2-2.2-2.9-4S229.4,87.2,229.4,84.6L229.4,84.6z"/>
		<path class="st1" d="M259.8,92.5v-43l10.2-1.8v33.1l10.7-1.8v10L259.8,92.5L259.8,92.5z"/>
		<path class="st1" d="M285.6,88.1V45l10.2-1.8v43L285.6,88.1z"/>
		<path class="st1" d="M301.5,73.2V54.5c0-2.4,0.6-4.8,1.9-7.1s2.9-4.2,5-5.7c2.1-1.5,4.4-2.5,6.9-3s4.8-0.2,6.9,0.6
			c2.1,0.8,3.8,2.2,5,4s1.9,4,1.9,6.4v4.7l-10.2,1.8v-4.7c0-1-0.4-1.8-1-2.4c-0.7-0.6-1.5-0.8-2.5-0.6s-1.9,0.7-2.5,1.5
			s-1,1.7-1,2.7v18.7c0,1,0.3,1.8,1,2.4c0.7,0.6,1.5,0.8,2.5,0.6s1.8-0.7,2.5-1.5c0.7-0.8,1-1.7,1-2.7v-4.8l10.2-1.7v4.8
			c0,2.4-0.6,4.8-1.9,7.1s-2.9,4.2-5,5.7c-2.1,1.6-4.4,2.5-6.9,3s-4.8,0.2-6.9-0.6c-2.1-0.8-3.8-2.2-5-4S301.5,75.6,301.5,73.2z"/>
		<path class="st1" d="M334.3,79.7v-43l21.9-3.7v10l-11.7,2v6.2l11-1.9v9.7l-11,1.9V68l11.7-2v10L334.3,79.7L334.3,79.7z"/>
		<path class="st1" d="M39.1,150.3v-10l25.4-4.4v10l-7.6,1.3v33.1l-10.2,1.8V149L39.1,150.3L39.1,150.3z"/>
		<path class="st1" d="M69.5,178.2v-43l21.9-3.7v10l-11.7,2v6.1l11-1.9v9.7l-11,1.9v7.3l11.7-2v10L69.5,178.2L69.5,178.2z"/>
		<path class="st1" d="M96.9,173.5v-43l10.2-1.8v33.1l10.7-1.8v10L96.9,173.5L96.9,173.5z"/>
		<path class="st1" d="M122.7,169.1v-43l10.2-1.8v33.1l10.7-1.8v10L122.7,169.1L122.7,169.1z"/>
		<path class="st1" d="M145.9,152v-0.8l9.4-1.6v0.6c0,1.8,0.3,3.1,0.8,3.8s1.3,1,2.4,0.8c1.8-0.3,2.7-1.4,2.7-3.3
			c0-0.4,0-0.8-0.1-1.1c-0.1-0.3-0.3-0.8-0.7-1.3s-1-1-1.8-1.4L154,145c-3-1.6-5.1-3.4-6.2-5.4c-1.1-1.9-1.7-4.3-1.7-7
			c0-2.3,0.6-4.5,1.9-6.6c1.2-2.1,2.9-3.7,4.8-5c2-1.3,4.1-2.1,6.3-2.5c1.3-0.2,2.6-0.3,3.7-0.2s2.3,0.4,3.4,0.9s2,1.2,2.8,2.2
			c0.8,0.9,1.4,2.2,1.9,3.8s0.7,3.5,0.7,5.6v0.8l-9,1.5v-0.9c0-3.4-1.1-4.9-3.3-4.5c-2,0.3-3,1.4-3,3.3c0,1.5,0.9,2.8,2.6,3.8
			l5.9,3.3c2.8,1.7,4.6,3.4,5.6,5.2c1,1.8,1.5,3.8,1.5,6.1c0,2.5-0.6,4.8-1.8,6.9s-2.8,3.9-4.7,5.2c-2,1.3-4.1,2.2-6.5,2.6
			c-1.8,0.3-3.4,0.3-4.9,0.1s-2.8-0.8-4.1-1.6c-1.2-0.9-2.2-2.2-2.9-4C146.3,156.8,145.9,154.6,145.9,152L145.9,152z"/>
		<path class="st1" d="M187.7,157.9l10.1-44.8L210,111l9.8,41.4l-10.6,1.8l-1.5-7.8l-8.1,1.4l-1.5,8.3L187.7,157.9L187.7,157.9z
			 M201.3,138.6l4.7-0.8l-2.3-13.1L201.3,138.6L201.3,138.6z"/>
		<path class="st1" d="M235.9,136.6v-0.8l9.4-1.6v0.6c0,1.8,0.3,3.1,0.8,3.8s1.3,1,2.4,0.8c1.8-0.3,2.7-1.4,2.7-3.3
			c0-0.4,0-0.8-0.1-1.1c-0.1-0.3-0.3-0.8-0.7-1.3s-1-1-1.7-1.4l-4.6-2.7c-3-1.7-5.1-3.4-6.2-5.4s-1.7-4.3-1.7-7
			c0-2.3,0.6-4.5,1.9-6.6s2.9-3.7,4.8-5c2-1.3,4.1-2.1,6.3-2.5c1.3-0.2,2.6-0.3,3.7-0.2s2.3,0.4,3.4,0.9c1.1,0.5,2,1.2,2.8,2.2
			s1.4,2.2,1.9,3.8s0.7,3.5,0.7,5.6v0.8l-9,1.5v-0.9c0-3.4-1.1-4.8-3.3-4.5c-2,0.3-3,1.4-3,3.3c0,1.5,0.9,2.8,2.6,3.8l5.9,3.3
			c2.8,1.7,4.6,3.4,5.6,5.2c1,1.8,1.5,3.8,1.5,6.2c0,2.5-0.6,4.8-1.8,6.9c-1.2,2.1-2.8,3.9-4.7,5.2s-4.1,2.2-6.5,2.6
			c-1.8,0.3-3.4,0.3-4.9,0.1s-2.8-0.8-4.1-1.6c-1.2-0.9-2.2-2.2-2.9-4C236.3,141.4,235.9,139.2,235.9,136.6L235.9,136.6z"/>
		<path class="st1" d="M264.6,111.7v-10l25.5-4.4v10l-7.6,1.3v33.1l-10.2,1.8v-33.1L264.6,111.7L264.6,111.7z"/>
		<path class="st1" d="M292.9,127.8v-18.7c0-2.4,0.6-4.8,1.9-7.1s2.9-4.2,5-5.7c2.1-1.6,4.4-2.5,6.9-3s4.8-0.2,6.9,0.6
			c2.1,0.8,3.8,2.2,5,4s1.9,4,1.9,6.4V123c0,2.4-0.6,4.8-1.9,7.1s-2.9,4.2-5,5.7s-4.4,2.5-6.9,3s-4.8,0.2-6.9-0.6
			c-2.1-0.8-3.8-2.2-5-4S292.9,130.2,292.9,127.8z M303.1,126c0,1,0.3,1.8,1,2.4c0.7,0.6,1.5,0.8,2.5,0.6s1.8-0.7,2.5-1.5
			c0.7-0.8,1-1.7,1-2.7v-18.7c0-1-0.4-1.8-1-2.4c-0.7-0.6-1.5-0.8-2.5-0.6s-1.9,0.7-2.5,1.5c-0.7,0.8-1,1.7-1,2.7V126z"/>
		<path class="st1" d="M326,134.3v-43l13.8-2.4c3.8-0.7,6.8,0,9,2s3.3,4.9,3.3,8.6c0,1.7-0.4,3.4-1.2,5.1s-1.9,3.3-3.3,4.8
			c3,1.2,4.5,3.9,4.5,8.3v12.2l-10.2,1.8v-11.9c0-1.5-0.3-2.5-0.8-3.1c-0.5-0.6-1.4-0.8-2.7-0.6l-2.1,0.4v16.2L326,134.3L326,134.3z
			 M336.2,106.7l2.4-0.4c1-0.2,1.8-0.6,2.4-1.3c0.6-0.7,1-1.7,1-2.8s-0.3-2-1-2.5s-1.4-0.7-2.4-0.5l-2.4,0.4V106.7z"/>
		<path class="st1" d="M353.9,86.5l10.8-1.8l4.8,14.2l4.8-15.8l10.3-1.8l-10.3,28.4V126l-10.2,1.8v-16.4L353.9,86.5L353.9,86.5z"/>
	</g>
</g>
</svg>
