<?xml version="1.0" encoding="UTF-8"?>
<svg version="1.1" xmlns="http://www.w3.org/2000/svg" width="414" height="414">
<path d="M0 0 C136.62 0 273.24 0 414 0 C414 136.62 414 273.24 414 414 C277.38 414 140.76 414 0 414 C0 277.38 0 140.76 0 0 Z " fill="#FDFDFD" transform="translate(0,0)"/>
<path d="M0 0 C3.06303578 -0.08115993 6.12390815 -0.14057409 9.1875 -0.1875 C10.48397461 -0.22520508 10.48397461 -0.22520508 11.80664062 -0.26367188 C16.74369878 -0.32041967 19.96864885 -0.17763038 24 3 C25.09054688 3.85078125 25.09054688 3.85078125 26.203125 4.71875 C26.87859375 5.3065625 27.5540625 5.894375 28.25 6.5 C28.93578125 7.0878125 29.6215625 7.675625 30.328125 8.28125 C33.25319167 11.28832788 33.13576564 14.30506655 33.17700195 18.29418945 C33.19625481 19.91651237 33.19625481 19.91651237 33.21589661 21.5716095 C33.22328354 22.74036118 33.23067047 23.90911285 33.23828125 25.11328125 C33.246353 26.31558884 33.25442474 27.51789642 33.26274109 28.75663757 C33.27657972 31.30283161 33.28730286 33.84904417 33.29516602 36.39526367 C33.31238563 40.28665323 33.35627647 44.17719482 33.40039062 48.06835938 C33.41051697 50.54166042 33.41903325 53.01496868 33.42578125 55.48828125 C33.44328934 56.65096024 33.46079742 57.81363922 33.47883606 59.0115509 C33.46192909 65.31651034 33.29739308 69.23724284 29 74 C24.51362472 77.92350901 19.53402487 77.44807206 13.875 77.375 C12.51568359 77.39240234 12.51568359 77.39240234 11.12890625 77.41015625 C10.25878906 77.40628906 9.38867188 77.40242188 8.4921875 77.3984375 C7.70183105 77.39505371 6.91147461 77.39166992 6.09716797 77.38818359 C3.4700096 76.90189933 2.61533687 76.09532269 1 74 C-0.16035505 70.51893486 -0.12002704 67.8152767 -0.11352539 64.1418457 C-0.11367142 63.44890411 -0.11381744 62.75596252 -0.1139679 62.04202271 C-0.11327163 59.75324363 -0.1054926 57.4645461 -0.09765625 55.17578125 C-0.09579106 53.58823186 -0.09436763 52.00068189 -0.09336853 50.41313171 C-0.08955134 46.2357728 -0.07972786 42.05844869 -0.06866455 37.88110352 C-0.05843328 33.61800609 -0.05386723 29.35490304 -0.04882812 25.09179688 C-0.03810489 16.72784862 -0.02103803 8.36392864 0 0 Z " fill="#EDF3FC" transform="translate(204,64)"/>
<path d="M0 0 C6.77246094 -0.15283203 6.77246094 -0.15283203 8.8203125 1.22265625 C13.59965181 7.96238324 15.61447221 15.14179082 18 23 C18.33 15.41 18.66 7.82 19 0 C26 0 26 0 28.90698242 2.17041016 C32.462938 7.16456111 31.61032791 13.41991287 31.48828125 19.2734375 C31.48120651 20.55231842 31.47413177 21.83119934 31.46684265 23.14883423 C31.4436463 26.53281413 31.39880807 29.91507924 31.34332275 33.29858398 C31.29197788 36.75749976 31.26929641 40.21659342 31.24414062 43.67578125 C31.18907679 50.45099144 31.10545116 57.22539681 31 64 C26.97117656 64.17515098 25.3622711 64.22317689 21.8359375 62.05078125 C18.25321397 58.73798894 17.02657259 54.75068852 15.625 50.1875 C14.75875 47.485625 13.8925 44.78375 13 42 C12.67 49.26 12.34 56.52 12 64 C4.44141009 64 4.44141009 64 1.16473389 60.93862915 C-1.54766713 56.42400161 -0.71047059 50.69150148 -0.5859375 45.60546875 C-0.57744781 44.30297684 -0.56895813 43.00048492 -0.56021118 41.65852356 C-0.53737672 38.20714386 -0.47850591 34.75729586 -0.4119873 31.30651855 C-0.35044491 27.78072835 -0.32317104 24.25468892 -0.29296875 20.72851562 C-0.22875299 13.81838391 -0.12644233 6.90926562 0 0 Z " fill="#7FACF3" transform="translate(182,271)"/>
<path d="M0 0 C2.54283234 -0.10871967 5.08095088 -0.18762401 7.625 -0.25 C8.33785156 -0.28351563 9.05070312 -0.31703125 9.78515625 -0.3515625 C15.00962913 -0.44742439 17.82740364 0.59859342 22 4 C23.86328125 6.0703125 23.86328125 6.0703125 25.3125 8.125 C25.80363281 8.80820312 26.29476563 9.49140625 26.80078125 10.1953125 C30.24320812 15.37577248 29.18440476 21.3986952 29.1875 27.4375 C29.19974609 28.69111328 29.21199219 29.94472656 29.22460938 31.23632812 C29.22750977 33.03553711 29.22750977 33.03553711 29.23046875 34.87109375 C29.23457764 35.97380615 29.23868652 37.07651855 29.24291992 38.21264648 C29 41 29 41 27 44 C27.39571756 46.78855122 27.39571756 46.78855122 29 49 C29.07313567 51.53049402 29.09247527 54.03304837 29.0625 56.5625 C29.05798828 57.27341797 29.05347656 57.98433594 29.04882812 58.71679688 C29.03700864 60.47790013 29.01907263 62.23896036 29 64 C23.359375 64.2421875 23.359375 64.2421875 20.125 62.0625 C17.27581797 57.9563259 17.52506275 54.84435994 18 50 C16.35 50 14.7 50 13 50 C13 54.62 13 59.24 13 64 C4.34639855 64 4.34639855 64 1.12957764 60.93862915 C-1.51946935 56.39222211 -0.71053906 50.69429779 -0.5859375 45.60546875 C-0.57744781 44.30297684 -0.56895813 43.00048492 -0.56021118 41.65852356 C-0.53737672 38.20714386 -0.47850591 34.75729586 -0.4119873 31.30651855 C-0.35044491 27.78072835 -0.32317104 24.25468892 -0.29296875 20.72851562 C-0.22875299 13.81838391 -0.12644233 6.90926562 0 0 Z " fill="#E5EDFC" transform="translate(344,271)"/>
<path d="M0 0 C3.33489264 -0.46688497 5.89206258 -0.795314 8.73046875 1.2421875 C12.85512229 5.66218661 14.222127 10.08548292 15 16 C15.6496875 14.2675 15.6496875 14.2675 16.3125 12.5 C17.875 8.33333333 19.4375 4.16666667 21 0 C27.52307692 -0.36923077 27.52307692 -0.36923077 29.9375 1.5 C30.288125 1.995 30.63875 2.49 31 3 C31 2.01 31 1.02 31 0 C34.72857205 -0.17471382 38.45608959 -0.28098726 42.1875 -0.375 C43.77014648 -0.45041016 43.77014648 -0.45041016 45.38476562 -0.52734375 C53.01826982 -0.67182648 53.01826982 -0.67182648 55.84301758 1.26123047 C57.9853368 3.72556289 58.95941665 5.62663317 59.3125 8.875 C59.209375 9.57625 59.10625 10.2775 59 11 C56.36 11 53.72 11 51 11 C51 28.49 51 45.98 51 64 C49.02 64 47.04 64 45 64 C42.625 61.5 42.625 61.5 41 59 C42.65 59 44.3 59 46 59 C46 41.51 46 24.02 46 6 C48.31 6 50.62 6 53 6 C53 4.35 53 2.7 53 1 C46.4 1 39.8 1 33 1 C33 2.32 33 3.64 33 5 C35.31 5 37.62 5 40 5 C40 6.98 40 8.96 40 11 C36.62189888 10.39676766 34.67744188 9.09807945 32 7 C31.76925781 8.05316406 31.53851563 9.10632813 31.30078125 10.19140625 C29.33989334 18.92673384 27.03150235 27.32056438 23.953125 35.73046875 C22.4090122 41.02728193 22.60491573 44.8166576 24.875 49.8125 C26.88314171 54.50528505 28.03097643 58.99337824 29 64 C25.81858133 64.46557346 23.74656877 64.50963377 21.04296875 62.6640625 C19.3064392 61.15741976 17.630282 59.62063536 16 58 C15.67 59.98 15.34 61.96 15 64 C10.74733778 64.41692767 8.59662464 64.37745641 4.9375 62.0625 C2.85576534 58.77201618 2.72103772 58.43812044 3.4375 54.875 C4.71362802 50.41597129 6.45943459 46.12774373 8.29296875 41.87109375 C10.36578523 33.45385556 6.25165844 24.22207259 3.9375 16.125 C3.19325331 13.50353101 2.45341977 10.88089262 1.71484375 8.2578125 C1.22165649 6.52748779 1.22165649 6.52748779 0.71850586 4.76220703 C0 2 0 2 0 0 Z " fill="#EEF4FC" transform="translate(203,174)"/>
<path d="M0 0 C1.31355469 -0.03738281 2.62710938 -0.07476562 3.98046875 -0.11328125 C10.17565141 0.57507238 13.52925067 3.70743992 17.65234375 8.13671875 C22.24098461 14.30756241 21.65983514 20.72298543 21.375 28.125 C21.36017578 29.43404297 21.34535156 30.74308594 21.33007812 32.09179688 C21.12126603 42.51633913 21.12126603 42.51633913 18.8125 46.3125 C19.4725 47.3025 20.1325 48.2925 20.8125 49.3125 C20.95471065 51.91495498 21.00052932 54.40367684 20.9375 57 C20.92847656 57.70189453 20.91945313 58.40378906 20.91015625 59.12695312 C20.88663704 60.85561525 20.85076713 62.58410145 20.8125 64.3125 C15.171875 64.546875 15.171875 64.546875 11.9375 62.4375 C8.96849049 58.07130954 9.36452408 54.43933554 9.8125 49.3125 C7.8325 49.3125 5.8525 49.3125 3.8125 49.3125 C3.8125 54.2625 3.8125 59.2125 3.8125 64.3125 C-3.72666958 64.3125 -3.72666958 64.3125 -7.02053833 61.23547363 C-9.71510707 56.79523813 -8.92120487 51.18821457 -8.80859375 46.171875 C-8.80247574 44.89395081 -8.79635773 43.61602661 -8.79005432 42.29937744 C-8.76768402 38.9121859 -8.71881406 35.52743934 -8.65777588 32.14086914 C-8.61404903 29.36808194 -8.59660414 26.59541863 -8.58050442 23.82235336 C-8.54661425 18.10495007 -8.49255426 12.38759233 -8.39624023 6.67089844 C-8.38036362 5.6578363 -8.364487 4.64477417 -8.34812927 3.60101318 C-8.00897904 -1.23091913 -3.8969724 0.05540719 0 0 Z " fill="#E9F0FC" transform="translate(95.1875,270.6875)"/>
<path d="M0 0 C4.55905769 2.97215738 7.94195659 6.76426908 10.5 11.5625 C11.38918063 16.18531747 11.30287058 20.62179883 11.125 25.3125 C11.11855469 26.51777344 11.11210937 27.72304687 11.10546875 28.96484375 C10.99296651 34.92746262 10.72922652 38.48047385 7.5 43.5625 C7.20636378 46.71764098 7.20636378 46.71764098 9.47265625 49.28125 C11.89422672 53.2005548 12.00713208 55.49463538 11.9375 60.0625 C11.93621094 61.3309375 11.93492187 62.599375 11.93359375 63.90625 C11.31823501 69.09522103 9.81547344 72.37536543 5.9375 75.875 C2.56707191 78.20837329 0.10817561 79.14369905 -4.07421875 79.10546875 C-10.31358342 77.70889598 -16.48135261 72.49871344 -20.125 67.3125 C-22.07399434 63.41451132 -22.63935674 60.21791242 -22.625 55.875 C-22.62757813 55.08738281 -22.63015625 54.29976562 -22.6328125 53.48828125 C-22.5 51.5625 -22.5 51.5625 -21.5 50.5625 C-18.75 50.125 -18.75 50.125 -15.5 50.5625 C-12.14910068 53.33063422 -10.70134541 54.84978969 -10.19140625 59.1875 C-10.18788521 61.66630911 -10.28048067 64.09412711 -10.5 66.5625 C-7.09919423 66.45842083 -7.09919423 66.45842083 -3.5 65.5625 C-0.51345561 61.81574431 -0.15725015 58.95924549 -0.3125 54.25 C-0.33957031 53.18136719 -0.36664063 52.11273438 -0.39453125 51.01171875 C-0.44673828 49.79935547 -0.44673828 49.79935547 -0.5 48.5625 C-1.88058594 48.62824219 -1.88058594 48.62824219 -3.2890625 48.6953125 C-6.5 48.5625 -6.5 48.5625 -9.875 46.4375 C-12.5 43.5625 -12.5 43.5625 -12.875 40.25 C-12.75125 39.363125 -12.6275 38.47625 -12.5 37.5625 C-9.2 36.9025 -5.9 36.2425 -2.5 35.5625 C-2.17 27.3125 -1.84 19.0625 -1.5 10.5625 C-7.38214887 11.73754209 -7.38214887 11.73754209 -8.5 14.5625 C-8.72622081 16.26613822 -8.90888473 17.97578701 -9.0625 19.6875 C-9.14628906 20.59757812 -9.23007813 21.50765625 -9.31640625 22.4453125 C-9.37699219 23.14398438 -9.43757812 23.84265625 -9.5 24.5625 C-13.48727562 25.03717567 -15.31993166 24.66253797 -18.875 22.6875 C-20.83834223 20.87875164 -21.44065077 19.85249093 -21.98046875 17.21484375 C-22.14564865 11.99987844 -21.52219269 7.93946872 -18.5 3.5625 C-12.80775838 -1.70282349 -7.32674753 -3.00919988 0 0 Z " fill="#F2F6FD" transform="translate(182.5,63.4375)"/>
<path d="M0 0 C10.99496514 9.6205945 10.99496514 9.6205945 11.5078125 16.8359375 C11.58217444 20.7884933 11.35158724 24.68917618 11 28.625 C7.39374852 28.96046525 5.40006875 28.83969803 2.17578125 27.109375 C-0.68474426 23.84313761 -0.777128 21.03317522 -0.8125 16.875 C-0.83763672 16.17761719 -0.86277344 15.48023438 -0.88867188 14.76171875 C-0.94728962 13.05008051 -0.97657053 11.3374814 -1 9.625 C-4.65316671 10.87476756 -5.78065836 11.29598753 -8 14.625 C-9.34619742 21.27711132 -9.72026501 29.03453454 -8 35.625 C-5.03470604 38.80683555 -2.34921216 40.14991598 1.57421875 41.9765625 C7.03092222 44.60225106 10.47257298 48.12066186 13 53.625 C14.07099785 60.11160963 14.43102302 66.0242712 11.203125 71.890625 C8.44029728 75.3196665 6.69317707 77.26004834 2.3359375 78.19921875 C-5.27260698 78.49031082 -9.3317918 76.93390341 -14.9296875 71.75 C-15.95449219 70.698125 -15.95449219 70.698125 -17 69.625 C-17.86625 68.75875 -18.7325 67.8925 -19.625 67 C-21.90647873 61.40000674 -21.29417685 55.59025288 -21 49.625 C-14.3671875 49.3359375 -14.3671875 49.3359375 -11.0625 51.9375 C-7.84654749 56.29900422 -8.58723049 61.46996751 -9 66.625 C-3.98689635 66.42578599 -3.98689635 66.42578599 -0.0625 63.625 C1.42370462 59.42865754 2.40837236 55.96997855 1 51.625 C-1.96782511 48.70543221 -5.44258381 46.75450886 -9 44.625 C-10.66764254 43.4683272 -12.31517117 42.28191493 -13.9375 41.0625 C-14.64777344 40.54558594 -15.35804687 40.02867187 -16.08984375 39.49609375 C-20.04810389 35.61877963 -21.16442821 31.85252315 -21.3984375 26.4375 C-21.40635644 24.50000043 -21.3981252 22.56237774 -21.375 20.625 C-21.38660156 19.65304687 -21.39820313 18.68109375 -21.41015625 17.6796875 C-21.38281255 10.98959644 -20.49588332 6.51086509 -16 1.3125 C-11.35721757 -2.60484767 -5.27394489 -2.41722474 0 0 Z " fill="#E6EEFC" transform="translate(36,257.375)"/>
<path d="M0 0 C2.88123803 1.56251755 4.85289646 3.54772438 7 6 C7.50789063 6.51820313 8.01578125 7.03640625 8.5390625 7.5703125 C12.41993136 12.05824465 12.44876126 16.04486803 12.17578125 21.83984375 C12.11777344 22.55269531 12.05976562 23.26554687 12 24 C7.91212349 24.48665196 6.23847537 24.14848467 2.6875 21.9375 C-0.43997667 18.51909527 -0.82132624 16.55618095 -1 12 C-3.81694897 14.41098009 -3.98339845 14.85298581 -4.43237305 18.82885742 C-4.47380295 20.42074183 -4.49924492 22.01309417 -4.51171875 23.60546875 C-4.52966995 24.44467361 -4.54762115 25.28387848 -4.56611633 26.14851379 C-4.62028563 28.82812479 -4.65413573 31.50755702 -4.6875 34.1875 C-4.72066729 36.00458221 -4.7551564 37.8216408 -4.79101562 39.63867188 C-4.87601572 44.09231905 -4.94279502 48.54591259 -5 53 C-2.98967277 52.16671203 -2.98967277 52.16671203 -1 51 C-0.33497832 48.61490349 -0.33497832 48.61490349 -0.3125 45.9375 C-0.06797583 41.06797583 -0.06797583 41.06797583 1 40 C3.75 39.5625 3.75 39.5625 7 40 C10.24239592 42.67850098 11.68048984 44.2829802 12.44921875 48.4140625 C12.69732004 54.0776162 11.83699571 57.61486205 8 62 C4.32611922 64.44925385 2.11246093 64.65692741 -2.2265625 64.57421875 C-7.53650259 63.47483679 -11.49183852 60.01024697 -15 56 C-17.8960203 50.45362364 -18.45580202 45.9806888 -18.43359375 39.77734375 C-18.4388356 38.91363663 -18.44407745 38.0499295 -18.44947815 37.16004944 C-18.45586985 35.34393382 -18.45459852 33.52777664 -18.44604492 31.71166992 C-18.43751323 28.94179487 -18.46636962 26.17396983 -18.49804688 23.40429688 C-18.49965867 21.63281311 -18.49908177 19.86132572 -18.49609375 18.08984375 C-18.50732773 17.26781967 -18.51856171 16.44579559 -18.53013611 15.59886169 C-18.46571424 10.25758713 -17.49943852 7.26274436 -14 3 C-9.81496878 -0.95019981 -5.49823724 -1.03516195 0 0 Z " fill="#E7EFFC" transform="translate(71,271)"/>
<path d="M0 0 C3.3125 2.0625 3.3125 2.0625 6 5 C6.48597656 5.47308594 6.97195312 5.94617188 7.47265625 6.43359375 C11.80283047 11.27036217 11.4228307 16.14140486 11.17578125 22.40234375 C11.11777344 23.25957031 11.05976563 24.11679687 11 25 C5.359375 25.171875 5.359375 25.171875 2.125 23.625 C-1.06992512 19.6783278 -0.42009114 15.89172798 0 11 C-0.99 11.66 -1.98 12.32 -3 13 C-3.88528738 18.42614921 -3.86831324 23.57164174 -3 29 C-1.25040859 31.10222223 0.20058521 31.74400603 2.6875 32.83203125 C7.43569419 35.23019014 10.52304485 39.38443667 13 44 C14.11713674 49.41538846 14.18241658 54.80964392 11.1875 59.625 C8.15841105 62.91372515 5.91459636 64.36500514 1.5 64.6875 C-4.67667177 64.58758325 -8.1819997 61.40893776 -12.75 57.5546875 C-16.34032868 53.47816848 -17.28707389 49.47343845 -17.125 44.125 C-17.10695312 43.34382813 -17.08890625 42.56265625 -17.0703125 41.7578125 C-17.04710937 41.17773438 -17.02390625 40.59765625 -17 40 C-9.75471698 39.39622642 -9.75471698 39.39622642 -6.5 42 C-4.50683522 45.98632957 -4.7003959 48.58083952 -5 53 C-3.35 52.34 -1.7 51.68 0 51 C0.63510425 47.4928132 0.83673502 44.48469524 0 41 C-2.27376401 38.73064251 -4.62967375 37.24718912 -7.37890625 35.59375 C-11.71239257 32.95878365 -15.36289236 29.91132293 -17 25 C-18.13147167 8.157766 -18.13147167 8.157766 -13 2 C-8.74100029 -0.83933314 -4.99876143 -0.74981422 0 0 Z " fill="#E1EBFB" transform="translate(234,271)"/>
<path d="M0 0 C3.86678185 -0.4496258 5.47473438 -0.4113526 8.59375 2.03125 C11.40400546 5.4984483 12.16720099 8.51735688 12.8125 12.8125 C12.93302734 13.50537109 13.05355469 14.19824219 13.17773438 14.91210938 C13.46962916 16.60509913 13.73732631 18.30223105 14 20 C14.08564209 19.42967041 14.17128418 18.85934082 14.25952148 18.27172852 C14.647928 15.70132184 15.04262829 13.13192106 15.4375 10.5625 C15.63956055 9.21575195 15.63956055 9.21575195 15.84570312 7.84179688 C15.97783203 6.98779297 16.10996094 6.13378906 16.24609375 5.25390625 C16.36654053 4.46314697 16.4869873 3.6723877 16.61108398 2.85766602 C17 1 17 1 18 0 C22.01349191 -0.45435757 24.17610492 -0.59732393 27.5 1.8125 C29.09875404 5.20985234 29.10249092 6.22483519 28.7109375 9.82421875 C28.60555664 10.80350342 28.50017578 11.78278809 28.39160156 12.79174805 C27.69046374 18.53592018 26.92895796 24.26932993 26.125 30 C25.94936523 31.26352295 25.77373047 32.5270459 25.59277344 33.82885742 C24.18043351 43.90555675 22.65045717 53.95971886 21 64 C18.36 64 15.72 64 13 64 C12.731875 63.360625 12.46375 62.72125 12.1875 62.0625 C11.11332248 59.66868314 11.11332248 59.66868314 8 59 C6.07197689 48.59181021 4.33116064 38.15135932 2.65658569 27.69970703 C2.42919412 26.28731797 2.19911879 24.87535809 1.96621704 23.46386719 C0.67470321 15.61810322 -0.39516344 7.97328274 0 0 Z " fill="#E9F0FC" transform="translate(281,271)"/>
<path d="M0 0 C4.24398688 -0.41607714 6.26145789 -0.60286919 9.63671875 2.15234375 C16.0342476 9.86110165 15.67474424 23.67846736 16.86889648 33.3684082 C17.76554556 40.56234289 18.97249194 47.6267946 20.44921875 54.72265625 C20.98085995 57.88610993 21.10229313 60.79968622 21 64 C18.07084783 64.41845031 15.8957894 64.53747364 13.30078125 62.98046875 C9.90683449 59.99741143 8.63101633 57.63638499 8.125 53.125 C8.05698274 51.7510514 8.00611386 50.37561758 8 49 C7.01 49 6.02 49 5 49 C4.93941406 49.83144531 4.87882812 50.66289062 4.81640625 51.51953125 C4.73261719 52.60621094 4.64882813 53.69289063 4.5625 54.8125 C4.48128906 55.89144531 4.40007812 56.97039062 4.31640625 58.08203125 C4 61 4 61 3 64 C-0.95450908 64.47077489 -2.76642343 64.13427156 -6.26171875 62.125 C-8.23829514 60.36930972 -8.93453811 59.49943101 -9.28125 56.85424805 C-9.08400749 54.08545634 -8.67369981 51.42062783 -8.1875 48.6875 C-8.03168457 47.66309814 -7.87586914 46.63869629 -7.71533203 45.58325195 C-7.36575727 43.31235922 -7.00095778 41.04377453 -6.62353516 38.77734375 C-5.9436879 34.65886421 -5.31740489 30.53432062 -4.69921875 26.40625 C-3.84552041 20.75115238 -2.98264887 15.09767147 -2.0859375 9.44921875 C-1.9007959 8.27705811 -1.7156543 7.10489746 -1.52490234 5.8972168 C-1 3 -1 3 0 0 Z " fill="#F0F5FD" transform="translate(258,271)"/>
<path d="M0 0 C3.74959217 -0.14528105 7.49846105 -0.23406281 11.25 -0.3125 C12.84521484 -0.3753418 12.84521484 -0.3753418 14.47265625 -0.43945312 C22.26200927 -0.56192723 22.26200927 -0.56192723 25.734375 2.08203125 C27 5 27 5 27 12 C22.38 12 17.76 12 13 12 C13 20.25 13 28.5 13 37 C14.98 37 16.96 37 19 37 C21.875 39.625 21.875 39.625 24 43 C24 44.98 24 46.96 24 49 C20.04 49 16.08 49 12 49 C12 50.32 12 51.64 12 53 C12.74765625 52.94199219 13.4953125 52.88398438 14.265625 52.82421875 C22.31152433 52.45562389 22.31152433 52.45562389 25.6875 55.125 C27.15998903 58.35045215 27.10179798 60.50008855 27 64 C23.62546102 64.14611313 20.25174234 64.23433467 16.875 64.3125 C15.92367187 64.35439453 14.97234375 64.39628906 13.9921875 64.43945312 C13.0640625 64.45556641 12.1359375 64.47167969 11.1796875 64.48828125 C9.90714111 64.52755737 9.90714111 64.52755737 8.60888672 64.56762695 C5.65279979 63.92445812 3.44723069 62.97614607 1.193573 60.92146301 C-1.58154871 56.45395769 -0.71005896 50.67468994 -0.5859375 45.60546875 C-0.57744781 44.30297684 -0.56895813 43.00048492 -0.56021118 41.65852356 C-0.53737672 38.20714386 -0.47850591 34.75729586 -0.4119873 31.30651855 C-0.35044491 27.78072835 -0.32317104 24.25468892 -0.29296875 20.72851562 C-0.22875299 13.81838391 -0.12644233 6.90926562 0 0 Z " fill="#ECF2FC" transform="translate(176,174)"/>
<path d="M0 0 C3.56206722 -0.14567407 7.12336551 -0.23419196 10.6875 -0.3125 C12.19860352 -0.3753418 12.19860352 -0.3753418 13.74023438 -0.43945312 C18.50996864 -0.51816161 21.16411663 -0.55895246 25.20703125 2.14453125 C27 5 27 5 27 11 C22.05 11 17.1 11 12 11 C12 19.91 12 28.82 12 38 C14.64 38 17.28 38 20 38 C22.5 40.125 22.5 40.125 24 43 C24 44.98 24 46.96 24 49 C20.04 49 16.08 49 12 49 C12 50.32 12 51.64 12 53 C12.74765625 52.94199219 13.4953125 52.88398438 14.265625 52.82421875 C22.31152433 52.45562389 22.31152433 52.45562389 25.6875 55.125 C27.15998903 58.35045215 27.10179798 60.50008855 27 64 C23.43793278 64.14567407 19.87663449 64.23419196 16.3125 64.3125 C15.30509766 64.35439453 14.29769531 64.39628906 13.25976562 64.43945312 C11.79506836 64.46362305 11.79506836 64.46362305 10.30078125 64.48828125 C9.40528564 64.51446533 8.50979004 64.54064941 7.5871582 64.56762695 C3.50776533 63.67260115 2.33120512 62.50508905 0 59 C-0.69625352 54.53176878 -0.58035148 50.11773648 -0.48828125 45.60546875 C-0.48120651 44.30297684 -0.47413177 43.00048492 -0.46684265 41.65852356 C-0.44781513 38.20736116 -0.39875439 34.75726261 -0.34332275 31.30651855 C-0.29203649 27.78066396 -0.26930883 24.25463627 -0.24414062 20.72851562 C-0.19062898 13.81857531 -0.10536972 6.90933883 0 0 Z " fill="#99BCF5" transform="translate(121,271)"/>
<path d="M0 0 C7.26 0 14.52 0 22 0 C22.33 0.99 22.66 1.98 23 3 C25.00016466 4.20882096 25.00016466 4.20882096 27 5 C27 6.98 27 8.96 27 11 C22.05 11 17.1 11 12 11 C12 19.91 12 28.82 12 38 C14.31 38 16.62 38 19 38 C21.9375 40.125 21.9375 40.125 24 43 C24 44.98 24 46.96 24 49 C20.04 49 16.08 49 12 49 C12 50.32 12 51.64 12 53 C12.66386719 52.94199219 13.32773437 52.88398438 14.01171875 52.82421875 C21.20127796 52.45686901 21.20127796 52.45686901 25.125 55.125 C27.30194498 58.46298231 27.16155557 60.11189598 27 64 C23.43793278 64.14567407 19.87663449 64.23419196 16.3125 64.3125 C15.30509766 64.35439453 14.29769531 64.39628906 13.25976562 64.43945312 C11.79506836 64.46362305 11.79506836 64.46362305 10.30078125 64.48828125 C9.40528564 64.51446533 8.50979004 64.54064941 7.5871582 64.56762695 C3.50776533 63.67260115 2.33120512 62.50508905 0 59 C-0.69625352 54.53176878 -0.58035148 50.11773648 -0.48828125 45.60546875 C-0.48120651 44.30297684 -0.47413177 43.00048492 -0.46684265 41.65852356 C-0.44781513 38.20736116 -0.39875439 34.75726261 -0.34332275 31.30651855 C-0.29203649 27.78066396 -0.26930883 24.25463627 -0.24414062 20.72851562 C-0.19062863 13.81853116 -0.10272947 6.90942629 0 0 Z " fill="#A0C1F6" transform="translate(314,271)"/>
<path d="M0 0 C3.72857205 -0.17471382 7.45608959 -0.28098726 11.1875 -0.375 C12.77014648 -0.45041016 12.77014648 -0.45041016 14.38476562 -0.52734375 C22.01826982 -0.67182648 22.01826982 -0.67182648 24.84301758 1.26123047 C26.9853368 3.72556289 27.95941665 5.62663317 28.3125 8.875 C28.209375 9.57625 28.10625 10.2775 28 11 C25.36 11 22.72 11 20 11 C20 28.49 20 45.98 20 64 C18.02 64 16.04 64 14 64 C11.625 61.5 11.625 61.5 10 59 C11.65 59 13.3 59 15 59 C15 41.51 15 24.02 15 6 C17.31 6 19.62 6 22 6 C22 4.35 22 2.7 22 1 C15.4 1 8.8 1 2 1 C2 2.32 2 3.64 2 5 C4.31 5 6.62 5 9 5 C9 6.98 9 8.96 9 11 C5.62189888 10.39676766 3.67744188 9.09807945 1 7 C0.76925781 8.05316406 0.53851563 9.10632813 0.30078125 10.19140625 C-1.66010666 18.92673384 -3.96849765 27.32056438 -7.046875 35.73046875 C-8.5909878 41.02728193 -8.39508427 44.8166576 -6.125 49.8125 C-4.11685829 54.50528505 -2.96902357 58.99337824 -2 64 C-4.6875 64.375 -4.6875 64.375 -8 64 C-10.06398076 62.176017 -11.39041053 60.27236161 -13 58 C-11.35 58 -9.7 58 -8 58 C-8.27263672 57.18378174 -8.27263672 57.18378174 -8.55078125 56.35107422 C-9.37641438 53.86200203 -10.18828587 51.36864431 -11 48.875 C-11.28617188 48.0190625 -11.57234375 47.163125 -11.8671875 46.28125 C-14.60658162 37.80217295 -14.05241538 32.27706707 -11.25 23.9375 C-10.70010711 22.25273915 -10.15063 20.56784253 -9.6015625 18.8828125 C-9.32989258 18.05813477 -9.05822266 17.23345703 -8.77832031 16.38378906 C-7.68612222 13.03867545 -6.65310201 9.6778699 -5.625 6.3125 C-5.30789062 5.27738281 -4.99078125 4.24226562 -4.6640625 3.17578125 C-4.44492188 2.45777344 -4.22578125 1.73976562 -4 1 C-2.68 1.66 -1.36 2.32 0 3 C0 2.01 0 1.02 0 0 Z " fill="#4083ED" transform="translate(234,174)"/>
<path d="M0 0 C1.65 0 3.3 0 5 0 C6.10697816 2.81142124 7.21063123 5.62407652 8.3125 8.4375 C8.62123047 9.22060547 8.92996094 10.00371094 9.24804688 10.81054688 C13.26752594 21.09195122 16.13317298 31.24939869 19 42 C19 28.14 19 14.28 19 0 C20.65 0 22.3 0 24 0 C24 18.81 24 37.62 24 57 C22.35 57 20.7 57 19 57 C17.62521707 53.21577985 16.25629142 49.4294933 14.89233398 45.64135742 C14.42934915 44.35792562 13.96487666 43.07502933 13.4987793 41.79272461 C12.8219139 39.92970542 12.15117393 38.06446453 11.48046875 36.19921875 C10.87561646 34.52605591 10.87561646 34.52605591 10.25854492 32.8190918 C8.64992922 27.93769985 7.3523219 22.95851362 6 18 C5.67 30.87 5.34 43.74 5 57 C3.35 57 1.7 57 0 57 C0 38.19 0 19.38 0 0 Z " fill="#F7F9FD" transform="translate(183,272)"/>
<path d="M0 0 C3.56187657 -0.17479953 7.12264773 -0.28101143 10.6875 -0.375 C12.19860352 -0.45041016 12.19860352 -0.45041016 13.74023438 -0.52734375 C20.96995838 -0.6705066 20.96995838 -0.6705066 23.82275391 1.18652344 C26.91753306 4.59460122 27 6.31606711 27 11 C21.72 11 16.44 11 11 11 C11 19.91 11 28.82 11 38 C9.35 38 7.7 38 6 38 C6 27.11 6 16.22 6 5 C10.95 5 15.9 5 21 5 C21 3.68 21 2.36 21 1 C14.4 1 7.8 1 1 1 C1 19.81 1 38.62 1 58 C7.6 58 14.2 58 21 58 C21 56.68 21 55.36 21 54 C16.05 54 11.1 54 6 54 C6 50.7 6 47.4 6 44 C10.29 44 14.58 44 19 44 C19.33 42.68 19.66 41.36 20 40 C22 41.125 22 41.125 24 43 C24 44.98 24 46.96 24 49 C20.04 49 16.08 49 12 49 C12 50.32 12 51.64 12 53 C12.66386719 52.94199219 13.32773438 52.88398438 14.01171875 52.82421875 C21.20127796 52.45686901 21.20127796 52.45686901 25.125 55.125 C27.30194498 58.46298231 27.16155557 60.11189598 27 64 C23.43793278 64.14567407 19.87663449 64.23419196 16.3125 64.3125 C15.30509766 64.35439453 14.29769531 64.39628906 13.25976562 64.43945312 C11.79506836 64.46362305 11.79506836 64.46362305 10.30078125 64.48828125 C9.40528564 64.51446533 8.50979004 64.54064941 7.5871582 64.56762695 C3.50776533 63.67260115 2.33120512 62.50508905 0 59 C-0.69625352 54.53176878 -0.58035148 50.11773648 -0.48828125 45.60546875 C-0.48120651 44.30297684 -0.47413177 43.00048492 -0.46684265 41.65852356 C-0.44781513 38.20736116 -0.39875439 34.75726261 -0.34332275 31.30651855 C-0.29203649 27.78066396 -0.26930883 24.25463627 -0.24414062 20.72851562 C-0.19062898 13.81857531 -0.10536972 6.90933883 0 0 Z " fill="#A3C3F6" transform="translate(152,271)"/>
<path d="M0 0 C4.22797927 2.99481865 4.22797927 2.99481865 6 5 C6.375 8.3125 6.375 8.3125 6 11 C2.7 11 -0.6 11 -4 11 C-4 33.11 -4 55.22 -4 78 C-11.60339878 78 -11.60339878 78 -14.83526611 74.97891235 C-17.61238742 70.26051296 -16.71198108 64.25705901 -16.5859375 58.94921875 C-16.57473808 57.56632837 -16.56620141 56.18341409 -16.56021118 54.80049133 C-16.53737008 51.17159575 -16.47849241 47.54415551 -16.4119873 43.91583252 C-16.35045994 40.20906257 -16.32317417 36.50205596 -16.29296875 32.79492188 C-16.22874044 25.5292865 -16.12642328 18.26484764 -16 11 C-16.77730469 10.88785156 -17.55460938 10.77570313 -18.35546875 10.66015625 C-21.91688827 9.77111652 -22.95939 7.94754777 -25 5 C-21.7 5 -18.4 5 -15 5 C-15 27.11 -15 49.22 -15 72 C-13.35 72 -11.7 72 -10 72 C-10 49.89 -10 27.78 -10 5 C-6.7 5 -3.4 5 0 5 C0 3.35 0 1.7 0 0 Z " fill="#4586ED" transform="translate(168,160)"/>
<path d="M0 0 C3.3 0 6.6 0 10 0 C10.07404948 7.35064476 10.12855489 14.70107335 10.16479492 22.05200195 C10.17989944 24.55366802 10.20038429 27.05530753 10.22631836 29.55688477 C10.26262775 33.14866684 10.27970975 36.74009941 10.29296875 40.33203125 C10.30845261 41.45398392 10.32393646 42.57593658 10.33988953 43.73188782 C10.34022942 45.29316658 10.34022942 45.29316658 10.34057617 46.88598633 C10.34723801 47.80309891 10.35389984 48.72021149 10.36076355 49.66511536 C10 52 10 52 8.91621399 53.75712585 C7 55 7 55 0 56 C0 37.52 0 19.04 0 0 Z " fill="#FDFDFE" transform="translate(215,74)"/>
<path d="M0 0 C3.74959217 -0.14528105 7.49846105 -0.23406281 11.25 -0.3125 C12.84521484 -0.3753418 12.84521484 -0.3753418 14.47265625 -0.43945312 C22.28309448 -0.56225876 22.28309448 -0.56225876 25.734375 2.14453125 C27 5 27 5 27 11 C22.05 11 17.1 11 12 11 C12 19.91 12 28.82 12 38 C10.35 38 8.7 38 7 38 C7 27.44 7 16.88 7 6 C11.95 6 16.9 6 22 6 C22 4.35 22 2.7 22 1 C15.4 1 8.8 1 2 1 C2 19.81 2 38.62 2 58 C8.6 58 15.2 58 22 58 C22.33 56.68 22.66 55.36 23 54 C25 55.625 25 55.625 27 58 C27.125 61.1484375 27.125 61.1484375 27 64 C23.62546102 64.14611313 20.25174234 64.23433467 16.875 64.3125 C15.92367187 64.35439453 14.97234375 64.39628906 13.9921875 64.43945312 C13.0640625 64.45556641 12.1359375 64.47167969 11.1796875 64.48828125 C9.90714111 64.52755737 9.90714111 64.52755737 8.60888672 64.56762695 C5.65279979 63.92445812 3.44723069 62.97614607 1.193573 60.92146301 C-1.58154871 56.45395769 -0.71005896 50.67468994 -0.5859375 45.60546875 C-0.57744781 44.30297684 -0.56895813 43.00048492 -0.56021118 41.65852356 C-0.53737672 38.20714386 -0.47850591 34.75729586 -0.4119873 31.30651855 C-0.35044491 27.78072835 -0.32317104 24.25468892 -0.29296875 20.72851562 C-0.22875299 13.81838391 -0.12644233 6.90926562 0 0 Z " fill="#B8D1F7" transform="translate(176,174)"/>
<path d="M0 0 C5.875 4.625 5.875 4.625 7 8 C7.10769732 9.76242835 7.15875039 11.52856795 7.17700195 13.29418945 C7.19625481 14.91651237 7.19625481 14.91651237 7.21589661 16.5716095 C7.22328354 17.74036118 7.23067047 18.90911285 7.23828125 20.11328125 C7.246353 21.31558884 7.25442474 22.51789642 7.26274109 23.75663757 C7.27657972 26.30283161 7.28730286 28.84904417 7.29516602 31.39526367 C7.31238563 35.28665323 7.35627647 39.17719482 7.40039062 43.06835938 C7.41051697 45.54166042 7.41903325 48.01496868 7.42578125 50.48828125 C7.44328934 51.65096024 7.46079742 52.81363922 7.47883606 54.0115509 C7.46192909 60.31651034 7.29739308 64.23724284 3 69 C-1.48637528 72.92350901 -6.46597513 72.44807206 -12.125 72.375 C-13.48431641 72.39240234 -13.48431641 72.39240234 -14.87109375 72.41015625 C-15.74121094 72.40628906 -16.61132812 72.40242188 -17.5078125 72.3984375 C-18.29816895 72.39505371 -19.08852539 72.39166992 -19.90283203 72.38818359 C-22.50283512 71.90692575 -23.41394105 71.08150387 -25 69 C-25 68.34 -25 67.68 -25 67 C-23.49759766 66.94392578 -23.49759766 66.94392578 -21.96484375 66.88671875 C-12.03732857 66.635994 -12.03732857 66.635994 -3 63 C-0.26467296 59.2860311 0.370479 56.68328665 0.34057617 52.1081543 C0.34034958 50.94732834 0.34012299 49.78650238 0.33988953 48.59049988 C0.32440567 47.34762711 0.30892181 46.10475433 0.29296875 44.82421875 C0.28660149 42.90377495 0.28660149 42.90377495 0.28010559 40.9445343 C0.26869137 37.55286867 0.23925455 34.16159293 0.20599365 30.77008057 C0.17521835 27.30445631 0.16158439 23.83876861 0.14648438 20.37304688 C0.11342192 13.58186271 0.06322669 6.7909667 0 0 Z " fill="#4888EE" transform="translate(230,69)"/>
<path d="M0 0 C6.6 0 13.2 0 20 0 C20 1.32 20 2.64 20 4 C15.05 4 10.1 4 5 4 C5 14.89 5 25.78 5 37 C6.65 37 8.3 37 10 37 C10 28.09 10 19.18 10 10 C10.33 10 10.66 10 11 10 C11 18.91 11 27.82 11 37 C13.31 37 15.62 37 18 37 C19 39 19 39 18 43 C13.71 43 9.42 43 5 43 C5 46.3 5 49.6 5 53 C9.95 53 14.9 53 20 53 C20 54.32 20 55.64 20 57 C13.4 57 6.8 57 0 57 C0 38.19 0 19.38 0 0 Z " fill="#F0F5FD" transform="translate(153,272)"/>
<path d="M0 0 C2.92469861 1.99584481 4.72643493 3.30374604 6.0390625 6.64453125 C6.23242188 7.68996094 6.42578125 8.73539062 6.625 9.8125 C6.96917969 11.66681641 6.96917969 11.66681641 7.3203125 13.55859375 C8.31676891 19.80738634 9.09496103 26.08858187 9.86889648 32.36816406 C10.76548307 39.5621899 11.9724755 46.62671559 13.44921875 53.72265625 C13.98085995 56.88610993 14.10229313 59.79968622 14 63 C11.07084783 63.41845031 8.8957894 63.53747364 6.30078125 61.98046875 C2.90683449 58.99741143 1.63101633 56.63638499 1.125 52.125 C1.05698274 50.7510514 1.00611386 49.37561758 1 48 C0.01 48 -0.98 48 -2 48 C-2.06058594 48.83144531 -2.12117188 49.66289062 -2.18359375 50.51953125 C-2.26738281 51.60621094 -2.35117187 52.69289063 -2.4375 53.8125 C-2.51871094 54.89144531 -2.59992188 55.97039062 -2.68359375 57.08203125 C-3 60 -3 60 -4 63 C-6.75 63.3125 -6.75 63.3125 -10 63 C-12.375 60.5 -12.375 60.5 -14 58 C-12.02 57.505 -12.02 57.505 -10 57 C-9.34 52.38 -8.68 47.76 -8 43 C-4.7 43 -1.4 43 2 43 C2.66 47.62 3.32 52.24 4 57 C5.32 57 6.64 57 8 57 C7.18343066 51.52291684 6.36550266 46.04603882 5.54638672 40.56933594 C5.26868143 38.71131702 4.99132919 36.8532453 4.71435547 34.99511719 C4.31313405 32.30389194 3.91079576 29.61283697 3.5078125 26.921875 C3.31242889 25.61506775 3.31242889 25.61506775 3.11309814 24.28186035 C2.26295907 18.63463289 1.34626819 13.00346524 0.32763672 7.38378906 C-0.01462575 4.89358734 -0.05774307 2.51042208 0 0 Z " fill="#4083ED" transform="translate(265,272)"/>
<path d="M0 0 C6.6 0 13.2 0 20 0 C20 1.65 20 3.3 20 5 C17.69 5 15.38 5 13 5 C13 22.49 13 39.98 13 58 C10.03 58.495 10.03 58.495 7 59 C5.4112648 57.4112648 5.8727101 55.77742941 5.87060547 53.57543945 C5.86745331 52.63388504 5.86430115 51.69233063 5.86105347 50.72224426 C5.8630777 49.69628647 5.86510193 48.67032867 5.8671875 47.61328125 C5.86623077 46.56351608 5.86527405 45.51375092 5.86428833 44.43217468 C5.86360606 42.20356181 5.86546358 39.97494697 5.86962891 37.74633789 C5.87494992 34.34451783 5.8696993 30.94283141 5.86328125 27.54101562 C5.86394255 25.37760388 5.86522477 23.21419221 5.8671875 21.05078125 C5.86516327 20.03494461 5.86313904 19.01910797 5.86105347 17.9724884 C5.87676069 13.20218467 6.00144378 8.68984274 7 4 C4.69 4 2.38 4 0 4 C0 2.68 0 1.36 0 0 Z " fill="#FCFCFE" transform="translate(236,175)"/>
<path d="M0 0 C4.875 3.75 4.875 3.75 6 6 C6.21102648 10.1049084 6.18579648 14.21137973 6.18530273 18.32128906 C6.18748421 20.36023992 6.20563067 22.39864525 6.22460938 24.4375 C6.22750977 26.36722656 6.22750977 26.36722656 6.23046875 28.3359375 C6.23457764 29.51720215 6.23868652 30.6984668 6.24291992 31.91552734 C6.01075286 34.86346572 5.54396561 36.51940526 4 39 C4.66 39.99 5.32 40.98 6 42 C6.14221065 44.60245498 6.18802932 47.09117684 6.125 49.6875 C6.11597656 50.38939453 6.10695313 51.09128906 6.09765625 51.81445312 C6.07413704 53.54311525 6.03826713 55.27160145 6 57 C0.359375 57.234375 0.359375 57.234375 -2.875 55.125 C-5.84400951 50.75880954 -5.44797592 47.12683554 -5 42 C-6.98 42 -8.96 42 -11 42 C-11 46.95 -11 51.9 -11 57 C-12.98 57 -14.96 57 -17 57 C-19.375 54.5 -19.375 54.5 -21 52 C-19.35 52 -17.7 52 -16 52 C-16 47.05 -16 42.1 -16 37 C-13.586875 36.938125 -13.586875 36.938125 -11.125 36.875 C-9.76761719 36.84019531 -9.76761719 36.84019531 -8.3828125 36.8046875 C-6 37 -6 37 -4 39 C-3.8046875 41.8203125 -3.8046875 41.8203125 -3.875 45.125 C-3.89304687 46.22070312 -3.91109375 47.31640625 -3.9296875 48.4453125 C-3.95289062 49.28835938 -3.97609375 50.13140625 -4 51 C-2.35 51 -0.7 51 1 51 C0.9127395 48.74928094 0.80455885 46.49936612 0.6875 44.25 C0.62949219 42.99703125 0.57148437 41.7440625 0.51171875 40.453125 C-0.00455901 36.96923537 -0.6253256 35.52110204 -3 33 C-2.26656372 31.96709839 -2.26656372 31.96709839 -1.51831055 30.91333008 C0.28479149 27.45354288 0.34615094 25.26901882 0.29296875 21.38671875 C0.28330078 20.13955078 0.27363281 18.89238281 0.26367188 17.60742188 C0.23853516 16.31384766 0.21339844 15.02027344 0.1875 13.6875 C0.17396484 12.37458984 0.16042969 11.06167969 0.14648438 9.70898438 C0.11117443 6.47223923 0.0618528 3.23632895 0 0 Z " fill="#4184ED" transform="translate(110,278)"/>
<path d="M0 0 C6.6 0 13.2 0 20 0 C20 1.32 20 2.64 20 4 C15.05 4 10.1 4 5 4 C5 15.22 5 26.44 5 38 C8.96 38 12.92 38 17 38 C17 39.32 17 40.64 17 42 C13.04 42 9.08 42 5 42 C5 45.63 5 49.26 5 53 C9.95 53 14.9 53 20 53 C20 54.32 20 55.64 20 57 C13.4 57 6.8 57 0 57 C0 38.19 0 19.38 0 0 Z " fill="#FCFDFE" transform="translate(315,272)"/>
<path d="M0 0 C6.6 0 13.2 0 20 0 C20 1.32 20 2.64 20 4 C15.05 4 10.1 4 5 4 C5 15.22 5 26.44 5 38 C8.96 38 12.92 38 17 38 C17 39.32 17 40.64 17 42 C13.04 42 9.08 42 5 42 C5 45.63 5 49.26 5 53 C9.95 53 14.9 53 20 53 C20 54.32 20 55.64 20 57 C13.4 57 6.8 57 0 57 C0 38.19 0 19.38 0 0 Z " fill="#FAFBFD" transform="translate(122,272)"/>
<path d="M0 0 C2.90802461 2.21928194 4.95312762 3.92969143 7 7 C7.44552222 11.44413366 7.3241008 15.91101213 7.3125 20.375 C7.32861328 21.60734375 7.34472656 22.8396875 7.36132812 24.109375 C7.36197266 25.29789063 7.36261719 26.48640625 7.36328125 27.7109375 C7.36626221 28.79681152 7.36924316 29.88268555 7.37231445 31.00146484 C6.95390516 34.37123725 5.81736028 36.17740012 4 39 C3.70636378 42.15514098 3.70636378 42.15514098 5.97265625 44.71875 C8.39422672 48.6380548 8.50713208 50.93213538 8.4375 55.5 C8.43621094 56.7684375 8.43492187 58.036875 8.43359375 59.34375 C7.81823501 64.53272103 6.31547344 67.81286543 2.4375 71.3125 C-1.04780914 73.72540633 -3.44974767 74.44148398 -7.7578125 74.43359375 C-11.9359507 73.62562626 -14.89557541 70.77416665 -18 68 C-15.50900109 66.75450054 -13.95792263 67.00039329 -11.1875 67.125 C-6.91920775 67.14960111 -4.27935419 66.98123108 -1 64 C2.87073637 57.52359719 2.83071021 51.36271578 2 44 C0.93561146 41.52103448 -0.24035629 40.0895769 -2 38 C-2 34 -2 34 -0.52050781 31.61352539 C1.27146288 28.53339593 1.3613165 26.7199196 1.328125 23.18359375 C1.32296875 22.08982422 1.3178125 20.99605469 1.3125 19.86914062 C1.291875 18.73669922 1.27125 17.60425781 1.25 16.4375 C1.24484375 15.30119141 1.2396875 14.16488281 1.234375 12.99414062 C1.23573918 6.41899637 1.23573918 6.41899637 0 0 Z " fill="#4083ED" transform="translate(186,68)"/>
<path d="M0 0 C2.5625 1.3125 2.5625 1.3125 5 4 C5.08520508 6.17651367 5.08520508 6.17651367 4.76953125 8.79296875 C4.65569092 9.77676514 4.54185059 10.76056152 4.42456055 11.77416992 C4.28445557 12.83869385 4.14435059 13.90321777 4 15 C3.86182861 16.09223877 3.72365723 17.18447754 3.58129883 18.30981445 C3.11634604 21.87630856 2.62468465 25.43821191 2.125 29 C1.86154785 30.89528442 1.86154785 30.89528442 1.59277344 32.82885742 C0.18043351 42.90555675 -1.34954283 52.95971886 -3 63 C-9.0546875 63.24414062 -9.0546875 63.24414062 -11 63 C-13 60.5 -13 60.5 -14 58 C-12.35 58 -10.7 58 -9 58 C-8.89977539 57.18136475 -8.79955078 56.36272949 -8.69628906 55.51928711 C-3.52906351 13.62199281 -3.52906351 13.62199281 0 0 Z " fill="#4183ED" transform="translate(305,272)"/>
<path d="M0 0 C4.22797927 3.08290155 4.22797927 3.08290155 6 5 C6.375 7.8125 6.375 7.8125 6 10 C3.36 10 0.72 10 -2 10 C-2 27.49 -2 44.98 -2 63 C-3.98 63 -5.96 63 -8 63 C-10.375 60.5 -10.375 60.5 -12 58 C-10.35 58 -8.7 58 -7 58 C-7 40.51 -7 23.02 -7 5 C-4.69 5 -2.38 5 0 5 C0 3.35 0 1.7 0 0 Z " fill="#4083ED" transform="translate(256,175)"/>
<path d="M0 0 C4.29 0 8.58 0 13 0 C13.99 0.99 14.98 1.98 16 3 C16 3.66 16 4.32 16 5 C12.37 5 8.74 5 5 5 C5 23.81 5 42.62 5 62 C3.35 62 1.7 62 0 62 C0 41.54 0 21.08 0 0 Z " fill="#3D80ED" transform="translate(209,68)"/>
<path d="M0 0 C5.76332277 4.24665888 5.76332277 4.24665888 7 8 C7.25878906 10.88500977 7.25878906 10.88500977 7.265625 14.19140625 C7.26820313 15.38314453 7.27078125 16.57488281 7.2734375 17.80273438 C7.26570313 19.04345703 7.25796875 20.28417969 7.25 21.5625 C7.25773437 22.80708984 7.26546875 24.05167969 7.2734375 25.33398438 C7.27085937 26.52443359 7.26828125 27.71488281 7.265625 28.94140625 C7.26336914 30.03138916 7.26111328 31.12137207 7.25878906 32.24438477 C7 35 7 35 5 38 C5.39571756 40.78855122 5.39571756 40.78855122 7 43 C7.07313567 45.53049402 7.09247527 48.03304837 7.0625 50.5625 C7.05798828 51.27341797 7.05347656 51.98433594 7.04882812 52.71679688 C7.03700864 54.47790013 7.01907263 56.23896036 7 58 C4.1484375 58.15625 4.1484375 58.15625 1 58 C-1.375 55.5 -1.375 55.5 -3 53 C-1.35 53 0.3 53 2 53 C1.91249445 50.77011716 1.80430939 48.54103995 1.6875 46.3125 C1.62949219 45.07113281 1.57148438 43.82976562 1.51171875 42.55078125 C0.99089024 38.93678801 0.09845383 36.94233607 -2 34 C-1.34 33.01 -0.68 32.02 0 31 C0.2774565 27.6997236 0.2774565 27.6997236 0.1953125 23.92578125 C0.19106766 22.90003242 0.19106766 22.90003242 0.18673706 21.8535614 C0.17555684 19.67302835 0.15045691 17.49290855 0.125 15.3125 C0.11496738 13.83268823 0.10584202 12.35287001 0.09765625 10.87304688 C0.07562481 7.248564 0.04111002 3.62432234 0 0 Z " fill="#4989EE" transform="translate(366,277)"/>
<path d="M0 0 C5 4 5 4 5.60127258 6.68292236 C5.584618 8.21514435 5.584618 8.21514435 5.56762695 9.77832031 C5.5672493 10.9392218 5.56687164 12.10012329 5.56648254 13.29620361 C5.54067612 14.54423767 5.51486969 15.79227173 5.48828125 17.078125 C5.48120651 18.35983582 5.47413177 19.64154663 5.46684265 20.96209717 C5.44779234 24.36231616 5.39871189 27.76145958 5.34332275 31.16125488 C5.29208578 34.63339691 5.26931933 38.10571353 5.24414062 41.578125 C5.19058875 48.38585726 5.10530171 55.19287693 5 62 C2.1484375 62.15625 2.1484375 62.15625 -1 62 C-3.375 59.5 -3.375 59.5 -5 57 C-3.35 57 -1.7 57 0 57 C0 38.19 0 19.38 0 0 Z " fill="#4486ED" transform="translate(208,273)"/>
<path d="M0 0 C3.24604835 -0.45444677 5.82707443 -0.73780802 8.6953125 1.06640625 C13.96908318 6.35342761 15.46694796 13.7454949 16 21 C15.0625 24.43359375 15.0625 24.43359375 14 27 C12.50710152 24.21351982 11.51984467 21.58543298 10.74609375 18.5234375 C10.53146484 17.688125 10.31683594 16.8528125 10.09570312 15.9921875 C9.87849609 15.12851563 9.66128906 14.26484375 9.4375 13.375 C9.00066837 11.65314473 8.56195595 9.93176519 8.12109375 8.2109375 C7.9295874 7.45087402 7.73808105 6.69081055 7.54077148 5.90771484 C7.04615821 3.93703915 7.04615821 3.93703915 6 2 C3.97536745 1.34786708 3.97536745 1.34786708 2 1 C2.40895508 2.39907593 2.40895508 2.39907593 2.82617188 3.82641602 C3.8419515 7.31070704 4.84536545 10.79846106 5.84521484 14.28735352 C6.27840838 15.79254762 6.71488243 17.29680183 7.15478516 18.80004883 C7.78907857 20.96973501 8.41122258 23.14260624 9.03125 25.31640625 C9.22811401 25.98023819 9.42497803 26.64407013 9.62780762 27.32801819 C11.2791001 33.194435 11.83891537 38.62041495 9.6875 44.40234375 C9.41679687 45.14677734 9.14609375 45.89121094 8.8671875 46.65820312 C8.58101562 47.41037109 8.29484375 48.16253906 8 48.9375 C7.71382812 49.71673828 7.42765625 50.49597656 7.1328125 51.29882812 C6.43191126 53.20294317 5.71734696 55.1020195 5 57 C6.32 57 7.64 57 9 57 C10.32 52.71 11.64 48.42 13 44 C13.66 44.33 14.32 44.66 15 45 C16.89565234 51.6769088 17.64765184 57.52796218 15 64 C10.74733778 64.41692767 8.59662464 64.37745641 4.9375 62.0625 C2.85576534 58.77201618 2.72103772 58.43812044 3.4375 54.875 C4.71362802 50.41597129 6.45943459 46.12774373 8.29296875 41.87109375 C10.36578523 33.45385556 6.25165844 24.22207259 3.9375 16.125 C3.19325331 13.50353101 2.45341977 10.88089262 1.71484375 8.2578125 C1.22165649 6.52748779 1.22165649 6.52748779 0.71850586 4.76220703 C0 2 0 2 0 0 Z " fill="#A9C7F6" transform="translate(203,174)"/>
<path d="M0 0 C2.4375 0.5 2.4375 0.5 4.25 2.375 C5.4375 4.5 5.4375 4.5 5.4375 6.5 C4.2309375 6.9640625 4.2309375 6.9640625 3 7.4375 C0.54669595 8.26335345 0.54669595 8.26335345 -0.5625 9.5 C-0.72273562 12.38252645 -0.82204029 15.24378527 -0.87890625 18.12890625 C-0.89968735 18.99313705 -0.92046844 19.85736786 -0.94187927 20.74778748 C-1.00747114 23.51927445 -1.06630418 26.29085921 -1.125 29.0625 C-1.16817608 30.93685923 -1.21179006 32.81120843 -1.25585938 34.68554688 C-1.36316227 39.29026336 -1.46440215 43.89507858 -1.5625 48.5 C-5.4375 47.625 -5.4375 47.625 -6.5625 46.5 C-6.7009882 43.44428169 -6.77571486 40.41283395 -6.80078125 37.35546875 C-6.808853 36.43413651 -6.81692474 35.51280426 -6.82524109 34.56355286 C-6.83909967 32.60903821 -6.84981385 30.65449918 -6.85766602 28.69995117 C-6.87486876 25.71030736 -6.91873734 22.72177197 -6.96289062 19.73242188 C-6.97301796 17.83594565 -6.98153394 15.93946001 -6.98828125 14.04296875 C-7.00578934 13.14805222 -7.02329742 12.25313568 -7.04133606 11.33110046 C-7.01966428 5.12830937 -7.01966428 5.12830937 -4.69604492 1.93481445 C-2.5625 0.5 -2.5625 0.5 0 0 Z " fill="#3D81ED" transform="translate(66.5625,275.5)"/>
<path d="M0 0 C2.5 1.125 2.5 1.125 5 3 C5 4.98 5 6.96 5 9 C-0.28 9 -5.56 9 -11 9 C-11 17.91 -11 26.82 -11 36 C-12.65 36 -14.3 36 -16 36 C-16 25.44 -16 14.88 -16 4 C-10.72 4 -5.44 4 0 4 C0 2.68 0 1.36 0 0 Z " fill="#3D81ED" transform="translate(336,273)"/>
<path d="M0 0 C2.5 1.6875 2.5 1.6875 5 4 C5 5.65 5 7.3 5 9 C-0.28 9 -5.56 9 -11 9 C-11 17.91 -11 26.82 -11 36 C-12.65 36 -14.3 36 -16 36 C-16 25.44 -16 14.88 -16 4 C-10.72 4 -5.44 4 0 4 C0 2.68 0 1.36 0 0 Z " fill="#3B7FED" transform="translate(174,273)"/>
<path d="M0 0 C2.5 1.625 2.5 1.625 5 4 C5 5.98 5 7.96 5 10 C0.05 10 -4.9 10 -10 10 C-10 18.91 -10 27.82 -10 37 C-11.65 37 -13.3 37 -15 37 C-15 26.44 -15 15.88 -15 5 C-10.05 5 -5.1 5 0 5 C0 3.35 0 1.7 0 0 Z " fill="#3A7FEC" transform="translate(198,175)"/>
<path d="M0 0 C1.7325 0.1546875 1.7325 0.1546875 3.5 0.3125 C5.78062828 3.73344242 5.71925007 4.99437222 5.625 9 C5.60695312 9.99386719 5.58890625 10.98773438 5.5703125 12.01171875 C5.53550781 13.15060547 5.53550781 13.15060547 5.5 14.3125 C7.15 14.3125 8.8 14.3125 10.5 14.3125 C10.17 9.6925 9.84 5.0725 9.5 0.3125 C14.5 4.3125 14.5 4.3125 15.5 6.3125 C15.57092842 8.5197923 15.58415025 10.72917452 15.5625 12.9375 C15.55347656 14.12601562 15.54445312 15.31453125 15.53515625 16.5390625 C15.52355469 17.45429688 15.51195312 18.36953125 15.5 19.3125 C9.859375 19.484375 9.859375 19.484375 6.625 17.9375 C3.43007488 13.9908278 4.07990886 10.20422798 4.5 5.3125 C2.38996216 6.29635878 2.38996216 6.29635878 0.5 8.3125 C0.04218098 10.99778464 -0.19472304 13.30901714 -0.25 16 C-0.27964844 16.70189453 -0.30929688 17.40378906 -0.33984375 18.12695312 C-0.41037033 19.85485424 -0.45747068 21.5836832 -0.5 23.3125 C-4.375 21.5625 -4.375 21.5625 -5.5 19.3125 C-5.62432618 16.46745432 -5.6851641 13.65762848 -5.6875 10.8125 C-5.69974609 10.02746094 -5.71199219 9.24242187 -5.72460938 8.43359375 C-5.72986254 6.39186274 -5.6222018 4.35057749 -5.5 2.3125 C-3.5 0.3125 -3.5 0.3125 0 0 Z " fill="#4988EE" transform="translate(229.5,276.6875)"/>
<path d="M0 0 C3 1 3 1 5 4 C5.3359375 7.36328125 5.3359375 7.36328125 5.375 11.3125 C5.40335938 12.60800781 5.43171875 13.90351563 5.4609375 15.23828125 C4.82842265 20.40024567 2.78002846 23.25690159 -0.8828125 26.84375 C-5.21961333 29.21218735 -10.23409726 28.71170814 -15 28 C-17.64211679 26.59607078 -18.96839221 25.25734199 -21 23 C-18.38073273 21.69036636 -16.6007974 22.07654251 -13.6875 22.25 C-9.52087253 22.29362961 -8.40305407 22.29612136 -4.9375 19.75 C-1.66063015 15.09895893 -0.719676 11.99459992 -0.375 6.25 C-0.30023438 5.07953125 -0.22546875 3.9090625 -0.1484375 2.703125 C-0.09945312 1.81109375 -0.05046875 0.9190625 0 0 Z " fill="#3D81ED" transform="translate(44,307)"/>
<path d="M0 0 C3.875 1.875 3.875 1.875 5 3 C5 4.98 5 6.96 5 9 C-0.28 9 -5.56 9 -11 9 C-11 17.91 -11 26.82 -11 36 C-12.32 36 -13.64 36 -15 36 C-15 25.44 -15 14.88 -15 4 C-10.05 4 -5.1 4 0 4 C0 2.68 0 1.36 0 0 Z " fill="#387DEC" transform="translate(143,273)"/>
<path d="M0 0 C3.50920259 1.75460129 3.86980103 5.91356199 5.06835938 9.47265625 C5.43767578 10.59542969 5.80699219 11.71820313 6.1875 12.875 C6.56841797 13.99003906 6.94933594 15.10507812 7.34179688 16.25390625 C7.69693359 17.32253906 8.05207031 18.39117187 8.41796875 19.4921875 C8.74563232 20.47558105 9.0732959 21.45897461 9.41088867 22.47216797 C10 25 10 25 9 28 C8.01 25.36 7.02 22.72 6 20 C5.67 27.26 5.34 34.52 5 42 C3.02 42 1.04 42 -1 42 C-3.375 39.5 -3.375 39.5 -5 37 C-3.35 37 -1.7 37 0 37 C0 24.79 0 12.58 0 0 Z " fill="#4787EE" transform="translate(189,293)"/>
<path d="M0 0 C2.375 2 2.375 2 4 4 C3.67 4.66 3.34 5.32 3 6 C2.195625 6.144375 1.39125 6.28875 0.5625 6.4375 C-2.34440658 6.76502717 -2.34440658 6.76502717 -4 10 C-4.27543845 12.42045438 -4.27543845 12.42045438 -4.1953125 15.10546875 C-4.18886719 16.08837891 -4.18242187 17.07128906 -4.17578125 18.08398438 C-4.15902344 19.10814453 -4.14226563 20.13230469 -4.125 21.1875 C-4.11146484 22.74114258 -4.11146484 22.74114258 -4.09765625 24.32617188 C-4.0740786 26.88434685 -4.0411703 29.44205748 -4 32 C-7.82085515 30.23698348 -9.29990983 28.9634004 -11 25 C-11.42284592 21.82349896 -11.41910787 18.70027131 -11.375 15.5 C-11.39240234 14.23736328 -11.39240234 14.23736328 -11.41015625 12.94921875 C-11.38756793 8.16802333 -11.13874517 4.85835992 -8 1 C-5.15916359 -0.42041821 -3.14522722 -0.31452272 0 0 Z " fill="#4888EE" transform="translate(32,262)"/>
<path d="M0 0 C4.18574353 0.95923289 5.4424072 2.21739922 8 5.6875 C8.61437634 9.476653 8.47160191 13.17421097 8.3125 17 C8.28994141 18.02673828 8.26738281 19.05347656 8.24414062 20.11132812 C8.18537575 22.6382179 8.10327849 25.16210255 8 27.6875 C7.67 27.6875 7.34 27.6875 7 27.6875 C7 20.7575 7 13.8275 7 6.6875 C4.69 7.3475 2.38 8.0075 0 8.6875 C-1.21693876 11.12137753 -1.31959896 13.10588846 -1.5625 15.8125 C-1.64628906 16.72257812 -1.73007813 17.63265625 -1.81640625 18.5703125 C-1.87699219 19.26898438 -1.93757812 19.96765625 -2 20.6875 C-4.6875 21.0625 -4.6875 21.0625 -8 20.6875 C-10.06398076 18.863517 -11.39041053 16.95986161 -13 14.6875 C-11.35 14.6875 -9.7 14.6875 -8 14.6875 C-8.103125 13.49125 -8.20625 12.295 -8.3125 11.0625 C-8.30664327 7.77101849 -7.85764654 5.8352516 -5.875 3.1875 C-3 0.6875 -3 0.6875 0 0 Z " fill="#528EEF" transform="translate(175,67.3125)"/>
<path d="M0 0 C2.5 1.25 2.5 1.25 5 4 C5.91528816 9.27992674 6.16092869 14.96893337 3.1875 19.625 C0.8716658 22.13933428 -0.82990826 23.80867691 -4.26953125 24.37109375 C-8.85464886 24.490828 -12.00972769 24.54580221 -15.625 21.5 C-16.40875 20.675 -17.1925 19.85 -18 19 C-16 18 -16 18 -12.6875 18.0625 C-9.05316502 18.0009011 -7.07967447 17.88202328 -4 16 C-0.54888294 11.06983276 -0.33437352 5.83424136 0 0 Z " fill="#4083ED" transform="translate(242,311)"/>
<path d="M0 0 C8 0 8 0 10 1.375 C11 3 11 3 11 5 C9.02 5 7.04 5 5 5 C5 14.24 5 23.48 5 33 C3.35 33 1.7 33 0 33 C0 22.11 0 11.22 0 0 Z " fill="#3B80ED" transform="translate(94,277)"/>
<path d="M0 0 C2.64 0 5.28 0 8 0 C10 2 10 2 10 5 C8.35 5 6.7 5 5 5 C5 14.24 5 23.48 5 33 C3.35 33 1.7 33 0 33 C0 22.11 0 11.22 0 0 Z " fill="#3B7FED" transform="translate(351,277)"/>
<path d="M0 0 C2.5 1.375 2.5 1.375 5 4 C6.04589575 9.04795965 5.54951566 12.93886631 3.1875 17.5 C0.89267942 20.12265209 -0.76121544 21.79744487 -4.26953125 22.37109375 C-8.85464886 22.490828 -12.00972769 22.54580221 -15.625 19.5 C-16.40875 18.675 -17.1925 17.85 -18 17 C-15.05630855 15.52815427 -12.26616586 16 -9 16 C-6.239835 15.95020416 -6.239835 15.95020416 -4 15 C-1.34393612 10.66642209 -0.90431807 4.95450858 0 0 Z " fill="#4083ED" transform="translate(78,313)"/>
<path d="M0 0 C0.33 0 0.66 0 1 0 C1 8.91 1 17.82 1 27 C3.31 27 5.62 27 8 27 C10.9375 29.125 10.9375 29.125 13 32 C13 33.98 13 35.96 13 38 C8.71 38 4.42 38 0 38 C0 39.32 0 40.64 0 42 C-1.65 42 -3.3 42 -5 42 C-5 38.7 -5 35.4 -5 32 C-1.04 32 2.92 32 7 32 C7 30.68 7 29.36 7 28 C3.04 28 -0.92 28 -5 28 C-5 27.67 -5 27.34 -5 27 C-3.35 27 -1.7 27 0 27 C0 18.09 0 9.18 0 0 Z " fill="#5B94EF" transform="translate(325,282)"/>
<path d="M0 0 C3.3 0 6.6 0 10 0 C10 22.11 10 44.22 10 67 C11.65 67 13.3 67 15 67 C15 44.89 15 22.78 15 0 C15.33 0 15.66 0 16 0 C16 22.44 16 44.88 16 68 C13.03 68.495 13.03 68.495 10 69 C9 68 9 68 8.87974548 65.52598572 C8.88196609 64.42678299 8.88418671 63.32758026 8.88647461 62.19506836 C8.88655014 60.95385727 8.88662567 59.71264618 8.88670349 58.43382263 C8.89181089 57.0691626 8.8970269 55.70450298 8.90234375 54.33984375 C8.904208 52.95121817 8.90563187 51.56259193 8.90663147 50.17396545 C8.91045613 46.51278885 8.92028597 42.8516517 8.93133545 39.19049072 C8.94155068 35.45707737 8.94612933 31.72365766 8.95117188 27.99023438 C8.96190829 20.66013823 8.97898409 13.33007464 9 6 C8.22269531 5.88785156 7.44539062 5.77570313 6.64453125 5.66015625 C3.08311173 4.77111652 2.04061 2.94754777 0 0 Z " fill="#90B7F4" transform="translate(143,165)"/>
<path d="M0 0 C2.64 0 5.28 0 8 0 C8 0.33 8 0.66 8 1 C5.69 1 3.38 1 1 1 C1 18.49 1 35.98 1 54 C-1.97 54.495 -1.97 54.495 -5 55 C-6.59109812 53.40890188 -6.12729492 51.7642695 -6.12939453 49.55957031 C-6.13412277 48.14239716 -6.13412277 48.14239716 -6.13894653 46.69659424 C-6.1369223 45.66749939 -6.13489807 44.63840454 -6.1328125 43.578125 C-6.13376923 42.52598816 -6.13472595 41.47385132 -6.13571167 40.38983154 C-6.13639388 38.15702251 -6.13453678 35.9242115 -6.13037109 33.69140625 C-6.12504464 30.27860012 -6.13030371 26.86592689 -6.13671875 23.453125 C-6.13605756 21.28645804 -6.13477555 19.11979117 -6.1328125 16.953125 C-6.13584885 15.42162811 -6.13584885 15.42162811 -6.13894653 13.85919189 C-6.13579437 12.90180115 -6.13264221 11.9444104 -6.12939453 10.95800781 C-6.12859894 10.11941223 -6.12780334 9.28081665 -6.12698364 8.41680908 C-5.99283879 5.86370469 -5.55963778 3.49165361 -5 1 C-4.67 1 -4.34 1 -4 1 C-4 18.16 -4 35.32 -4 53 C-2.68 53 -1.36 53 0 53 C0 35.51 0 18.02 0 0 Z " fill="#ADCAF7" transform="translate(248,179)"/>
<path d="M0 0 C1.875 0.5625 1.875 0.5625 4 2 C5.1875 5.4375 5.1875 5.4375 6 9 C6.33 9.99 6.66 10.98 7 12 C7.26183914 14.56893289 7.4713297 17.11187088 7.625 19.6875 C7.67003662 20.4312085 7.71507324 21.17491699 7.76147461 21.94116211 C8.15356823 29.67624814 7.67411589 37.29433678 7 45 C6.34 45 5.68 45 5 45 C4.97421875 44.20722656 4.9484375 43.41445313 4.921875 42.59765625 C4.44501399 32.78949229 3.02792146 23.24756235 1.37207031 13.57055664 C1.19643555 12.53406982 1.02080078 11.49758301 0.83984375 10.4296875 C0.67863037 9.50397949 0.51741699 8.57827148 0.35131836 7.62451172 C0.00637254 5.04760581 -0.06307342 2.59627781 0 0 Z " fill="#4687EE" transform="translate(287,273)"/>
<path d="M0 0 C2.97 0 5.94 0 9 0 C9 1.32 9 2.64 9 4 C8.01 4 7.02 4 6 4 C5.93941406 4.90363281 5.87882812 5.80726563 5.81640625 6.73828125 C5.73261719 7.91777344 5.64882813 9.09726562 5.5625 10.3125 C5.48128906 11.48425781 5.40007812 12.65601563 5.31640625 13.86328125 C5 17 5 17 4 20 C1.25 20.3125 1.25 20.3125 -2 20 C-4.375 17.5 -4.375 17.5 -6 15 C-4.68 14.67 -3.36 14.34 -2 14 C-1.34 9.38 -0.68 4.76 0 0 Z " fill="#3E82ED" transform="translate(257,315)"/>
<path d="M0 0 C3.3 0 6.6 0 10 0 C10.33 1.65 10.66 3.3 11 5 C9.02 5 7.04 5 5 5 C5 9.95 5 14.9 5 20 C3.02 20 1.04 20 -1 20 C-3.375 17.5 -3.375 17.5 -5 15 C-3.35 15 -1.7 15 0 15 C0 10.05 0 5.1 0 0 Z " fill="#3B80ED" transform="translate(351,315)"/>
<path d="M0 0 C2.5 1.625 2.5 1.625 5 4 C5.15625 7.1484375 5.15625 7.1484375 5 10 C1.39598519 10.08701039 -2.20776012 10.14039388 -5.8125 10.1875 C-7.34874023 10.22520508 -7.34874023 10.22520508 -8.91601562 10.26367188 C-10.39038086 10.27817383 -10.39038086 10.27817383 -11.89453125 10.29296875 C-12.80050049 10.3086792 -13.70646973 10.32438965 -14.63989258 10.34057617 C-17 10 -17 10 -18.8190918 8.60668945 C-20 7 -20 7 -20 5 C-13.4 5 -6.8 5 0 5 C0 3.35 0 1.7 0 0 Z " fill="#3F82ED" transform="translate(336,325)"/>
<path d="M0 0 C3.875 1.875 3.875 1.875 5 3 C5.04080783 4.99958364 5.04254356 7.00045254 5 9 C1.417094 9.14533755 -2.16505417 9.23407931 -5.75 9.3125 C-7.27367187 9.3753418 -7.27367187 9.3753418 -8.828125 9.43945312 C-9.8078125 9.45556641 -10.7875 9.47167969 -11.796875 9.48828125 C-12.69760742 9.51446533 -13.59833984 9.54064941 -14.52636719 9.56762695 C-17 9 -17 9 -21 4 C-14.07 4 -7.14 4 0 4 C0 2.68 0 1.36 0 0 Z " fill="#4183ED" transform="translate(174,326)"/>
<path d="M0 0 C2.5 1.625 2.5 1.625 5 4 C5.15625 7.1484375 5.15625 7.1484375 5 10 C1.39625537 10.14500644 -2.20674242 10.23396763 -5.8125 10.3125 C-6.83666016 10.35439453 -7.86082031 10.39628906 -8.91601562 10.43945312 C-9.89892578 10.45556641 -10.88183594 10.47167969 -11.89453125 10.48828125 C-12.80050049 10.51446533 -13.70646973 10.54064941 -14.63989258 10.56762695 C-15.41872803 10.38031006 -16.19756348 10.19299316 -17 10 C-17.99 8.35 -18.98 6.7 -20 5 C-13.4 5 -6.8 5 0 5 C0 3.35 0 1.7 0 0 Z " fill="#3D80ED" transform="translate(143,325)"/>
<path d="M0 0 C2.5 1.625 2.5 1.625 5 4 C5.15625 7.1484375 5.15625 7.1484375 5 10 C1.58378212 10.14539953 -1.83163991 10.23409725 -5.25 10.3125 C-6.21808594 10.35439453 -7.18617188 10.39628906 -8.18359375 10.43945312 C-9.58544922 10.46362305 -9.58544922 10.46362305 -11.015625 10.48828125 C-11.87446289 10.51446533 -12.73330078 10.54064941 -13.61816406 10.56762695 C-16 10 -16 10 -20 5 C-13.4 5 -6.8 5 0 5 C0 3.35 0 1.7 0 0 Z " fill="#3C80ED" transform="translate(198,228)"/>
<path d="M0 0 C1.65 0 3.3 0 5 0 C5.08696177 3.93736123 5.14037835 7.87447628 5.1875 11.8125 C5.21263672 12.93205078 5.23777344 14.05160156 5.26367188 15.20507812 C5.27333984 16.27822266 5.28300781 17.35136719 5.29296875 18.45703125 C5.31653442 19.9416687 5.31653442 19.9416687 5.34057617 21.45629883 C5 24 5 24 3.60668945 25.84643555 C2 27 2 27 0 27 C0 18.09 0 9.18 0 0 Z " fill="#F9FBFD" transform="translate(356,282)"/>
<path d="M0 0 C2.92287566 -0.29228757 5.15023871 -0.48402434 8 0 C11.35525514 2.93584824 11.84603765 4.72018801 12.375 9.1171875 C12.69423484 17.91609786 12.69423484 17.91609786 10.18359375 21.8359375 C8 24 8 24 4.5625 25.0625 C0.26668421 24.98713481 -1.05219671 24.03450339 -4 21 C-5.26237731 18.47524538 -5.09856404 16.68799534 -5.0625 13.875 C-5.05347656 12.96492188 -5.04445312 12.05484375 -5.03515625 11.1171875 C-5.02355469 10.41851562 -5.01195312 9.71984375 -5 9 C-2.5 10.375 -2.5 10.375 0 13 C0.44908891 16.37080851 0.29036649 19.61884349 0 23 C3.40080577 22.89592083 3.40080577 22.89592083 7 22 C9.98654439 18.25324431 10.34274985 15.39674549 10.1875 10.6875 C10.16042969 9.61886719 10.13335937 8.55023438 10.10546875 7.44921875 C10.07066406 6.64097656 10.03585938 5.83273438 10 5 C9.05898437 5.0515625 8.11796875 5.103125 7.1484375 5.15625 C4 5 4 5 1.625 2.5 C0.820625 1.2625 0.820625 1.2625 0 0 Z " fill="#B1CCF7" transform="translate(172,107)"/>
<path d="M0 0 C2.5 1.125 2.5 1.125 5 3 C5 4.98 5 6.96 5 9 C0.71 9 -3.58 9 -8 9 C-8 10.32 -8 11.64 -8 13 C-9.65 13 -11.3 13 -13 13 C-13 10.03 -13 7.06 -13 4 C-8.71 4 -4.42 4 0 4 C0 2.68 0 1.36 0 0 Z " fill="#3F82ED" transform="translate(171,311)"/>
<path d="M0 0 C2.5 1.625 2.5 1.625 5 4 C5 5.98 5 7.96 5 10 C1.04 10 -2.92 10 -7 10 C-7 11.32 -7 12.64 -7 14 C-8.65 14 -10.3 14 -12 14 C-12 11.03 -12 8.06 -12 5 C-8.04 5 -4.08 5 0 5 C0 3.35 0 1.7 0 0 Z " fill="#3C80ED" transform="translate(140,310)"/>
<path d="M0 0 C2.5 1.625 2.5 1.625 5 4 C5 5.98 5 7.96 5 10 C1.04 10 -2.92 10 -7 10 C-7 11.32 -7 12.64 -7 14 C-8.65 14 -10.3 14 -12 14 C-12 11.03 -12 8.06 -12 5 C-8.04 5 -4.08 5 0 5 C0 3.35 0 1.7 0 0 Z " fill="#367CEC" transform="translate(195,213)"/>
<path d="M0 0 C0.66 0.33 1.32 0.66 2 1 C3.89565234 7.6769088 4.64765184 13.52796218 2 20 C-1.25 20.3125 -1.25 20.3125 -5 20 C-7.4375 17.5 -7.4375 17.5 -9 15 C-7.02 15 -5.04 15 -3 15 C-2.814375 13.515 -2.814375 13.515 -2.625 12 C-2.04805273 7.91119976 -1.05036346 3.99138113 0 0 Z " fill="#3F82ED" transform="translate(216,218)"/>
<path d="M0 0 C5 4 5 4 6 6 C6.07181821 8.71760108 6.09299506 11.40859388 6.0625 14.125 C6.05798828 14.87910156 6.05347656 15.63320313 6.04882812 16.41015625 C6.03703499 18.27347127 6.01909942 20.13674555 6 22 C3.1484375 22.15625 3.1484375 22.15625 0 22 C-2.375 19.5 -2.375 19.5 -4 17 C-2.35 17 -0.7 17 1 17 C0.67 11.39 0.34 5.78 0 0 Z " fill="#3D81ED" transform="translate(41,264)"/>
<path d="M0 0 C5 4 5 4 5.48828125 7.671875 C5.4552658 9.0321116 5.39593571 10.39192338 5.3125 11.75 C5.27866211 12.79607422 5.27866211 12.79607422 5.24414062 13.86328125 C5.18547048 15.57644935 5.09579256 17.28850623 5 19 C2.1484375 19.15625 2.1484375 19.15625 -1 19 C-3.375 16.5 -3.375 16.5 -5 14 C-3.35 14 -1.7 14 0 14 C0 9.38 0 4.76 0 0 Z " fill="#3C80ED" transform="translate(368,316)"/>
<path d="M0 0 C0.66 0.33 1.32 0.66 2 1 C2.41064453 3.40844727 2.41064453 3.40844727 2.6328125 6.56640625 C2.71660156 7.69111328 2.80039062 8.81582031 2.88671875 9.97460938 C2.96535156 11.15861328 3.04398437 12.34261719 3.125 13.5625 C3.21136719 14.75037109 3.29773438 15.93824219 3.38671875 17.16210938 C3.59964392 20.10757419 3.80366457 23.05339035 4 26 C1.69 26 -0.62 26 -3 26 C-2.01 17.42 -1.02 8.84 0 0 Z " fill="#4787EE" transform="translate(261,284)"/>
<path d="M0 0 C5 4 5 4 6 6 C6.07092842 8.2072923 6.08415025 10.41667452 6.0625 12.625 C6.05347656 13.81351562 6.04445312 15.00203125 6.03515625 16.2265625 C6.02355469 17.14179688 6.01195312 18.05703125 6 19 C3.1171875 19.125 3.1171875 19.125 0 19 C-1.875 17 -1.875 17 -3 15 C-1.68 15 -0.36 15 1 15 C0.67 10.05 0.34 5.1 0 0 Z " fill="#387EEC" transform="translate(239,277)"/>
<path d="M0 0 C4.875 3.75 4.875 3.75 6 6 C6.07033769 7.87379605 6.0843022 9.75001102 6.0625 11.625 C6.05347656 12.62789063 6.04445313 13.63078125 6.03515625 14.6640625 C6.02355469 15.43492187 6.01195313 16.20578125 6 17 C3.25 17.3125 3.25 17.3125 0 17 C-2.375 14.5 -2.375 14.5 -4 12 C-2.35 12 -0.7 12 1 12 C0.67 8.04 0.34 4.08 0 0 Z " fill="#4384ED" transform="translate(77,278)"/>
<path d="M0 0 C0.33 0 0.66 0 1 0 C1.66 4.62 2.32 9.24 3 14 C4.32 14 5.64 14 7 14 C7.33 13.01 7.66 12.02 8 11 C9.32 11 10.64 11 12 11 C12.33 13.97 12.66 16.94 13 20 C10.07084783 20.41845031 7.8957894 20.53747364 5.30078125 18.98046875 C1.90683449 15.99741143 0.63101633 13.63638499 0.125 9.125 C0.05698274 7.7510514 0.00611386 6.37561758 0 5 C-0.99 4.67 -1.98 4.34 -3 4 C-2.01 4 -1.02 4 0 4 C0 2.68 0 1.36 0 0 Z " fill="#639AF0" transform="translate(266,315)"/>
<path d="M0 0 C3.24016555 1.00556862 3.98143385 1.96572403 5.625 5 C7.81164471 10.78675589 9.59806514 16.52230158 8.125 22.625 C7.75375 23.40875 7.3825 24.1925 7 25 C5.51226426 22.2165199 4.50744422 19.57467095 3.7109375 16.5234375 C3.49179688 15.688125 3.27265625 14.8528125 3.046875 13.9921875 C2.82515625 13.12851563 2.6034375 12.26484375 2.375 11.375 C2.14554688 10.50359375 1.91609375 9.6321875 1.6796875 8.734375 C0 2.27557664 0 2.27557664 0 0 Z " fill="#4B8AEE" transform="translate(210,176)"/>
<path d="M0 0 C1.32 0.33 2.64 0.66 4 1 C4 5.95 4 10.9 4 16 C-2 16 -2 16 -3.875 14.625 C-5 13 -5 13 -5 11 C-3.35 11 -1.7 11 0 11 C0 7.37 0 3.74 0 0 Z " fill="#3B7FED" transform="translate(112,319)"/>
<path d="M0 0 C7.59 0 15.18 0 23 0 C23 0.33 23 0.66 23 1 C16.07 1 9.14 1 2 1 C2 2.32 2 3.64 2 5 C4.31 5 6.62 5 9 5 C9 6.98 9 8.96 9 11 C4.74508335 10.52723148 2.77457155 8.07452523 0 5 C-0.33 4.34 -0.66 3.68 -1 3 C-0.67 2.01 -0.34 1.02 0 0 Z " fill="#ABC8F6" transform="translate(234,174)"/>
<path d="M0 0 C2.5 1.25 2.5 1.25 5 4 C5.45551292 8.02994957 5.28580155 11.96067147 5 16 C2 15 2 15 0.8203125 13.296875 C-0.1819244 10.49061169 -0.19578721 8.22306264 -0.125 5.25 C-0.09792969 3.77273438 -0.09792969 3.77273438 -0.0703125 2.265625 C-0.04710938 1.51796875 -0.02390625 0.7703125 0 0 Z " fill="#4083ED" transform="translate(21,308)"/>
<path d="M0 0 C1.4540625 0.0309375 1.4540625 0.0309375 2.9375 0.0625 C2.9375 3.3625 2.9375 6.6625 2.9375 10.0625 C2.6075 10.0625 2.2775 10.0625 1.9375 10.0625 C1.9375 7.4225 1.9375 4.7825 1.9375 2.0625 C0.6175 2.0625 -0.7025 2.0625 -2.0625 2.0625 C-1.76832584 10.32879379 -1.01123742 15.11376258 4.9375 21.0625 C3.1875 20.9375 3.1875 20.9375 0.9375 20.0625 C-2.87318024 15.16305398 -4.2076875 11.48171833 -4.1875 5.375 C-4.19007813 4.58738281 -4.19265625 3.79976563 -4.1953125 2.98828125 C-3.97083182 -0.26668863 -3.32845237 0.0679276 0 0 Z " fill="#B4CEF7" transform="translate(164.0625,113.9375)"/>
<path d="M0 0 C1.134375 0.020625 2.26875 0.04125 3.4375 0.0625 C3.1075 1.7125 2.7775 3.3625 2.4375 5.0625 C2.1075 3.7425 1.7775 2.4225 1.4375 1.0625 C0.1175 1.0625 -1.2025 1.0625 -2.5625 1.0625 C-3.8825 10.3025 -5.2025 19.5425 -6.5625 29.0625 C-8.79082894 24.60584212 -8.68396966 24.52399886 -7.5625 20.0625 C-7.31022762 18.52807404 -7.0720818 16.99129566 -6.84375 15.453125 C-6.71613281 14.61652344 -6.58851563 13.77992188 -6.45703125 12.91796875 C-6.19169722 11.1657133 -5.92871592 9.41310013 -5.66796875 7.66015625 C-5.54035156 6.82871094 -5.41273438 5.99726563 -5.28125 5.140625 C-5.11012695 4.00222168 -5.11012695 4.00222168 -4.93554688 2.84082031 C-4.2405461 -0.47225932 -3.61282765 0.06338294 0 0 Z " fill="#A9C6F6" transform="translate(302.5625,270.9375)"/>
<path d="M0 0 C2.5 1.375 2.5 1.375 5 4 C5.44908891 7.37080851 5.29036649 10.61884349 5 14 C1.125 12.25 1.125 12.25 0 10 C-0.06996014 8.29297265 -0.08440154 6.58331997 -0.0625 4.875 C-0.05347656 3.96492188 -0.04445312 3.05484375 -0.03515625 2.1171875 C-0.02355469 1.41851562 -0.01195312 0.71984375 0 0 Z " fill="#3B7FEC" transform="translate(167,116)"/>
<path d="M0 0 C0.33 0 0.66 0 1 0 C0.52129747 11.19173506 -0.99428655 21.98749783 -3 33 C-1.68 33.33 -0.36 33.66 1 34 C-1.475 34.495 -1.475 34.495 -4 35 C-5.18352317 31.4668819 -4.84403645 28.74807791 -4.2578125 25.09765625 C-4.07863281 23.96005859 -3.89945313 22.82246094 -3.71484375 21.65039062 C-3.52019531 20.46638672 -3.32554687 19.28238281 -3.125 18.0625 C-2.93808594 16.88236328 -2.75117188 15.70222656 -2.55859375 14.48632812 C-1.78496173 9.63878281 -0.98992984 4.80862565 0 0 Z " fill="#B4CEF7" transform="translate(254,296)"/>
<path d="M0 0 C2.12508244 3.18762365 2.5020163 5.26512223 3 9 C0.3125 9.375 0.3125 9.375 -3 9 C-5.06398076 7.176017 -6.39041053 5.27236161 -8 3 C-6.865625 2.87625 -5.73125 2.7525 -4.5625 2.625 C-3.386875 2.41875 -2.21125 2.2125 -1 2 C-0.67 1.34 -0.34 0.68 0 0 Z " fill="#528FEF" transform="translate(229,229)"/>
<path d="M0 0 C3.08148829 1.49794569 6.04710142 3.13747126 9 4.875 C9.845625 5.36742187 10.69125 5.85984375 11.5625 6.3671875 C14.12492502 8.08368374 16.07915539 9.57920953 18 12 C18.4609375 14.7265625 18.4609375 14.7265625 18.375 17.625 C18.35566406 19.06746094 18.35566406 19.06746094 18.3359375 20.5390625 C18 23 18 23 16 25 C16.11601563 24.21496094 16.23203125 23.42992187 16.3515625 22.62109375 C16.64620249 19.19064242 16.69470673 16.38034129 16 13 C13.10785977 9.87245301 9.69375855 8.06124919 6 6 C3.88941609 4.4211843 1.96629777 2.75931906 0 1 C0 0.67 0 0.34 0 0 Z " fill="#74A4F1" transform="translate(21,296)"/>
<path d="M0 0 C2.5 1.4375 2.5 1.4375 5 4 C5.4451258 7.04256578 5.29359745 9.9465865 5 13 C1.125 11.125 1.125 11.125 0 10 C-0.07205511 8.31391034 -0.08386068 6.62499341 -0.0625 4.9375 C-0.05347656 4.01839844 -0.04445312 3.09929687 -0.03515625 2.15234375 C-0.02355469 1.44207031 -0.01195312 0.73179687 0 0 Z " fill="#3F82ED" transform="translate(224,312)"/>
<path d="M0 0 C3.875 1.875 3.875 1.875 5 3 C5.23728814 9.52542373 5.23728814 9.52542373 4 12 C3.34 12 2.68 12 2 12 C0.70756464 7.8803623 -0.26252625 4.33168317 0 0 Z " fill="#4284ED" transform="translate(287,273)"/>
<path d="M0 0 C3.3 0 6.6 0 10 0 C10 1.65 10 3.3 10 5 C7.25 5.3125 7.25 5.3125 4 5 C1.625 2.5 1.625 2.5 0 0 Z " fill="#4183ED" transform="translate(143,165)"/>
<path d="M0 0 C0.66 0.33 1.32 0.66 2 1 C2.05402274 3.10388569 2.09280256 5.20816714 2.125 7.3125 C2.14820313 8.48425781 2.17140625 9.65601563 2.1953125 10.86328125 C2 14 2 14 0 17 C-0.33 16.67 -0.66 16.34 -1 16 C-0.909084 13.29891496 -0.76259234 10.63069689 -0.5625 7.9375 C-0.51029297 7.17888672 -0.45808594 6.42027344 -0.40429688 5.63867188 C-0.27424165 3.75878278 -0.13771962 1.87934315 0 0 Z " fill="#5993EF" transform="translate(261,284)"/>
<path d="M0 0 C6.0546875 -0.1953125 6.0546875 -0.1953125 8 0 C10 2 10 2 10 5 C7.25 5.3125 7.25 5.3125 4 5 C1.625 2.5 1.625 2.5 0 0 Z " fill="#4485ED" transform="translate(172,107)"/>
<path d="M0 0 C1.4540625 0.0309375 1.4540625 0.0309375 2.9375 0.0625 C2.9375 3.0325 2.9375 6.0025 2.9375 9.0625 C2.6075 9.0625 2.2775 9.0625 1.9375 9.0625 C1.9375 6.7525 1.9375 4.4425 1.9375 2.0625 C0.6175 2.0625 -0.7025 2.0625 -2.0625 2.0625 C-2.02125 3.17625 -1.98 4.29 -1.9375 5.4375 C-2.0625 9.0625 -2.0625 9.0625 -4.0625 11.0625 C-4.08938151 9.41675434 -4.10884123 7.77088587 -4.125 6.125 C-4.13660156 5.20847656 -4.14820312 4.29195313 -4.16015625 3.34765625 C-4.00919455 -0.18484756 -3.60673121 0.07360676 0 0 Z " fill="#B5CFF7" transform="translate(75.0625,310.9375)"/>
<path d="M0 0 C2.44576827 3.66865241 2.23607254 5.67200343 2 10 C1.67 10.66 1.34 11.32 1 12 C0.34 12 -0.32 12 -1 12 C-2.1577506 8.52674819 -2.06866652 5.63932552 -2 2 C-1.34 2 -0.68 2 0 2 C0 1.34 0 0.68 0 0 Z " fill="#387DEC" transform="translate(271,291)"/>
<path d="M0 0 C2.5 1.625 2.5 1.625 5 4 C5.5 7.125 5.5 7.125 5 10 C4.01 10.66 3.02 11.32 2 12 C0.70756464 7.8803623 -0.26252625 4.33168317 0 0 Z " fill="#4485ED" transform="translate(265,272)"/>
<path d="M0 0 C2.45331002 3.67996503 2.39507893 5.65413172 2 10 C1.01 10.66 0.02 11.32 -1 12 C-2.28317892 8.15046324 -2.06643637 5.05261865 -2 1 C-1.34 0.67 -0.68 0.34 0 0 Z " fill="#377DEC" transform="translate(275,317)"/>
<path d="M0 0 C3.890625 1.71875 3.890625 1.71875 4.875 4.25 C5.02576455 7.56682019 4.21253049 9.93301112 3 13 C1.32889958 10.03821227 0.67317248 7.62928808 0.375 4.25 C0.30023438 3.45078125 0.22546875 2.6515625 0.1484375 1.828125 C0.09945312 1.22484375 0.05046875 0.6215625 0 0 Z " fill="#3C80ED" transform="translate(214,188)"/>
<path d="M0 0 C0.33 0 0.66 0 1 0 C1.8320582 5.72040011 2.12036664 11.22240116 2 17 C-1.24352091 13.75647909 -1.56532906 9.46589341 -2 5 C-1.125 1.875 -1.125 1.875 0 0 Z " fill="#689DF1" transform="translate(201,299)"/>
<path d="M0 0 C0.33 0 0.66 0 1 0 C1 3.3 1 6.6 1 10 C-0.9914056 10.38133299 -2.99279077 10.71325582 -5 11 C-6 10 -6 10 -6.09765625 8.15234375 C-6.06510417 6.1015625 -6.03255208 4.05078125 -6 2 C-5.34 2 -4.68 2 -4 2 C-4 4.31 -4 6.62 -4 9 C-2.68 9 -1.36 9 0 9 C0 6.03 0 3.06 0 0 Z " fill="#A4C3F6" transform="translate(77,280)"/>
<path d="M0 0 C2.5 1.625 2.5 1.625 5 4 C5 5.98 5 7.96 5 10 C1.04 10 -2.92 10 -7 10 C-7 9.67 -7 9.34 -7 9 C-3.37 9 0.26 9 4 9 C3.67 7.68 3.34 6.36 3 5 C2.01 5 1.02 5 0 5 C0 3.35 0 1.7 0 0 Z " fill="#4787EE" transform="translate(195,213)"/>
<path d="M0 0 C-3.22791555 2.1519437 -4.28400809 2.20086443 -8 2 C-8 3.32 -8 4.64 -8 6 C-6.02 6 -4.04 6 -2 6 C-2 6.33 -2 6.66 -2 7 C-4.3260857 7.38063221 -6.66055264 7.71269945 -9 8 C-10 7 -10 7 -10.0625 3.9375 C-10.041875 2.968125 -10.02125 1.99875 -10 1 C-8.71073008 0.63720544 -7.41846728 0.28503302 -6.125 -0.0625 C-5.40570313 -0.25972656 -4.68640625 -0.45695312 -3.9453125 -0.66015625 C-2 -1 -2 -1 0 0 Z " fill="#AAC7F6" transform="translate(180,100)"/>
<path d="M0 0 C0.33 0.99 0.66 1.98 1 3 C1.66 3 2.32 3 3 3 C3.33 2.01 3.66 1.02 4 0 C6 3 6 3 5.625 5.1875 C5.41875 5.785625 5.2125 6.38375 5 7 C4.01 6.67 3.02 6.34 2 6 C1.67 6.66 1.34 7.32 1 8 C0.67 5.36 0.34 2.72 0 0 Z " fill="#5F97F0" transform="translate(269,300)"/>
<path d="M0 0 C0.33 0.99 0.66 1.98 1 3 C1.66 3 2.32 3 3 3 C3.33 2.01 3.66 1.02 4 0 C6 3 6 3 5.625 5.1875 C5.41875 5.785625 5.2125 6.38375 5 7 C4.01 6.67 3.02 6.34 2 6 C1.67 6.66 1.34 7.32 1 8 C0.67 5.36 0.34 2.72 0 0 Z " fill="#6098F0" transform="translate(288,282)"/>
<path d="M0 0 C1.65 1.32 3.3 2.64 5 4 C4.67 4.99 4.34 5.98 4 7 C3.67 7 3.34 7 3 7 C2.67 9.31 2.34 11.62 2 14 C1.67 14 1.34 14 1 14 C0.67 9.38 0.34 4.76 0 0 Z " fill="#4284ED" transform="translate(239,277)"/>
<path d="M0 0 C2.31 0 4.62 0 7 0 C7 1.65 7 3.3 7 5 C4.11424181 4.60196439 3.17810487 4.20990931 1.25 1.9375 C0.8375 1.298125 0.425 0.65875 0 0 Z " fill="#397DEC" transform="translate(236,180)"/>
<path d="M0 0 C0.33 0.99 0.66 1.98 1 3 C1.66 3 2.32 3 3 3 C3.33 2.01 3.66 1.02 4 0 C6 3 6 3 5.625 5.1875 C5.41875 5.785625 5.2125 6.38375 5 7 C4.34 6.67 3.68 6.34 3 6 C2.34 6.66 1.68 7.32 1 8 C0.67 5.36 0.34 2.72 0 0 Z " fill="#6198F0" transform="translate(271,313)"/>
<path d="M0 0 C3.3 0.33 6.6 0.66 10 1 C10 1.66 10 2.32 10 3 C8.35 3.66 6.7 4.32 5 5 C3.35 3.35 1.7 1.7 0 0 Z " fill="#4E8CEE" transform="translate(168,135)"/>
<path d="M0 0 C0.33 0 0.66 0 1 0 C1.33 2.97 1.66 5.94 2 9 C0.68 8.67 -0.64 8.34 -2 8 C-2.33 8.66 -2.66 9.32 -3 10 C-2.39009109 6.44219804 -1.4216319 3.3171411 0 0 Z " fill="#5C95F0" transform="translate(271,285)"/>
<path d="M0 0 C0.66 0 1.32 0 2 0 C2 3.3 2 6.6 2 10 C1.01 9.67 0.02 9.34 -1 9 C-0.67 6.03 -0.34 3.06 0 0 Z " fill="#4686EE" transform="translate(170,120)"/>
<path d="M0 0 C1.32 0.33 2.64 0.66 4 1 C3.34 1.66 2.68 2.32 2 3 C1.53837573 5.43252661 1.53837573 5.43252661 1.375 8.125 C1.30023438 9.03507812 1.22546875 9.94515625 1.1484375 10.8828125 C1.09945312 11.58148438 1.05046875 12.28015625 1 13 C0.67 13 0.34 13 0 13 C0 8.71 0 4.42 0 0 Z " fill="#528FEF" transform="translate(111,317)"/>
<path d="M0 0 C1.98 0.99 1.98 0.99 4 2 C4 3.65 4 5.3 4 7 C3.01 7.495 3.01 7.495 2 8 C0.74335022 5.09399739 0 3.20395416 0 0 Z " fill="#3A7FED" transform="translate(197,296)"/>
<path d="M0 0 C2.97 0.33 5.94 0.66 9 1 C8.01 1.66 7.02 2.32 6 3 C6 3.66 6 4.32 6 5 C2.83884224 3.63016497 2.0072908 3.0109362 0 0 Z " fill="#528FEF" transform="translate(23,329)"/>
<path d="M0 0 C0.66 0.33 1.32 0.66 2 1 C2 2.98 2 4.96 2 7 C1.01 7 0.02 7 -1 7 C-0.67 4.69 -0.34 2.38 0 0 Z " fill="#528EEE" transform="translate(216,218)"/>
</svg>
