<svg xmlns="http://www.w3.org/2000/svg" xmlns:xlink="http://www.w3.org/1999/xlink" width="414" zoomAndPan="magnify" viewBox="0 0 310.5 310.499999" height="414" preserveAspectRatio="xMidYMid meet" version="1.0"><path fill="#b90005" d="M 0 -0.00390625 L 310 -0.00390625 L 310 309.996094 L 0 309.996094 Z M 0 -0.00390625 " fill-opacity="1" fill-rule="nonzero"/><path fill="#ffffff" d="M 162.992188 124.011719 C 162.992188 129.582031 156.054688 129.25 156.054688 129.25 L 149.117188 129.25 L 149.117188 119.183594 L 156.054688 119.183594 C 163.191406 119.125 162.992188 124.011719 162.992188 124.011719 M 149.117188 103.828125 L 154.410156 103.828125 C 159.898438 104.117188 159.683594 108.203125 159.683594 108.203125 C 159.683594 113.28125 153.625 113.363281 153.625 113.363281 L 149.117188 113.363281 Z M 161.714844 115.34375 C 161.714844 115.34375 166.449219 113.320312 166.421875 107.957031 C 166.421875 107.957031 167.1875 99.164062 155.484375 98.09375 L 142.566406 98.09375 L 142.566406 134.945312 L 157.378906 134.945312 C 157.378906 134.945312 169.757812 134.980469 169.757812 124.546875 C 169.757812 124.546875 170.066406 117.445312 161.714844 115.34375 M 128.265625 90.871094 L 182.675781 90.871094 L 182.675781 142.148438 L 128.265625 142.148438 Z M 100.246094 124.011719 C 100.246094 129.582031 93.308594 129.25 93.308594 129.25 L 86.371094 129.25 L 86.371094 119.183594 L 93.308594 119.183594 C 100.445312 119.125 100.246094 124.011719 100.246094 124.011719 M 86.371094 103.828125 L 91.664062 103.828125 C 97.152344 104.117188 96.9375 108.203125 96.9375 108.203125 C 96.9375 113.28125 90.878906 113.363281 90.878906 113.363281 L 86.371094 113.363281 Z M 98.96875 115.34375 C 98.96875 115.34375 103.703125 113.320312 103.675781 107.957031 C 103.675781 107.957031 104.441406 99.164062 92.738281 98.09375 L 79.820312 98.09375 L 79.820312 134.945312 L 94.632812 134.945312 C 94.632812 134.945312 107.011719 134.980469 107.011719 124.546875 C 107.011719 124.546875 107.320312 117.445312 98.96875 115.34375 M 65.519531 90.871094 L 119.929688 90.871094 L 119.929688 142.148438 L 65.519531 142.148438 Z M 234.316406 100.734375 L 234.316406 107.542969 C 234.316406 107.542969 227.675781 103.460938 220.339844 103.378906 C 220.339844 103.378906 206.636719 103.109375 206.019531 116.511719 C 206.019531 116.511719 205.558594 128.835938 220.167969 129.539062 C 220.167969 129.539062 226.320312 130.28125 234.65625 124.960938 L 234.65625 132.015625 C 234.65625 132.015625 223.460938 138.660156 210.511719 133.542969 C 210.511719 133.542969 199.625 129.5625 199.207031 116.511719 C 199.207031 116.511719 198.746094 103.085938 213.28125 98.628906 C 213.28125 98.628906 217.15625 97.144531 224.121094 97.804688 C 224.121094 97.804688 228.289062 98.21875 234.316406 100.734375 M 191.011719 142.148438 L 245.421875 142.148438 L 245.421875 90.871094 L 191.011719 90.871094 Z M 191.011719 142.148438 " fill-opacity="1" fill-rule="nonzero"/><path fill="#ffffff" d="M 78.832031 218.769531 C 75.804688 214.042969 72.699219 209.265625 69.511719 204.429688 C 66.378906 199.597656 63.246094 194.820312 60.109375 190.09375 C 56.976562 185.367188 53.871094 180.773438 50.789062 176.3125 L 50.789062 218.769531 L 41.070312 218.769531 L 41.070312 161.8125 L 51.269531 161.8125 C 56.046875 168.714844 60.75 175.671875 65.367188 182.683594 C 70.042969 189.695312 74.6875 196.808594 79.308594 204.03125 L 79.308594 161.8125 L 89.027344 161.8125 L 89.027344 218.769531 Z M 78.832031 218.769531 " fill-opacity="1" fill-rule="nonzero"/><path fill="#ffffff" d="M 102.21875 161.8125 L 140.296875 161.8125 L 140.296875 170.335938 L 112.335938 170.335938 L 112.335938 185.074219 L 137.269531 185.074219 L 137.269531 193.597656 L 112.335938 193.597656 L 112.335938 210.246094 L 141.808594 210.246094 L 141.808594 218.769531 L 102.21875 218.769531 Z M 102.21875 161.8125 " fill-opacity="1" fill-rule="nonzero"/><path fill="#ffffff" d="M 196.886719 218.769531 C 194.921875 211.972656 192.984375 205.148438 191.070312 198.296875 C 189.160156 191.445312 187.300781 184.59375 185.496094 177.746094 C 183.691406 184.542969 181.832031 191.394531 179.917969 198.296875 C 178.058594 205.148438 176.148438 211.972656 174.183594 218.769531 L 163.507812 218.769531 C 160.695312 209.476562 158.011719 200.078125 155.464844 190.570312 C 152.914062 181.0625 150.496094 171.476562 148.214844 161.8125 L 159.128906 161.8125 C 160.667969 169.566406 162.289062 177.347656 163.988281 185.152344 C 165.738281 192.90625 167.570312 200.5 169.484375 207.9375 C 171.5 200.609375 173.441406 193.304688 175.296875 186.03125 C 177.210938 178.753906 179.042969 171.476562 180.796875 164.203125 L 190.753906 164.203125 C 192.503906 171.425781 194.3125 178.621094 196.171875 185.789062 C 198.027344 192.960938 199.941406 200.128906 201.90625 207.300781 C 203.816406 199.917969 205.625 192.402344 207.324219 184.753906 C 209.023438 177.105469 210.640625 169.460938 212.183594 161.8125 L 222.855469 161.8125 C 220.519531 171.476562 218.078125 181.0625 215.527344 190.570312 C 212.980469 200.078125 210.324219 209.476562 207.5625 218.769531 Z M 196.886719 218.769531 " fill-opacity="1" fill-rule="nonzero"/><path fill="#ffffff" d="M 246.296875 219.964844 C 243.21875 219.964844 240.164062 219.621094 237.136719 218.929688 C 234.109375 218.238281 231.269531 217.175781 228.613281 215.742188 L 228.613281 206.503906 C 234.082031 209.902344 240.03125 211.601562 246.457031 211.601562 C 250.441406 211.601562 253.496094 210.855469 255.617188 209.371094 C 257.796875 207.882812 258.882812 205.839844 258.882812 203.234375 C 258.882812 201.75 258.566406 200.527344 257.929688 199.570312 C 257.292969 198.5625 256.414062 197.738281 255.300781 197.101562 C 254.238281 196.410156 252.988281 195.855469 251.554688 195.429688 C 250.175781 195.003906 248.714844 194.605469 247.175781 194.234375 C 244.359375 193.542969 241.785156 192.773438 239.445312 191.925781 C 237.164062 191.023438 235.171875 189.960938 233.472656 188.738281 C 231.828125 187.515625 230.550781 186.003906 229.648438 184.195312 C 228.746094 182.390625 228.292969 180.1875 228.292969 177.585938 C 228.292969 174.078125 229.171875 171.078125 230.921875 168.582031 C 232.675781 166.035156 235.171875 164.070312 238.410156 162.6875 C 241.652344 161.308594 245.5 160.617188 249.960938 160.617188 C 252.882812 160.617188 255.777344 160.960938 258.644531 161.652344 C 261.511719 162.34375 264.0625 163.273438 266.292969 164.441406 L 266.292969 173.441406 C 264.167969 172.113281 261.671875 171.054688 258.804688 170.257812 C 255.992188 169.40625 252.988281 168.980469 249.804688 168.980469 C 246.191406 168.980469 243.378906 169.671875 241.359375 171.054688 C 239.339844 172.378906 238.332031 174.292969 238.332031 176.789062 C 238.332031 178.59375 238.808594 180.027344 239.765625 181.089844 C 240.722656 182.097656 242.074219 182.921875 243.828125 183.558594 C 245.582031 184.144531 247.625 184.726562 249.960938 185.3125 C 252.511719 185.949219 254.929688 186.667969 257.210938 187.464844 C 259.546875 188.261719 261.59375 189.296875 263.347656 190.570312 C 265.152344 191.792969 266.558594 193.359375 267.566406 195.269531 C 268.578125 197.183594 269.082031 199.570312 269.082031 202.441406 C 269.082031 206.105469 268.179688 209.238281 266.371094 211.839844 C 264.566406 214.441406 261.9375 216.460938 258.488281 217.894531 C 255.085938 219.273438 251.023438 219.964844 246.296875 219.964844 Z M 246.296875 219.964844 " fill-opacity="1" fill-rule="nonzero"/></svg>