<svg xmlns="http://www.w3.org/2000/svg" xmlns:xlink="http://www.w3.org/1999/xlink" width="414" zoomAndPan="magnify" viewBox="0 0 310.5 310.499999" height="414" preserveAspectRatio="xMidYMid meet" version="1.0"><defs><clipPath id="d8264b1460"><path d="M 31 113.667969 L 278.851562 113.667969 L 278.851562 196.035156 L 31 196.035156 Z M 31 113.667969 " clip-rule="nonzero"/></clipPath><clipPath id="1952d536be"><path d="M 31 113.667969 L 114 113.667969 L 114 196.035156 L 31 196.035156 Z M 31 113.667969 " clip-rule="nonzero"/></clipPath><clipPath id="85dfd93e23"><path d="M 113 113.667969 L 197 113.667969 L 197 196.035156 L 113 196.035156 Z M 113 113.667969 " clip-rule="nonzero"/></clipPath><clipPath id="c8ea9572b6"><path d="M 196 113.667969 L 278.851562 113.667969 L 278.851562 196.035156 L 196 196.035156 Z M 196 113.667969 " clip-rule="nonzero"/></clipPath></defs><path fill="#ffffff" d="M 0 0 L 310 0 L 310 310 L 0 310 Z M 0 0 " fill-opacity="1" fill-rule="nonzero"/><path fill="#bab6b7" d="M 0 0 L 310 0 L 310 310 L 0 310 Z M 0 0 " fill-opacity="1" fill-rule="nonzero"/><g clip-path="url(#d8264b1460)"><path fill="#ffffff" d="M 28.167969 198.851562 C 28.167969 198.851562 281.652344 198.851562 281.652344 198.851562 C 281.652344 198.851562 281.652344 110.8125 281.652344 110.8125 C 281.652344 110.8125 28.167969 110.8125 28.167969 110.8125 C 28.167969 110.8125 28.167969 198.851562 28.167969 198.851562 Z M 28.167969 198.851562 " fill-opacity="1" fill-rule="evenodd"/></g><g clip-path="url(#1952d536be)"><path fill="#ff330d" d="M 31.007812 196.035156 C 31.007812 196.035156 113.617188 196.035156 113.617188 196.035156 C 113.617188 196.035156 113.617188 113.667969 113.617188 113.667969 C 113.617188 113.667969 31.007812 113.667969 31.007812 113.667969 C 31.007812 113.667969 31.007812 196.035156 31.007812 196.035156 Z M 31.007812 196.035156 " fill-opacity="1" fill-rule="evenodd"/></g><g clip-path="url(#85dfd93e23)"><path fill="#000000" d="M 113.621094 196.035156 C 113.621094 196.035156 196.230469 196.035156 196.230469 196.035156 C 196.230469 196.035156 196.230469 113.667969 196.230469 113.667969 C 196.230469 113.667969 113.621094 113.667969 113.621094 113.667969 C 113.621094 113.667969 113.621094 196.035156 113.621094 196.035156 Z M 113.621094 196.035156 " fill-opacity="1" fill-rule="evenodd"/></g><g clip-path="url(#c8ea9572b6)"><path fill="#3366cc" d="M 196.230469 196.035156 C 196.230469 196.035156 278.84375 196.035156 278.84375 196.035156 C 278.84375 196.035156 278.84375 113.667969 278.84375 113.667969 C 278.84375 113.667969 196.230469 113.667969 196.230469 113.667969 C 196.230469 113.667969 196.230469 196.035156 196.230469 196.035156 Z M 196.230469 196.035156 " fill-opacity="1" fill-rule="evenodd"/></g><path fill="#ffffff" d="M 80.339844 175.863281 C 80.339844 175.863281 80.339844 151.554688 80.339844 151.554688 C 80.339844 147.972656 79.648438 145.355469 78.261719 143.703125 C 76.878906 142.054688 74.617188 141.230469 71.476562 141.230469 C 70.027344 141.230469 68.480469 141.636719 66.828125 142.449219 C 65.179688 143.257812 63.894531 144.265625 62.972656 145.46875 C 62.972656 145.46875 62.972656 175.863281 62.972656 175.863281 C 62.972656 175.863281 53.097656 175.863281 53.097656 175.863281 C 53.097656 175.863281 53.097656 133.636719 53.097656 133.636719 C 53.097656 133.636719 60.214844 133.636719 60.214844 133.636719 C 60.214844 133.636719 62.03125 137.578125 62.03125 137.578125 C 64.722656 134.480469 68.683594 132.925781 73.933594 132.925781 C 78.960938 132.925781 82.933594 134.429688 85.847656 137.433594 C 88.757812 140.4375 90.214844 144.628906 90.214844 150.003906 C 90.214844 150.003906 90.214844 175.863281 90.214844 175.863281 C 90.214844 175.863281 80.339844 175.863281 80.339844 175.863281 Z M 80.339844 175.863281 " fill-opacity="1" fill-rule="evenodd"/><path fill="#ffffff" d="M 151.949219 141.347656 C 156.492188 141.347656 159.75 142.363281 161.71875 144.394531 C 163.691406 146.425781 164.675781 149.929688 164.675781 154.910156 C 164.675781 159.574219 163.683594 162.984375 161.699219 165.144531 C 159.714844 167.308594 156.453125 168.390625 151.90625 168.390625 C 149.515625 168.390625 147.429688 167.667969 145.640625 166.226562 C 145.640625 166.226562 145.640625 144.101562 145.640625 144.101562 C 147.480469 142.265625 149.582031 141.347656 151.949219 141.347656 Z M 154.140625 176.691406 C 160.601562 176.691406 165.699219 174.828125 169.425781 171.101562 C 173.160156 167.371094 175.023438 162.050781 175.023438 155.148438 C 175.023438 140.335938 168.277344 132.925781 154.777344 132.925781 C 151.164062 132.925781 148.121094 134.109375 145.640625 136.476562 C 145.640625 136.476562 145.640625 133.636719 145.640625 133.636719 C 145.640625 133.636719 135.769531 133.636719 135.769531 133.636719 C 135.769531 133.636719 135.769531 192.347656 135.769531 192.347656 C 135.769531 192.347656 145.640625 192.347656 145.640625 192.347656 C 145.640625 192.347656 145.640625 174.839844 145.640625 174.839844 C 148.199219 176.074219 151.03125 176.691406 154.140625 176.691406 Z M 154.140625 176.691406 " fill-opacity="1" fill-rule="evenodd"/><path fill="#ffffff" d="M 248.46875 142.890625 C 246.710938 141.78125 244.785156 141.230469 242.691406 141.230469 C 240.40625 141.230469 238.386719 142.265625 236.617188 144.332031 C 234.84375 146.398438 233.960938 148.925781 233.960938 151.910156 C 233.960938 151.910156 233.960938 175.863281 233.960938 175.863281 C 233.960938 175.863281 224.085938 175.863281 224.085938 175.863281 C 224.085938 175.863281 224.085938 133.636719 224.085938 133.636719 C 224.085938 133.636719 233.960938 133.636719 233.960938 133.636719 C 233.960938 133.636719 233.960938 137.671875 233.960938 137.671875 C 236.710938 134.511719 240.371094 132.925781 244.929688 132.925781 C 248.285156 132.925781 250.855469 133.441406 252.636719 134.464844 C 252.636719 134.464844 248.46875 142.890625 248.46875 142.890625 Z M 248.46875 142.890625 " fill-opacity="1" fill-rule="evenodd"/></svg>