<svg xmlns="http://www.w3.org/2000/svg" xmlns:xlink="http://www.w3.org/1999/xlink" width="414" zoomAndPan="magnify" viewBox="0 0 310.5 310.499999" height="414" preserveAspectRatio="xMidYMid meet" version="1.0"><defs><clipPath id="c622922701"><path d="M 31 83.273438 L 278.851562 83.273438 L 278.851562 227 L 31 227 Z M 31 83.273438 " clip-rule="nonzero"/></clipPath></defs><path fill="#ffffff" d="M 0 0 L 310 0 L 310 310 L 0 310 Z M 0 0 " fill-opacity="1" fill-rule="nonzero"/><path fill="#000212" d="M 0 0 L 310 0 L 310 310 L 0 310 Z M 0 0 " fill-opacity="1" fill-rule="nonzero"/><g clip-path="url(#c622922701)"><path fill="#ffffff" d="M 91.054688 108.800781 C 87.164062 90.324219 85.949219 89.597656 77.199219 89.109375 L 77.199219 85.949219 L 116.339844 85.949219 L 116.339844 89.109375 C 105.640625 90.082031 105.398438 90.082031 109.289062 111.71875 L 122.175781 180.035156 L 137.492188 106.613281 C 140.652344 91.539062 139.4375 90.082031 129.46875 89.351562 L 126.308594 89.109375 L 126.308594 85.949219 L 154.265625 85.949219 L 154.265625 89.109375 C 145.757812 89.839844 145.757812 92.027344 142.351562 108.074219 L 117.3125 226.714844 L 114.882812 226.714844 L 93.484375 120.472656 L 70.875 226.714844 L 68.445312 226.714844 L 42.917969 102.238281 C 40.730469 91.296875 40.242188 89.597656 31.003906 89.109375 L 31.003906 85.949219 L 69.175781 85.949219 L 69.175781 89.109375 C 59.449219 90.082031 59.207031 91.054688 63.097656 111.71875 L 76.226562 179.550781 Z M 192.921875 225.984375 C 179.066406 225.984375 170.796875 213.101562 167.636719 213.101562 C 164.234375 213.101562 160.34375 220.394531 159.128906 223.554688 L 156.210938 223.554688 L 156.210938 177.847656 L 159.128906 177.847656 C 167.636719 202.890625 181.253906 222.582031 192.4375 222.582031 C 199 222.582031 203.132812 216.503906 203.132812 207.507812 C 203.132812 174.445312 156.941406 153.050781 156.941406 112.449219 C 156.941406 95.917969 168.609375 83.03125 181.253906 83.03125 C 192.679688 83.03125 199 92.269531 202.648438 92.269531 C 204.59375 92.269531 206.050781 90.8125 208.480469 84.976562 L 210.671875 84.976562 L 210.671875 125.820312 L 207.753906 125.820312 C 202.402344 106.128906 191.464844 86.191406 180.765625 86.191406 C 174.203125 86.191406 169.339844 92.269531 169.339844 101.265625 C 169.339844 133.113281 215.53125 153.292969 215.53125 195.351562 C 215.777344 212.859375 205.078125 225.984375 192.921875 225.984375 Z M 240.816406 225.984375 C 226.714844 225.984375 221.125 217.234375 221.125 208.726562 C 221.125 200.214844 226.230469 191.464844 234.011719 191.464844 C 242.277344 191.464844 245.679688 199.730469 241.789062 205.5625 C 238.628906 210.667969 230.121094 211.15625 230.121094 215.046875 C 230.121094 221.125 235.226562 222.582031 239.359375 222.582031 C 251.515625 222.582031 250.785156 215.046875 250.785156 189.273438 L 250.785156 98.105469 C 250.785156 90.8125 249.082031 89.109375 241.304688 89.109375 L 238.386719 89.109375 L 238.386719 85.949219 L 278.988281 85.949219 L 278.988281 89.109375 L 275.582031 89.109375 C 271.449219 89.109375 269.75 90.8125 269.75 98.347656 L 269.75 187.574219 C 269.75 212.613281 251.757812 225.984375 240.816406 225.984375 Z M 240.816406 225.984375 " fill-opacity="1" fill-rule="evenodd"/></g></svg>