<svg width="58" height="58" viewBox="0 0 58 58" fill="none" xmlns="http://www.w3.org/2000/svg">
<circle cx="29" cy="29" r="29" fill="#972EFF"/>
<path d="M34.9809 22.4736H23.0184C22.7181 22.4736 22.4746 22.7171 22.4746 23.0174V34.9799C22.4746 35.2802 22.7181 35.5236 23.0184 35.5236H34.9809C35.2812 35.5236 35.5246 35.2802 35.5246 34.9799V23.0174C35.5246 22.7171 35.2812 22.4736 34.9809 22.4736Z" fill="white"/>
<path d="M43.1379 24.6494C43.4263 24.6494 43.7029 24.5348 43.9069 24.3309C44.1108 24.1269 44.2254 23.8503 44.2254 23.5619C44.2254 23.2735 44.1108 22.9969 43.9069 22.7929C43.7029 22.589 43.4263 22.4744 43.1379 22.4744H42.0504V20.2994C42.0491 19.1461 41.5904 18.0404 40.7749 17.2249C39.9594 16.4094 38.8537 15.9507 37.7004 15.9494H35.5254V14.8619C35.5254 14.5735 35.4108 14.2969 35.2069 14.0929C35.0029 13.889 34.7263 13.7744 34.4379 13.7744C34.1495 13.7744 33.8729 13.889 33.6689 14.0929C33.465 14.2969 33.3504 14.5735 33.3504 14.8619V15.9494H30.0879V14.8619C30.0879 14.5735 29.9733 14.2969 29.7694 14.0929C29.5654 13.889 29.2888 13.7744 29.0004 13.7744C28.712 13.7744 28.4354 13.889 28.2314 14.0929C28.0275 14.2969 27.9129 14.5735 27.9129 14.8619V15.9494H24.6504V14.8619C24.6504 14.5735 24.5358 14.2969 24.3319 14.0929C24.1279 13.889 23.8513 13.7744 23.5629 13.7744C23.2745 13.7744 22.9979 13.889 22.7939 14.0929C22.59 14.2969 22.4754 14.5735 22.4754 14.8619V15.9494H20.3004C19.1471 15.9507 18.0414 16.4094 17.2259 17.2249C16.4104 18.0404 15.9516 19.1461 15.9504 20.2994V22.4744H14.8629C14.5745 22.4744 14.2979 22.589 14.0939 22.7929C13.89 22.9969 13.7754 23.2735 13.7754 23.5619C13.7754 23.8503 13.89 24.1269 14.0939 24.3309C14.2979 24.5348 14.5745 24.6494 14.8629 24.6494H15.9504V27.9119H14.8629C14.5745 27.9119 14.2979 28.0265 14.0939 28.2304C13.89 28.4344 13.7754 28.711 13.7754 28.9994C13.7754 29.2878 13.89 29.5644 14.0939 29.7684C14.2979 29.9723 14.5745 30.0869 14.8629 30.0869H15.9504V33.3494H14.8629C14.5745 33.3494 14.2979 33.464 14.0939 33.6679C13.89 33.8719 13.7754 34.1485 13.7754 34.4369C13.7754 34.7253 13.89 35.0019 14.0939 35.2059C14.2979 35.4098 14.5745 35.5244 14.8629 35.5244H15.9504V37.6994C15.9516 38.8527 16.4104 39.9584 17.2259 40.7739C18.0414 41.5894 19.1471 42.0482 20.3004 42.0494H22.4754V43.1369C22.4754 43.4253 22.59 43.7019 22.7939 43.9059C22.9979 44.1098 23.2745 44.2244 23.5629 44.2244C23.8513 44.2244 24.1279 44.1098 24.3319 43.9059C24.5358 43.7019 24.6504 43.4253 24.6504 43.1369V42.0494H27.9129V43.1369C27.9129 43.4253 28.0275 43.7019 28.2314 43.9059C28.4354 44.1098 28.712 44.2244 29.0004 44.2244C29.2888 44.2244 29.5654 44.1098 29.7694 43.9059C29.9733 43.7019 30.0879 43.4253 30.0879 43.1369V42.0494H33.3504V43.1369C33.3504 43.4253 33.465 43.7019 33.6689 43.9059C33.8729 44.1098 34.1495 44.2244 34.4379 44.2244C34.7263 44.2244 35.0029 44.1098 35.2069 43.9059C35.4108 43.7019 35.5254 43.4253 35.5254 43.1369V42.0494H37.7004C38.8537 42.0482 39.9594 41.5894 40.7749 40.7739C41.5904 39.9584 42.0491 38.8527 42.0504 37.6994V35.5244H43.1379C43.4263 35.5244 43.7029 35.4098 43.9069 35.2059C44.1108 35.0019 44.2254 34.7253 44.2254 34.4369C44.2254 34.1485 44.1108 33.8719 43.9069 33.6679C43.7029 33.464 43.4263 33.3494 43.1379 33.3494H42.0504V30.0869H43.1379C43.4263 30.0869 43.7029 29.9723 43.9069 29.7684C44.1108 29.5644 44.2254 29.2878 44.2254 28.9994C44.2254 28.711 44.1108 28.4344 43.9069 28.2304C43.7029 28.0265 43.4263 27.9119 43.1379 27.9119H42.0504V24.6494H43.1379ZM37.7004 35.5244C37.7004 36.1013 37.4712 36.6545 37.0633 37.0624C36.6555 37.4703 36.1022 37.6994 35.5254 37.6994H22.4754C21.8985 37.6994 21.3453 37.4703 20.9374 37.0624C20.5295 36.6545 20.3004 36.1013 20.3004 35.5244V22.4744C20.3004 21.8976 20.5295 21.3443 20.9374 20.9365C21.3453 20.5286 21.8985 20.2994 22.4754 20.2994H35.5254C36.1022 20.2994 36.6555 20.5286 37.0633 20.9365C37.4712 21.3443 37.7004 21.8976 37.7004 22.4744V35.5244Z" fill="white"/>
</svg>
