<svg width="64" height="64" viewBox="0 0 64 64" fill="none" xmlns="http://www.w3.org/2000/svg">
<path d="M23.3 21.5L24 22.7L25.2 23.3L24 24L23.3 25.2L22.7 24L21.5 23.3L22.7 22.7L23.3 21.5Z" fill="#FFA500"/>
<path d="M43.3 31.5L44 32.7L45.2 33.3L44 34L43.3 35.2L42.7 34L41.5 33.3L42.7 32.7L43.3 31.5Z" fill="#FFA500"/>
<path d="M34.5 33.1992C34.5 29.4992 36.5 26.2992 39.5 24.4992C38 23.5992 36.3 23.1992 34.5 23.1992C29 23.1992 24.5 27.6992 24.5 33.1992C24.5 38.6992 29 43.1992 34.5 43.1992C36.3 43.1992 38 42.6992 39.5 41.8992C36.5 40.1992 34.5 36.8992 34.5 33.1992Z" fill="#FFA500" stroke="#FFA500" stroke-width="2" stroke-linejoin="round"/>
</svg>
