<svg width="128" height="128" viewBox="0 0 128 128" fill="none" xmlns="http://www.w3.org/2000/svg">
<path d="M77.2804 30.3999L78.4004 32.3199L80.3204 33.2799L78.4004 34.3999L77.2804 36.3199L76.3204 34.3999L74.4004 33.2799L76.3204 32.3199L77.2804 30.3999Z" fill="#FFA500"/>
<path d="M109.28 46.3999L110.4 48.3199L112.32 49.2799L110.4 50.3999L109.28 52.3199L108.32 50.3999L106.4 49.2799L108.32 48.3199L109.28 46.3999Z" fill="#FFA500"/>
<path d="M95.2002 49.1201C95.2002 43.2001 98.4002 38.0801 103.2 35.2001C100.8 33.7601 98.0802 33.1201 95.2002 33.1201C86.4002 33.1201 79.2002 40.3201 79.2002 49.1201C79.2002 57.9201 86.4002 65.1201 95.2002 65.1201C98.0802 65.1201 100.8 64.3201 103.2 63.0401C98.4002 60.3201 95.2002 55.0401 95.2002 49.1201Z" fill="#FFA500" stroke="#FFA500" stroke-width="3.2" stroke-linejoin="round"/>
<path d="M95.4002 68.8C95.4002 59.6 88.0002 52.4 79.0002 52.4C77.0002 52.4 75.2002 52.8 73.4002 53.4C72.8002 46.6 67.2002 41 60.2002 41C52.8002 41 46.8002 47 46.8002 54.4C46.8002 56 47.2002 57.6 47.6002 59C47.0002 58.8 46.2002 58.8 45.6002 58.8C38.2002 58.8 32.2002 64.8 32.2002 72.2C32.2002 79.4 38.0002 85.4 45.2002 85.6H79.6002C88.4002 84.6 95.4002 77.6 95.4002 68.8Z" fill="white" stroke="white" stroke-width="2.4" stroke-linejoin="round"/>
<path d="M56.7783 91.9395L53.9999 107.696" stroke="white" stroke-width="4" stroke-linecap="round" stroke-dasharray="8 14"/>
<path d="M69.29 90.084L66.5117 105.841" stroke="white" stroke-width="4" stroke-linecap="round" stroke-dasharray="8 14"/>
</svg>
