<svg width="414" height="414" viewBox="0 0 414 414" fill="none" xmlns="http://www.w3.org/2000/svg">
<rect width="414" height="414" rx="40" fill="url(#paint0_linear_228_754)"/>
<path d="M170.63 208.259C170.63 187.45 187.505 170.576 208.326 170.576C229.148 170.576 246.031 187.45 246.031 208.259C246.031 229.068 229.148 245.941 208.326 245.941C187.505 245.941 170.63 229.068 170.63 208.259ZM150.248 208.259C150.248 240.316 176.249 266.302 208.326 266.302C240.403 266.302 266.405 240.316 266.405 208.259C266.405 176.201 240.403 150.215 208.326 150.215C176.249 150.215 150.248 176.201 150.248 208.259ZM255.131 147.913C255.13 150.596 255.925 153.219 257.416 155.45C258.906 157.682 261.025 159.421 263.505 160.449C265.985 161.476 268.714 161.746 271.347 161.224C273.98 160.701 276.399 159.41 278.298 157.514C280.197 155.618 281.49 153.201 282.015 150.57C282.54 147.939 282.272 145.212 281.246 142.733C280.22 140.254 278.481 138.135 276.249 136.643C274.018 135.152 271.394 134.355 268.71 134.354H268.704C265.106 134.356 261.655 135.785 259.111 138.327C256.566 140.869 255.135 144.317 255.131 147.913ZM162.631 300.269C151.604 299.767 145.61 297.932 141.627 296.381C136.346 294.326 132.579 291.879 128.617 287.925C124.656 283.972 122.204 280.21 120.157 274.932C118.604 270.953 116.767 264.961 116.266 253.941C115.718 242.025 115.608 238.446 115.608 208.26C115.608 178.073 115.727 174.504 116.266 162.578C116.768 151.558 118.619 145.577 120.157 141.587C122.213 136.309 124.661 132.544 128.617 128.585C132.573 124.626 136.337 122.175 141.627 120.129C145.608 118.578 151.604 116.742 162.631 116.241C174.554 115.693 178.135 115.583 208.326 115.583C238.518 115.583 242.103 115.702 254.035 116.241C265.062 116.743 271.046 118.592 275.039 120.129C280.32 122.175 284.088 124.631 288.049 128.585C292.01 132.538 294.454 136.309 296.509 141.587C298.062 145.566 299.899 151.558 300.4 162.578C300.949 174.504 301.058 178.073 301.058 208.26C301.058 238.446 300.949 242.015 300.4 253.941C299.898 264.961 298.052 270.952 296.509 274.932C294.454 280.21 292.005 283.975 288.049 287.925C284.093 291.875 280.32 294.326 275.039 296.381C271.058 297.932 265.062 299.768 254.035 300.269C242.113 300.817 238.531 300.927 208.326 300.927C178.122 300.927 174.55 300.817 162.631 300.269ZM161.695 95.9048C149.654 96.4528 141.426 98.3609 134.241 101.155C126.799 104.041 120.5 107.912 114.205 114.193C107.91 120.475 104.046 126.781 101.159 134.218C98.3626 141.403 96.4534 149.622 95.9051 161.655C95.3477 173.708 95.2201 177.561 95.2201 208.259C95.2201 238.956 95.3477 242.809 95.9051 254.862C96.4534 266.897 98.3626 275.114 101.159 282.3C104.046 289.732 107.911 296.045 114.205 302.324C120.499 308.602 126.799 312.468 134.241 315.362C141.44 318.156 149.654 320.064 161.695 320.612C173.761 321.16 177.61 321.297 208.326 321.297C239.042 321.297 242.898 321.169 254.958 320.612C267 320.064 275.222 318.156 282.412 315.362C289.849 312.468 296.153 308.605 302.448 302.324C308.743 296.042 312.599 289.732 315.494 282.3C318.29 275.114 320.208 266.896 320.748 254.862C321.296 242.8 321.424 238.956 321.424 208.259C321.424 177.561 321.296 173.708 320.748 161.655C320.199 149.621 318.29 141.399 315.494 134.218C312.599 126.785 308.733 120.485 302.448 114.193C296.163 107.902 289.849 104.041 282.421 101.155C275.222 98.3609 266.999 96.4437 254.967 95.9048C242.907 95.3568 239.051 95.2202 208.335 95.2202C177.619 95.2202 173.761 95.3477 161.695 95.9048Z" fill="white"/>
<path d="M170.63 208.259C170.63 187.45 187.505 170.576 208.326 170.576C229.148 170.576 246.031 187.45 246.031 208.259C246.031 229.068 229.148 245.941 208.326 245.941C187.505 245.941 170.63 229.068 170.63 208.259ZM150.248 208.259C150.248 240.316 176.249 266.302 208.326 266.302C240.403 266.302 266.405 240.316 266.405 208.259C266.405 176.201 240.403 150.215 208.326 150.215C176.249 150.215 150.248 176.201 150.248 208.259ZM255.131 147.913C255.13 150.596 255.925 153.219 257.416 155.45C258.906 157.682 261.025 159.421 263.505 160.449C265.985 161.476 268.714 161.746 271.347 161.224C273.98 160.701 276.399 159.41 278.298 157.514C280.197 155.618 281.49 153.201 282.015 150.57C282.54 147.939 282.272 145.212 281.246 142.733C280.22 140.254 278.481 138.135 276.249 136.643C274.018 135.152 271.394 134.355 268.71 134.354H268.704C265.106 134.356 261.655 135.785 259.111 138.327C256.566 140.869 255.135 144.317 255.131 147.913ZM162.631 300.269C151.604 299.767 145.61 297.932 141.627 296.381C136.346 294.326 132.579 291.879 128.617 287.925C124.656 283.972 122.204 280.21 120.157 274.932C118.604 270.953 116.767 264.961 116.266 253.941C115.718 242.025 115.608 238.446 115.608 208.26C115.608 178.073 115.727 174.504 116.266 162.578C116.768 151.558 118.619 145.577 120.157 141.587C122.213 136.309 124.661 132.544 128.617 128.585C132.573 124.626 136.337 122.175 141.627 120.129C145.608 118.578 151.604 116.742 162.631 116.241C174.554 115.693 178.135 115.583 208.326 115.583C238.518 115.583 242.103 115.702 254.035 116.241C265.062 116.743 271.046 118.592 275.039 120.129C280.32 122.175 284.088 124.631 288.049 128.585C292.01 132.538 294.454 136.309 296.509 141.587C298.062 145.566 299.899 151.558 300.4 162.578C300.949 174.504 301.058 178.073 301.058 208.26C301.058 238.446 300.949 242.015 300.4 253.941C299.898 264.961 298.052 270.952 296.509 274.932C294.454 280.21 292.005 283.975 288.049 287.925C284.093 291.875 280.32 294.326 275.039 296.381C271.058 297.932 265.062 299.768 254.035 300.269C242.113 300.817 238.531 300.927 208.326 300.927C178.122 300.927 174.55 300.817 162.631 300.269ZM161.695 95.9048C149.654 96.4528 141.426 98.3609 134.241 101.155C126.799 104.041 120.5 107.912 114.205 114.193C107.91 120.475 104.046 126.781 101.159 134.218C98.3626 141.403 96.4534 149.622 95.9051 161.655C95.3477 173.708 95.2201 177.561 95.2201 208.259C95.2201 238.956 95.3477 242.809 95.9051 254.862C96.4534 266.897 98.3626 275.114 101.159 282.3C104.046 289.732 107.911 296.045 114.205 302.324C120.499 308.602 126.799 312.468 134.241 315.362C141.44 318.156 149.654 320.064 161.695 320.612C173.761 321.16 177.61 321.297 208.326 321.297C239.042 321.297 242.898 321.169 254.958 320.612C267 320.064 275.222 318.156 282.412 315.362C289.849 312.468 296.153 308.605 302.448 302.324C308.743 296.042 312.599 289.732 315.494 282.3C318.29 275.114 320.208 266.896 320.748 254.862C321.296 242.8 321.424 238.956 321.424 208.259C321.424 177.561 321.296 173.708 320.748 161.655C320.199 149.621 318.29 141.399 315.494 134.218C312.599 126.785 308.733 120.485 302.448 114.193C296.163 107.902 289.849 104.041 282.421 101.155C275.222 98.3609 266.999 96.4437 254.967 95.9048C242.907 95.3568 239.051 95.2202 208.335 95.2202C177.619 95.2202 173.761 95.3477 161.695 95.9048Z" fill="white"/>
<defs>
<linearGradient id="paint0_linear_228_754" x1="406.043" y1="414" x2="-7.95707" y2="-1.11437e-05" gradientUnits="userSpaceOnUse">
<stop stop-color="#FBE18A"/>
<stop offset="0.21" stop-color="#FCBB45"/>
<stop offset="0.38" stop-color="#F75274"/>
<stop offset="0.52" stop-color="#D53692"/>
<stop offset="0.74" stop-color="#8F39CE"/>
<stop offset="1" stop-color="#5B4FE9"/>
</linearGradient>
</defs>
</svg>
