<svg width="400" viewBox="0 0 400 120" fill="none" xmlns="http://www.w3.org/2000/svg">
<g clip-path="url(#clip0_9_987)">
<path fill-rule="evenodd" clip-rule="evenodd" d="M23.6867 118.908V104.175C23.6804 102.993 23.365 101.834 22.7717 100.812C22.1784 99.7906 21.3279 98.9421 20.305 98.3511L3.55386 88.6933C3.20127 88.5251 2.81252 88.4467 2.42227 88.4651C2.03202 88.4835 1.6524 88.5982 1.31723 88.799C0.982072 88.9997 0.701788 89.2803 0.501366 89.6156C0.300944 89.951 0.186612 90.3307 0.168563 90.721V105.171C0.170625 106.54 0.531141 107.886 1.21427 109.073C1.89741 110.26 2.87937 111.248 4.06253 111.938L27.7491 125.476C26.5617 124.826 25.5632 123.879 24.8512 122.728C24.1391 121.577 23.7379 120.261 23.6867 118.908ZM89.4352 56.8154C88.8438 55.7975 87.9975 54.9511 86.9796 54.3597L73.8173 46.7472L70.432 44.716C69.8881 44.4021 69.2419 44.317 68.6353 44.4795C68.0287 44.642 67.5116 45.0387 67.1975 45.5825C66.9912 45.9362 66.8811 46.3377 66.8783 46.7472V64.2069C66.8738 66.384 66.5075 68.5452 65.7943 70.6022C65.4191 71.7798 64.9205 72.9146 64.3068 73.9875C62.6192 76.91 60.1922 79.337 57.2696 81.0247L26.7493 98.6212C27.3593 99.643 27.6761 100.813 27.6649 102.003V118.908C27.6323 119.589 27.7887 120.266 28.1169 120.863C28.445 121.461 28.9321 121.956 29.5242 122.294C30.0869 122.63 30.7312 122.806 31.387 122.802C32.0322 122.81 32.6661 122.633 33.2147 122.294L77.5428 96.6848C74.8831 94.2278 73.0262 91.0258 72.2146 87.497C71.4031 83.9682 71.6747 80.2766 72.994 76.9046C74.3132 73.5326 76.6188 70.6368 79.6095 68.5956C82.6002 66.5544 86.1371 65.4626 89.758 65.4628H90.3333V60.2007C90.336 59.013 90.0263 57.8455 89.4352 56.8154ZM88.4881 18.679C87.917 18.3683 87.2772 18.2055 86.627 18.2055C85.9769 18.2055 85.3371 18.3683 84.766 18.679L66.7309 29.1366L86.7972 40.7414C87.1569 40.9499 87.5653 41.0597 87.9811 41.0597C88.3969 41.0597 88.8054 40.9499 89.1651 40.7414C89.5183 40.5257 89.8098 40.2225 90.0114 39.8611C90.213 39.4997 90.3178 39.0924 90.3158 38.6786V21.9275C90.3122 21.2754 90.1425 20.6349 89.8227 20.0665C89.503 19.4981 89.0436 19.0206 88.4881 18.679ZM66.8993 1.52801C65.7298 0.839664 64.3975 0.476325 63.0404 0.475586C61.6744 0.483984 60.3339 0.846603 59.15 1.52801L11.7908 29.0384C8.17962 31.0861 5.19485 34.0793 3.15745 37.6963C1.11935 41.2036 0.0311192 45.1817 0.000174747 49.2379V69.0305C-0.00864206 70.2758 0.316327 71.5008 0.941288 72.578C1.56625 73.6551 2.46838 74.5452 3.55386 75.1556L20.0664 84.7327C20.4261 84.9412 20.8346 85.051 21.2504 85.051C21.6662 85.051 22.0746 84.9412 22.4344 84.7327C22.8048 84.5279 23.1153 84.2298 23.335 83.868C23.5547 83.5061 23.676 83.0931 23.6867 82.67V62.8739C23.677 58.7703 24.7438 54.7359 26.7808 51.1736C28.8177 47.6112 31.7535 44.6455 35.295 42.5726L82.6541 15.0973C83.8543 14.393 85.2196 14.019 86.6112 14.0133C87.9684 14.0137 89.3007 14.377 90.4701 15.0657L66.8993 1.52801Z" fill="white"/>
<path d="M102.836 76.2051C104.205 78.8519 104.761 81.8438 104.436 84.8057C104.111 87.7676 102.919 90.5676 101.008 92.8544C102.024 87.7477 101.92 82.4814 100.703 77.4189L102.836 76.2051Z" fill="white"/>
<path d="M102.328 75.3519L98.3356 77.6882C98.3356 77.6882 98.0654 77.6882 98.0304 77.8566L89.7723 82.6276L85.4434 80.1018C89.7981 76.802 94.5679 74.0892 99.63 72.0332L100.24 72.6752C101.041 73.4807 101.742 74.3793 102.328 75.3519Z" fill="white"/>
<path d="M99.8229 77.9004C101.142 83.2342 101.142 88.809 99.8229 94.1428C98.5633 95.2763 97.1225 96.1906 95.5605 96.8475C96.3042 91.4025 96.3042 85.8817 95.5605 80.4367L98.9774 78.3038L99.8229 77.9004Z" fill="white"/>
<path d="M94.2408 69.0645C95.8571 69.577 97.3769 70.3547 98.7381 71.3658C93.6885 73.5113 88.9359 76.2973 84.5971 79.6554L80.2295 77.0839C84.1896 73.3263 88.9951 70.5759 94.2408 69.0645Z" fill="white"/>
<path d="M94.5425 80.9443C95.2722 86.3445 95.2722 91.8182 94.5425 97.2183C93.1522 97.678 91.7072 97.9517 90.2451 98.0322V83.4456L94.5425 80.9443Z" fill="white"/>
<path d="M89.7402 68.3938C90.6581 68.4049 91.5739 68.4846 92.48 68.6324C87.5406 70.2716 83.0311 72.9962 79.2826 76.6063L77.1777 75.3539C77.7692 74.392 78.476 73.5061 79.2826 72.7158C80.6501 71.3353 82.2795 70.2419 84.0753 69.4997C85.8711 68.7576 87.7971 68.3816 89.7402 68.3938Z" fill="white"/>
<path d="M89.2672 95.5636V98.0193C85.5179 97.8716 81.9583 96.3319 79.2832 93.7008C77.7003 92.1139 76.4869 90.1974 75.7295 88.0879C76.0031 88.2914 76.7118 88.9684 76.9152 89.1719C80.6635 91.9505 84.834 94.1086 89.2672 95.5636Z" fill="white"/>
<path d="M89.2659 89.5047V94.5809C85.1567 93.148 81.2968 91.0813 77.8261 88.4558L75.5248 86.393C75.3204 85.3531 75.2193 84.2956 75.2231 83.2358C75.1704 82.6042 75.1704 81.9694 75.2231 81.3379C79.5361 84.6486 84.2555 87.3932 89.2659 89.5047Z" fill="white"/>
<path d="M89.2664 83.4458V88.4553C84.228 86.3545 79.4934 83.5889 75.1885 80.2324C75.487 78.8251 75.988 77.4685 76.6759 76.2051L89.2664 83.4458Z" fill="white"/>
<path d="M142.956 45.0762L148.201 42.0031C149.523 45.7637 152.382 48.2545 157.416 48.2545C162.236 48.2545 164.303 46.083 164.303 43.3818C164.303 40.0947 161.388 38.9826 155.883 37.2882C150.109 35.5342 144.496 33.4293 144.496 26.4307C144.496 19.597 150.162 15.7275 156.424 15.7275C162.517 15.7275 167.018 18.9585 169.347 23.8873L164.212 26.8517C162.885 23.8873 160.556 21.6632 156.424 21.6632C152.873 21.6632 150.597 23.4629 150.597 26.2693C150.597 29.1319 152.663 30.3492 158.065 32.0436C164.212 34.0047 170.407 35.9025 170.407 43.2695C170.407 50.0506 165.004 54.1831 157.273 54.1831C149.948 54.1866 144.914 50.5839 142.956 45.0762Z" fill="white"/>
<path d="M173.041 40.2573C173.041 32.3642 179.026 26.3232 187.028 26.3232C192.216 26.3232 196.721 29.0245 198.839 33.157L193.928 36.0196C192.746 33.5288 190.136 31.9397 186.979 31.9397C182.32 31.9397 178.77 35.4899 178.77 40.2573C178.77 45.0248 182.32 48.5715 186.979 48.5715C190.157 48.5715 192.753 46.9297 194.026 44.4951L198.938 47.3016C196.714 51.4867 192.209 54.1879 187.01 54.1879C179.026 54.1879 173.041 48.0944 173.041 40.2573Z" fill="white"/>
<path d="M215.629 26.5361V32.7314C211.868 32.4683 207.473 34.2153 207.473 40.1475V53.4993H201.751V27.0132H207.473V31.4615C209.079 27.8587 212.293 26.5361 215.629 26.5361Z" fill="white"/>
<path d="M230.147 48.9434C233.325 48.9434 235.707 47.5121 236.98 45.6598L241.706 48.4136C239.25 52.0164 235.297 54.1879 230.105 54.1879C221.362 54.1879 215.693 48.2031 215.693 40.2573C215.693 32.4168 221.362 26.3232 229.68 26.3232C237.573 26.3232 242.976 32.6799 242.976 40.31C242.96 41.1078 242.89 41.9037 242.765 42.692H221.682C222.569 46.8245 225.919 48.9434 230.147 48.9434ZM237.191 38.0332C236.398 33.4727 233.058 31.5152 229.617 31.5152C225.327 31.5152 222.411 34.0586 221.619 38.0332H237.191Z" fill="white"/>
<path d="M259.333 48.9443C262.511 48.9443 264.893 47.513 266.167 45.6608L270.882 48.4146C268.444 52.0174 264.472 54.1889 259.281 54.1889C250.538 54.1889 244.862 48.1901 244.862 40.2583C244.862 32.4178 250.528 26.3242 258.846 26.3242C266.739 26.3242 272.141 32.6809 272.141 40.3109C272.126 41.1088 272.055 41.9047 271.931 42.6929H250.847C251.756 46.8255 255.095 48.9443 259.333 48.9443ZM266.377 38.0342C265.585 33.4737 262.245 31.5162 258.803 31.5162C254.513 31.5162 251.598 34.0595 250.805 38.0342H266.377Z" fill="white"/>
<path d="M299.802 37.2369V53.5004H294.081V37.8192C294.081 33.7955 291.751 31.6731 288.148 31.6731C284.388 31.6731 281.42 33.9007 281.42 39.3031V53.5004H275.698V27.0143H281.42V30.4031C283.174 27.6493 286.03 26.3232 289.632 26.3232C295.565 26.3232 299.802 30.3505 299.802 37.2369Z" fill="white"/>
<path d="M304.465 14.8271H310.187V53.4967H304.465V14.8271Z" fill="white"/>
<path d="M339.265 27.0098L329.091 54.3412C326.601 61.0697 322.258 64.4585 316.168 64.0902V58.7404C319.876 58.9509 321.886 57.0425 323.212 53.5484L323.475 53.0187L312.249 27.0098H318.5L326.394 46.2376L333.175 27.0098H339.265Z" fill="white"/>
<path d="M170.341 74.4761C170.341 81.0959 165.363 86.13 158.687 86.13H149.152V99.9027H145.444V62.8223H158.687C165.363 62.8223 170.341 67.8002 170.341 74.4761ZM166.633 74.4761C166.633 69.7086 163.297 66.3163 158.687 66.3163H149.152V82.6324H158.687C163.297 82.6324 166.633 79.191 166.633 74.4761Z" fill="white"/>
<path d="M174.701 61.2275H178.209V99.8971H174.701V61.2275Z" fill="white"/>
<path d="M210.389 73.4133V99.8993H206.881V94.7073C204.657 98.2575 200.897 100.534 196.182 100.534C192.501 100.534 188.971 99.0721 186.368 96.4695C183.766 93.8669 182.304 90.337 182.304 86.6563C182.304 82.9756 183.766 79.4457 186.368 76.8431C188.971 74.2405 192.501 72.7783 196.182 72.7783C200.897 72.7783 204.657 75.0551 206.881 78.6052V73.4133H210.389ZM206.881 86.6563C206.871 84.5941 206.25 82.5812 205.096 80.8717C203.943 79.1622 202.309 77.8328 200.401 77.0511C198.492 76.2695 196.395 76.0707 194.374 76.4799C192.353 76.8891 190.498 77.8879 189.044 79.3502C187.59 80.8126 186.602 82.6729 186.204 84.6964C185.807 86.7199 186.017 88.8159 186.81 90.7197C187.602 92.6236 188.941 94.25 190.657 95.3936C192.373 96.5372 194.39 97.1468 196.452 97.1455C197.831 97.1597 199.199 96.8977 200.475 96.375C201.751 95.8522 202.91 95.0794 203.883 94.1018C204.856 93.1243 205.624 91.962 206.14 90.6833C206.657 89.4045 206.913 88.0353 206.892 86.6563H206.881Z" fill="white"/>
<path d="M239.1 73.4111L227.762 102.332C225.752 107.418 221.83 110.86 217.063 110.492V107.208C220.508 107.576 222.89 105.142 224.321 101.697L225.023 100.055L213.158 73.3936H216.866L226.826 95.5892L235.392 73.4111H239.1Z" fill="white"/>
<path d="M267.07 73.4133V98.8399C267.07 106.891 260.605 111.118 253.774 111.118C247.681 111.118 243.285 108.789 241.219 104.656L244.292 102.902C245.615 105.603 248.053 107.722 253.764 107.722C259.907 107.722 263.562 104.214 263.562 98.8223V94.7073C261.338 98.2575 257.577 100.534 252.862 100.534C249.182 100.534 245.652 99.0721 243.049 96.4695C240.447 93.8669 238.984 90.337 238.984 86.6563C238.984 82.9756 240.447 79.4457 243.049 76.8431C245.652 74.2405 249.182 72.7783 252.862 72.7783C257.577 72.7783 261.338 75.0551 263.562 78.6052V73.4133H267.07ZM263.562 86.6563C263.552 84.5944 262.931 82.5818 261.778 80.8725C260.625 79.1631 258.991 77.8336 257.083 77.0518C255.175 76.2699 253.078 76.0707 251.057 76.4794C249.036 76.888 247.182 77.8861 245.727 79.3477C244.273 80.8094 243.284 82.6691 242.886 84.6921C242.487 86.7152 242.697 88.8109 243.488 90.7149C244.28 92.6188 245.618 94.2457 247.333 95.3902C249.048 96.5346 251.064 97.1454 253.125 97.1455C254.505 97.1606 255.874 96.8993 257.151 96.377C258.428 95.8547 259.588 95.082 260.561 94.1044C261.535 93.1268 262.303 91.9641 262.82 90.6849C263.337 89.4057 263.593 88.0359 263.573 86.6563H263.562Z" fill="white"/>
<path d="M284.856 72.9883V76.3771C280.618 76.3771 276.486 78.6047 276.486 85.1718V99.9058H272.978V73.4128H276.486V77.8084C278.352 74.1003 281.478 72.9883 284.856 72.9883Z" fill="white"/>
<path d="M284.971 86.6504C284.96 83.8921 285.768 81.1926 287.292 78.8938C288.816 76.595 290.989 74.8003 293.534 73.737C296.079 72.6738 298.882 72.3898 301.589 72.9211C304.296 73.4524 306.784 74.775 308.738 76.7215C310.692 78.668 312.025 81.1507 312.567 83.8551C313.11 86.5596 312.837 89.3642 311.784 91.9136C310.731 94.463 308.945 96.6425 306.652 98.1761C304.36 99.7097 301.664 100.528 298.905 100.528C297.074 100.55 295.257 100.207 293.56 99.5179C291.863 98.8289 290.321 97.8084 289.023 96.5161C287.726 95.2237 286.699 93.6855 286.003 91.9915C285.307 90.2975 284.957 88.4817 284.971 86.6504ZM309.338 86.6504C309.328 84.5884 308.707 82.5756 307.554 80.8662C306.4 79.1568 304.767 77.8273 302.858 77.0456C300.95 76.2638 298.853 76.0648 296.832 76.4737C294.811 76.8826 292.957 77.8811 291.502 79.3431C290.048 80.8051 289.06 82.6651 288.662 84.6884C288.264 86.7116 288.474 88.8075 289.266 90.7114C290.058 92.6153 291.396 94.2419 293.112 95.386C294.827 96.53 296.843 97.1402 298.905 97.1396C300.284 97.1528 301.651 96.8901 302.926 96.367C304.202 95.8439 305.36 95.0708 306.332 94.0934C307.304 93.116 308.071 91.954 308.587 90.6757C309.104 89.3975 309.359 88.0288 309.338 86.6504Z" fill="white"/>
<path d="M339.322 73.4102V99.8962H335.814V95.7637C333.747 99.0998 330.674 100.531 326.914 100.531C320.452 100.531 316.533 96.2934 316.533 89.6561V73.4102H320.041V89.6701C320.041 94.385 322.637 97.1423 327.247 97.1423C331.857 97.1423 335.828 94.385 335.828 87.2881V73.4102H339.322Z" fill="white"/>
<path d="M368.032 83.6208V99.8983H364.524V83.6208C364.524 78.906 361.928 76.1521 357.322 76.1521C352.66 76.1521 348.738 78.906 348.738 86.0063V99.8983H345.229V73.4123H348.738V77.5413C350.804 74.2051 353.877 72.7773 357.638 72.7773C364.11 72.7773 368.032 77.0151 368.032 83.6208Z" fill="white"/>
<path d="M399.601 62.8223V99.9027H396.093V94.7107C393.869 98.2609 390.108 100.538 385.394 100.538C381.713 100.538 378.183 99.0755 375.58 96.4729C372.978 93.8703 371.516 90.3403 371.516 86.6597C371.516 82.979 372.978 79.4491 375.58 76.8465C378.183 74.2438 381.713 72.7817 385.394 72.7817C390.108 72.7817 393.869 75.0585 396.093 78.6086V62.8223H399.601ZM396.093 86.6772C396.083 84.6153 395.462 82.6027 394.309 80.8934C393.156 79.1841 391.522 77.8546 389.614 77.0727C387.706 76.2909 385.61 76.0917 383.589 76.5003C381.568 76.9089 379.713 77.907 378.259 79.3687C376.804 80.8303 375.815 82.69 375.417 84.7131C375.019 86.7361 375.228 88.8318 376.02 90.7358C376.811 92.6398 378.149 94.2666 379.864 95.4111C381.579 96.5556 383.595 97.1664 385.657 97.1664C387.038 97.1821 388.409 96.9206 389.687 96.3974C390.966 95.8742 392.127 95.1 393.101 94.1205C394.076 93.1409 394.844 91.976 395.36 90.6945C395.876 89.4131 396.13 88.0411 396.107 86.6597L396.093 86.6772Z" fill="white"/>
</g>
<defs>
<clipPath id="clip0_9_987">
<rect width="399.602" height="120" fill="white"/>
</clipPath>
</defs>
</svg>