<?xml version="1.0" encoding="UTF-8"?>
<svg version="1.1" xmlns="http://www.w3.org/2000/svg" width="414" height="414">
<path d="M0 0 C136.62 0 273.24 0 414 0 C414 136.62 414 273.24 414 414 C277.38 414 140.76 414 0 414 C0 277.38 0 140.76 0 0 Z " fill="#3A7FED" transform="translate(0,0)"/>
<path d="M0 0 C7.59476994 -0.09955332 15.18915235 -0.17179175 22.78442383 -0.21972656 C25.36326726 -0.23972885 27.942066 -0.26693956 30.52075195 -0.30175781 C34.24702039 -0.35077817 37.97268447 -0.37308374 41.69921875 -0.390625 C43.40316048 -0.42159271 43.40316048 -0.42159271 45.14152527 -0.45318604 C57.8990437 -0.45668948 68.47752615 2.7054799 77.67578125 11.625 C88.79150658 23.54061623 87.60289812 38.56396015 87.17919922 53.83398438 C86.65830417 63.03693672 83.69012639 71.46779505 77 78 C66.71570445 86.80748494 56.81471879 88.46475397 43.5546875 88.29296875 C42.30366241 88.28872391 41.05263733 88.28447906 39.76370239 88.28010559 C36.47237125 88.26625204 33.18149918 88.23940206 29.89031982 88.20599365 C26.51808222 88.1750482 23.14577682 88.16154853 19.7734375 88.14648438 C13.18209229 88.11355528 6.59113475 88.06184541 0 88 C0 82.06 0 76.12 0 70 C1.98 70 3.96 70 6 70 C6 53.17 6 36.34 6 19 C4.02 19 2.04 19 0 19 C0 12.73 0 6.46 0 0 Z " fill="#FDFDFD" transform="translate(182,100)"/>
<path d="M0 0 C14.19 0 28.38 0 43 0 C43 6.27 43 12.54 43 19 C41.68 19 40.36 19 39 19 C39.78281305 20.33855056 40.57651877 21.67073644 41.375 23 C41.81585938 23.7425 42.25671875 24.485 42.7109375 25.25 C43.34902344 26.11625 43.34902344 26.11625 44 27 C44.66 27 45.32 27 46 27 C47.36277086 25.21034453 47.36277086 25.21034453 48.625 23 C49.29402344 21.88625 49.29402344 21.88625 49.9765625 20.75 C50.31429687 20.1725 50.65203125 19.595 51 19 C49.68 19 48.36 19 47 19 C47 12.73 47 6.46 47 0 C60.2 0 73.4 0 87 0 C87 6.27 87 12.54 87 19 C84.69 19.33 82.38 19.66 80 20 C78.16345853 21.18427315 78.16345853 21.18427315 76.9375 22.87890625 C76.21191895 23.7613501 76.21191895 23.7613501 75.47167969 24.66162109 C74.98602539 25.28891113 74.50037109 25.91620117 74 26.5625 C72.96379936 27.83744906 71.92734209 29.1121896 70.890625 30.38671875 C70.39755859 31.00595215 69.90449219 31.62518555 69.39648438 32.26318359 C67.57813066 34.52468156 65.67475848 36.70377854 63.75 38.875 C62.93789063 39.79925781 62.93789063 39.79925781 62.109375 40.7421875 C61.74328125 41.15726562 61.3771875 41.57234375 61 42 C62.72103469 46.22435787 65.70939232 49.3121901 68.6875 52.6875 C72.84923924 57.44137932 76.79791825 62.22579672 80.40234375 67.42578125 C82.23878908 69.52315661 82.23878908 69.52315661 87 70 C87 76.27 87 82.54 87 89 C72.81 89 58.62 89 44 89 C44 82.73 44 76.46 44 70 C45.98 69.505 45.98 69.505 48 69 C45.525 65.535 45.525 65.535 43 62 C39.00003714 63.33332095 38.16217663 65.4957827 36 69 C36.99 69.33 37.98 69.66 39 70 C39 76.27 39 82.54 39 89 C26.13 89 13.26 89 0 89 C0 82.73 0 76.46 0 70 C3.465 69.01 3.465 69.01 7 68 C8.9532443 66.47446097 8.9532443 66.47446097 10.375 64.5 C11.22964844 63.44039063 11.22964844 63.44039063 12.1015625 62.359375 C13.04128906 61.19148438 13.04128906 61.19148438 14 60 C15.57407549 58.24166818 17.15764713 56.49179699 18.75 54.75 C21.3236329 51.92440304 23.75650126 49.09546028 26 46 C24.6886807 43.15530821 23.24017874 40.92172334 21.171875 38.57421875 C20.34236328 37.62579102 20.34236328 37.62579102 19.49609375 36.65820312 C18.91988281 36.00787109 18.34367187 35.35753906 17.75 34.6875 C16.61961209 33.39989722 15.48940296 32.11213745 14.359375 30.82421875 C13.79927734 30.19435059 13.23917969 29.56448242 12.66210938 28.91552734 C11.55009915 27.63397149 10.46772136 26.32611949 9.41601562 24.99462891 C8.91263672 24.36347168 8.40925781 23.73231445 7.890625 23.08203125 C7.45266602 22.51331299 7.01470703 21.94459473 6.56347656 21.35864258 C4.6970415 19.51026937 4.6970415 19.51026937 0 19 C0 12.73 0 6.46 0 0 Z " fill="#FAFBFD" transform="translate(204,216)"/>
<path d="M0 0 C25.41 0 50.82 0 77 0 C77 11.22 77 22.44 77 34 C68.42 34 59.84 34 51 34 C51 29.05 51 24.1 51 19 C46.71 19 42.42 19 38 19 C38 24.94 38 30.88 38 37 C41.3 37 44.6 37 48 37 C48 41.29 48 45.58 48 50 C44.7 50 41.4 50 38 50 C38 56.6 38 63.2 38 70 C42.62 70 47.24 70 52 70 C52 64.06 52 58.12 52 52 C60.25 52 68.5 52 77 52 C77 63.88 77 75.76 77 88 C51.59 88 26.18 88 0 88 C0 82.06 0 76.12 0 70 C1.98 70 3.96 70 6 70 C6 53.17 6 36.34 6 19 C4.02 19 2.04 19 0 19 C0 12.73 0 6.46 0 0 Z " fill="#FCFDFD" transform="translate(123,216)"/>
<path d="M0 0 C28.05 0 56.1 0 85 0 C85 9.24 85 18.48 85 28 C78.4 28 71.8 28 65 28 C65 25.03 65 22.06 65 19 C62.69 19 60.38 19 58 19 C58 35.83 58 52.66 58 70 C60.64 70 63.28 70 66 70 C66 76.27 66 82.54 66 89 C50.16 89 34.32 89 18 89 C18 82.73 18 76.46 18 70 C20.64 70 23.28 70 26 70 C26 53.17 26 36.34 26 19 C23.69 19 21.38 19 19 19 C19 21.64 19 24.28 19 27 C12.73 27 6.46 27 0 27 C0 18.09 0 9.18 0 0 Z " fill="#FAFBFD" transform="translate(295,216)"/>
<path d="M0 0 C28.05 0 56.1 0 85 0 C85 8.91 85 17.82 85 27 C78.73 27 72.46 27 66 27 C66 24.36 66 21.72 66 19 C63.69 19 61.38 19 59 19 C59 35.83 59 52.66 59 70 C61.31 70 63.62 70 66 70 C66 76.27 66 82.54 66 89 C50.49 89 34.98 89 19 89 C19 82.73 19 76.46 19 70 C21.64 70 24.28 70 27 70 C27 53.17 27 36.34 27 19 C24.69 19 22.38 19 20 19 C20 21.97 20 24.94 20 28 C13.4 28 6.8 28 0 28 C0 18.76 0 9.52 0 0 Z " fill="#FBFCFD" transform="translate(34,216)"/>
<path d="M0 0 C5.65717974 4.02491104 9.17121756 8.85588145 11.1796875 15.55078125 C12.04077305 22.64144865 11.57434806 28.73767117 7.1796875 34.55078125 C4.98058594 36.74988281 2.67651213 38.69920343 0.1796875 40.55078125 C1.10201172 41.31261719 1.10201172 41.31261719 2.04296875 42.08984375 C11.80464928 50.40361951 11.80464928 50.40361951 12.44921875 57.53125 C12.69012399 65.28482991 12.4971212 71.60041612 7.3984375 77.671875 C-1.09950865 86.06205734 -10.43669415 87.91118191 -22.0078125 88.05078125 C-32.93190253 87.97826105 -43.96612498 86.47787501 -53.8203125 81.55078125 C-53.8203125 73.63078125 -53.8203125 65.71078125 -53.8203125 57.55078125 C-42.32636135 60.36041375 -42.32636135 60.36041375 -38.93359375 61.63671875 C-35.13259722 62.75269515 -31.55602041 62.84417157 -27.6328125 62.80078125 C-26.92189453 62.80851562 -26.21097656 62.81625 -25.47851562 62.82421875 C-21.72019219 62.81007642 -20.0213169 62.68478418 -16.8203125 60.55078125 C-16.15350882 57.59357497 -16.15350882 57.59357497 -16.8203125 54.55078125 C-20.90713756 50.60018369 -26.4327696 50.90995078 -31.8203125 50.55078125 C-31.8203125 44.61078125 -31.8203125 38.67078125 -31.8203125 32.55078125 C-30.3971875 32.42703125 -28.9740625 32.30328125 -27.5078125 32.17578125 C-24.01457452 31.87202143 -22.85556736 31.57428449 -19.8203125 29.55078125 C-19.3203125 26.05078125 -19.3203125 26.05078125 -19.8203125 22.55078125 C-23.62037596 20.01740561 -26.43067388 19.85290548 -30.8203125 20.55078125 C-35.81162726 22.21242253 -40.84932177 23.98036957 -44.9921875 27.28125 C-45.59546875 27.70019531 -46.19875 28.11914062 -46.8203125 28.55078125 C-47.8103125 28.22078125 -48.8003125 27.89078125 -49.8203125 27.55078125 C-50.63574219 25.66479492 -50.63574219 25.66479492 -51.2421875 23.21875 C-51.57283203 21.89713867 -51.57283203 21.89713867 -51.91015625 20.54882812 C-52.23693359 19.15760742 -52.23693359 19.15760742 -52.5703125 17.73828125 C-52.80363281 16.82240234 -53.03695312 15.90652344 -53.27734375 14.96289062 C-55.20407538 7.04252379 -55.20407538 7.04252379 -53.8203125 3.55078125 C-51.34375 2.13671875 -51.34375 2.13671875 -48.1953125 0.92578125 C-47.17179687 0.52101563 -46.14828125 0.11625 -45.09375 -0.30078125 C-44.01351562 -0.67976563 -42.93328125 -1.05875 -41.8203125 -1.44921875 C-40.78519531 -1.81917969 -39.75007813 -2.18914062 -38.68359375 -2.5703125 C-26.86484455 -5.25910782 -10.9496864 -5.76726806 0 0 Z " fill="#FBFCFD" transform="translate(165.8203125,102.44921875)"/>
<path d="M0 0 C11 0 11 0 13.65649414 1.42602539 C15.68656588 5.31536691 15.55259137 8.85601808 15.49609375 13.18359375 C15.49754898 14.07611343 15.49900421 14.96863312 15.50050354 15.88819885 C15.49884548 17.77356229 15.4872945 19.65893939 15.46655273 21.54418945 C15.43763628 24.42392771 15.44593792 27.30182008 15.45898438 30.18164062 C15.45274545 32.01563392 15.44435331 33.84962141 15.43359375 35.68359375 C15.43652939 36.54206406 15.43946503 37.40053436 15.44248962 38.28501892 C15.36855887 42.99196313 15.0756454 46.18845533 12 50 C10 51 10 51 0 51 C0 34.17 0 17.34 0 0 Z " fill="#4385ED" transform="translate(219,119)"/>
</svg>
