<?xml version="1.0" encoding="UTF-8"?>
<svg version="1.1" xmlns="http://www.w3.org/2000/svg" width="414" height="414">
<path d="M0 0 C0.86625 0.721875 1.7325 1.44375 2.625 2.1875 C6.18379967 5.17223377 6.18379967 5.17223377 10.3125 7.1875 C12.625 8.1875 12.625 8.1875 14 9.875 C15.14897943 14.12622389 13.9879324 18.0987028 12.625 22.1875 C13.73875 22.2803125 13.73875 22.2803125 14.875 22.375 C18.60001049 23.47557128 19.6717078 24.85966884 21.625 28.1875 C22.23385138 32.37335327 21.92686207 34.57170138 20.0625 38.375 C17.11495027 41.77601892 14.66512592 43.24225419 10.625 45.1875 C9.965 45.1875 9.305 45.1875 8.625 45.1875 C8.955 46.1775 9.285 47.1675 9.625 48.1875 C10.43167114 48.01359741 10.43167114 48.01359741 11.25463867 47.83618164 C21.6907924 45.60821369 31.92528677 43.51714457 42.625 43.1875 C43.68074219 43.1359375 44.73648438 43.084375 45.82421875 43.03125 C84.59703236 41.95047471 121.97849776 62.6837013 152.53125 84.8046875 C161.00912674 90.40388221 176.4442093 88.41998184 186.50226212 88.75712204 C190.53828602 88.89434989 194.57377435 89.0462412 198.609375 89.1953125 C203.70711898 89.38267637 208.80492117 89.56568019 213.90332031 89.734375 C218.06317291 89.87239827 222.22232217 90.02419635 226.38134384 90.18526077 C227.95761047 90.24374672 229.53407472 90.29714221 231.11069107 90.34528732 C233.30513418 90.41291161 235.4982416 90.49810427 237.69189453 90.58740234 C238.93762238 90.63101898 240.18335022 90.67463562 241.46682739 90.71957397 C244.82168421 91.21664143 246.27206515 91.78181332 248.625 94.1875 C250.05203602 99.03942245 249.70232319 102.64244752 247.7734375 107.19921875 C244.77214811 112.39532862 240.00299112 116.57533289 234.625 119.1875 C233.965 119.1875 233.305 119.1875 232.625 119.1875 C232.49544922 120.25677734 232.49544922 120.25677734 232.36328125 121.34765625 C231.23953983 129.00765511 229.64455142 133.9837247 223.5078125 138.875 C217.71659803 142.93080003 212.78250681 145.3075924 205.625 145.1875 C205.58761719 145.83976563 205.55023438 146.49203125 205.51171875 147.1640625 C205.10472817 152.57464313 204.30504215 156.38575781 201.625 161.1875 C200.61224842 165.09476898 200.48971294 168.80561789 200.46728516 172.83178711 C200.46220444 173.47992874 200.45712372 174.12807037 200.45188904 174.79585266 C200.44122228 176.19969796 200.43258774 177.60355986 200.42576981 179.00742912 C200.41386073 181.25288684 200.39436766 183.49816236 200.37265015 185.74354553 C200.3115154 192.12738647 200.25757569 198.51121571 200.22363281 204.89526367 C200.04961166 235.84884624 200.04961166 235.84884624 198.2734375 249.06640625 C198.10045639 250.35719337 198.10045639 250.35719337 197.92398071 251.67405701 C196.51016954 260.73662028 192.2949465 267.82587199 184.99560547 273.44091797 C178.49946279 278.12003125 171.77479329 282.3841088 164.5234375 285.79296875 C160.45581577 287.75003204 156.48659281 289.88380626 152.5 292 C138.52053255 299.37329612 124.36944292 306.2884538 110.0625 313 C109.35364655 313.3326889 108.64479309 313.66537781 107.91445923 314.00814819 C105.85908831 314.97189056 103.80279844 315.93363897 101.74609375 316.89453125 C100.82650375 317.32537521 100.82650375 317.32537521 99.88833618 317.7649231 C95.83385101 319.65467793 91.74320204 321.44146638 87.625 323.1875 C86.81039307 323.53586914 85.99578613 323.88423828 85.15649414 324.24316406 C84.41520264 324.55995117 83.67391113 324.87673828 82.91015625 325.203125 C74.57147523 328.76978927 66.23800336 332.34524063 57.9375 336 C53.15720207 338.10199575 48.35934255 340.12859617 43.49609375 342.03125 C40.26876174 343.33096466 37.07216813 344.69535846 33.87231445 346.06103516 C26.4168025 349.23740832 18.96135909 352.25365074 11.296875 354.8984375 C8.47674544 355.88848298 5.68340949 356.9139692 2.890625 357.9765625 C-14.70486369 364.66240087 -32.89637457 369.26837994 -50.98828125 361.26953125 C-52.56004009 360.52420535 -54.12636724 359.76733372 -55.6875 359 C-56.51999268 358.5978125 -57.35248535 358.195625 -58.21020508 357.78125 C-63.7390008 355.07773487 -69.10171244 352.17836711 -74.3671875 348.98828125 C-76.60603066 347.64788294 -78.84711492 346.360823 -81.1328125 345.10546875 C-89.99667763 340.2368129 -98.45365696 334.97927399 -106.79589844 329.26416016 C-108.82646739 327.87968132 -110.88163925 326.53405086 -112.9375 325.1875 C-142.59156094 305.34338361 -142.59156094 305.34338361 -145.375 292.1875 C-145.46654508 290.45551409 -145.50553051 288.72040833 -145.50871277 286.98600769 C-145.51297775 285.93358887 -145.51724274 284.88117004 -145.52163696 283.79685974 C-145.52118378 282.64726273 -145.52073059 281.49766571 -145.52026367 280.31323242 C-145.52362228 279.09803925 -145.5269809 277.88284607 -145.53044128 276.63082886 C-145.53831693 273.29750114 -145.5416193 269.96423574 -145.54225707 266.63090301 C-145.54296899 264.54225064 -145.5451062 262.45360475 -145.54775429 260.36495399 C-145.55701104 253.0597861 -145.5610895 245.75463645 -145.56030273 238.44946289 C-145.55970458 231.6729602 -145.57020374 224.8965378 -145.5860464 218.12005538 C-145.59920342 212.28114363 -145.60448311 206.44225781 -145.60384732 200.60333139 C-145.60359436 197.12588292 -145.60633172 193.64850553 -145.61702538 190.17107201 C-145.70840425 158.19373322 -142.20534563 138.72494426 -119.375 115.1875 C-118.25931641 114.011875 -118.25931641 114.011875 -117.12109375 112.8125 C-115.58658215 111.22352765 -113.98871383 109.69597163 -112.375 108.1875 C-111.715 108.1875 -111.055 108.1875 -110.375 108.1875 C-110.21644531 107.27871094 -110.05789062 106.36992187 -109.89453125 105.43359375 C-104.32284294 75.42035562 -89.33167852 48.02396728 -67.875 26.375 C-67.26309814 25.7574585 -66.65119629 25.13991699 -66.02075195 24.50366211 C-61.63190437 20.1875 -61.63190437 20.1875 -59.375 20.1875 C-59.375 19.5275 -59.375 18.8675 -59.375 18.1875 C-57.20006105 16.52126526 -55.03841998 14.99699297 -52.75 13.5 C-52.06993896 13.05446777 -51.38987793 12.60893555 -50.68920898 12.14990234 C-37.03571221 3.35762623 -16.2374878 -8.72013234 0 0 Z " fill="#343435" transform="translate(154.375,24.8125)"/>
<path d="M0 0 C1.1873877 0.00418945 2.37477539 0.00837891 3.59814453 0.01269531 C12.02381175 0.12138376 19.5347672 0.84700689 27.625 3.3125 C28.64335937 3.57933594 29.66171875 3.84617187 30.7109375 4.12109375 C53.53511001 10.46114167 85.2089072 23.9419097 101.625 41.3125 C100.55121094 41.44527344 99.47742188 41.57804687 98.37109375 41.71484375 C96.93489167 41.89319564 95.49869399 42.07158295 94.0625 42.25 C93.00579102 42.38051758 93.00579102 42.38051758 91.92773438 42.51367188 C91.22841797 42.60068359 90.52910156 42.68769531 89.80859375 42.77734375 C89.1021875 42.85823242 88.39578125 42.93912109 87.66796875 43.02246094 C85.36680177 43.31137814 85.36680177 43.31137814 82.15234375 44.19921875 C76.96086829 44.36594388 73.96150824 42.01900639 69.75 39.1875 C67.47153782 37.71021235 65.18995313 36.23877492 62.89941406 34.78027344 C61.38994365 33.80614977 59.90139418 32.79877539 58.43652344 31.75878906 C54.11274214 28.92437435 51.37125443 27.94320927 46.20703125 28.84375 C44.33919787 29.30527954 42.47803304 29.79473596 40.625 30.3125 C38.941872 30.69994554 37.25828345 31.08539635 35.57421875 31.46875 C9.85536737 37.91007876 -14.68076564 46.3632877 -38.375 58.3125 C-39.63425293 58.94623535 -39.63425293 58.94623535 -40.91894531 59.59277344 C-58.5493669 68.60775209 -74.57892312 80.20313318 -89.375 93.3125 C-90.17550781 93.98023438 -90.97601563 94.64796875 -91.80078125 95.3359375 C-92.50589844 95.92632812 -93.21101563 96.51671875 -93.9375 97.125 C-94.51628906 97.60582031 -95.09507813 98.08664063 -95.69140625 98.58203125 C-97.96899986 100.92303814 -99.62390945 103.56516538 -101.375 106.3125 C-97.89755674 108.48304856 -94.41044393 110.63700344 -90.91357422 112.77612305 C-89.72558335 113.50600933 -88.54032433 114.24036171 -87.35791016 114.97924805 C-85.65733 116.04086126 -83.94596348 117.08513408 -82.234375 118.12890625 C-80.69475098 119.07938843 -80.69475098 119.07938843 -79.12402344 120.04907227 C-76.53151153 121.51965899 -76.53151153 121.51965899 -74.10473633 121.09350586 C-71.99287655 120.13996466 -70.86711267 119.03012832 -69.3125 117.3125 C-39.11114527 85.96907723 3.87642942 68.49240127 44.6875 56.125 C45.36530518 55.91641357 46.04311035 55.70782715 46.74145508 55.49291992 C49.9540903 54.56542626 51.36920474 54.22723491 54.625 55.3125 C53.39136719 56.27736328 53.39136719 56.27736328 52.1328125 57.26171875 C32.83311383 72.71949578 22.04316146 94.32309083 10.99072266 116.01538086 C6.98504958 123.83080334 2.72908133 131.44682651 -1.75 139 C-17.87286882 165.86175088 -17.87286882 165.86175088 -21.375 196.3125 C-19.39111894 202.19573349 -15.77794447 205.35163582 -10.375 208.3125 C-7.45840959 208.70445286 -5.02229814 208.88693907 -2.125 208.8125 C-1.37283203 208.80041504 -0.62066406 208.78833008 0.15429688 208.77587891 C6.29121935 208.5578358 11.25439681 207.38414161 16.625 204.3125 C17.40230469 203.87679687 18.17960938 203.44109375 18.98046875 202.9921875 C25.72013711 198.86033052 31.21149413 193.66338362 34.4375 186.375 C36.625 183.3125 36.625 183.3125 38.73828125 182.8671875 C40.45925239 182.78689336 42.1806671 182.71573391 43.90234375 182.65234375 C48.90684895 182.02767811 52.786761 179.48264962 56.625 176.3125 C57.77484941 174.76202433 58.880012 173.17738315 59.9375 171.5625 C62.07314021 168.52604472 63.03982088 167.47496618 66.6640625 166.46875 C68.92777326 166.1981455 71.19505294 165.95587619 73.46484375 165.7421875 C78.91433797 165.00121795 82.72412527 162.73224868 86.11328125 158.41796875 C88.07141188 155.39701796 89.54212977 152.55485071 90.7109375 149.13671875 C92.625 146.3125 92.625 146.3125 94.45483398 145.67797852 C96.79021382 145.33817802 99.07997559 145.16803267 101.4375 145.0625 C103.02775783 144.95932025 104.61763441 144.85006311 106.20703125 144.734375 C107.3374585 144.65219727 107.3374585 144.65219727 108.49072266 144.56835938 C111.36317323 144.22400703 113.94055589 143.36725743 116.625 142.3125 C113.1927434 170.24396752 95.61921664 195.7419574 73.8125 212.8125 C52.31766682 229.05930081 27.48157757 238.58232885 1.625 245.3125 C0.97764893 245.49586914 0.33029785 245.67923828 -0.33666992 245.86816406 C-18.92101655 249.9193691 -38.40843273 244.78780509 -54.375 235.3125 C-70.30796797 224.54879551 -80.68733926 209.29999813 -85.00390625 190.5859375 C-85.54825482 185.78421015 -85.51903399 181.01578805 -85.5 176.1875 C-85.50386719 175.19878906 -85.50773437 174.21007812 -85.51171875 173.19140625 C-85.51042969 172.23878906 -85.50914063 171.28617188 -85.5078125 170.3046875 C-85.50668457 169.44214355 -85.50555664 168.57959961 -85.50439453 167.69091797 C-85.38141915 165.43049126 -85.00645826 163.48027676 -84.375 161.3125 C-85.06335938 161.06242188 -85.75171875 160.81234375 -86.4609375 160.5546875 C-89.82389958 159.12114602 -92.88732338 157.33667538 -96 155.4375 C-96.6482373 155.04530273 -97.29647461 154.65310547 -97.96435547 154.24902344 C-103.99213145 150.58365718 -109.95336322 146.81360273 -115.90942383 143.03320312 C-121.80888557 139.29079261 -127.74038763 135.60362708 -133.6875 131.9375 C-143.8004013 125.69356382 -153.85172286 119.35750508 -163.84814453 112.92871094 C-166.24204712 111.39753846 -168.64848246 109.88829252 -171.05859375 108.3828125 C-172.43538264 107.50597224 -173.8117184 106.62841989 -175.1875 105.75 C-175.80995605 105.36884033 -176.43241211 104.98768066 -177.07373047 104.5949707 C-179.61160924 102.95042818 -181.19383272 101.70098899 -182.484375 98.93359375 C-182.33199646 95.28195083 -180.80325275 92.88244258 -178.8125 89.9375 C-178.41409912 89.33462158 -178.01569824 88.73174316 -177.60522461 88.1105957 C-172.35376857 80.45571376 -165.93732327 73.84333042 -159.375 67.3125 C-158.12589844 66.06339844 -158.12589844 66.06339844 -156.8515625 64.7890625 C-144.94526885 53.53294188 -130.78289415 44.94765864 -116.375 37.3125 C-115.4684668 36.82716797 -114.56193359 36.34183594 -113.62792969 35.84179688 C-92.53065481 24.56289603 -92.53065481 24.56289603 -81.375 20.3125 C-79.60732593 19.6099495 -77.84048651 18.90529737 -76.07421875 18.19921875 C-59.41531387 11.56425342 -43.01922083 5.70436834 -25.375 2.3125 C-24.46717773 2.13227295 -23.55935547 1.9520459 -22.62402344 1.76635742 C-15.04700552 0.3664191 -7.69723452 -0.03725352 0 0 Z " fill="#C6C6C9" transform="translate(201.375,73.6875)"/>
<path d="M0 0 C1.45029538 -0.01141585 2.90055231 -0.03169888 4.35058594 -0.06152344 C15.30776927 -0.28603532 24.82606977 1.20500099 35.32714844 4.29516602 C36.82692728 4.69703397 38.32687362 5.09827864 39.82714844 5.49829102 C48.85340515 8.19810887 57.0009842 11.79346553 65.30615234 16.22583008 C67.30465158 17.28326263 69.31807502 18.30452613 71.33886719 19.31860352 C99.26362336 33.49106754 99.26362336 33.49106754 108.0222168 41.92797852 C111.72147394 44.12222065 115.58015972 43.98897189 119.81152344 44.20922852 C120.7640802 44.26897354 121.71663696 44.32871857 122.69805908 44.39027405 C125.82375069 44.58143786 128.95016688 44.75152456 132.07714844 44.92016602 C134.23211997 45.04581956 136.38706776 45.17188104 138.54199219 45.29833984 C158.45802834 46.43200565 178.38285679 46.99232065 198.32714844 47.29516602 C197.99714844 48.61516602 197.66714844 49.93516602 197.32714844 51.29516602 C180.10865785 51.39231052 162.91108453 51.44876977 145.70214844 50.79516602 C135.27604164 50.41190823 124.86097368 50.16050904 114.42803955 50.11791992 C112.97290005 50.1112166 111.5177712 50.10110593 110.06268311 50.0871582 C98.11583198 49.98067441 86.36687655 50.55442606 75.13964844 54.98266602 C74.46530762 55.24394287 73.7909668 55.50521973 73.09619141 55.77441406 C67.20309704 58.16058796 62.23333033 61.23748476 57.32714844 65.29516602 C56.53308594 65.9280957 55.73902344 66.56102539 54.92089844 67.21313477 C36.44837022 82.79202328 26.14660588 104.66140612 15.33447266 125.76513672 C11.45931076 133.27434704 7.31914915 140.58711152 3.01464844 147.85766602 C-9.4808085 168.04991277 -9.4808085 168.04991277 -13.98535156 190.92016602 C-14.01048828 192.79575195 -14.01048828 192.79575195 -14.03613281 194.70922852 C-13.57333261 199.27751439 -12.07665091 202.52515814 -9.23535156 206.10766602 C-5.2064361 209.16964176 0.52623637 208.80165154 5.32714844 208.29516602 C16.59659432 205.70363772 25.84367281 200.04856847 32.32714844 190.29516602 C33.04710662 187.64899533 33.04710662 187.64899533 33.32714844 185.29516602 C31.74933594 184.33610352 31.74933594 184.33610352 30.13964844 183.35766602 C25.82056109 180.28768336 23.11807316 176.27617541 21.32714844 171.29516602 C21.65714844 170.30516602 21.98714844 169.31516602 22.32714844 168.29516602 C22.57207031 168.80305664 22.81699219 169.31094727 23.06933594 169.83422852 C26.46419383 176.0854496 30.71069764 179.64665951 37.32714844 182.29516602 C42.61565664 183.40391811 46.87082125 182.91688304 51.57714844 180.23266602 C55.47110839 177.47840166 58.45191625 174.07435377 61.32714844 170.29516602 C60.52277344 170.25391602 59.71839844 170.21266602 58.88964844 170.17016602 C50.6812222 168.15406132 43.54803468 161.79310356 38.32714844 155.29516602 C37.10449219 152.54907227 37.10449219 152.54907227 36.32714844 150.29516602 C36.94589844 150.97579102 37.56464844 151.65641602 38.20214844 152.35766602 C46.79996407 160.85887697 56.82225926 166.3587179 69.01464844 166.79516602 C74.52448555 166.58601443 79.04259903 165.94159104 83.32714844 162.29516602 C86.34751994 158.60107756 88.33549256 154.97160635 89.32714844 150.29516602 C88.61171875 150.15981445 87.89628906 150.02446289 87.15917969 149.88500977 C76.33527456 147.54659818 66.43703189 142.94162755 58.32714844 135.29516602 C62.13077382 135.29516602 64.56588191 136.86088704 67.82714844 138.60766602 C77.62400434 143.59304091 85.92331052 145.54084324 96.95214844 145.67016602 C97.83523682 145.68426514 98.7183252 145.69836426 99.62817383 145.71289062 C108.18235004 145.64975133 115.52203117 143.88944153 121.88964844 137.97875977 C124.83640176 134.52753508 125.90722402 130.55493927 127.32714844 126.29516602 C126.12960937 126.26938477 124.93207031 126.24360352 123.69824219 126.21704102 C108.0233014 125.73468534 88.68136452 123.5339889 76.40527344 112.58032227 C76.04949219 112.1562207 75.69371094 111.73211914 75.32714844 111.29516602 C80.7465551 113.06610677 86.06951793 115.05929196 91.40136719 117.07641602 C101.80480459 120.51747977 112.18823462 120.5483465 123.01464844 120.42016602 C124.50617884 120.41010893 125.99771586 120.40098794 127.48925781 120.39282227 C131.10202817 120.37104145 134.71454436 120.33666452 138.32714844 120.29516602 C137.99714844 121.61516602 137.66714844 122.93516602 137.32714844 124.29516602 C140.95714844 123.30516602 144.58714844 122.31516602 148.32714844 121.29516602 C144.89183382 156.16360935 130.98867611 188.33713213 103.87182617 211.30737305 C94.54647793 218.59193463 84.07959604 223.50382804 73.26464844 228.10766602 C71.86382557 228.71166662 70.46311143 229.31591942 69.0625 229.92041016 C49.78822785 238.19914538 30.26985742 245.81597522 10.40966797 252.57495117 C7.385156 253.620943 4.39022772 254.74517054 1.38964844 255.85766602 C-5.18617851 258.21940668 -11.86502327 260.1139169 -18.58935547 261.99682617 C-24.42550632 263.63553805 -30.21440107 265.37800363 -35.98535156 267.23266602 C-43.39370975 269.60520517 -50.83295039 271.85693154 -58.29785156 274.04516602 C-59.29341064 274.3389917 -60.28896973 274.63281738 -61.31469727 274.93554688 C-88.96701548 282.99100016 -108.10993484 273.15063322 -132.67285156 260.29516602 C-133.38940918 259.92166016 -134.1059668 259.5481543 -134.84423828 259.16333008 C-150.94121153 250.70088102 -171.94763379 239.53427382 -183.67285156 225.29516602 C-184.05037498 223.18919277 -184.05037498 223.18919277 -184.05380249 220.71177673 C-184.06226196 219.77130493 -184.07072144 218.83083313 -184.07943726 217.86186218 C-184.07336456 216.83172501 -184.06729187 215.80158783 -184.06103516 214.74023438 C-184.06629211 213.65370575 -184.07154907 212.56717712 -184.07696533 211.44772339 C-184.09020466 207.84334065 -184.08140877 204.23939729 -184.07128906 200.63500977 C-184.07330969 198.12976497 -184.07622103 195.62452074 -184.07998657 193.11927795 C-184.0844161 187.85925814 -184.07824832 182.59935271 -184.06396484 177.33935547 C-184.0476968 171.27899885 -184.05288229 165.21894596 -184.06944406 159.15859693 C-184.08477224 153.31359294 -184.08305359 147.46870317 -184.07429886 141.62368965 C-184.07230349 139.14509602 -184.07473274 136.66649461 -184.08173752 134.18791008 C-184.08940341 130.71035531 -184.0776726 127.23337191 -184.06103516 123.75585938 C-184.06710785 122.73989182 -184.07318054 121.72392426 -184.07943726 120.6771698 C-184.02143131 114.09308061 -182.90337692 108.48960114 -180.67285156 102.29516602 C-180.13738708 102.70420166 -179.60192261 103.1132373 -179.05023193 103.53466797 C-174.50336786 106.99836136 -169.86533964 110.22221485 -165.04785156 113.29516602 C-164.32331787 113.76027588 -163.59878418 114.22538574 -162.85229492 114.70458984 C-161.28256097 115.7110926 -159.71180848 116.71600828 -158.14013672 117.71948242 C-155.62123247 119.32813154 -153.10596245 120.94236121 -150.59082031 122.55688477 C-137.42522559 130.98898722 -124.1443298 139.22604814 -110.80004883 147.37182617 C-108.61133719 148.71796329 -106.43328606 150.0747598 -104.26245117 151.44897461 C-97.68037351 155.70609211 -97.68037351 155.70609211 -90.55957031 158.91235352 C-86.43541291 160.53381711 -84.38749388 161.73684259 -81.67285156 165.29516602 C-80.45629175 171.73769426 -81.04737583 178.22091651 -81.50878906 184.71704102 C-81.8988657 191.36308228 -80.6766965 196.98645587 -78.67285156 203.29516602 C-78.31964844 204.40891602 -77.96644531 205.52266602 -77.60253906 206.67016602 C-70.92897188 223.27993321 -58.33132489 235.83923168 -42.24316406 243.44360352 C-39.74709308 244.50423432 -37.23999902 245.42132611 -34.67285156 246.29516602 C-33.85171875 246.59551758 -33.03058594 246.89586914 -32.18457031 247.20532227 C-14.02503189 252.85554044 4.81231382 249.23263267 22.32714844 243.29516602 C23.06545898 243.04959961 23.80376953 242.8040332 24.56445312 242.55102539 C59.85431868 230.62899543 92.15327418 209.76322648 109.25756836 175.76196289 C113.2145129 167.49980136 118.32714844 156.55377334 118.32714844 147.29516602 C117.68648438 147.61743164 117.04582031 147.93969727 116.38574219 148.27172852 C113.65107918 149.1867754 111.93044156 149.4401458 109.11230469 149.50610352 C102.10005023 149.65607931 102.10005023 149.65607931 95.32714844 151.29516602 C92.76604888 154.21281933 91.71001942 156.73985098 90.39746094 160.37329102 C88.65120098 165.14045324 86.01275969 166.95521135 81.48730469 169.21313477 C77.79752442 170.76941832 74.75978039 171.35222159 70.76464844 171.42016602 C67.74694897 171.66219993 66.6783268 171.92929076 64.55371094 174.14282227 C63.42359394 175.73188349 62.30413031 177.32856432 61.19433594 178.93188477 C58.01673246 182.95374691 54.06116726 185.40438055 49.32714844 187.29516602 C46.67480469 187.52954102 46.67480469 187.52954102 44.07714844 187.54516602 C41.57790238 187.55570467 41.57790238 187.55570467 39.32714844 188.29516602 C37.45910742 190.56220608 36.26845847 192.91040278 34.93652344 195.52563477 C30.05211868 203.93107888 20.71552518 210.19113446 11.43164062 212.83496094 C7.97021245 213.59189738 4.47935219 213.56221236 0.95214844 213.60766602 C0.20964844 213.63666992 -0.53285156 213.66567383 -1.29785156 213.69555664 C-6.5767712 213.75618028 -9.4678797 212.74879906 -13.67285156 209.29516602 C-19.67740263 202.62344261 -20.20262544 197.11336066 -19.97753906 188.45141602 C-18.94283731 169.60445191 -4.36218331 150.20857291 4.63916016 134.28198242 C7.02379606 130.06248059 9.40123569 125.83909361 11.76464844 121.60766602 C12.16997803 120.88281006 12.57530762 120.1579541 12.99291992 119.41113281 C15.3962738 115.07812238 17.61796842 110.69816548 19.76464844 106.23266602 C25.55186089 94.46670217 32.98284328 83.39733813 41.32714844 73.29516602 C42.09027344 72.28454102 42.85339844 71.27391602 43.63964844 70.23266602 C47.45836812 66.05871659 51.85753682 62.74141359 56.32714844 59.29516602 C22.12784727 67.28720153 -12.02552283 80.73843733 -40.67285156 101.29516602 C-41.62933594 101.97836914 -42.58582031 102.66157227 -43.57128906 103.36547852 C-50.53432899 108.46439752 -57.1204525 113.94818322 -63.64160156 119.59594727 C-64.17011719 120.05308105 -64.69863281 120.51021484 -65.24316406 120.98120117 C-66.85349781 122.4112375 -66.85349781 122.4112375 -68.76660156 124.71313477 C-70.67285156 126.29516602 -70.67285156 126.29516602 -72.94702148 126.08496094 C-78.26500803 124.54410232 -82.79334875 121.29211886 -87.48535156 118.42016602 C-88.55978516 117.78208008 -89.63421875 117.14399414 -90.74121094 116.48657227 C-91.75634766 115.86911133 -92.77148438 115.25165039 -93.81738281 114.61547852 C-94.7491333 114.05103027 -95.68088379 113.48658203 -96.64086914 112.9050293 C-97.64670044 112.10814697 -97.64670044 112.10814697 -98.67285156 111.29516602 C-98.67285156 107.21929126 -97.41293485 106.30925763 -94.67285156 103.29516602 C-92.76632999 101.5349689 -90.81733295 99.83974308 -88.84082031 98.15844727 C-87.4645834 96.97562743 -86.10975847 95.76704765 -84.78613281 94.52563477 C-72.85588736 83.39230158 -58.90272071 74.21494171 -44.67285156 66.29516602 C-43.9501709 65.89201172 -43.22749023 65.48885742 -42.48291016 65.07348633 C-18.66438631 51.90675613 6.44695453 42.76965013 32.75439453 35.96508789 C35.20676815 35.32651195 37.65197746 34.66554126 40.09667969 33.99829102 C41.52744196 33.61722817 42.95841773 33.23696566 44.38964844 32.85766602 C45.618125 32.52895508 46.84660156 32.20024414 48.11230469 31.86157227 C53.10006282 30.98280564 56.45959946 32.12967279 60.76074219 34.65844727 C61.57478516 35.1334668 62.38882813 35.60848633 63.22753906 36.09790039 C64.4834082 36.84523438 64.4834082 36.84523438 65.76464844 37.60766602 C67.0147168 38.33759766 67.0147168 38.33759766 68.29003906 39.08227539 C71.84074566 41.16778922 75.21122665 43.20646937 78.48730469 45.71313477 C82.27080983 47.82086459 84.15533982 47.2357356 88.32714844 46.29516602 C89.64681313 46.1028861 90.9686072 45.92474782 92.29199219 45.76000977 C92.94619141 45.67299805 93.60039062 45.58598633 94.27441406 45.49633789 C94.93119141 45.40932617 95.58796875 45.32231445 96.26464844 45.23266602 C96.94849609 45.14178711 97.63234375 45.0509082 98.33691406 44.95727539 C100.00028513 44.73626805 101.66371099 44.51567317 103.32714844 44.29516602 C86.62692809 34.17452322 70.05967526 24.17639472 52.23144531 16.15454102 C50.54331555 15.39271835 48.86419596 14.61099919 47.18652344 13.82641602 C38.84852224 10.09026247 30.22918893 8.1692798 21.32714844 6.29516602 C20.54509033 6.11719482 19.76303223 5.93922363 18.95727539 5.75585938 C13.8420651 4.85987851 8.63160146 5.10485052 3.45214844 5.10766602 C2.24518311 5.10702148 1.03821777 5.10637695 -0.20532227 5.10571289 C-8.8545086 5.15682621 -17.16889294 5.69978349 -25.67285156 7.29516602 C-23.89160156 3.44360352 -23.89160156 3.44360352 -21.92285156 2.10766602 C-14.92700994 -0.41861012 -7.33575887 0.03995689 0 0 Z " fill="#686531" transform="translate(198.6728515625,69.704833984375)"/>
<path d="M0 0 C0.74930786 -0.00039276 1.49861572 -0.00078552 2.27062988 -0.00119019 C13.79159484 0.00596815 25.20444102 0.51226729 36.69433594 1.40112305 C47.54113651 2.21225377 58.37765363 2.55471649 69.25 2.8125 C70.53819641 2.84305984 70.53819641 2.84305984 71.85241699 2.87423706 C76.69312109 2.98701603 81.5339457 3.09097711 86.375 3.1875 C87.46972656 7.93847656 87.46972656 7.93847656 86.6171875 10.1796875 C80.01202435 19.27594075 69.46740718 23.79598328 58.62890625 25.7578125 C36.5808613 28.42206454 14.81982824 25.03671473 -6.625 20.1875 C9.91588912 26.82533732 25.65119984 30.38575835 43.5625 30.375 C45.21946899 30.3759668 45.21946899 30.3759668 46.90991211 30.37695312 C54.57586168 30.32729515 61.8708489 29.85840442 69.375 28.1875 C68.61042673 34.22762887 67.00764688 37.28440381 62.375 41.1875 C44.21022688 52.32074804 18.95435586 49.37944135 -0.8671875 44.65283203 C-4.82713486 43.62204903 -8.73418186 42.45652512 -12.625 41.1875 C4.35579456 50.69674495 24.28170656 52.59147685 43.375 53.1875 C42.22078031 61.91054086 42.22078031 61.91054086 39.375 65.1875 C29.4730325 71.22315157 20.80775148 72.52901714 9.375 72.5 C8.13621094 72.51611328 6.89742187 72.53222656 5.62109375 72.54882812 C-5.697331 72.55472928 -16.45288089 70.84791801 -26.9375 66.5 C-30.16903897 64.93696611 -30.16903897 64.93696611 -33.625 64.1875 C-17.60508062 72.27699121 -2.43069506 75.73084465 15.375 77.1875 C14.73865044 84.74991512 11.8227125 88.18041131 6.375 93.1875 C-3.4141784 99.32972958 -18.68401749 98.69090858 -29.73046875 96.50390625 C-37.29370783 94.4808867 -43.96161484 91.26712357 -50.625 87.1875 C-43.83938488 92.9782317 -35.14353857 97.76484743 -26.3125 99.4375 C-24.4871875 99.80875 -24.4871875 99.80875 -22.625 100.1875 C-21.625 103.1875 -21.625 103.1875 -22.4453125 105.30859375 C-26.08556275 111.77167279 -29.43008248 115.74452657 -36.625 118.1875 C-49.80185807 119.69043076 -59.06579913 115.85805447 -69.41015625 107.9921875 C-71.625 106.1875 -71.625 106.1875 -73.625 104.1875 C-67.01457633 112.32658415 -60.69367508 117.95114015 -50.625 121.1875 C-52.04853524 124.51886597 -53.7585313 126.46414757 -56.5 128.8125 C-57.17804688 129.40289062 -57.85609375 129.99328125 -58.5546875 130.6015625 C-62.94809578 133.96707903 -66.40934582 134.74624322 -71.89453125 134.6328125 C-78.26520821 133.59381797 -83.63841032 129.67691596 -87.75 124.8125 C-88.36875 123.94625 -88.9875 123.08 -89.625 122.1875 C-86.36735446 128.2407137 -83.81821353 132.94343577 -77.625 136.1875 C-78.46796308 143.57659821 -84.39629983 148.49223725 -89.87109375 153.0625 C-97.58583527 158.56320697 -106.14517649 161.22406122 -115.625 160.1875 C-120.63856896 159.04805251 -122.67968061 156.19640694 -125.625 152.1875 C-129.69906575 139.96530276 -125.44887042 127.59396802 -120.0625 116.625 C-116.41529807 109.41491958 -112.34136532 102.47872586 -108.203125 95.54296875 C-102.30538014 85.63359394 -96.7302784 75.55815632 -91.6875 65.1875 C-79.80181271 40.96584132 -63.58104654 15.75270767 -37.625 5.1875 C-24.9179988 0.92792962 -13.27955693 -0.01485286 0 0 Z " fill="#FBFAF7" transform="translate(310.625,118.8125)"/>
<path d="M0 0 C-0.81791016 1.12921875 -0.81791016 1.12921875 -1.65234375 2.28125 C-10.79853399 15.16408891 -17.97222887 28.90488918 -25.19750977 42.93139648 C-28.9951536 50.23630779 -33.0583668 57.35243265 -37.25 64.4375 C-53.45043211 91.42039364 -53.45043211 91.42039364 -57 122 C-55.01611894 127.88323349 -51.40294447 131.03913582 -46 134 C-43.08340959 134.39195286 -40.64729814 134.57443907 -37.75 134.5 C-36.99783203 134.48791504 -36.24566406 134.47583008 -35.47070312 134.46337891 C-29.33378065 134.2453358 -24.37060319 133.07164161 -19 130 C-18.22269531 129.56429687 -17.44539063 129.12859375 -16.64453125 128.6796875 C-9.90486289 124.54783052 -4.41350587 119.35088362 -1.1875 112.0625 C1 109 1 109 3.11328125 108.5546875 C4.83425239 108.47439336 6.5556671 108.40323391 8.27734375 108.33984375 C13.28184895 107.71517811 17.161761 105.17014962 21 102 C22.14984941 100.44952433 23.255012 98.86488315 24.3125 97.25 C26.44814021 94.21354472 27.41482088 93.16246618 31.0390625 92.15625 C33.30277326 91.8856455 35.57005294 91.64337619 37.83984375 91.4296875 C43.28933797 90.68871795 47.09912527 88.41974868 50.48828125 84.10546875 C52.44641188 81.08451796 53.91712977 78.24235071 55.0859375 74.82421875 C57 72 57 72 58.82983398 71.36547852 C61.16521382 71.02567802 63.45497559 70.85553267 65.8125 70.75 C67.40275783 70.64682025 68.99263441 70.53756311 70.58203125 70.421875 C71.33564941 70.36708984 72.08926758 70.31230469 72.86572266 70.25585938 C75.73817323 69.91150703 78.31555589 69.05475743 81 68 C77.5677434 95.93146752 59.99421664 121.4294574 38.1875 138.5 C16.69266682 154.74680081 -8.14342243 164.26982885 -34 171 C-34.64735107 171.18336914 -35.29470215 171.36673828 -35.96166992 171.55566406 C-54.54601655 175.6068691 -74.03343273 170.47530509 -90 161 C-105.88812346 150.26659075 -116.41688769 134.9652599 -120.6171875 116.25 C-121.16721682 111.58036329 -121.26487832 106.94867254 -121.3125 102.25 C-121.35600586 100.84234375 -121.35600586 100.84234375 -121.40039062 99.40625 C-121.54165346 83.6717434 -112.03836413 71.73513024 -101.6484375 60.82421875 C-99.80717304 58.86074648 -98.08154703 56.92030209 -96.3828125 54.84375 C-94.49605631 52.59201475 -92.72670543 50.70013892 -90.5 48.8125 C-89.81292969 48.22855469 -89.12585938 47.64460938 -88.41796875 47.04296875 C-87.62003906 46.36878906 -86.82210937 45.69460937 -86 45 C-85.02675781 44.15050781 -84.05351562 43.30101562 -83.05078125 42.42578125 C-62.49017465 24.5598889 -38.67958342 11.0641168 -13.0625 1.875 C-12.21582764 1.56731689 -11.36915527 1.25963379 -10.49682617 0.94262695 C-9.7051001 0.67023193 -8.91337402 0.39783691 -8.09765625 0.1171875 C-7.40164307 -0.12402832 -6.70562988 -0.36524414 -5.98852539 -0.61376953 C-3.68473619 -1.06123356 -2.21068302 -0.72234834 0 0 Z " fill="#A1A1A6" transform="translate(237,148)"/>
<path d="M0 0 C1.45029538 -0.01141585 2.90055231 -0.03169888 4.35058594 -0.06152344 C15.30776927 -0.28603532 24.82606977 1.20500099 35.32714844 4.29516602 C36.82692728 4.69703397 38.32687362 5.09827864 39.82714844 5.49829102 C48.85340515 8.19810887 57.0009842 11.79346553 65.30615234 16.22583008 C67.30465158 17.28326263 69.31807502 18.30452613 71.33886719 19.31860352 C99.26362336 33.49106754 99.26362336 33.49106754 108.0222168 41.92797852 C111.72147394 44.12222065 115.58015972 43.98897189 119.81152344 44.20922852 C120.7640802 44.26897354 121.71663696 44.32871857 122.69805908 44.39027405 C125.82375069 44.58143786 128.95016688 44.75152456 132.07714844 44.92016602 C134.23211997 45.04581956 136.38706776 45.17188104 138.54199219 45.29833984 C158.45802834 46.43200565 178.38285679 46.99232065 198.32714844 47.29516602 C197.99714844 48.61516602 197.66714844 49.93516602 197.32714844 51.29516602 C180.10865785 51.39231052 162.91108453 51.44876977 145.70214844 50.79516602 C135.27604164 50.41190823 124.86097368 50.16050904 114.42803955 50.11791992 C112.97290005 50.1112166 111.5177712 50.10110593 110.06268311 50.0871582 C98.11583198 49.98067441 86.36687655 50.55442606 75.13964844 54.98266602 C74.46530762 55.24394287 73.7909668 55.50521973 73.09619141 55.77441406 C67.20309704 58.16058796 62.23333033 61.23748476 57.32714844 65.29516602 C56.53308594 65.9280957 55.73902344 66.56102539 54.92089844 67.21313477 C36.44837022 82.79202328 26.14660588 104.66140612 15.33447266 125.76513672 C11.45931076 133.27434704 7.31914915 140.58711152 3.01464844 147.85766602 C-9.4808085 168.04991277 -9.4808085 168.04991277 -13.98535156 190.92016602 C-14.01048828 192.79575195 -14.01048828 192.79575195 -14.03613281 194.70922852 C-13.57333261 199.27751439 -12.07665091 202.52515814 -9.23535156 206.10766602 C-5.2064361 209.16964176 0.52623637 208.80165154 5.32714844 208.29516602 C16.59659432 205.70363772 25.84367281 200.04856847 32.32714844 190.29516602 C33.04710662 187.64899533 33.04710662 187.64899533 33.32714844 185.29516602 C31.74933594 184.33610352 31.74933594 184.33610352 30.13964844 183.35766602 C25.82056109 180.28768336 23.11807316 176.27617541 21.32714844 171.29516602 C21.65714844 170.30516602 21.98714844 169.31516602 22.32714844 168.29516602 C22.57207031 168.80305664 22.81699219 169.31094727 23.06933594 169.83422852 C26.46419383 176.0854496 30.71069764 179.64665951 37.32714844 182.29516602 C42.61565664 183.40391811 46.87082125 182.91688304 51.57714844 180.23266602 C55.47110839 177.47840166 58.45191625 174.07435377 61.32714844 170.29516602 C60.52277344 170.25391602 59.71839844 170.21266602 58.88964844 170.17016602 C50.6812222 168.15406132 43.54803468 161.79310356 38.32714844 155.29516602 C37.10449219 152.54907227 37.10449219 152.54907227 36.32714844 150.29516602 C36.94589844 150.97579102 37.56464844 151.65641602 38.20214844 152.35766602 C46.79996407 160.85887697 56.82225926 166.3587179 69.01464844 166.79516602 C74.52448555 166.58601443 79.04259903 165.94159104 83.32714844 162.29516602 C86.34751994 158.60107756 88.33549256 154.97160635 89.32714844 150.29516602 C88.25400391 150.09213867 88.25400391 150.09213867 87.15917969 149.88500977 C76.33527456 147.54659818 66.43703189 142.94162755 58.32714844 135.29516602 C62.13077382 135.29516602 64.56588191 136.86088704 67.82714844 138.60766602 C77.62400434 143.59304091 85.92331052 145.54084324 96.95214844 145.67016602 C97.83523682 145.68426514 98.7183252 145.69836426 99.62817383 145.71289062 C108.18235004 145.64975133 115.52203117 143.88944153 121.88964844 137.97875977 C124.83640176 134.52753508 125.90722402 130.55493927 127.32714844 126.29516602 C126.12960937 126.26938477 124.93207031 126.24360352 123.69824219 126.21704102 C108.0233014 125.73468534 88.68136452 123.5339889 76.40527344 112.58032227 C76.04949219 112.1562207 75.69371094 111.73211914 75.32714844 111.29516602 C80.7465551 113.06610677 86.06951793 115.05929196 91.40136719 117.07641602 C101.80480459 120.51747977 112.18823462 120.5483465 123.01464844 120.42016602 C124.50617884 120.41010893 125.99771586 120.40098794 127.48925781 120.39282227 C131.10202817 120.37104145 134.71454436 120.33666452 138.32714844 120.29516602 C137.07714844 122.79516602 137.07714844 122.79516602 135.32714844 125.29516602 C134.00714844 125.29516602 132.68714844 125.29516602 131.32714844 125.29516602 C131.28589844 126.59454102 131.24464844 127.89391602 131.20214844 129.23266602 C130.55847984 134.98035458 128.06530576 138.96585824 124.32714844 143.29516602 C119.59479562 147.06173255 115.18285326 149.34808924 109.11230469 149.50610352 C102.10005023 149.65607931 102.10005023 149.65607931 95.32714844 151.29516602 C92.76604888 154.21281933 91.71001942 156.73985098 90.39746094 160.37329102 C88.65120098 165.14045324 86.01275969 166.95521135 81.48730469 169.21313477 C77.79752442 170.76941832 74.75978039 171.35222159 70.76464844 171.42016602 C67.74694897 171.66219993 66.6783268 171.92929076 64.55371094 174.14282227 C63.42359394 175.73188349 62.30413031 177.32856432 61.19433594 178.93188477 C58.01673246 182.95374691 54.06116726 185.40438055 49.32714844 187.29516602 C46.67480469 187.52954102 46.67480469 187.52954102 44.07714844 187.54516602 C41.57790238 187.55570467 41.57790238 187.55570467 39.32714844 188.29516602 C37.45910742 190.56220608 36.26845847 192.91040278 34.93652344 195.52563477 C30.05211868 203.93107888 20.71552518 210.19113446 11.43164062 212.83496094 C7.97021245 213.59189738 4.47935219 213.56221236 0.95214844 213.60766602 C0.20964844 213.63666992 -0.53285156 213.66567383 -1.29785156 213.69555664 C-6.5767712 213.75618028 -9.4678797 212.74879906 -13.67285156 209.29516602 C-19.67740263 202.62344261 -20.20262544 197.11336066 -19.97753906 188.45141602 C-18.94283731 169.60445191 -4.36218331 150.20857291 4.63916016 134.28198242 C7.02379606 130.06248059 9.40123569 125.83909361 11.76464844 121.60766602 C12.16997803 120.88281006 12.57530762 120.1579541 12.99291992 119.41113281 C15.3962738 115.07812238 17.61796842 110.69816548 19.76464844 106.23266602 C25.55186089 94.46670217 32.98284328 83.39733813 41.32714844 73.29516602 C42.09027344 72.28454102 42.85339844 71.27391602 43.63964844 70.23266602 C47.45836812 66.05871659 51.85753682 62.74141359 56.32714844 59.29516602 C22.12784727 67.28720153 -12.02552283 80.73843733 -40.67285156 101.29516602 C-41.62933594 101.97836914 -42.58582031 102.66157227 -43.57128906 103.36547852 C-50.53432899 108.46439752 -57.1204525 113.94818322 -63.64160156 119.59594727 C-64.17011719 120.05308105 -64.69863281 120.51021484 -65.24316406 120.98120117 C-66.85349781 122.4112375 -66.85349781 122.4112375 -68.76660156 124.71313477 C-70.67285156 126.29516602 -70.67285156 126.29516602 -72.94702148 126.08496094 C-78.26500803 124.54410232 -82.79334875 121.29211886 -87.48535156 118.42016602 C-88.55978516 117.78208008 -89.63421875 117.14399414 -90.74121094 116.48657227 C-91.75634766 115.86911133 -92.77148438 115.25165039 -93.81738281 114.61547852 C-94.7491333 114.05103027 -95.68088379 113.48658203 -96.64086914 112.9050293 C-97.31142334 112.37377441 -97.98197754 111.84251953 -98.67285156 111.29516602 C-98.67285156 107.21929126 -97.41293485 106.30925763 -94.67285156 103.29516602 C-92.76632999 101.5349689 -90.81733295 99.83974308 -88.84082031 98.15844727 C-87.4645834 96.97562743 -86.10975847 95.76704765 -84.78613281 94.52563477 C-72.85588736 83.39230158 -58.90272071 74.21494171 -44.67285156 66.29516602 C-43.9501709 65.89201172 -43.22749023 65.48885742 -42.48291016 65.07348633 C-18.66438631 51.90675613 6.44695453 42.76965013 32.75439453 35.96508789 C35.20676815 35.32651195 37.65197746 34.66554126 40.09667969 33.99829102 C41.52744196 33.61722817 42.95841773 33.23696566 44.38964844 32.85766602 C45.618125 32.52895508 46.84660156 32.20024414 48.11230469 31.86157227 C53.10006282 30.98280564 56.45959946 32.12967279 60.76074219 34.65844727 C61.57478516 35.1334668 62.38882813 35.60848633 63.22753906 36.09790039 C64.4834082 36.84523438 64.4834082 36.84523438 65.76464844 37.60766602 C67.0147168 38.33759766 67.0147168 38.33759766 68.29003906 39.08227539 C71.84074566 41.16778922 75.21122665 43.20646937 78.48730469 45.71313477 C82.27080983 47.82086459 84.15533982 47.2357356 88.32714844 46.29516602 C89.64681313 46.1028861 90.9686072 45.92474782 92.29199219 45.76000977 C93.27329102 45.62949219 93.27329102 45.62949219 94.27441406 45.49633789 C94.93119141 45.40932617 95.58796875 45.32231445 96.26464844 45.23266602 C96.94849609 45.14178711 97.63234375 45.0509082 98.33691406 44.95727539 C100.00028513 44.73626805 101.66371099 44.51567317 103.32714844 44.29516602 C86.62692809 34.17452322 70.05967526 24.17639472 52.23144531 16.15454102 C50.54331555 15.39271835 48.86419596 14.61099919 47.18652344 13.82641602 C38.84852224 10.09026247 30.22918893 8.1692798 21.32714844 6.29516602 C20.54509033 6.11719482 19.76303223 5.93922363 18.95727539 5.75585938 C13.8420651 4.85987851 8.63160146 5.10485052 3.45214844 5.10766602 C2.24518311 5.10702148 1.03821777 5.10637695 -0.20532227 5.10571289 C-8.8545086 5.15682621 -17.16889294 5.69978349 -25.67285156 7.29516602 C-23.89160156 3.44360352 -23.89160156 3.44360352 -21.92285156 2.10766602 C-14.92700994 -0.41861012 -7.33575887 0.03995689 0 0 Z " fill="#211E22" transform="translate(198.6728515625,69.704833984375)"/>
<path d="M0 0 C0.33 0 0.66 0 1 0 C1.46562772 8.67447194 0.73609651 17.19205635 -0.1875 25.8125 C-0.28844971 26.88556396 -0.38939941 27.95862793 -0.4934082 29.06420898 C-1.52696367 38.03586072 -4.47996656 44.65988078 -11.609375 50.37890625 C-16.83883622 53.92502783 -22.4370235 56.86280028 -27.98046875 59.8828125 C-30.87749905 61.48542501 -33.71397243 63.18800794 -36.5625 64.875 C-46.40263668 70.51562755 -56.73152186 75.20050012 -67 80 C-67.72396973 80.33918457 -68.44793945 80.67836914 -69.19384766 81.02783203 C-72.23445511 82.4518562 -75.27784559 83.8695973 -78.32421875 85.28125 C-80.92098376 86.48872116 -83.50408958 87.72161128 -86.08203125 88.96875 C-205.52655134 146.61185973 -205.52655134 146.61185973 -234.98046875 138.01953125 C-238.09686478 136.83215879 -241.03427914 135.5216562 -244 134 C-245.2684375 133.39478516 -245.2684375 133.39478516 -246.5625 132.77734375 C-248.39418359 131.89012201 -250.20127398 130.95226671 -252 130 C-251.67 127.69 -251.34 125.38 -251 123 C-252.32 123 -253.64 123 -255 123 C-255.495 124.98 -255.495 124.98 -256 127 C-258.4375 126.375 -258.4375 126.375 -261 125 C-261.8125 121.875 -261.8125 121.875 -262 119 C-262.99 119 -263.98 119 -265 119 C-265.66 119.99 -266.32 120.98 -267 122 C-270 120 -270 120 -270.6875 116.875 C-270.790625 115.92625 -270.89375 114.9775 -271 114 C-271.99 114 -272.98 114 -274 114 C-274.33 114.66 -274.66 115.32 -275 116 C-275.99 115.67 -276.98 115.34 -278 115 C-278.33 113.35 -278.66 111.7 -279 110 C-279.99 110 -280.98 110 -282 110 C-282.66 110.66 -283.32 111.32 -284 112 C-287 110 -287 110 -287.6875 107.375 C-287.8421875 106.199375 -287.8421875 106.199375 -288 105 C-288.99 104.67 -289.98 104.34 -291 104 C-291.495 105.485 -291.495 105.485 -292 107 C-295 105 -295 105 -295.6875 102.375 C-295.8421875 101.199375 -295.8421875 101.199375 -296 100 C-298.97 100.495 -298.97 100.495 -302 101 C-302.28875 100.030625 -302.5775 99.06125 -302.875 98.0625 C-303.64214682 94.89335797 -303.64214682 94.89335797 -306 94 C-306 94.99 -306 95.98 -306 97 C-307.485 96.505 -307.485 96.505 -309 96 C-310.1875 92.9375 -310.1875 92.9375 -311 90 C-311.804375 90.185625 -312.60875 90.37125 -313.4375 90.5625 C-314.7059375 90.7790625 -314.7059375 90.7790625 -316 91 C-317 90 -317 90 -317.0625 87.4375 C-317.041875 86.633125 -317.02125 85.82875 -317 85 C-318.32 85 -319.64 85 -321 85 C-321.495 85.99 -321.495 85.99 -322 87 C-322.66 86.67 -323.32 86.34 -324 86 C-324.625 83.4375 -324.625 83.4375 -325 81 C-326.65 80.67 -328.3 80.34 -330 80 C-330.144375 78.783125 -330.28875 77.56625 -330.4375 76.3125 C-330.7216387 73.99474007 -331.04941363 71.78038388 -331.5625 69.5 C-332.17992836 65.97183795 -332.06067913 62.58006894 -332 59 C-329.24200512 60.30258661 -326.8449569 61.74865025 -324.41015625 63.58203125 C-278.18423439 98.66311317 -278.18423439 98.66311317 -224 110 C-215.19861719 108.20379943 -206.59505351 105.58598373 -198 103 C-196.84242188 102.65275879 -195.68484375 102.30551758 -194.4921875 101.94775391 C-188.00310104 99.99068462 -181.52884906 97.98929412 -175.0625 95.95849609 C-168.39795953 93.87263944 -161.72155073 91.82447144 -155.0390625 89.796875 C-82.36479102 68.48488251 -82.36479102 68.48488251 -21 27 C-20.34 27 -19.68 27 -19 27 C-18.74347656 26.41992188 -18.48695313 25.83984375 -18.22265625 25.2421875 C-16.88700357 22.79277972 -15.37075692 21.13246274 -13.4375 19.125 C-9.29891537 14.59984428 -6.08666825 9.72357988 -2.88256836 4.52197266 C-1.94289478 3.00135293 -0.97425907 1.49869612 0 0 Z " fill="#504E29" transform="translate(347,243)"/>
<path d="M0 0 C7.21974908 -0.45910199 13.21571147 2.34060391 19.76342773 5.10595703 C20.89844727 5.56615234 22.0334668 6.02634766 23.20288086 6.50048828 C31.51580235 9.92083165 31.51580235 9.92083165 33.82592773 12.23095703 C33.00910522 12.41053955 33.00910522 12.41053955 32.17578125 12.59375 C-0.43158532 19.79644639 -31.6258427 30.51533699 -61.17407227 46.23095703 C-62.31271729 46.82529541 -62.31271729 46.82529541 -63.47436523 47.43164062 C-83.97445327 58.15847846 -103.31595989 71.34922814 -121.2800293 85.94165039 C-121.90506348 86.36712158 -122.53009766 86.79259277 -123.17407227 87.23095703 C-128.21407182 86.14000901 -132.88412658 82.48782817 -137.23657227 79.79345703 C-138.03901367 79.30296875 -138.84145508 78.81248047 -139.66821289 78.30712891 C-143.29317798 76.078001 -146.795336 73.82389659 -150.17407227 71.23095703 C-137.69779197 43.08095777 -88.75569458 24.49598777 -62.17407227 14.23095703 C-61.23047852 13.85583984 -60.28688477 13.48072266 -59.31469727 13.09423828 C-47.30474472 8.49042314 -34.7858893 5.4029301 -22.17407227 2.98095703 C-21.3266748 2.81789063 -20.47927734 2.65482422 -19.60620117 2.48681641 C-13.08212374 1.28645767 -6.58466287 0.69950489 0 0 Z " fill="#201E21" transform="translate(202.174072265625,81.76904296875)"/>
<path d="M0 0 C1.9375 1.875 1.9375 1.875 3.125 4.5625 C2.83278598 9.72494761 0.6894528 12.41115527 -3.0625 15.875 C-6.92176311 18.44954144 -10.9386115 20.64396434 -15.04052734 22.796875 C-18.65414591 24.72367282 -22.19425338 26.781514 -25.75 28.8125 C-32.59388972 32.71879657 -32.59388972 32.71879657 -36.0625 33.875 C-32.43590219 33.875 -30.80844734 32.83298503 -27.625 31.125 C-16.64813068 25.49685973 -6.22400743 22.70517297 6.0625 22.625 C6.86042969 22.604375 7.65835938 22.58375 8.48046875 22.5625 C14.34475267 22.52333951 14.34475267 22.52333951 17.4921875 24.390625 C17.96914062 24.88046875 18.44609375 25.3703125 18.9375 25.875 C18.6134315 29.65579918 17.58717366 32.06802913 14.7265625 34.625 C6.63261017 40.2801632 -3.14267299 41.90895881 -12.60375977 43.91870117 C-21.38923975 45.8288496 -29.68584267 48.64209909 -38.0625 51.875 C-37.51835449 51.72877197 -36.97420898 51.58254395 -36.41357422 51.43188477 C-33.92231959 50.76417767 -31.4299294 50.10080782 -28.9375 49.4375 C-28.0815625 49.20740234 -27.225625 48.97730469 -26.34375 48.74023438 C-18.11511439 46.55648108 -10.69666616 45.73755477 -2.1875 45.8125 C-0.72570312 45.81926758 -0.72570312 45.81926758 0.765625 45.82617188 C3.15631434 45.83789094 5.5468744 45.85429781 7.9375 45.875 C7.9375 46.535 7.9375 47.195 7.9375 47.875 C7.25574707 48.09003174 6.57399414 48.30506348 5.87158203 48.52661133 C-24.09421786 58.05436566 -52.92419333 70.08017348 -80 86.1875 C-80.78616699 86.65470459 -81.57233398 87.12190918 -82.38232422 87.60327148 C-87.28473536 90.59438553 -91.77437406 93.90380184 -96.21704102 97.54370117 C-98.0625 98.875 -98.0625 98.875 -100.0625 98.875 C-99.51283265 92.82178826 -98.19950466 87.61684148 -96.0625 81.9375 C-95.75489746 81.11556152 -95.44729492 80.29362305 -95.13037109 79.44677734 C-87.78158539 60.4042501 -76.6430937 44.01728542 -63.0625 28.875 C-62.33417969 28.06160156 -61.60585937 27.24820313 -60.85546875 26.41015625 C-47.47510007 12.28505462 -20.40693681 -7.49642577 0 0 Z " fill="#FAFAF9" transform="translate(151.0625,29.125)"/>
<path d="M0 0 C-3.43531461 34.86844334 -17.33847233 67.04196612 -44.45532227 90.01220703 C-53.78072826 97.29681373 -64.24755774 102.20850368 -75.0625 106.8125 C-76.45453729 107.41283046 -77.84646241 108.01342107 -79.23828125 108.61425781 C-88.6007577 112.63630579 -98.02557633 116.49985235 -107.5 120.25 C-108.643479 120.7035083 -109.78695801 121.1570166 -110.96508789 121.62426758 C-116.59771388 123.81654123 -122.09275391 125.70958216 -128 127 C-127.44140625 124.67578125 -127.44140625 124.67578125 -126 122 C-123.59010816 120.81784625 -121.47104648 119.98283206 -118.9375 119.1875 C-117.47587198 118.68150083 -116.01628698 118.16956911 -114.55859375 117.65234375 C-113.42719971 117.25184814 -113.42719971 117.25184814 -112.27294922 116.84326172 C-79.94071279 104.84803673 -52.10971847 82.50275933 -37.40356445 50.99926758 C-34.70020081 44.81888822 -32.90699414 38.33177599 -31.30371094 31.78833008 C-29.72391291 25.84040233 -27.91310456 23.64955156 -23 20 C-21.31343868 17.60256419 -21.31343868 17.60256419 -20.1875 15.0625 C-19.78917969 14.24910156 -19.39085937 13.43570313 -18.98046875 12.59765625 C-17.90243275 9.74150509 -17.4087075 7.01916188 -17 4 C-16.16855469 3.79503906 -15.33710938 3.59007812 -14.48046875 3.37890625 C-13.39378906 3.10949219 -12.30710937 2.84007812 -11.1875 2.5625 C-10.10855469 2.29566406 -9.02960938 2.02882812 -7.91796875 1.75390625 C-1.12953368 0 -1.12953368 0 0 0 Z " fill="#504F2A" transform="translate(347,191)"/>
<path d="M0 0 C5.10510501 1.54083466 8.99556637 4.51832195 13.3046875 7.59765625 C14.18382813 8.21318359 15.06296875 8.82871094 15.96875 9.46289062 C18.12926993 10.97760297 20.28239193 12.50178247 22.4296875 14.03515625 C23.0071875 13.70515625 23.5846875 13.37515625 24.1796875 13.03515625 C26.4296875 12.03515625 26.4296875 12.03515625 30.4296875 12.03515625 C30.45804688 12.61523438 30.48640625 13.1953125 30.515625 13.79296875 C30.84520049 16.49192479 31.28766461 18.55603182 32.4296875 21.03515625 C34.85116254 22.92365498 37.25135263 24.22988306 40.01953125 25.55078125 C42.97445928 27.3706721 44.00685829 28.88559256 45.4296875 32.03515625 C46.1424155 36.89847669 46.02337219 41.50407467 44.2421875 46.09765625 C42.0962464 48.39159329 40.44553427 49.20579839 37.4296875 50.03515625 C36.4396875 50.03515625 35.4496875 50.03515625 34.4296875 50.03515625 C34.4296875 68.51515625 34.4296875 86.99515625 34.4296875 106.03515625 C27.4296875 105.03515625 27.4296875 105.03515625 25.02587891 103.1003418 C22.74163218 98.71387535 22.86416678 94.87098238 22.890625 89.9921875 C22.87883209 89.02737961 22.86703918 88.06257172 22.85488892 87.06852722 C22.81964757 83.9947384 22.81045796 80.9216306 22.8046875 77.84765625 C22.78836622 74.76317402 22.76639859 71.67899668 22.73306274 68.59465027 C22.7133696 66.67717873 22.70410464 64.75956682 22.70614624 62.84199524 C22.69918732 61.97737167 22.69222839 61.11274811 22.68505859 60.22192383 C22.68317032 59.07872429 22.68317032 59.07872429 22.6812439 57.91242981 C22.59029475 55.79114418 22.59029475 55.79114418 20.4296875 54.03515625 C20.15976844 51.3467624 20.34231393 48.74373689 20.4296875 46.03515625 C19.77484375 45.82246094 19.12 45.60976563 18.4453125 45.390625 C14.31681075 43.53493833 10.84331175 40.98633561 7.1796875 38.34765625 C6.42550537 37.80818359 5.67132324 37.26871094 4.89428711 36.71289062 C2.73378444 35.16125901 0.58035909 33.60037597 -1.5703125 32.03515625 C-2.57449219 31.30683594 -3.57867187 30.57851562 -4.61328125 29.828125 C-9.37841934 26.26010153 -12.11831367 24.13114825 -13.01171875 18.01171875 C-13.33235039 9.1374624 -13.33235039 9.1374624 -11.109375 5.921875 C-9.3301056 4.40912064 -7.59151739 3.19940489 -5.5703125 2.03515625 C-2.5703125 0.03515625 -2.5703125 0.03515625 0 0 Z " fill="#1C1C1E" transform="translate(34.5703125,210.96484375)"/>
<path d="M0 0 C0.71994141 -0.01611328 1.43988281 -0.03222656 2.18164062 -0.04882812 C6.96094688 -0.05318483 10.11376206 0.8064816 14.3125 3.3125 C14.3125 3.9725 14.3125 4.6325 14.3125 5.3125 C5.5452859 8.29642901 -3.21472876 11.22066678 -12.125 13.75 C-50.91286159 24.96246705 -88.93246815 44.55746815 -117.6875 73.3125 C-122.18796315 73.06247427 -125.10538227 70.89495696 -128.6875 68.3125 C-117.28472042 41.00917778 -69.48701368 21.35075993 -44.58203125 11.0234375 C-35.7973976 7.49110799 -26.87125676 4.60765066 -17.6875 2.3125 C-16.94830322 2.12179932 -16.20910645 1.93109863 -15.44750977 1.73461914 C-10.24775346 0.47120543 -5.34433437 -0.02431453 0 0 Z " fill="#C82C30" transform="translate(245.6875,117.6875)"/>
<path d="M0 0 C5.41940666 1.77094075 10.74236949 3.76412594 16.07421875 5.78125 C26.47765615 9.22231375 36.86108619 9.25318048 47.6875 9.125 C49.1790304 9.11494292 50.67056742 9.10582192 52.16210938 9.09765625 C55.77487974 9.07587544 59.38739593 9.0414985 63 9 C61.75 11.5 61.75 11.5 60 14 C58.68 14 57.36 14 56 14 C55.95875 15.299375 55.9175 16.59875 55.875 17.9375 C55.23133141 23.68518857 52.73815732 27.67069222 49 32 C44.26764718 35.76656653 39.85570482 38.05292322 33.78515625 38.2109375 C26.77290179 38.36091329 26.77290179 38.36091329 20 40 C17.43890044 42.91765331 16.38287098 45.44468497 15.0703125 49.078125 C13.32405254 53.84528723 10.68561126 55.66004534 6.16015625 57.91796875 C2.47037599 59.47425231 -0.56736804 60.05705558 -4.5625 60.125 C-7.58019946 60.36703392 -8.64882163 60.63412474 -10.7734375 62.84765625 C-11.9035545 64.43671747 -13.02301813 66.03339831 -14.1328125 67.63671875 C-17.31041598 71.65858089 -21.26598118 74.10921454 -26 76 C-28.65234375 76.234375 -28.65234375 76.234375 -31.25 76.25 C-33.74924606 76.26053866 -33.74924606 76.26053866 -36 77 C-37.86804102 79.26704007 -39.05868997 81.61523676 -40.390625 84.23046875 C-45.27502976 92.63591286 -54.61162325 98.89596845 -63.89550781 101.53979492 C-67.35693598 102.29673136 -70.84779625 102.26704634 -74.375 102.3125 C-75.48875 102.35600586 -75.48875 102.35600586 -76.625 102.40039062 C-81.90391964 102.46101426 -84.79502814 101.45363304 -89 98 C-95.00455106 91.3282766 -95.52977388 85.81819464 -95.3046875 77.15625 C-94.37969489 60.30762433 -82.25209188 43.45994543 -74.1550293 29.18481445 C-71.51603453 24.52887623 -68.89827098 19.8809829 -66.49609375 15.09765625 C-66.13966797 14.39261963 -65.78324219 13.68758301 -65.41601562 12.96118164 C-64.51136234 11.14803797 -63.62776552 9.32442934 -62.74609375 7.5 C-61 5 -61 5 -58.28515625 4.125 C-57.53105469 4.08375 -56.77695313 4.0425 -56 4 C-57.46045643 10.52277473 -60.46616148 15.75386569 -63.8125 21.5 C-64.38347412 22.49668701 -64.95444824 23.49337402 -65.54272461 24.52026367 C-67.35522192 27.68401701 -69.17685902 30.84237008 -71 34 C-73.36276284 38.09930471 -75.71520993 42.20432062 -78.0625 46.3125 C-78.59786377 47.23546875 -79.13322754 48.1584375 -79.68481445 49.109375 C-85.34897693 59.02233375 -89.11070593 67.91091555 -89.25 79.4375 C-89.27578125 80.71496094 -89.3015625 81.99242187 -89.328125 83.30859375 C-88.9151314 87.95477171 -87.44664581 91.17596833 -84.5625 94.8125 C-80.53358454 97.87447575 -74.80091207 97.50648552 -70 97 C-58.73055411 94.40847171 -49.48347562 88.75340246 -43 79 C-42.28004182 76.35382932 -42.28004182 76.35382932 -42 74 C-43.051875 73.360625 -44.10375 72.72125 -45.1875 72.0625 C-49.50658735 68.99251735 -52.20907527 64.9810094 -54 60 C-53.67 59.01 -53.34 58.02 -53 57 C-52.75507813 57.50789063 -52.51015625 58.01578125 -52.2578125 58.5390625 C-48.86295461 64.79028358 -44.6164508 68.35149349 -38 71 C-32.7114918 72.1087521 -28.45632719 71.62171703 -23.75 68.9375 C-19.85604005 66.18323564 -16.87523218 62.77918776 -14 59 C-14.804375 58.95875 -15.60875 58.9175 -16.4375 58.875 C-24.64592624 56.85889531 -31.77911376 50.49793755 -37 44 C-38.22265625 41.25390625 -38.22265625 41.25390625 -39 39 C-38.071875 40.0209375 -38.071875 40.0209375 -37.125 41.0625 C-28.52718437 49.56371096 -18.50488918 55.06355189 -6.3125 55.5 C-0.80266289 55.29084841 3.7154506 54.64642502 8 51 C11.0203715 47.30591155 13.00834413 43.67644033 14 39 C13.28457031 38.86464844 12.56914062 38.72929687 11.83203125 38.58984375 C1.00812613 36.25143216 -8.89011655 31.64646154 -17 24 C-13.19637462 24 -10.76126653 25.56572102 -7.5 27.3125 C2.2968559 32.29787489 10.59616208 34.24567722 21.625 34.375 C22.50808838 34.38909912 23.39117676 34.40319824 24.30102539 34.41772461 C32.8552016 34.35458531 40.19488273 32.59427552 46.5625 26.68359375 C49.50925332 23.23236907 50.58007558 19.25977326 52 15 C50.80246094 14.97421875 49.60492188 14.9484375 48.37109375 14.921875 C32.69615296 14.43951933 13.35421608 12.23882289 1.078125 1.28515625 C0.72234375 0.86105469 0.3665625 0.43695313 0 0 Z " fill="#242427" transform="translate(274,181)"/>
<path d="M0 0 C2.90494545 8.71483636 -4.8944974 22.87289787 -8.71362305 30.82373047 C-12.39107496 38.11786392 -16.85884092 44.66539086 -22 51 C-22.4429541 51.5460791 -22.8859082 52.0921582 -23.34228516 52.65478516 C-38.77253449 71.26493561 -61.50351961 87.46374175 -85.40625 92.2734375 C-88.91791174 92.9834039 -92.17088915 93.98074294 -95.5625 95.125 C-116.20876356 101.55165557 -140.20766481 101.68094043 -159.75 91.875 C-177.82379155 81.31704256 -188.20164831 67.00211251 -193.8125 46.9375 C-195.15008097 41.24902362 -195.30918518 35.817262 -195 30 C-193 32 -193 32 -192.75 35.6875 C-191.69305531 47.0040974 -185.53376942 57.95786393 -179 67 C-178.32904297 67.94746094 -178.32904297 67.94746094 -177.64453125 68.9140625 C-167.79713486 81.56262443 -151.65789691 89.68231952 -136 92 C-105.74820473 95.03653665 -70.36420161 83.68380983 -46.4375 64.9375 C-44.94558559 63.6395086 -43.46609205 62.32708869 -42 61 C-41.18660156 60.32710938 -40.37320313 59.65421875 -39.53515625 58.9609375 C-22.64564824 44.64779512 -12.66932555 25.1356435 -7 4 C-8.98 3.505 -8.98 3.505 -11 3 C-9.01432292 2.51171875 -7.02864583 2.0234375 -5.04296875 1.53515625 C-3.34316798 1.08989295 -1.66698046 0.55566015 0 0 Z " fill="#85848A" transform="translate(317,216)"/>
<path d="M0 0 C-2.78674162 1.85782775 -4.53529154 2.55773231 -7.69921875 3.41015625 C-8.64909668 3.67304443 -9.59897461 3.93593262 -10.57763672 4.20678711 C-11.6038916 4.48917236 -12.63014648 4.77155762 -13.6875 5.0625 C-32.71426038 10.46478716 -51.13053403 17.52920815 -69 26 C-69.80920898 26.38269043 -70.61841797 26.76538086 -71.45214844 27.15966797 C-83.12663606 32.72760411 -94.23027674 38.83821517 -105 46 C-105.66483398 46.43957031 -106.32966797 46.87914062 -107.01464844 47.33203125 C-113.1500445 51.40858928 -119.23492921 55.50968807 -124.94140625 60.17578125 C-125.57224121 60.69019775 -126.20307617 61.20461426 -126.85302734 61.73461914 C-128.04653746 62.72052775 -129.2286598 63.72044269 -130.39697266 64.73608398 C-134.34585791 68.01806497 -134.34585791 68.01806497 -137.6875 67.92578125 C-140.7715751 66.69110929 -143.31316763 64.93701869 -146 63 C-145.77671666 59.68924696 -144.83024114 58.84440843 -142.33203125 56.5546875 C-141.16763584 55.65004053 -139.99375282 54.75752173 -138.8125 53.875 C-138.18174561 53.39417969 -137.55099121 52.91335937 -136.90112305 52.41796875 C-134.94261739 50.93356611 -132.97215713 49.46619545 -131 48 C-130.43023437 47.56848633 -129.86046875 47.13697266 -129.2734375 46.69238281 C-107.37160331 30.12328195 -81.97190055 17.39219785 -55.98095703 8.66552734 C-54.21901235 8.07357994 -52.46617437 7.4546803 -50.71484375 6.83203125 C-34.20289385 1.27123264 -17.33666339 -0.7206927 0 0 Z " fill="#C72C30" transform="translate(214,95)"/>
<path d="M0 0 C0.86625 0.721875 1.7325 1.44375 2.625 2.1875 C6.18379967 5.17223377 6.18379967 5.17223377 10.3125 7.1875 C12.625 8.1875 12.625 8.1875 14 9.875 C15.14897943 14.12622389 13.9879324 18.0987028 12.625 22.1875 C13.73875 22.2803125 13.73875 22.2803125 14.875 22.375 C18.60001049 23.47557128 19.6717078 24.85966884 21.625 28.1875 C22.23385138 32.37335327 21.92686207 34.57170138 20.0625 38.375 C17.11495027 41.77601892 14.66512592 43.24225419 10.625 45.1875 C9.965 45.1875 9.305 45.1875 8.625 45.1875 C8.625 46.1775 8.625 47.1675 8.625 48.1875 C7.635 48.1875 6.645 48.1875 5.625 48.1875 C6.14768466 45.42473823 6.73369587 42.8614124 7.625 40.1875 C8.429375 39.878125 9.23375 39.56875 10.0625 39.25 C12.69582519 38.41061387 12.69582519 38.41061387 14 36.375 C14.78963483 33.6112781 14.50615669 31.9043998 13.625 29.1875 C6.12124774 25.43562387 -7.80861251 27.94043114 -15.50390625 30.203125 C-23.73169832 33.02408228 -31.68247827 36.1149885 -39.375 40.1875 C-39.375 39.5275 -39.375 38.8675 -39.375 38.1875 C-36.84129333 36.52769455 -34.31572703 34.99698548 -31.6875 33.5 C-30.53459473 32.83170166 -30.53459473 32.83170166 -29.35839844 32.14990234 C-23.68081551 28.87781546 -17.93409069 25.76070997 -12.109375 22.7578125 C-7.40259829 20.05477788 -3.55205482 17.26729458 -1.375 12.1875 C-1.2791582 9.01007395 -1.2791582 9.01007395 -2.375 6.1875 C-7.59012697 2.81367882 -13.59188371 3.59239063 -19.42578125 4.83984375 C-45.40204137 12.22991531 -66.85986843 30.76710226 -81.375 53.1875 C-82.01050781 54.15042969 -82.64601563 55.11335938 -83.30078125 56.10546875 C-86.35379685 60.87765819 -89.14674498 65.55385201 -91.44921875 70.7265625 C-91.96464233 71.88273071 -91.96464233 71.88273071 -92.49047852 73.06225586 C-93.15083978 74.57509801 -93.79157403 76.09669853 -94.40991211 77.62719727 C-96.67824697 82.86766518 -96.67824697 82.86766518 -100.6171875 84.67578125 C-101.98230469 84.92908203 -101.98230469 84.92908203 -103.375 85.1875 C-102.87106507 79.75620126 -101.41283313 75.5318502 -98.875 70.6875 C-98.51970215 69.9968042 -98.1644043 69.3061084 -97.79833984 68.59448242 C-89.62652995 52.92322674 -80.34400963 38.95575341 -67.875 26.375 C-66.95714722 25.44868774 -66.95714722 25.44868774 -66.02075195 24.50366211 C-61.63190437 20.1875 -61.63190437 20.1875 -59.375 20.1875 C-59.375 19.5275 -59.375 18.8675 -59.375 18.1875 C-57.20006105 16.52126526 -55.03841998 14.99699297 -52.75 13.5 C-52.06993896 13.05446777 -51.38987793 12.60893555 -50.68920898 12.14990234 C-37.03571221 3.35762623 -16.2374878 -8.72013234 0 0 Z " fill="#535355" transform="translate(154.375,24.8125)"/>
<path d="M0 0 C1.45029538 -0.01141585 2.90055231 -0.03169888 4.35058594 -0.06152344 C15.30776927 -0.28603532 24.82606977 1.20500099 35.32714844 4.29516602 C36.82692728 4.69703397 38.32687362 5.09827864 39.82714844 5.49829102 C48.85340515 8.19810887 57.0009842 11.79346553 65.30615234 16.22583008 C67.30465158 17.28326263 69.31807502 18.30452613 71.33886719 19.31860352 C99.26362336 33.49106754 99.26362336 33.49106754 108.0222168 41.92797852 C111.72147394 44.12222065 115.58015972 43.98897189 119.81152344 44.20922852 C120.7640802 44.26897354 121.71663696 44.32871857 122.69805908 44.39027405 C125.82375069 44.58143786 128.95016688 44.75152456 132.07714844 44.92016602 C134.23211997 45.04581956 136.38706776 45.17188104 138.54199219 45.29833984 C158.45802834 46.43200565 178.38285679 46.99232065 198.32714844 47.29516602 C197.99714844 48.61516602 197.66714844 49.93516602 197.32714844 51.29516602 C180.27555609 51.39136891 163.24365064 51.46197752 146.20214844 50.79516602 C126.91629635 50.04537537 107.62394465 50.20412357 88.32714844 50.29516602 C88.32714844 48.97516602 88.32714844 47.65516602 88.32714844 46.29516602 C93.27714844 45.63516602 98.22714844 44.97516602 103.32714844 44.29516602 C86.62196139 34.17962755 70.06124578 24.17710138 52.23144531 16.15454102 C50.54331555 15.39271835 48.86419596 14.61099919 47.18652344 13.82641602 C38.84852224 10.09026247 30.22918893 8.1692798 21.32714844 6.29516602 C20.54509033 6.11719482 19.76303223 5.93922363 18.95727539 5.75585938 C13.8420651 4.85987851 8.63160146 5.10485052 3.45214844 5.10766602 C2.24518311 5.10702148 1.03821777 5.10637695 -0.20532227 5.10571289 C-8.8545086 5.15682621 -17.16889294 5.69978349 -25.67285156 7.29516602 C-23.89160156 3.44360352 -23.89160156 3.44360352 -21.92285156 2.10766602 C-14.92700994 -0.41861012 -7.33575887 0.03995689 0 0 Z " fill="#28282B" transform="translate(198.6728515625,69.704833984375)"/>
<path d="M0 0 C1.16273437 0.886875 2.32546875 1.77375 3.5234375 2.6875 C7.45564856 5.63450153 11.48357072 8.35828928 15.625 11 C16.34953369 11.46510986 17.07406738 11.93021973 17.82055664 12.40942383 C19.39029059 13.41592658 20.96104309 14.42084226 22.53271484 15.42431641 C25.05161909 17.03296552 27.56688911 18.64719519 30.08203125 20.26171875 C43.24898496 28.69469159 56.53965236 36.91633339 69.87280273 45.08300781 C75.25313978 48.38118928 80.62620029 51.69118042 86 55 C87.371063 55.84379996 88.74215063 56.68755992 90.11328125 57.53125 C93.07552083 59.35416667 96.03776042 61.17708333 99 63 C98.67 65.31 98.34 67.62 98 70 C93.13527289 68.33700881 89.09938029 65.64599241 84.8125 62.875 C77.02711017 57.89911044 69.18945723 53.01709018 61.3125 48.1875 C45.26583955 38.33672503 29.30209653 28.3552935 13.375 18.3125 C12.61131104 17.83135742 11.84762207 17.35021484 11.06079102 16.85449219 C7.0023693 14.2903138 2.98177718 11.68173321 -1 9 C-0.67 6.03 -0.34 3.06 0 0 Z " fill="#807B3C" transform="translate(18,172)"/>
<path d="M0 0 C3.06073463 0.49949346 5.32386659 1.63532588 7.94140625 3.2578125 C8.68382568 3.71470459 9.42624512 4.17159668 10.19116211 4.64233398 C10.97370361 5.13161377 11.75624512 5.62089355 12.5625 6.125 C13.37533447 6.62781494 14.18816895 7.13062988 15.02563477 7.64868164 C20.04094009 10.75758144 25.03566686 13.8984258 30.00390625 17.08203125 C49.15566557 29.34215358 68.45282861 41.37979212 88 53 C87.67 54.65 87.34 56.3 87 58 C80.39761926 59.07682981 76.14973328 55.31904458 70.9375 51.8125 C68.95789471 50.51560812 66.97740453 49.22006609 64.99609375 47.92578125 C63.99433105 47.26658691 62.99256836 46.60739258 61.96044922 45.92822266 C57.52290092 43.03792442 53.01471831 40.26756948 48.5 37.5 C38.4246571 31.29254643 28.43472047 24.95510599 18.46630859 18.57763672 C16.19369752 17.12390352 13.91933433 15.67295582 11.64453125 14.22265625 C10.38788602 13.41948173 9.13136481 12.61611311 7.875 11.8125 C6.29332031 10.80123047 6.29332031 10.80123047 4.6796875 9.76953125 C2.38341361 8.25318712 0.17658765 6.68190864 -2 5 C-1.125 1.125 -1.125 1.125 0 0 Z " fill="#FAFAFA" transform="translate(33,158)"/>
<path d="M0 0 C-0.66 0.66 -1.32 1.32 -2 2 C-2.6425235 4.06874034 -2.6425235 4.06874034 -3 6 C3.1105424 6.11269443 8.95170514 5.89604368 15 5 C9.71747566 11.3049484 3.46025501 12.42757439 -4.3125 14.25 C-16.5331043 17.22300233 -28.57742039 21.74623663 -40.10083008 26.75561523 C-41.92685008 27.53938146 -43.76114869 28.30438818 -45.60620117 29.04223633 C-53.57871212 32.23874525 -61.16065738 36.02163657 -68.76538086 39.9934082 C-70.82477968 41.06891297 -72.88762461 42.13755781 -74.95117188 43.20507812 C-76.28666098 43.8980471 -77.62195451 44.59139314 -78.95703125 45.28515625 C-79.56134476 45.5988063 -80.16565826 45.91245636 -80.7882843 46.23561096 C-84.91843376 48.39446086 -88.96560636 50.66911 -93 53 C-93 51.35 -93 49.7 -93 48 C-67.35458207 33.60121864 -41.31196302 21.32329117 -13.48828125 11.71875 C-12.05222534 11.2227832 -12.05222534 11.2227832 -10.5871582 10.71679688 C-8 10 -8 10 -4 10 C-4 9.34 -4 8.68 -4 8 C-17.9028878 8.15494606 -30.53316801 9.8410844 -43.95703125 13.46484375 C-46.28814618 14.07547997 -48.62862688 14.57237534 -51 15 C-48.69839665 12.35954435 -46.74157362 11.33985767 -43.421875 10.28125 C-42.51518066 9.99024414 -41.60848633 9.69923828 -40.67431641 9.39941406 C-39.70929199 9.10260742 -38.74426758 8.80580078 -37.75 8.5 C-36.76306152 8.19030273 -35.77612305 7.88060547 -34.75927734 7.56152344 C-27.91099526 5.46035864 -21.14099279 3.87092588 -14.0859375 2.625 C-11.30404529 2.06157879 -8.8740067 1.31097022 -6.25 0.25 C-3 -1 -3 -1 0 0 Z " fill="#303032" transform="translate(163,67)"/>
<path d="M0 0 C0.99 0.495 0.99 0.495 2 1 C1.6979294 5.22898846 0.79619123 8.253968 -2.11328125 11.421875 C-18.61458023 25.22420376 -40.58621405 24.20527813 -60.79296875 22.68359375 C-69.4390438 21.87005308 -77.79045655 20.04483895 -86.1953125 17.90234375 C-89.99575611 16.92928624 -89.99575611 16.92928624 -93.9296875 16.50390625 C-94.94289063 16.33761719 -95.95609375 16.17132813 -97 16 C-97.33 15.34 -97.66 14.68 -98 14 C-96.53046875 14.2165625 -96.53046875 14.2165625 -95.03125 14.4375 C-82.57833901 16.05640723 -70.16181432 16.22474499 -57.625 16.25 C-56.33275513 16.25749268 -56.33275513 16.25749268 -55.0144043 16.26513672 C-37.78392244 16.3469451 -21.63458382 15.29921775 -6.12890625 7.0859375 C-4 6 -4 6 -1 5 C-0.67 3.35 -0.34 1.7 0 0 Z " fill="#D8D5CC" transform="translate(396,122)"/>
<path d="M0 0 C0.99 0 1.98 0 3 0 C2.75920605 4.93627607 1.26233518 7.80041548 -2.015625 11.328125 C-13.59762978 21.08619202 -30.6652681 20.91371107 -45 20 C-56.70372666 18.89855228 -67.78941183 16.49401621 -79 13 C-81.6591189 12.29379483 -84.32456183 11.64210516 -87 11 C-87 10.34 -87 9.68 -87 9 C-81.96143673 8.59146784 -77.82924601 9.77480729 -73.07421875 11.24609375 C-52.80259326 16.21740724 -22.39515304 16.18106051 -3.875 5.9375 C-1.58747122 4.58817155 -1.58747122 4.58817155 0 3 C0 2.01 0 1.02 0 0 Z " fill="#D8D5CC" transform="translate(377,147)"/>
<path d="M0 0 C8.47787674 5.59919471 23.9129593 3.61529434 33.97101212 3.95243454 C38.00703602 4.08966239 42.04252435 4.2415537 46.078125 4.390625 C51.17586898 4.57798887 56.27367117 4.76099269 61.37207031 4.9296875 C65.53192291 5.06771077 69.69107217 5.21950885 73.85009384 5.38057327 C75.42636047 5.43905922 77.00282472 5.49245471 78.57944107 5.54059982 C80.77388418 5.60822411 82.9669916 5.69341677 85.16064453 5.78271484 C86.40637238 5.82633148 87.65210022 5.86994812 88.93557739 5.91488647 C92.29043421 6.41195393 93.74081515 6.97712582 96.09375 9.3828125 C97.52078602 14.23473495 97.17107319 17.83776002 95.2421875 22.39453125 C92.24089811 27.59064112 87.47174112 31.77064539 82.09375 34.3828125 C81.43375 34.3828125 80.77375 34.3828125 80.09375 34.3828125 C79.97257813 35.16527344 79.85140625 35.94773437 79.7265625 36.75390625 C79.47519531 38.27177734 79.47519531 38.27177734 79.21875 39.8203125 C78.97511719 41.33431641 78.97511719 41.33431641 78.7265625 42.87890625 C78.41332031 44.11833984 78.41332031 44.11833984 78.09375 45.3828125 C77.10375 45.8778125 77.10375 45.8778125 76.09375 46.3828125 C76.46962596 35.97788244 76.46962596 35.97788244 80.27734375 32.23828125 C82.02738704 31.0863211 83.80570648 29.97619732 85.609375 28.91015625 C89.47690887 26.53247426 92.0552353 23.4598419 94.09375 19.3828125 C94.16325541 17.84257254 94.17827357 16.29946262 94.15625 14.7578125 C94.14722656 13.94054687 94.13820313 13.12328125 94.12890625 12.28125 C94.11730469 11.65476563 94.10570312 11.02828125 94.09375 10.3828125 C90.41932702 8.03396509 86.86155053 8.08617888 82.640625 8.07421875 C81.07828295 8.0515996 79.5159459 8.02863288 77.95361328 8.00537109 C77.12283264 7.99624695 76.292052 7.9871228 75.43609619 7.97772217 C59.41630812 7.77744181 43.39424277 7.25571295 27.39562988 6.41720581 C25.29193791 6.31165746 23.1876306 6.21768398 21.08288574 6.13577271 C0.77599457 5.32927364 0.77599457 5.32927364 -7.90625 -2.6171875 C-9.39709726 -3.61541261 -10.9121644 -4.57841025 -12.44921875 -5.50390625 C-13.20154785 -5.96152344 -13.95387695 -6.41914062 -14.72900391 -6.890625 C-15.50937012 -7.35726562 -16.28973633 -7.82390625 -17.09375 -8.3046875 C-17.93599121 -8.80871094 -18.77823242 -9.31273437 -19.64599609 -9.83203125 C-26.33981199 -13.78785736 -33.14611744 -17.50583778 -40.03125 -21.1171875 C-41.43346802 -21.85521606 -41.43346802 -21.85521606 -42.86401367 -22.6081543 C-48.75436135 -25.65340048 -54.70723193 -28.26832514 -60.90625 -30.6171875 C-62.07671875 -31.07222656 -63.2471875 -31.52726562 -64.453125 -31.99609375 C-65.51015625 -32.38667969 -66.5671875 -32.77726562 -67.65625 -33.1796875 C-69.22632813 -33.76943359 -69.22632813 -33.76943359 -70.828125 -34.37109375 C-81.52571432 -37.84258171 -92.05337896 -39.1095855 -103.23754883 -39.00830078 C-105.33936671 -38.99222103 -107.4392554 -39.00825241 -109.54101562 -39.02734375 C-117.9499381 -39.03739802 -125.63431524 -38.12318412 -133.81665039 -36.16259766 C-136.69571391 -35.65435365 -138.21055185 -35.61353656 -140.90625 -36.6171875 C-91.26337327 -53.69615885 -39.68273661 -28.73133202 0 0 Z " fill="#DADADA" transform="translate(306.90625,109.6171875)"/>
<path d="M0 0 C0.33 0 0.66 0 1 0 C0.53415602 4.75160856 0.17394199 8.34515771 -3 12 C-12.9019675 18.03565157 -21.56724852 19.34151714 -33 19.3125 C-34.23878906 19.32861328 -35.47757812 19.34472656 -36.75390625 19.36132812 C-47.90622954 19.36714268 -58.61162004 17.76595691 -68.9375 13.4375 C-73.26435667 11.68136746 -77.47823221 10.1567313 -82 9 C-82 8.34 -82 7.68 -82 7 C-80.783125 7.268125 -79.56625 7.53625 -78.3125 7.8125 C-77.49265625 7.99296875 -76.6728125 8.1734375 -75.828125 8.359375 C-73.83457394 8.81095286 -71.84527326 9.28150055 -69.859375 9.765625 C-49.33227726 14.72715099 -25.1612864 16.1903205 -6 6 C-3.96694231 4.44045361 -2.61848133 3.00914924 -1 1 C-0.67 0.67 -0.34 0.34 0 0 Z " fill="#DBD8CE" transform="translate(353,172)"/>
<path d="M0 0 C0.33 0 0.66 0 1 0 C1.08564209 0.92224365 1.17128418 1.8444873 1.25952148 2.79467773 C1.58130802 6.25567557 1.90382076 9.7166042 2.22680664 13.17749023 C2.36576421 14.66802352 2.50444235 16.15858289 2.64282227 17.64916992 C2.8431555 19.80654915 3.04453391 21.96382881 3.24609375 24.12109375 C3.42676392 26.06133423 3.42676392 26.06133423 3.61108398 28.04077148 C3.81145551 30.08058634 4.01488356 32.120503 4.26612854 34.15467834 C4.94428934 39.67087555 5.13226112 45.07406534 5.09765625 50.62890625 C5.0962413 51.50401352 5.09482635 52.37912079 5.09336853 53.28074646 C5.08782719 56.04136762 5.07528612 58.80190388 5.0625 61.5625 C5.0574774 63.44856653 5.05291583 65.33463434 5.04882812 67.22070312 C5.03787707 71.81383417 5.02065384 76.40690275 5 81 C3.02 80.67 1.04 80.34 -1 80 C-1.02345187 72.37473948 -1.04107878 64.74948282 -1.05181217 57.12419415 C-1.05697069 53.58123667 -1.06393572 50.03830434 -1.07543945 46.49536133 C-1.12456182 30.97205079 -1.10284954 15.49335758 0 0 Z " fill="#837F3C" transform="translate(110,268)"/>
<path d="M0 0 C2.475 0.495 2.475 0.495 5 1 C3.24605308 7.13881421 1.04399679 12.04781786 -4.625 15.3125 C-12.32912935 19.16456468 -20.35639243 19.20847607 -28.625 16.5 C-36.45826519 13.27251097 -43.97409458 8.61478822 -48 1 C-44.34977017 2.44404696 -40.73635495 3.96165659 -37.125 5.5 C-28.64897814 9.00411148 -20.35324186 12.20586016 -11.27734375 9.0546875 C-6.45069905 6.79419705 -2.90509456 4.62174134 0 0 Z " fill="#DAD6CC" transform="translate(284,219)"/>
<path d="M0 0 C0 4.34260492 -2.22631913 6.01253816 -5.0625 9.12890625 C-12.72195352 16.52583817 -23.7276871 15.41499772 -33.61328125 15.27734375 C-44.9175092 14.87990631 -54.41381867 10.86909061 -64 5 C-60.34919356 3.69614056 -57.92717264 4.33662742 -54.25 5.375 C-46.03114708 7.67713943 -38.11006749 8.2008112 -29.625 8.25 C-28.74328125 8.270625 -27.8615625 8.29125 -26.953125 8.3125 C-18.62411325 8.36135051 -11.07936736 6.61188052 -3.875 2.3125 C-3.12992187 1.87550781 -2.38484375 1.43851563 -1.6171875 0.98828125 C-1.08351563 0.66214844 -0.54984375 0.33601562 0 0 Z " fill="#D8D4CB" transform="translate(324,201)"/>
<path d="M0 0 C2.4375 0.6875 2.4375 0.6875 5 2 C6.125 4.3125 6.125 4.3125 6 7 C-0.26005763 15.63456225 -12.46864316 18.67612169 -22.4375 20.3125 C-30.5975126 21.72842324 -38.23018546 24.17562776 -46 27 C-45.505 25.515 -45.505 25.515 -45 24 C-43.17785166 23.24363654 -41.34541386 22.50693487 -39.48046875 21.86328125 C-17.11546504 14.59551812 -17.11546504 14.59551812 0 0 Z " fill="#DCD8CF" transform="translate(164,52)"/>
<path d="M0 0 C-0.66 0.66 -1.32 1.32 -2 2 C-2.6425235 4.06874034 -2.6425235 4.06874034 -3 6 C3.1105424 6.11269443 8.95170514 5.89604368 15 5 C9.831672 11.16864955 3.78022554 12.78589533 -4.0625 13.6875 C-5.361875 13.790625 -6.66125 13.89375 -8 14 C-8 12.68 -8 11.36 -8 10 C-6.68 10 -5.36 10 -4 10 C-4 9.34 -4 8.68 -4 8 C-17.9028878 8.15494606 -30.53316801 9.8410844 -43.95703125 13.46484375 C-46.28814618 14.07547997 -48.62862688 14.57237534 -51 15 C-48.69839665 12.35954435 -46.74157362 11.33985767 -43.421875 10.28125 C-42.51518066 9.99024414 -41.60848633 9.69923828 -40.67431641 9.39941406 C-39.70929199 9.10260742 -38.74426758 8.80580078 -37.75 8.5 C-36.76306152 8.19030273 -35.77612305 7.88060547 -34.75927734 7.56152344 C-27.91099526 5.46035864 -21.14099279 3.87092588 -14.0859375 2.625 C-11.30404529 2.06157879 -8.8740067 1.31097022 -6.25 0.25 C-3 -1 -3 -1 0 0 Z " fill="#2C2D2F" transform="translate(163,67)"/>
<path d="M0 0 C2.90457226 0.99585334 4.98048692 1.98408144 7.375 3.9375 C14.46357534 9.50709491 21.1852128 9.83053899 30 9 C32.82065851 8.31351523 34.48857223 7.54110341 37 6 C37.33 5.01 37.66 4.02 38 3 C38.99 3.33 39.98 3.66 41 4 C39.57646476 7.33136597 37.8664687 9.27664757 35.125 11.625 C34.44695312 12.21539062 33.76890625 12.80578125 33.0703125 13.4140625 C28.67713217 16.77940441 25.21340274 17.56698296 19.7265625 17.4375 C12.87378278 16.33791357 7.60640851 12.19526732 3.4375 6.8125 C1.80482701 4.46755608 0.91526265 2.74578796 0 0 Z " fill="#D8D4CB" transform="translate(219,236)"/>
<path d="M0 0 C1.32 0.66 2.64 1.32 4 2 C3.15703692 9.38909821 -2.77129983 14.30473725 -8.24609375 18.875 C-15.92310839 24.34880723 -24.55209269 27.09946061 -34 26 C-37 25.125 -37 25.125 -39 24 C-39.33 23.34 -39.66 22.68 -40 22 C-39.09378906 21.96261719 -38.18757812 21.92523438 -37.25390625 21.88671875 C-23.84989079 21.16332744 -13.56561842 18.41550066 -4.2265625 8.02734375 C-2.3265098 5.44085582 -1.01605496 3.04816489 0 0 Z " fill="#DAD6CC" transform="translate(229,253)"/>
<path d="M0 0 C2.4375 0.625 2.4375 0.625 5 2 C6.1875 4.625 6.1875 4.625 6 8 C2.44556748 16.43306539 -6.37630845 19.99019096 -14 24 C-15.2741469 24.74134528 -16.54633221 25.48607354 -17.81640625 26.234375 C-21 28 -21 28 -23 28 C-23 27.34 -23 26.68 -23 26 C-21.3125 24.51953125 -21.3125 24.51953125 -19 22.8125 C-6.53352001 13.61502865 -6.53352001 13.61502865 0 0 Z " fill="#D8D4CC" transform="translate(148,29)"/>
<path d="M0 0 C4.56 0.48 4.56 0.48 6.375 2.625 C7.50386651 6.91469274 6.37465075 10.87604775 5 15 C5.7425 15.061875 6.485 15.12375 7.25 15.1875 C10.97501049 16.28807128 12.0467078 17.67216884 14 21 C14.60885138 25.18585327 14.30186207 27.38420138 12.4375 31.1875 C9.48995027 34.58851892 7.04012592 36.05475419 3 38 C2.34 38 1.68 38 1 38 C1 38.99 1 39.98 1 41 C0.01 41 -0.98 41 -2 41 C-1.47731534 38.23723823 -0.89130413 35.6739124 0 33 C0.804375 32.690625 1.60875 32.38125 2.4375 32.0625 C5.06562475 31.25222251 5.06562475 31.25222251 6.15234375 29.26171875 C7.14648943 26.60913649 7.19931777 24.57407539 7.125 21.75 C7.09792969 20.41195312 7.09792969 20.41195312 7.0703125 19.046875 C7.04710937 18.37140625 7.02390625 17.6959375 7 17 C5.35 16.67 3.7 16.34 2 16 C2.33 15.13375 2.66 14.2675 3 13.375 C4.01937123 9.93462209 4.46352792 7.55371408 4 4 C2.12498069 1.62280307 2.12498069 1.62280307 0 0 Z " fill="#434345" transform="translate(162,32)"/>
<path d="M0 0 C0.66 0 1.32 0 2 0 C2.00410889 1.30670654 2.00821777 2.61341309 2.01245117 3.9597168 C2.03424804 8.81493395 2.08854402 13.66934134 2.15258789 18.52416992 C2.17576296 20.62402578 2.19016244 22.7239978 2.19555664 24.82397461 C2.20484963 27.84562525 2.24584846 30.86545017 2.29296875 33.88671875 C2.2890361 34.82335861 2.28510345 35.75999847 2.28105164 36.72502136 C2.38359438 41.32167531 2.46568885 43.33647109 5.4309082 47.01879883 C6.2787085 47.67259521 7.12650879 48.3263916 8 49 C9 50 10 51 11 52 C10.505 52.495 10.505 52.495 10 53 C6.6875 52.9375 6.6875 52.9375 3 52 C-1.66017134 46.90618027 -1.54889289 42.28709922 -1.42578125 35.60546875 C-1.42249313 34.61750809 -1.41920502 33.62954742 -1.41581726 32.61164856 C-1.40542768 30.53310513 -1.38553108 28.45458999 -1.35668945 26.3762207 C-1.31240981 23.18099178 -1.29522089 19.98651413 -1.28320312 16.79101562 C-1.26978726 14.77082239 -1.25486656 12.75063846 -1.23828125 10.73046875 C-1.23089432 9.77013229 -1.22350739 8.80979584 -1.21589661 7.82035828 C-1.20306137 6.93886612 -1.19022614 6.05737396 -1.17700195 5.14916992 C-1.16715775 4.3700676 -1.15731354 3.59096527 -1.14717102 2.78825378 C-1 1 -1 1 0 0 Z " fill="#817D3B" transform="translate(56,267)"/>
<path d="M0 0 C3.30166958 2.16511354 6.54835672 4.37769382 9.7421875 6.69921875 C20.35270403 14.39052799 31.21064574 21.23895535 43 27 C43 27.33 43 27.66 43 28 C27.94919032 28.78623633 12.26793619 14.23286632 1.44140625 4.76171875 C0 3 0 3 0 0 Z " fill="#6F6E73" transform="translate(27,220)"/>
<path d="M0 0 C0.495 0.99 0.495 0.99 1 2 C1.66 2.33 2.32 2.66 3 3 C1.87720538 3.98169476 0.75168527 4.96027298 -0.375 5.9375 C-1.00148437 6.48277344 -1.62796875 7.02804688 -2.2734375 7.58984375 C-4 9 -4 9 -6 10 C-4.68 10.66 -3.36 11.32 -2 12 C-4.45285081 14.45285081 -5.94679887 14.58586519 -9.3125 15.3125 C-19.04872974 17.62675389 -28.16766606 21.3240585 -37 26 C-37 25.34 -37 24.68 -37 24 C-34.46629333 22.34019455 -31.94072703 20.80948548 -29.3125 19.3125 C-28.54389648 18.86696777 -27.77529297 18.42143555 -26.98339844 17.96240234 C-21.30581551 14.69031546 -15.55909069 11.57320997 -9.734375 8.5703125 C-5.6350754 6.2161433 -2.63141015 3.94711522 0 0 Z " fill="#252527" transform="translate(152,39)"/>
<path d="M0 0 C3.69786118 1.40518725 7.13113966 3.08697828 10.625 4.9375 C21.62957633 10.4264006 31.90375029 11.55986042 44 12 C44 12.33 44 12.66 44 13 C42.6078125 13.0309375 42.6078125 13.0309375 41.1875 13.0625 C37.99303786 13.62844359 37.99303786 13.62844359 36.93359375 15.625 C36.20025229 17.38218533 35.59224075 19.19037549 35 21 C34.01 21 33.02 21 32 21 C31 18 31 18 31 16 C30.28457031 15.86464844 29.56914062 15.72929687 28.83203125 15.58984375 C18.10560115 13.27249081 7.94974807 8.72261241 0 1 C0 0.67 0 0.34 0 0 Z " fill="#29292B" transform="translate(257,204)"/>
<path d="M0 0 C0.33 0.66 0.66 1.32 1 2 C-0.21112075 5.62544098 -1.93905061 9.04303463 -3.5625 12.5 C-3.99369141 13.47582031 -4.42488281 14.45164062 -4.86914062 15.45703125 C-8.21944053 22.61291554 -8.21944053 22.61291554 -12.33984375 24.65625 C-13.21769531 24.7696875 -14.09554687 24.883125 -15 25 C-14.5188509 19.22621075 -12.81532819 15.04140164 -10 10 C-9.34 10 -8.68 10 -8 10 C-7.5978125 8.88625 -7.5978125 8.88625 -7.1875 7.75 C-6.03976387 5.09208476 -4.92285629 3.15359904 -3 1 C-2.01 0.67 -1.02 0.34 0 0 Z " fill="#313133" transform="translate(66,85)"/>
<path d="M0 0 C5.41940666 1.77094075 10.74236949 3.76412594 16.07421875 5.78125 C24.89014625 8.73424248 33.95887773 9.34086025 43.1875 9.625 C44.23486328 9.66367188 45.28222656 9.70234375 46.36132812 9.7421875 C48.90739113 9.83519437 51.45346963 9.92103284 54 10 C54 10.33 54 10.66 54 11 C48.72 11 43.44 11 38 11 C37.67 11.99 37.34 12.98 37 14 C25.35993834 13.08705399 7.88261164 9.16013836 0 0 Z " fill="#404042" transform="translate(274,181)"/>
<path d="M0 0 C1.32 0.33 2.64 0.66 4 1 C5.09173973 4.18424089 5.21730321 5.54366326 3.75 8.625 C-0.26042424 12.08854821 -4.8002558 13.222023 -10 14 C-10.99 13.67 -11.98 13.34 -13 13 C-12.39671875 12.56429687 -11.7934375 12.12859375 -11.171875 11.6796875 C-6.45218947 8.16276054 -2.88845042 5.14897684 0 0 Z " fill="#CBC9C1" transform="translate(158,36)"/>
<path d="M0 0 C0 0.66 0 1.32 0 2 C3.96 2.33 7.92 2.66 12 3 C12 3.33 12 3.66 12 4 C10.87464844 4.04898438 9.74929687 4.09796875 8.58984375 4.1484375 C-1.37234445 4.62049129 -11.13737371 5.50169542 -21 7 C-19.21875 3.1484375 -19.21875 3.1484375 -17.25 1.8125 C-11.59087838 -0.23107169 -5.93197014 -0.1186394 0 0 Z " fill="#28282B" transform="translate(194,70)"/>
<path d="M0 0 C0.74958984 0.00451172 1.49917969 0.00902344 2.27148438 0.01367188 C4.11852383 0.02543646 5.96552213 0.04337135 7.8125 0.0625 C8.1425 0.7225 8.4725 1.3825 8.8125 2.0625 C8.1525 2.0625 7.4925 2.0625 6.8125 2.0625 C6.8125 3.0525 6.8125 4.0425 6.8125 5.0625 C6.07386719 5.05089844 5.33523437 5.03929687 4.57421875 5.02734375 C-2.41203848 4.96520423 -9.2437763 5.29705014 -16.1875 6.0625 C-15.5275 5.0725 -14.8675 4.0825 -14.1875 3.0625 C-13.1975 3.0625 -12.2075 3.0625 -11.1875 3.0625 C-11.1875 2.4025 -11.1875 1.7425 -11.1875 1.0625 C-7.42449626 -0.19183458 -3.91539091 -0.04445422 0 0 Z " fill="#27272A" transform="translate(143.1875,23.9375)"/>
<path d="M0 0 C0.53625 0.10957031 1.0725 0.21914062 1.625 0.33203125 C4.41503492 0.89646266 7.20730841 1.44885509 10 2 C11.26714844 2.25265625 12.53429687 2.5053125 13.83984375 2.765625 C21.53581132 4.27336865 29.1600128 5.51830587 37 6 C37 6.33 37 6.66 37 7 C34.69 7.33 32.38 7.66 30 8 C30 8.66 30 9.32 30 10 C19.29360861 8.78336461 9.63986004 5.80095392 0 1 C0 0.67 0 0.34 0 0 Z " fill="#373739" transform="translate(303,138)"/>
<path d="M0 0 C-0.99 0.33 -1.98 0.66 -3 1 C1.29 1.33 5.58 1.66 10 2 C10 2.33 10 2.66 10 3 C8.94425781 3.01417969 7.88851562 3.02835937 6.80078125 3.04296875 C-4.893237 3.36375563 -15.61728476 5.49059044 -26.90869141 8.46484375 C-29.25743978 9.06587766 -31.61457657 9.5671809 -34 10 C-31.62520268 7.23410537 -29.52780139 6.28355571 -26.0703125 5.2109375 C-25.10996094 4.90929687 -24.14960937 4.60765625 -23.16015625 4.296875 C-22.15855469 3.99265625 -21.15695313 3.6884375 -20.125 3.375 C-19.13113281 3.06304687 -18.13726562 2.75109375 -17.11328125 2.4296875 C-4.48088293 -1.49362764 -4.48088293 -1.49362764 0 0 Z " fill="#4C4C4C" transform="translate(146,72)"/>
<path d="M0 0 C0.08984375 2.26171875 0.08984375 2.26171875 -1 5 C-3.97529518 6.73631595 -7.17438455 7.74057013 -10.4375 8.8125 C-11.32244141 9.12380859 -12.20738281 9.43511719 -13.11914062 9.75585938 C-19.59508929 12 -19.59508929 12 -22 12 C-21.5 9.703125 -21.5 9.703125 -20 7 C-17.4724681 5.51552852 -14.77954038 4.65383656 -12 3.75 C-10.54154278 3.24514942 -9.08320395 2.73995666 -7.625 2.234375 C-5.830625 1.62335938 -5.830625 1.62335938 -4 1 C-2 0 -2 0 0 0 Z " fill="#56552F" transform="translate(241,306)"/>
<path d="M0 0 C3.69786118 1.40518725 7.13113966 3.08697828 10.625 4.9375 C16.27279345 7.80343985 21.8340682 9.61630664 28 11 C27.01 11.33 26.02 11.66 25 12 C25 12.66 25 13.32 25 14 C15.69851658 12.93537238 6.67046934 7.4798845 0 1 C0 0.67 0 0.34 0 0 Z " fill="#2A2A2C" transform="translate(257,204)"/>
<path d="M0 0 C4.56 0.48 4.56 0.48 6.375 2.625 C7.50386651 6.91469274 6.37465075 10.87604775 5 15 C5.7425 15.061875 6.485 15.12375 7.25 15.1875 C10.97501049 16.28807128 12.0467078 17.67216884 14 21 C14.4375 24.625 14.4375 24.625 14 28 C12.47265625 29.7109375 12.47265625 29.7109375 11 31 C11.06960937 29.86111328 11.06960937 29.86111328 11.140625 28.69921875 C11.17671875 27.70535156 11.2128125 26.71148437 11.25 25.6875 C11.31960937 24.20830078 11.31960937 24.20830078 11.390625 22.69921875 C11.26243788 19.89219471 11.26243788 19.89219471 9.15625 18.1875 C6.76500863 16.87058446 4.69296506 16.37402293 2 16 C2.33 15.13375 2.66 14.2675 3 13.375 C4.01937123 9.93462209 4.46352792 7.55371408 4 4 C2.12498069 1.62280307 2.12498069 1.62280307 0 0 Z " fill="#E4E4E4" transform="translate(162,32)"/>
<path d="M0 0 C0.99966797 0.27263672 0.99966797 0.27263672 2.01953125 0.55078125 C3.96315157 1.08085952 5.90719437 1.60939012 7.8515625 2.13671875 C9.87039124 2.69026856 11.88635549 3.25443897 13.8984375 3.83203125 C19.2841335 5.36325854 24.423162 6.47388321 30 7 C26.98029956 8.67761136 24.45235717 9.68357328 21 10 C18.21926773 9.1908525 15.67137054 8.32446269 13 7.25 C12.30132812 6.98445312 11.60265625 6.71890625 10.8828125 6.4453125 C7.02801562 4.94703296 3.43845895 3.33707757 0 1 C0 0.67 0 0.34 0 0 Z " fill="#434344" transform="translate(294,158)"/>
<path d="M0 0 C2.95839355 -0.02689449 5.91654427 -0.04678741 8.875 -0.0625 C9.71675781 -0.07087891 10.55851563 -0.07925781 11.42578125 -0.08789062 C12.23144531 -0.09111328 13.03710938 -0.09433594 13.8671875 -0.09765625 C14.98262939 -0.10551147 14.98262939 -0.10551147 16.12060547 -0.11352539 C18 0 18 0 20 1 C20 1.66 20 2.32 20 3 C17.64341603 4.17829199 16.47426764 4.04414372 13.8671875 3.87890625 C13.06152344 3.83056641 12.25585938 3.78222656 11.42578125 3.73242188 C10.58402344 3.67634766 9.74226562 3.62027344 8.875 3.5625 C7.60076172 3.48418945 7.60076172 3.48418945 6.30078125 3.40429688 C4.20020876 3.27448622 2.10005809 3.1378826 0 3 C0 2.01 0 1.02 0 0 Z " fill="#1E1E21" transform="translate(194,70)"/>
<path d="M0 0 C0.61875 0.680625 1.2375 1.36125 1.875 2.0625 C7.60154264 7.77277405 14.43063346 12.20262541 22 15 C21.01 15.33 20.02 15.66 19 16 C19 16.66 19 17.32 19 18 C11.29365155 15.8325895 4.48032149 8.43197668 0 2 C0 1.34 0 0.68 0 0 Z " fill="#2F2F31" transform="translate(235,220)"/>
<path d="M0 0 C-1.15058556 5.39795989 -2.42421759 10.70987333 -4 16 C-5.32 16 -6.64 16 -8 16 C-5.95268494 4.78332707 -5.95268494 4.78332707 -4 1 C-2 0 -2 0 0 0 Z " fill="#272629" transform="translate(56,108)"/>
<path d="M0 0 C7.34467941 1.61831919 14.67349113 3.30142762 22 5 C22 5.66 22 6.32 22 7 C23.65 7.66 25.3 8.32 27 9 C22.50714592 10.44892842 19.38829476 8.90583064 15.1875 7.1875 C10.16773581 5.18430772 5.22424254 3.39996042 0 2 C0 1.34 0 0.68 0 0 Z " fill="#CDCAC3" transform="translate(271,179)"/>
<path d="M0 0 C1.04449911 3.13349732 0.93423645 3.98968256 0 7 C0.66 7.33 1.32 7.66 2 8 C1.67 9.65 1.34 11.3 1 13 C-0.98 13.66 -2.96 14.32 -5 15 C-4.5188509 9.22621075 -2.81532819 5.04140164 0 0 Z " fill="#7E7E7F" transform="translate(56,95)"/>
<path d="M0 0 C3.63 0 7.26 0 11 0 C11 0.33 11 0.66 11 1 C13.97 1.495 13.97 1.495 17 2 C15 4 15 4 13.01171875 4.265625 C8.62022394 4.23610235 4.93102342 4.21120067 1 2 C0.67 1.34 0.34 0.68 0 0 Z " fill="#D0CDC4" transform="translate(189,275)"/>
<path d="M0 0 C-2.24842091 0.98293267 -4.49859547 1.96144466 -6.75 2.9375 C-7.70132813 3.35418945 -7.70132813 3.35418945 -8.671875 3.77929688 C-11.74367158 5.10720894 -14.71000026 6.34366167 -18 7 C-18 6.34 -18 5.68 -18 5 C-18.66 4.67 -19.32 4.34 -20 4 C-17.23208055 3.13521219 -14.46134374 2.28288326 -11.6875 1.4375 C-10.90181641 1.19064453 -10.11613281 0.94378906 -9.30664062 0.68945312 C-8.54931641 0.46064453 -7.79199219 0.23183594 -7.01171875 -0.00390625 C-5.96697388 -0.32597046 -5.96697388 -0.32597046 -4.90112305 -0.65454102 C-3 -1 -3 -1 0 0 Z " fill="#9A999E" transform="translate(241,306)"/>
<path d="M0 0 C0.66 0.33 1.32 0.66 2 1 C2 1.99 2 2.98 2 4 C1.29875 4.24234375 0.5975 4.4846875 -0.125 4.734375 C-5.989508 6.8060762 -11.50070607 9.09471264 -17 12 C-17 11.34 -17 10.68 -17 10 C-14.3825449 8.01245625 -11.46617139 6.45919178 -8.625 4.8125 C-7.43390625 4.09803711 -7.43390625 4.09803711 -6.21875 3.36914062 C-5.45820312 2.92376953 -4.69765625 2.47839844 -3.9140625 2.01953125 C-2.8614624 1.40235229 -2.8614624 1.40235229 -1.78759766 0.77270508 C-1.19769043 0.5177124 -0.6077832 0.26271973 0 0 Z " fill="#565656" transform="translate(132,53)"/>
<path d="M0 0 C4.48304037 1.47595483 8.93216475 3.03228548 13.375 4.625 C14.01566406 4.85445312 14.65632813 5.08390625 15.31640625 5.3203125 C16.87781405 5.87962276 18.43893701 6.43972808 20 7 C20 7.99 20 8.98 20 10 C13.3603985 8.02736477 6.9557998 5.58057012 1 2 C0.67 1.34 0.34 0.68 0 0 Z " fill="#474748" transform="translate(274,181)"/>
<path d="M0 0 C0 0.99 0 1.98 0 3 C-6.625 6 -6.625 6 -10 6 C-10 4.68 -10 3.36 -10 2 C-6.49223216 0.39644899 -3.85645121 -0.22036864 0 0 Z " fill="#2C2C2F" transform="translate(132,87)"/>
<path d="M0 0 C1 3 1 3 0.22265625 5.04296875 C-0.16019531 5.75066406 -0.54304688 6.45835938 -0.9375 7.1875 C-1.31777344 7.90292969 -1.69804688 8.61835937 -2.08984375 9.35546875 C-2.39019531 9.89816406 -2.69054688 10.44085938 -3 11 C-4.32 11 -5.64 11 -7 11 C-6.52354792 6.71193127 -5.34097516 4.73352513 -2 2 C-1.34 2 -0.68 2 0 2 C0 1.34 0 0.68 0 0 Z " fill="#28282B" transform="translate(62,92)"/>
<path d="M0 0 C-0.99 0.33 -1.98 0.66 -3 1 C1.29 1.33 5.58 1.66 10 2 C10 2.33 10 2.66 10 3 C7.10410348 3.02706445 4.20846205 3.04687029 1.3125 3.0625 C0.08756836 3.07506836 0.08756836 3.07506836 -1.16210938 3.08789062 C-5.24499084 3.10442051 -9.01651707 3.03035098 -13 2 C-8.62836676 -0.42868513 -4.86219789 -1.62073263 0 0 Z " fill="#5B5A5B" transform="translate(146,72)"/>
<path d="M0 0 C0.556875 0.721875 1.11375 1.44375 1.6875 2.1875 C3.9634445 5.07040666 3.9634445 5.07040666 6.75 7.625 C9 10 9 10 9 13 C8.01 13 7.02 13 6 13 C4.39453125 10.91796875 4.39453125 10.91796875 2.8125 8.1875 C2.28269531 7.29417969 1.75289062 6.40085938 1.20703125 5.48046875 C0 3 0 3 0 0 Z " fill="#444445" transform="translate(220,238)"/>
<path d="M0 0 C1.18851562 0.00902344 2.37703125 0.01804688 3.6015625 0.02734375 C4.51679688 0.03894531 5.43203125 0.05054688 6.375 0.0625 C6.375 0.3925 6.375 0.7225 6.375 1.0625 C4.065 1.3925 1.755 1.7225 -0.625 2.0625 C-0.625 2.7225 -0.625 3.3825 -0.625 4.0625 C-2.9681213 3.80688677 -5.30343403 3.46979228 -7.625 3.0625 C-7.955 2.4025 -8.285 1.7425 -8.625 1.0625 C-5.74084117 -0.37957941 -3.20778472 -0.03144887 0 0 Z " fill="#383839" transform="translate(333.625,143.9375)"/>
<path d="M0 0 C2.97 0 5.94 0 9 0 C9 0.66 9 1.32 9 2 C12.96 2.33 16.92 2.66 21 3 C21 3.33 21 3.66 21 4 C18.70858714 4.05384521 16.41681812 4.09272087 14.125 4.125 C12.21074219 4.15980469 12.21074219 4.15980469 10.2578125 4.1953125 C7 4 7 4 5 2 C2.42938689 1.35232207 2.42938689 1.35232207 0 1 C0 0.67 0 0.34 0 0 Z " fill="#38383A" transform="translate(185,70)"/>
<path d="M0 0 C0.66 0.33 1.32 0.66 2 1 C0.11192137 3.69725519 -1.19824644 5.13216429 -4 7 C-6.1875 6.625 -6.1875 6.625 -8 6 C-5.54080489 3.3651481 -3.42227589 1.25483449 0 0 Z " fill="#29292B" transform="translate(140,49)"/>
<path d="M0 0 C2.475 0.495 2.475 0.495 5 1 C4.67 2.65 4.34 4.3 4 6 C2.68 5.67 1.36 5.34 0 5 C0 3.35 0 1.7 0 0 Z " fill="#1B1B1C" transform="translate(92,365)"/>
<path d="M0 0 C0.33 0.99 0.66 1.98 1 3 C-2.21451269 4.60725635 -5.43612536 4.05748185 -9 4 C-9 3.01 -9 2.02 -9 1 C-5.92677456 0.08941469 -3.19902639 -0.08886184 0 0 Z " fill="#1B1B1E" transform="translate(275,237)"/>
<path d="M0 0 C1.58467728 0.28427417 3.1677057 0.57774818 4.75 0.875 C6.07257813 1.11863281 6.07257813 1.11863281 7.421875 1.3671875 C9.86947744 1.96796264 11.80599857 2.77997117 14 4 C13.67 4.66 13.34 5.32 13 6 C11.58208592 5.54554036 10.16571954 5.08625056 8.75 4.625 C7.96109375 4.36976563 7.1721875 4.11453125 6.359375 3.8515625 C4.13372042 3.04826333 2.09068328 2.10288338 0 1 C0 0.67 0 0.34 0 0 Z " fill="#545453" transform="translate(303,138)"/>
<path d="M0 0 C1.32 0.66 2.64 1.32 4 2 C4 3.32 4 4.64 4 6 C2.35 5.67 0.7 5.34 -1 5 C-0.67 3.35 -0.34 1.7 0 0 Z " fill="#1D1D1D" transform="translate(89,355)"/>
<path d="M0 0 C1.32 0.99 2.64 1.98 4 3 C-0.29 3 -4.58 3 -9 3 C-7.19213254 -0.61573493 -3.63781788 -0.35490906 0 0 Z " fill="#18181B" transform="translate(151,71)"/>
<path d="M0 0 C4.30764815 1.56641751 8.06171464 3.68336156 12 6 C11.67 6.66 11.34 7.32 11 8 C6.40378078 6.5129879 3.53027653 4.20187872 0 1 C0 0.67 0 0.34 0 0 Z " fill="#545454" transform="translate(257,204)"/>
<path d="M0 0 C1.32 0.66 2.64 1.32 4 2 C1.61426621 3.89213369 -0.07175348 5.02391783 -3 6 C-3 3 -3 3 -1.5 1.3125 C-0.7575 0.6628125 -0.7575 0.6628125 0 0 Z " fill="#27272A" transform="translate(79,110)"/>
<path d="M0 0 C1.32 0.66 2.64 1.32 4 2 C3.67 3.32 3.34 4.64 3 6 C1.68 5.34 0.36 4.68 -1 4 C-0.67 2.68 -0.34 1.36 0 0 Z " fill="#1C1C1D" transform="translate(80,351)"/>
<path d="M0 0 C1.32 0.33 2.64 0.66 4 1 C4 2.65 4 4.3 4 6 C2.68 5.67 1.36 5.34 0 5 C0 3.35 0 1.7 0 0 Z " fill="#1F1F1D" transform="translate(71,347)"/>
<path d="M0 0 C1.98 0 3.96 0 6 0 C5.67 0.99 5.34 1.98 5 3 C5.99 3.33 6.98 3.66 8 4 C5.36 4 2.72 4 0 4 C0 2.68 0 1.36 0 0 Z " fill="#2F2F32" transform="translate(287,116)"/>
<path d="M0 0 C0 0.66 0 1.32 0 2 C-4.95 3.485 -4.95 3.485 -10 5 C-8 1 -8 1 -6.125 0.25 C-4 0 -4 0 0 0 Z " fill="#D9D6D0" transform="translate(159,75)"/>
<path d="M0 0 C1.98 0.495 1.98 0.495 4 1 C4 2.32 4 3.64 4 5 C2.68 4.67 1.36 4.34 0 4 C0 2.68 0 1.36 0 0 Z " fill="#1E1D1D" transform="translate(63,343)"/>
<path d="M0 0 C3 3 6 6 9 9 C6 9 6 9 4.39453125 7.5390625 C3.61142578 6.59160156 3.61142578 6.59160156 2.8125 5.625 C2.28269531 4.99851563 1.75289062 4.37203125 1.20703125 3.7265625 C0 2 0 2 0 0 Z " fill="#5B5B5B" transform="translate(235,220)"/>
<path d="M0 0 C0.86625 0.3403125 0.86625 0.3403125 1.75 0.6875 C0.76 2.1725 0.76 2.1725 -0.25 3.6875 C-3.22 3.1925 -3.22 3.1925 -6.25 2.6875 C-2.80384615 -0.38942308 -2.80384615 -0.38942308 0 0 Z " fill="#221B1F" transform="translate(246.25,127.3125)"/>
<path d="M0 0 C2.4375 -0.375 2.4375 -0.375 5 0 C5.99 0.99 6.98 1.98 8 3 C4.7 3 1.4 3 -2 3 C-1.34 2.01 -0.68 1.02 0 0 Z " fill="#1E1E21" transform="translate(153,48)"/>
<path d="M0 0 C4.59306496 1.4859916 7.43569245 3.85014682 11 7 C9.68 7.33 8.36 7.66 7 8 C6.401875 7.236875 5.80375 6.47375 5.1875 5.6875 C3.53040668 3.6516425 1.89702326 1.8021721 0 0 Z " fill="#E0E0E0" transform="translate(151,24)"/>
<path d="M0 0 C2.64 0 5.28 0 8 0 C8.33 0.99 8.66 1.98 9 3 C2.84765625 2.4140625 2.84765625 2.4140625 1 2 C0.67 1.34 0.34 0.68 0 0 Z " fill="#242527" transform="translate(293,189)"/>
<path d="M0 0 C1.65 0 3.3 0 5 0 C5 0.66 5 1.32 5 2 C5.66 2.33 6.32 2.66 7 3 C4.69 3 2.38 3 0 3 C0 2.01 0 1.02 0 0 Z " fill="#242527" transform="translate(320,166)"/>
<path d="M0 0 C0 1.32 0 2.64 0 4 C-1.65 4.66 -3.3 5.32 -5 6 C-5 4.68 -5 3.36 -5 2 C-2 0 -2 0 0 0 Z " fill="#3F3E41" transform="translate(122,90)"/>
<path d="M0 0 C0.99 0.33 1.98 0.66 3 1 C3 2.32 3 3.64 3 5 C1.68 4.67 0.36 4.34 -1 4 C-0.67 2.68 -0.34 1.36 0 0 Z " fill="#1A1A1C" transform="translate(55,338)"/>
<path d="M0 0 C1.32 0.33 2.64 0.66 4 1 C3.67 2.32 3.34 3.64 3 5 C2.01 4.67 1.02 4.34 0 4 C0 2.68 0 1.36 0 0 Z " fill="#1F1F1D" transform="translate(47,334)"/>
<path d="M0 0 C1.3921875 0.3403125 1.3921875 0.3403125 2.8125 0.6875 C1.8225 1.0175 0.8325 1.3475 -0.1875 1.6875 C-0.1875 2.3475 -0.1875 3.0075 -0.1875 3.6875 C-3.1575 3.1925 -3.1575 3.1925 -6.1875 2.6875 C-4.14987265 -0.14253799 -3.59070275 -0.35202968 0 0 Z " fill="#353537" transform="translate(282.1875,214.3125)"/>
<path d="M0 0 C0.33 0 0.66 0 1 0 C1 1.65 1 3.3 1 5 C2.32 5.33 3.64 5.66 5 6 C4.67 6.66 4.34 7.32 4 8 C2.02 7.34 0.04 6.68 -2 6 C-1.34 4.02 -0.68 2.04 0 0 Z " fill="#CCCCCC" transform="translate(166,42)"/>
</svg>
