<svg width="960" height="960" viewBox="0 0 960 960" fill="none" xmlns="http://www.w3.org/2000/svg">
<g clip-path="url(#clip0_670_323)">
<rect width="960" height="960" rx="55.6522" fill="white"/>
<rect width="960" height="960" fill="white"/>
<path d="M114.196 408.391H121.717V389.333H134.276C145.156 389.333 151.581 383.346 151.581 373.343C151.581 363.412 145.156 357.279 134.349 357.279H114.196V408.391ZM121.717 382.324V364.288H134.057C140.774 364.288 144.06 367.209 144.06 373.343C144.06 379.33 140.701 382.324 133.984 382.324H121.717ZM185.259 409.486C198.402 409.486 207.091 398.899 207.091 382.835C207.091 366.771 198.402 356.184 185.259 356.184C172.116 356.184 163.5 366.771 163.5 382.835C163.5 398.899 172.116 409.486 185.259 409.486ZM185.259 402.477C176.424 402.477 171.021 395.029 171.021 382.835C171.021 370.641 176.424 363.193 185.259 363.193C194.167 363.193 199.57 370.641 199.57 382.835C199.57 395.029 194.167 402.477 185.259 402.477ZM228.25 408.391H236.866L248.622 369.181H248.768L260.45 408.391H269.14L278.924 357.279H271.257L263.955 396.416H263.809L252.2 357.279H245.117L233.58 396.416H233.434L226.133 357.279H218.393L228.25 408.391ZM293.402 408.391H324.726V401.381H300.923V385.463H322.682V378.746H300.923V364.288H324.726V357.279H293.402V408.391ZM366.094 387.873C373.615 386.194 378.068 380.717 378.068 372.831C378.068 363.12 371.57 357.279 360.91 357.279H341.633V408.391H349.154V388.457H358.135L368.649 408.391H377.119L366.094 387.946V387.873ZM349.154 381.52V364.288H360.179C367.043 364.288 370.548 367.136 370.548 372.831C370.548 378.527 366.97 381.52 360.179 381.52H349.154ZM393.715 408.391H425.039V401.381H401.235V385.463H422.994V378.746H401.235V364.288H425.039V357.279H393.715V408.391ZM441.946 408.391H458.083C471.518 408.391 480.499 400.213 480.499 382.762C480.499 366.698 471.518 357.279 458.375 357.279H441.946V408.391ZM449.467 401.381V364.288H458.156C467.21 364.288 472.978 370.495 472.978 382.762C472.978 396.051 467.21 401.381 457.791 401.381H449.467ZM523.434 408.391H542.346C554.468 408.391 560.745 403.134 560.745 393.057C560.745 387.289 557.752 382.835 553.152 381.009V380.863C556.659 379.111 558.849 375.387 558.849 370.641C558.849 362.682 552.786 357.279 543.877 357.279H523.434V408.391ZM530.956 378.527V364.215H542.636C548.334 364.215 551.327 366.625 551.327 371.298C551.327 376.117 548.481 378.527 542.636 378.527H530.956ZM530.956 401.454V384.879H542.493C550.011 384.879 553.223 387.362 553.223 392.984C553.223 398.899 549.94 401.454 542.346 401.454H530.956ZM585.556 408.391H593.074V387.216L610.674 357.279H602.278L589.353 380.206H589.206L576.281 357.279H567.885L585.556 387.216V408.391Z" fill="black"/>
<path fill-rule="evenodd" clip-rule="evenodd" d="M503.933 596.661L503.928 596.655H542.95L566.921 548.459L590.891 596.655H638.305L566.916 458.821L499.149 589.676L473.13 551.685C489.195 543.938 499.208 530.52 499.208 511.246V510.866C499.208 497.263 495.053 487.435 487.115 479.497C477.854 470.238 462.926 464.38 439.495 464.38H374.865V596.661H419.085V558.866H428.534L453.478 596.661H503.933ZM776.618 458.821L705.237 596.655H752.656L776.626 548.459L800.596 596.655H848.011L776.618 458.821ZM671.811 602.079L743.192 464.244H695.777L671.807 512.441L647.837 464.244H600.422L671.811 602.079ZM438.172 527.309C448.752 527.309 455.178 522.585 455.178 514.459V514.08C455.178 505.577 448.563 501.42 438.361 501.42H419.085V527.309H438.172ZM280.299 501.796H241.373V464.38H363.447V501.796H324.521V596.661H280.299V501.796ZM133.623 548.662L110 576.819C126.819 591.561 151.008 599.118 177.84 599.118C213.368 599.118 236.234 582.11 236.234 554.329V553.953C236.234 527.308 213.557 517.48 179.732 511.246C165.747 508.598 162.157 506.333 162.157 502.741V502.363C162.157 499.151 165.181 496.883 171.794 496.883C184.076 496.883 199.007 500.852 211.477 509.922L233.022 480.066C217.715 467.971 198.818 461.923 173.307 461.923C136.833 461.923 117.181 481.388 117.181 506.521V506.9C117.181 534.866 143.26 543.373 172.927 549.416C187.101 552.252 191.257 554.329 191.257 558.11V558.49C191.257 562.078 187.857 564.155 179.919 564.155C164.424 564.155 147.984 559.623 133.623 548.662Z" fill="#FC5200"/>
</g>
<defs>
<clipPath id="clip0_670_323">
<rect width="960" height="960" rx="55.6522" fill="white"/>
</clipPath>
</defs>
</svg>
