<svg width="240" height="240" viewBox="0 0 240 240" fill="none" xmlns="http://www.w3.org/2000/svg">
<g clip-path="url(#clip0_441_242)">
<rect width="240" height="240" rx="23.1884" fill="#1B1D32"/>
<g filter="url(#filter0_f_441_242)">
<path d="M221.995 220.945C191.407 269.214 128.508 293.146 88.3173 275.972C48.1264 258.797 15.9274 213.905 37.4575 163.52C48.1267 138.553 18.0383 87.7379 50.7285 66.6264C84.0059 45.1357 156.133 79.4946 176.407 88.1582C216.598 105.332 257.429 165.027 221.995 220.945Z" fill="#972FFF"/>
</g>
<g filter="url(#filter1_f_441_242)">
<path d="M198.962 154.019C232.37 200.381 231.159 267.668 200.253 298.574C169.348 329.479 115.694 342.645 76.9505 303.902C57.7512 284.703 -0.613133 293.705 -8.03334 255.504C-15.5869 216.618 43.1592 162.472 58.7494 146.882C89.6547 115.977 160.261 100.311 198.962 154.019Z" fill="#3F4FFD"/>
</g>
<path fill-rule="evenodd" clip-rule="evenodd" d="M149.713 63.714L144.999 59L140.285 63.714L130.522 73.4772H116.715H110.048V80.1439V84.0662C105.299 82.5693 100.244 81.7621 95 81.7621C67.3858 81.7621 45 104.148 45 131.762C45 159.376 67.3858 181.762 95 181.762H155C175.25 181.762 191.667 165.346 191.667 145.095C191.667 135.672 188.112 127.08 182.271 120.585L189.713 113.142L194.427 108.428L189.713 103.714L179.95 93.9509V80.1439V73.4772H173.283H159.476L149.713 63.714ZM171.604 112.395L175.571 108.428L168.569 101.426L166.617 99.4738V96.7124V86.8105H156.715H153.953L152.001 84.8579L144.999 77.8562L137.997 84.8579L136.045 86.8105H133.283H123.382V90.5923C130.7 95.647 136.604 102.603 140.382 110.746C140.535 111.075 140.921 111.227 141.258 111.091C145.502 109.374 150.14 108.429 155 108.429C160.976 108.429 166.619 109.859 171.604 112.395ZM128.287 116.357L128.287 116.357C131.44 123.154 139.357 126.243 146.258 123.451C148.94 122.366 151.883 121.762 155 121.762C167.887 121.762 178.333 132.209 178.333 145.095C178.333 157.982 167.887 168.429 155 168.429H95C74.7496 168.429 58.3333 152.013 58.3333 131.762C58.3333 111.512 74.7496 95.0954 95 95.0954C109.725 95.0954 122.451 103.776 128.287 116.357Z" fill="white"/>
</g>
<defs>
<filter id="filter0_f_441_242" x="-92.6845" y="-63.5784" width="451.462" height="468.342" filterUnits="userSpaceOnUse" color-interpolation-filters="sRGB">
<feFlood flood-opacity="0" result="BackgroundImageFix"/>
<feBlend mode="normal" in="SourceGraphic" in2="BackgroundImageFix" result="shape"/>
<feGaussianBlur stdDeviation="61.6232" result="effect1_foregroundBlur_441_242"/>
</filter>
<filter id="filter1_f_441_242" x="-131.947" y="-4.60575" width="478.918" height="455.659" filterUnits="userSpaceOnUse" color-interpolation-filters="sRGB">
<feFlood flood-opacity="0" result="BackgroundImageFix"/>
<feBlend mode="normal" in="SourceGraphic" in2="BackgroundImageFix" result="shape"/>
<feGaussianBlur stdDeviation="61.6232" result="effect1_foregroundBlur_441_242"/>
</filter>
<clipPath id="clip0_441_242">
<rect width="240" height="240" rx="13.913" fill="white"/>
</clipPath>
</defs>
</svg>
