<svg width="980" height="226" viewBox="0 0 980 226" fill="none" xmlns="http://www.w3.org/2000/svg">
<path fill-rule="evenodd" clip-rule="evenodd" d="M262.093 167.672C241.644 167.672 228.081 156.195 226.829 139.085L203.25 138.668C203.876 167.463 226.62 187.912 261.885 187.912C293.393 187.912 315.929 169.341 315.929 143.467C316.138 114.671 292.559 106.951 268.353 102.569C245.4 98.604 230.376 95.474 230.376 80.4501C230.376 66.6783 241.853 59.375 258.337 59.375C275.865 59.375 288.177 66.1219 289.846 80.937H301.635H313.425C312.173 54.6453 289.011 39.1346 258.337 39.1346C227.664 39.1346 206.38 56.8711 206.38 82.1195C206.38 111.124 229.333 118.844 253.538 123.018C276.7 127.191 291.933 130.53 291.933 145.971C291.933 159.951 279.413 167.672 262.093 167.672ZM327.823 133.032C327.823 166.001 348.898 187.911 381.033 187.911C408.368 187.911 426.104 172.679 430.278 148.265H407.324C404.612 160.785 395.013 168.714 381.033 168.714C362.879 168.714 350.985 153.899 350.985 133.032C350.985 112.166 362.879 97.768 381.033 97.768C394.596 97.768 404.194 105.697 407.116 117.8H430.278C426.104 93.8034 408.576 78.5709 381.659 78.5709C349.107 78.5709 327.823 100.063 327.823 133.032ZM501.223 79.8219V100.897H491.207C471.175 100.897 464.707 116.547 464.707 133.031V186.658H442.171V79.8219H462.203L462.638 95.889C468.063 86.9165 478.687 79.8219 496.215 79.8219H501.223ZM605.139 129.485C604.513 98.1854 583.229 78.5709 552.347 78.5709C521.464 78.5709 500.389 100.689 500.389 133.45C500.389 166.21 521.673 187.911 555.477 187.911C581.768 187.911 599.505 171.844 603.261 150.769H580.725C577.595 162.663 567.579 169.549 553.807 169.549C536.071 169.549 525.012 157.655 523.968 139.292V138.04H604.513C604.93 135.119 605.139 132.198 605.139 129.485ZM553.181 96.7247C568.831 96.7247 580.308 105.697 582.186 121.556H524.803C526.472 106.323 538.783 96.7247 553.181 96.7247ZM668.989 78.5709C699.872 78.5709 721.155 98.1854 721.781 129.485C721.781 132.198 721.573 135.119 721.155 138.04H640.611V139.292C641.654 157.655 652.713 169.549 670.45 169.549C684.222 169.549 694.238 162.663 697.368 150.769H719.903C716.147 171.844 698.411 187.911 672.119 187.911C638.315 187.911 617.032 166.21 617.032 133.45C617.032 100.689 638.107 78.5709 668.989 78.5709ZM698.828 121.556C696.95 105.697 685.474 96.7247 669.824 96.7247C655.426 96.7247 643.115 106.323 641.445 121.556H698.828ZM832.983 186.659V127.816C832.983 90.8821 812.951 78.5709 789.998 78.5709C772.678 78.5709 760.715 87.1957 754.038 95.5423L753.273 79.8229H733.658V186.659H756.194V132.824C756.194 111.123 766.836 97.9767 784.781 97.9767C801.683 97.9767 810.238 108.827 810.238 129.068V186.659H832.983ZM867.464 40.3563V186.421H844.928V40.3563H867.464ZM926.499 162.001L896.66 79.5787H872.664L914.397 187.25L910.015 197.474C906.467 206.238 904.589 207.575 895.826 207.575H883.445V225.148H904.172C919.822 225.148 924.413 220.427 931.09 203.108L979.5 79.5787H955.504L926.499 162.001Z" fill="#000212"/>
<path fill-rule="evenodd" clip-rule="evenodd" d="M36.1609 152.108L6.39752 134.931L6.38025 134.913C2.58214 132.842 -0.0937997 128.198 0.00978519 123.864V88.283C-0.335498 74.0574 8.48648 58.7786 20.9685 51.9593C22.4427 51.6256 33.9145 44.7762 48.3166 36.1772C74.8964 20.3073 111.457 -1.52189 113.573 0.650339C116.788 -0.425322 137.918 12.2337 151.637 20.4529C156.068 23.1076 159.726 25.2992 161.757 26.4152C157.674 24.58 152.951 24.853 149.086 27.0817L63.49 76.5261C41.3281 89.0524 41.8933 111.429 42.4437 133.22C42.5737 138.369 42.7029 143.485 42.5314 148.431C42.5314 149.899 41.7717 151.332 40.4079 152.108C39.044 152.903 37.4384 152.834 36.1609 152.108ZM163.052 27.0817C162.757 26.9506 162.32 26.7241 161.757 26.4152C162.197 26.6129 162.629 26.835 163.052 27.0817ZM160.652 73.0221C162.016 72.2279 162.776 70.8122 162.776 69.3448V39.2016C162.931 34.2123 156.975 30.7595 152.745 33.4009L120.271 52.167C121.076 52.3147 125.25 54.8632 130.632 58.1499C142.237 65.2355 159.461 75.7519 160.652 73.0393V73.0221ZM122.346 183.112C95.2378 199.433 53.9181 224.31 53.1661 219.199L53.1488 219.216C48.955 217.542 49.3605 206.753 49.7513 196.355C50.07 187.876 50.379 179.657 48.1768 176.85C51.4625 174.473 58.5198 170.631 66.8933 166.072C86.018 155.659 112.008 141.507 115.611 132.55C121.015 124.815 120.61 108.937 120.284 96.1754C120.164 91.4475 120.054 87.1474 120.255 83.8478C121.499 76.7959 127.079 80.2324 131.124 82.724L131.125 82.7243C131.793 83.1361 132.42 83.522 132.978 83.8306L156.699 97.521C160.325 99.4891 162.88 103.909 162.776 108.035V139.749C162.776 145.826 161.171 151.817 158.132 157.082C155.111 162.348 150.726 166.733 145.46 169.771C144.661 169.678 135.068 175.453 122.346 183.112ZM49.5233 225.501L7.01897 200.951V200.934C2.53029 198.345 0.0269937 193.666 0.0269937 188.832V162.901C-0.145648 159.777 3.77331 157.532 6.39746 159.224C7.50214 160.066 11.1353 162.069 15.6554 164.561L15.6555 164.561L15.6558 164.561C25.6875 170.091 40.0873 178.03 40.9085 181.029C43.0332 183.667 42.7423 195.321 42.5233 204.091C42.4184 208.29 42.3301 211.828 42.5313 213.399C42.5313 218.233 45.0519 222.911 49.5233 225.501Z" fill="url(#paint0_linear_1_2033)"/>
<defs>
<linearGradient id="paint0_linear_1_2033" x1="58.5316" y1="57.3552" x2="162.549" y2="71.9189" gradientUnits="userSpaceOnUse">
<stop stop-color="#972EFF"/>
<stop offset="1" stop-color="#3153FC"/>
</linearGradient>
</defs>
</svg>
