<svg xmlns:dc="http://purl.org/dc/elements/1.1/" xmlns:cc="http://creativecommons.org/ns#" xmlns:rdf="http://www.w3.org/1999/02/22-rdf-syntax-ns#" xmlns:svg="http://www.w3.org/2000/svg" xmlns="http://www.w3.org/2000/svg" viewBox="0 0 261.37332 106.62667" height="106.62667" width="261.37332" xml:space="preserve" id="svg2" version="1.1" xmlns:xlink="http://www.w3.org/1999/xlink">
 <metadata id="metadata8">
  <rdf:RDF>
   <cc:Work rdf:about="">
    <dc:format>
     image/svg+xml
    </dc:format>
    <dc:type rdf:resource="http://purl.org/dc/dcmitype/StillImage">
    </dc:type>
   </cc:Work>
  </rdf:RDF>
 </metadata>
 <defs id="defs6">
 </defs>
 <g transform="matrix(1.3333333,0,0,-1.3333333,0,106.62667)" id="g10">
  <g transform="scale(0.1)" id="g12">
   <path id="path14" style="fill:#f03d1e;fill-opacity:1;fill-rule:nonzero;stroke:none" d="m 1408.68,533.137 -58.09,-114.672 -58.12,114.672 h -85.42 l 143.54,-283.285 143.45,283.285 z M 936.563,433.008 c 0,8.613 -3.067,15.047 -9.157,19.199 -6.066,4.195 -14.355,6.277 -24.734,6.277 h -38.879 v -52.168 h 38.484 c 10.668,0 19.063,2.286 25.129,6.856 6.09,4.574 9.157,10.949 9.157,19.066 z M 1150.83,549.852 1294.34,266.57 h -85.43 l -58.08,114.684 -58.04,-114.684 h -57.98 -27.4 -74.285 l -50.297,76.16 h -0.723 -18.312 V 266.57 H 774.66 v 266.567 h 130.293 c 23.863,0 43.477,-2.735 58.824,-8.192 15.395,-5.449 27.739,-12.894 37.143,-22.289 8.14,-8.101 14.23,-17.265 18.31,-27.383 4.04,-10.16 6.09,-22.132 6.09,-35.785 v -0.808 c 0,-19.532 -4.7,-36.039 -14.12,-49.485 -9.37,-13.453 -22.188,-24.152 -38.473,-31.996 l 46.323,-67.629 z m 399.41,0 -143.49,-283.282 h 85.42 l 58.07,114.684 58.1,-114.684 h 85.4 z M 516.027,457.777 h 78.465 V 266.57 h 89.153 v 191.207 h 78.484 v 75.36 H 516.027 Z m -3.211,-70.863 c 5.446,-9.391 8.18,-20.836 8.18,-34.266 v -0.781 c 0,-13.949 -2.773,-26.543 -8.387,-37.699 -5.574,-11.184 -13.464,-20.629 -23.613,-28.387 -10.172,-7.726 -22.496,-13.691 -36.957,-17.886 -14.457,-4.215 -30.738,-6.317 -48.738,-6.317 -27.156,0 -52.508,3.777 -76,11.246 -23.488,7.508 -43.727,18.746 -60.735,33.692 l 47.602,56.722 c 14.461,-11.148 29.727,-19.156 45.695,-23.972 15.992,-4.828 31.879,-7.239 47.621,-7.239 8.141,0 13.961,1.024 17.524,3.032 3.586,2.039 5.324,4.839 5.324,8.379 v 0.753 c 0,3.844 -2.633,7.055 -7.809,9.551 -5.175,2.539 -14.933,5.188 -29.144,7.977 -14.977,3.066 -29.27,6.636 -42.836,10.687 -13.59,4.032 -25.52,9.258 -35.797,15.617 -10.293,6.332 -18.473,14.36 -24.586,23.997 -6.09,9.656 -9.133,21.472 -9.133,35.421 v 0.77 c 0,12.707 2.465,24.523 7.438,35.43 4.906,10.914 12.156,20.453 21.683,28.554 9.532,8.129 21.36,14.465 35.465,19.067 14.043,4.566 30.242,6.847 48.551,6.847 25.875,0 48.535,-3.054 67.965,-9.168 19.43,-6.046 36.871,-15.203 52.383,-27.382 l -43.414,-60.196 c -12.696,9.168 -26.098,15.828 -40.184,20.028 -14.129,4.199 -27.344,6.3 -39.812,6.3 -6.59,0 -11.477,-1.015 -14.645,-3.054 -3.23,-2.032 -4.766,-4.711 -4.766,-7.996 v -0.758 c 0,-3.582 2.383,-6.629 7.231,-9.176 4.848,-2.523 14.23,-5.199 28.172,-7.996 17.023,-3.023 32.5,-6.719 46.5,-11.008 13.941,-4.363 25.972,-9.859 35.98,-16.605 10.028,-6.731 17.793,-14.754 23.242,-24.184">
   </path>
  </g>
 </g>
</svg>