<svg width="180" height="180" viewBox="0 0 180 180" fill="none" xmlns="http://www.w3.org/2000/svg">
<g clip-path="url(#clip0_1275_21)">
<rect width="180" height="180" rx="8" fill="#8CC63F"/>
<g clip-path="url(#clip1_1275_21)">
<path d="M105.528 73.3781C121.864 73.3781 136 87.4486 136 103.723C136 121.353 122.457 135 104.512 135C88.2607 135 74.1251 123.642 74.1251 105.333V46H83.5206V82.2781L84.621 81.0914C88.7685 77.1076 94.609 73.3781 105.528 73.3781ZM104.597 126.439C117.971 126.439 126.435 117.03 126.435 104.57C126.435 93.1276 118.394 82.1933 104.851 82.1933C91.2232 82.1933 82.8434 92.3648 82.8434 104.825C82.7588 117.2 92.7468 126.439 104.597 126.439ZM55.3341 53.2048C62.3596 60.579 63.1213 64.6476 65.576 71.8524L69.7236 85.4143C69.7236 85.4143 65.576 84.6514 62.1903 84.1429C58.2966 83.5495 56.5191 82.9562 51.5251 80.9219C46.5311 78.8876 42.0449 73.9714 37.6434 68.4619C33.3266 63.0371 23 54.3914 23 54.3914C23 54.3914 26.2165 54.561 29.433 55.4086C32.0569 56.0867 38.9978 58.2905 46.1079 61.9352C47.7161 62.7829 48.5625 63.2914 50.0861 64.2238C52.4562 65.6648 54.9109 67.8686 57.2809 70.2419C60.0742 73.039 62.5288 75.3276 64.6449 77.8705C62.3596 73.7171 56.4345 58.7143 44.9228 46.339C43.8225 45.0676 52.8794 50.6619 55.3341 53.2048Z" fill="white"/>
</g>
</g>
<defs>
<clipPath id="clip0_1275_21">
<rect width="180" height="180" fill="white"/>
</clipPath>
<clipPath id="clip1_1275_21">
<rect width="113" height="89" fill="white" transform="translate(23 46)"/>
</clipPath>
</defs>
</svg>
