<svg version="1.1" id="Layer_1" xmlns="http://www.w3.org/2000/svg" xmlns:xlink="http://www.w3.org/1999/xlink" x="0px" y="0px"
	 width="100%" viewBox="0 0 414 414" enable-background="new 0 0 414 414" xml:space="preserve">
<path fill="#FDFDFE" opacity="1.000000" stroke="none"
	d="
M241.000000,415.000000
	C160.666672,415.000000 80.833351,415.000000 1.000021,415.000000
	C1.000014,277.000031 1.000014,139.000046 1.000007,1.000058
	C138.999954,1.000039 276.999908,1.000039 414.999908,1.000020
	C414.999939,138.999939 414.999939,276.999878 414.999969,414.999908
	C357.166656,415.000000 299.333344,415.000000 241.000000,415.000000
M300.087677,155.414551
	C298.843262,149.196869 295.664520,146.010727 290.469482,145.776733
	C286.223633,145.585510 282.941772,147.373642 281.011993,151.066818
	C278.562378,155.754898 279.816772,160.068466 282.649536,164.473297
	C277.811737,169.562531 272.987305,174.664597 268.123810,179.729172
	C267.249390,180.639755 266.214050,181.395844 265.121948,181.243347
	C265.121948,169.335602 265.121948,157.427856 265.121948,145.438782
	C259.015747,145.438782 253.613464,145.438782 248.212097,145.438782
	C248.212097,178.713943 248.212097,211.693192 248.212097,244.567932
	C254.032654,244.567932 259.439209,244.567932 265.254883,244.567932
	C265.254883,241.068848 265.254883,237.921585 265.855804,235.072556
	C266.982697,236.486862 268.255341,237.809265 269.213684,239.329803
	C277.917786,253.139648 290.296295,262.716034 305.576111,267.457184
	C322.832153,272.811493 340.440948,273.521515 358.616302,269.767609
	C368.018280,267.825714 376.144135,263.746704 384.150421,259.732208
	C397.383789,253.096771 402.975067,240.461487 405.013519,226.053772
	C405.985779,219.181900 402.694183,213.267059 401.952942,206.851700
	C400.345398,192.938843 393.585968,181.527695 384.068115,172.072327
	C376.976776,165.027542 368.443848,159.341049 360.139130,153.653854
	C356.561462,151.203796 351.937988,150.280853 347.789612,148.664154
	C347.328217,149.299561 346.866821,149.934982 346.405426,150.570389
	C348.026794,152.548233 349.389618,154.838348 351.323090,156.439270
	C355.415894,159.828110 359.906036,162.732880 364.057190,166.056091
	C379.713562,178.589813 391.178497,193.882782 394.529144,214.160278
	C395.497162,220.018570 396.013123,226.076996 392.030090,231.151443
	C388.971405,230.614105 385.522644,228.967819 382.968964,229.866135
	C380.636566,230.686630 378.359131,234.030930 377.690002,236.675949
	C376.592621,241.013916 379.500458,244.030182 383.106720,246.712418
	C381.206848,248.250275 379.481598,250.099747 377.379974,251.277618
	C357.136017,262.623291 335.732544,264.172852 313.773590,257.750031
	C305.088867,255.209824 296.425262,251.994431 290.784515,244.972473
	C293.227325,244.972473 295.670135,244.972473 298.348267,244.972473
	C298.348267,223.759705 298.348267,203.091537 298.348267,182.049530
	C292.633270,182.049530 287.188660,182.049530 281.851440,181.327423
	C283.528839,179.333786 284.880219,176.879227 286.938202,175.423630
	C297.775238,167.758698 310.205536,163.821457 323.018616,161.178177
	C327.061737,160.344101 328.295319,157.616241 328.490112,154.669708
	C328.560333,153.607529 325.109711,151.471786 323.144257,151.310837
	C320.115845,151.062866 316.942871,151.921875 313.903290,152.623459
	C309.307587,153.684158 304.773865,155.013382 300.087677,155.414551
M110.543564,234.453384
	C110.543564,237.870483 110.543564,241.287598 110.543564,244.541840
	C116.717903,244.541840 122.117172,244.541840 127.829681,244.541840
	C127.829681,242.506851 127.833092,240.863235 127.829124,239.219650
	C127.803436,228.564301 128.355042,217.868622 127.616211,207.262878
	C126.453957,190.578995 110.777931,179.379364 94.247353,182.672028
	C92.870705,182.946243 91.471794,183.108688 89.576950,183.401199
	C89.576950,170.506454 89.576950,158.079376 89.576950,145.500824
	C83.593452,145.500824 78.067101,145.500824 72.524704,145.500824
	C72.524704,178.752701 72.524704,211.634079 72.524704,244.691574
	C78.262505,244.691574 83.676186,244.691574 89.676033,244.691574
	C89.676033,233.514313 89.648918,222.570282 89.685555,211.626450
	C89.710060,204.304001 93.799065,199.526596 99.967247,199.481949
	C106.183319,199.436951 110.396889,204.112305 110.517761,211.487732
	C110.637802,218.811905 110.543823,226.139587 110.543564,234.453384
M195.151642,197.503021
	C195.151642,192.414078 195.151642,187.325119 195.151642,181.921585
	C189.685715,181.921585 184.183487,180.465195 180.287857,182.342575
	C176.597580,184.121017 174.062042,183.542542 170.867218,182.802429
	C154.057648,178.908295 137.549774,189.104706 133.369354,205.928696
	C129.294373,222.328400 139.128891,239.146042 155.453796,243.736130
	C162.795151,245.800308 169.925369,244.976227 175.928482,242.496231
	C182.416809,246.899689 188.747055,244.048187 195.151657,244.986008
	C195.151657,229.054123 195.151657,213.777893 195.151642,197.503021
M366.251434,214.622528
	C370.472229,212.825653 374.693024,211.028778 378.868774,209.251083
	C371.969391,189.800079 360.532928,180.926498 344.321381,182.051636
	C330.663208,182.999588 318.860657,193.494629 316.131134,207.118896
	C313.364807,220.926926 319.903290,234.632996 332.361969,241.142273
	C345.474396,247.993118 362.570801,245.237701 372.607422,234.393265
	C369.025696,230.178314 365.412476,225.926300 361.845154,221.728287
	C352.592560,227.658112 347.537384,228.514114 341.362244,224.957947
	C349.673431,221.504898 357.608337,218.208206 366.251434,214.622528
M37.477779,183.077347
	C17.799709,187.515228 6.827044,204.575516 12.182777,222.955048
	C15.579378,234.611328 23.516937,242.120987 35.338966,244.814468
	C46.263893,247.303574 55.949581,244.404633 64.837616,236.047775
	C62.383495,233.840759 60.163273,232.075363 58.228539,230.038773
	C56.314529,228.023972 54.688709,225.735413 53.161274,223.845154
	C44.060299,229.555161 37.133656,229.219147 32.027584,223.673447
	C27.372101,218.617188 26.990236,211.272446 31.097433,205.783096
	C35.906971,199.355057 42.653576,198.715073 51.337708,203.211502
	C55.586044,199.065857 59.569889,195.178329 63.644226,191.202484
	C56.699356,184.677521 48.129604,181.961792 37.477779,183.077347
M203.555313,210.499710
	C203.555313,221.904739 203.555313,233.309769 203.555313,244.537018
	C209.784515,244.537018 215.191895,244.537018 220.879364,244.537018
	C220.879364,231.674362 220.830414,219.196533 220.900726,206.719360
	C220.934158,200.785156 223.797516,198.674637 229.497162,199.978683
	C230.457443,200.198380 231.924561,200.247742 232.517944,199.692429
	C236.224503,196.223587 239.749329,192.560562 243.537384,188.758072
	C231.121811,177.860168 217.005768,183.582993 203.555435,181.648102
	C203.555435,191.546234 203.555435,200.522964 203.555313,210.499710
M314.464813,245.437775
	C315.500671,244.628571 316.724518,243.973816 317.538757,242.982590
	C320.567322,239.295700 319.760345,233.365631 315.974365,230.570786
	C312.046753,227.671371 306.393555,228.603638 303.645599,232.603928
	C300.886139,236.620941 301.815979,242.528015 306.134277,244.738953
	C308.278137,245.836594 311.172638,245.468185 314.464813,245.437775
z"/>
<path fill="#D891FD" opacity="1.000000" stroke="none"
	d="
M289.865967,245.127991
	C296.425262,251.994431 305.088867,255.209824 313.773590,257.750031
	C335.732544,264.172852 357.136017,262.623291 377.379974,251.277618
	C379.481598,250.099747 381.206848,248.250275 383.590454,246.339325
	C388.006744,246.674225 391.275940,245.637665 393.486023,242.173187
	C395.842804,238.478683 394.947449,234.963547 392.665466,231.591156
	C396.013123,226.076996 395.497162,220.018570 394.529144,214.160278
	C391.178497,193.882782 379.713562,178.589813 364.057190,166.056091
	C359.906036,162.732880 355.415894,159.828110 351.323090,156.439270
	C349.389618,154.838348 348.026794,152.548233 346.405426,150.570389
	C346.866821,149.934982 347.328217,149.299561 347.789612,148.664154
	C351.937988,150.280853 356.561462,151.203796 360.139130,153.653854
	C368.443848,159.341049 376.976776,165.027542 384.068115,172.072327
	C393.585968,181.527695 400.345398,192.938843 401.952942,206.851700
	C402.694183,213.267059 405.985779,219.181900 405.013519,226.053772
	C402.975067,240.461487 397.383789,253.096771 384.150421,259.732208
	C376.144135,263.746704 368.018280,267.825714 358.616302,269.767609
	C340.440948,273.521515 322.832153,272.811493 305.576111,267.457184
	C290.296295,262.716034 277.917786,253.139648 269.213684,239.329803
	C268.255341,237.809265 266.982697,236.486862 265.432892,234.555023
	C264.385651,231.314911 264.022369,228.499252 263.090515,225.886353
	C259.589844,216.070587 258.992798,206.114929 261.392487,196.014389
	C262.495056,191.373566 263.955078,186.817657 265.253021,182.223251
	C266.214050,181.395844 267.249390,180.639755 268.123810,179.729172
	C272.987305,174.664597 277.811737,169.562531 283.221924,164.327881
	C292.115082,168.493286 298.442474,165.428162 300.213806,156.228516
	C304.773865,155.013382 309.307587,153.684158 313.903290,152.623459
	C316.942871,151.921875 320.115845,151.062866 323.144257,151.310837
	C325.109711,151.471786 328.560333,153.607529 328.490112,154.669708
	C328.295319,157.616241 327.061737,160.344101 323.018616,161.178177
	C310.205536,163.821457 297.775238,167.758698 286.938202,175.423630
	C284.880219,176.879227 283.528839,179.333786 281.748352,181.718079
	C281.645264,182.108719 281.582001,182.005219 281.215149,182.085815
	C277.953339,186.511658 273.707886,190.491455 272.414703,195.270187
	C268.415009,210.050583 271.302826,223.890503 281.091614,236.487122
	C281.196777,239.504135 281.196777,242.084106 281.196777,244.746887
	C284.599518,244.896469 287.232758,245.012222 289.865967,245.127991
z"/>
<path fill="#191931" opacity="1.000000" stroke="none"
	d="
M110.543625,233.959564
	C110.543823,226.139587 110.637802,218.811905 110.517761,211.487732
	C110.396889,204.112305 106.183319,199.436951 99.967247,199.481949
	C93.799065,199.526596 89.710060,204.304001 89.685555,211.626450
	C89.648918,222.570282 89.676033,233.514313 89.676033,244.691574
	C83.676186,244.691574 78.262505,244.691574 72.524704,244.691574
	C72.524704,211.634079 72.524704,178.752701 72.524704,145.500824
	C78.067101,145.500824 83.593452,145.500824 89.576950,145.500824
	C89.576950,158.079376 89.576950,170.506454 89.576950,183.401199
	C91.471794,183.108688 92.870705,182.946243 94.247353,182.672028
	C110.777931,179.379364 126.453957,190.578995 127.616211,207.262878
	C128.355042,217.868622 127.803436,228.564301 127.829124,239.219650
	C127.833092,240.863235 127.829681,242.506851 127.829681,244.541840
	C122.117172,244.541840 116.717903,244.541840 110.543564,244.541840
	C110.543564,241.287598 110.543564,237.870483 110.543625,233.959564
z"/>
<path fill="#16162E" opacity="1.000000" stroke="none"
	d="
M195.151642,198.002335
	C195.151657,213.777893 195.151657,229.054123 195.151657,244.986008
	C188.747055,244.048187 182.416809,246.899689 175.928482,242.496231
	C169.925369,244.976227 162.795151,245.800308 155.453796,243.736130
	C139.128891,239.146042 129.294373,222.328400 133.369354,205.928696
	C137.549774,189.104706 154.057648,178.908295 170.867218,182.802429
	C174.062042,183.542542 176.597580,184.121017 180.287857,182.342575
	C184.183487,180.465195 189.685715,181.921585 195.151642,181.921585
	C195.151642,187.325119 195.151642,192.414078 195.151642,198.002335
M176.435791,207.339340
	C175.691513,206.244965 175.058655,205.050995 174.184387,204.072800
	C169.426834,198.749771 161.950439,197.798615 156.137268,201.707260
	C150.328293,205.613083 148.211914,213.064240 151.137863,219.308502
	C154.075974,225.578705 161.163788,228.777740 167.822220,226.838882
	C175.594193,224.575775 179.169830,217.066666 176.435791,207.339340
z"/>
<path fill="#16162F" opacity="1.000000" stroke="none"
	d="
M365.897339,214.767029
	C357.608337,218.208206 349.673431,221.504898 341.362244,224.957947
	C347.537384,228.514114 352.592560,227.658112 361.845154,221.728287
	C365.412476,225.926300 369.025696,230.178314 372.607422,234.393265
	C362.570801,245.237701 345.474396,247.993118 332.361969,241.142273
	C319.903290,234.632996 313.364807,220.926926 316.131134,207.118896
	C318.860657,193.494629 330.663208,182.999588 344.321381,182.051636
	C360.532928,180.926498 371.969391,189.800079 378.868774,209.251083
	C374.693024,211.028778 370.472229,212.825653 365.897339,214.767029
M350.425232,199.924057
	C341.575958,198.237396 335.172058,202.437088 334.334534,210.949249
	C341.094910,208.136307 347.630524,205.416901 354.958069,202.367966
	C353.095032,201.276749 352.130157,200.711578 350.425232,199.924057
z"/>
<path fill="#171730" opacity="1.000000" stroke="none"
	d="
M37.887028,183.034409
	C48.129604,181.961792 56.699356,184.677521 63.644226,191.202484
	C59.569889,195.178329 55.586044,199.065857 51.337708,203.211502
	C42.653576,198.715073 35.906971,199.355057 31.097433,205.783096
	C26.990236,211.272446 27.372101,218.617188 32.027584,223.673447
	C37.133656,229.219147 44.060299,229.555161 53.161274,223.845154
	C54.688709,225.735413 56.314529,228.023972 58.228539,230.038773
	C60.163273,232.075363 62.383495,233.840759 64.837616,236.047775
	C55.949581,244.404633 46.263893,247.303574 35.338966,244.814468
	C23.516937,242.120987 15.579378,234.611328 12.182777,222.955048
	C6.827044,204.575516 17.799709,187.515228 37.887028,183.034409
z"/>
<path fill="#15152E" opacity="1.000000" stroke="none"
	d="
M265.187500,181.733307
	C263.955078,186.817657 262.495056,191.373566 261.392487,196.014389
	C258.992798,206.114929 259.589844,216.070587 263.090515,225.886353
	C264.022369,228.499252 264.385651,231.314911 265.132446,234.405914
	C265.254883,237.921585 265.254883,241.068848 265.254883,244.567932
	C259.439209,244.567932 254.032654,244.567932 248.212097,244.567932
	C248.212097,211.693192 248.212097,178.713943 248.212097,145.438782
	C253.613464,145.438782 259.015747,145.438782 265.121948,145.438782
	C265.121948,157.427856 265.121948,169.335602 265.187500,181.733307
z"/>
<path fill="#16162E" opacity="1.000000" stroke="none"
	d="
M203.555374,209.999695
	C203.555435,200.522964 203.555435,191.546234 203.555435,181.648102
	C217.005768,183.582993 231.121811,177.860168 243.537384,188.758072
	C239.749329,192.560562 236.224503,196.223587 232.517944,199.692429
	C231.924561,200.247742 230.457443,200.198380 229.497162,199.978683
	C223.797516,198.674637 220.934158,200.785156 220.900726,206.719360
	C220.830414,219.196533 220.879364,231.674362 220.879364,244.537018
	C215.191895,244.537018 209.784515,244.537018 203.555313,244.537018
	C203.555313,233.309769 203.555313,221.904739 203.555374,209.999695
z"/>
<path fill="#1D1D35" opacity="1.000000" stroke="none"
	d="
M281.582001,182.005219
	C281.582001,182.005219 281.645264,182.108719 281.694641,182.079132
	C287.188660,182.049530 292.633270,182.049530 298.348267,182.049530
	C298.348267,203.091537 298.348267,223.759705 298.348267,244.972473
	C295.670135,244.972473 293.227325,244.972473 290.325256,245.050232
	C287.232758,245.012222 284.599518,244.896469 281.196777,244.746887
	C281.196777,242.084106 281.196777,239.504135 281.188049,236.021179
	C281.193695,232.965759 281.206329,230.813293 281.222839,228.660873
	C281.342102,213.108994 281.462189,197.557098 281.582001,182.005219
z"/>
<path fill="#1A1933" opacity="1.000000" stroke="none"
	d="
M300.150757,155.821533
	C298.442474,165.428162 292.115082,168.493286 283.436829,164.067810
	C279.816772,160.068466 278.562378,155.754898 281.011993,151.066818
	C282.941772,147.373642 286.223633,145.585510 290.469482,145.776733
	C295.664520,146.010727 298.843262,149.196869 300.150757,155.821533
z"/>
<path fill="#1A1A32" opacity="1.000000" stroke="none"
	d="
M314.096191,245.600388
	C311.172638,245.468185 308.278137,245.836594 306.134277,244.738953
	C301.815979,242.528015 300.886139,236.620941 303.645599,232.603928
	C306.393555,228.603638 312.046753,227.671371 315.974365,230.570786
	C319.760345,233.365631 320.567322,239.295700 317.538757,242.982590
	C316.724518,243.973816 315.500671,244.628571 314.096191,245.600388
z"/>
<path fill="#1A1933" opacity="1.000000" stroke="none"
	d="
M392.347778,231.371307
	C394.947449,234.963547 395.842804,238.478683 393.486023,242.173187
	C391.275940,245.637665 388.006744,246.674225 383.678619,245.993896
	C379.500458,244.030182 376.592621,241.013916 377.690002,236.675949
	C378.359131,234.030930 380.636566,230.686630 382.968964,229.866135
	C385.522644,228.967819 388.971405,230.614105 392.347778,231.371307
z"/>
<path fill="#FCFAFD" opacity="1.000000" stroke="none"
	d="
M281.215149,182.085815
	C281.462189,197.557098 281.342102,213.108994 281.222839,228.660873
	C281.206329,230.813293 281.193695,232.965759 281.082886,235.584137
	C271.302826,223.890503 268.415009,210.050583 272.414703,195.270187
	C273.707886,190.491455 277.953339,186.511658 281.215149,182.085815
z"/>
<path fill="#F7F7F8" opacity="1.000000" stroke="none"
	d="
M176.605286,207.688599
	C179.169830,217.066666 175.594193,224.575775 167.822220,226.838882
	C161.163788,228.777740 154.075974,225.578705 151.137863,219.308502
	C148.211914,213.064240 150.328293,205.613083 156.137268,201.707260
	C161.950439,197.798615 169.426834,198.749771 174.184387,204.072800
	C175.058655,205.050995 175.691513,206.244965 176.605286,207.688599
z"/>
<path fill="#E7E7EA" opacity="1.000000" stroke="none"
	d="
M350.795227,200.035233
	C352.130157,200.711578 353.095032,201.276749 354.958069,202.367966
	C347.630524,205.416901 341.094910,208.136307 334.334534,210.949249
	C335.172058,202.437088 341.575958,198.237396 350.795227,200.035233
z"/>
</svg>