<svg width="414" height="414" viewBox="0 0 414 414" fill="none" xmlns="http://www.w3.org/2000/svg">
<g clip-path="url(#clip0_403_242)">
<rect width="414" height="414" rx="40" fill="url(#paint0_linear_403_242)"/>
<path d="M273.875 207.5V140.125M273.875 207.5H139.125M273.875 207.5C284.506 207.5 293.125 216.119 293.125 226.75V246C293.125 256.631 284.506 265.25 273.875 265.25H139.125C128.494 265.25 119.875 256.631 119.875 246V226.75C119.875 216.119 128.494 207.5 139.125 207.5M139.125 207.5V140.125M273.875 140.125C273.875 124.178 260.947 111.25 245 111.25H168C152.053 111.25 139.125 124.178 139.125 140.125M273.875 140.125H283.5C294.131 140.125 302.75 148.744 302.75 159.375V169M273.875 140.125H139.125M139.125 140.125H129.5C118.869 140.125 110.25 148.744 110.25 159.375V169M206.5 140.125V207.5M158.375 303.75H177.625C182.941 303.75 187.25 299.441 187.25 294.125V274.875C187.25 269.559 182.941 265.25 177.625 265.25H158.375C153.059 265.25 148.75 269.559 148.75 274.875V294.125C148.75 299.441 153.059 303.75 158.375 303.75ZM235.375 303.75H254.625C259.941 303.75 264.25 299.441 264.25 294.125V274.875C264.25 269.559 259.941 265.25 254.625 265.25H235.375C230.059 265.25 225.75 269.559 225.75 274.875V294.125C225.75 299.441 230.059 303.75 235.375 303.75Z" stroke="white" stroke-opacity="0.7" stroke-width="14.4375" stroke-linecap="round" stroke-linejoin="round"/>
<rect x="155" y="272" width="26" height="25" rx="4" fill="#3F5AFB"/>
<rect x="232" y="272" width="26" height="25" rx="4" fill="#3F5AFB"/>
<rect x="123" y="214" width="168" height="50" fill="#C8CEFD"/>
<path fill-rule="evenodd" clip-rule="evenodd" d="M165 109.625C165 86.6361 183.636 68 206.625 68C229.614 68 248.25 86.6361 248.25 109.625C248.25 123.622 239.88 135.487 230.235 143.845L214.319 157.64C209.903 161.467 203.347 161.467 198.931 157.64L183.015 143.845C173.37 135.487 165 123.622 165 109.625ZM206.625 118.875C211.734 118.875 215.875 114.734 215.875 109.625C215.875 104.516 211.734 100.375 206.625 100.375C201.516 100.375 197.375 104.516 197.375 109.625C197.375 114.734 201.516 118.875 206.625 118.875Z" fill="white" stroke="#5162F5" stroke-width="7"/>
</g>
<defs>
<linearGradient id="paint0_linear_403_242" x1="207" y1="0" x2="207" y2="414" gradientUnits="userSpaceOnUse">
<stop stop-color="#5865F2"/>
<stop offset="1" stop-color="#3354FF"/>
</linearGradient>
<clipPath id="clip0_403_242">
<rect width="414" height="414" fill="white"/>
</clipPath>
</defs>
</svg>
