<?xml version="1.0" encoding="UTF-8" standalone="no"?>
<svg
   xmlns:dc="http://purl.org/dc/elements/1.1/"
   xmlns:cc="http://creativecommons.org/ns#"
   xmlns:rdf="http://www.w3.org/1999/02/22-rdf-syntax-ns#"
   xmlns:svg="http://www.w3.org/2000/svg"
   xmlns="http://www.w3.org/2000/svg"
   xmlns:sodipodi="http://sodipodi.sourceforge.net/DTD/sodipodi-0.dtd"
   xmlns:inkscape="http://www.inkscape.org/namespaces/inkscape"
   width="400"
   height="300"
   id="svg2"
   version="1.1"
   sodipodi:docname="Special Undelete.svg"
   inkscape:version="0.92.4 (5da689c313, 2019-01-14)">
  <metadata
     id="metadata20">
    <rdf:RDF>
      <cc:Work
         rdf:about="">
        <dc:format>image/svg+xml</dc:format>
        <dc:type
           rdf:resource="http://purl.org/dc/dcmitype/StillImage" />
        <dc:title></dc:title>
      </cc:Work>
    </rdf:RDF>
  </metadata>
  <defs
     id="defs18" />
  <sodipodi:namedview
     pagecolor="#ffffff"
     bordercolor="#111111"
     borderopacity="1"
     objecttolerance="10"
     gridtolerance="10"
     guidetolerance="10"
     inkscape:pageopacity="0"
     inkscape:pageshadow="2"
     inkscape:window-width="1920"
     inkscape:window-height="1017"
     id="namedview16"
     showgrid="false"
     inkscape:zoom="0.78666667"
     inkscape:cx="115.4661"
     inkscape:cy="127.11864"
     inkscape:window-x="1912"
     inkscape:window-y="-8"
     inkscape:window-maximized="1"
     inkscape:current-layer="layer1" />
  <g
     inkscape:label="Layer 1"
     inkscape:groupmode="layer"
     id="layer1"
     transform="translate(-241.18995,-49.565198)">
    <path
       id="path4498"
       d="m 241.18995,49.565198 399.9952,0 0,300.000002 -399.9952,0 z"
       style="fill:#a71011;fill-rule:nonzero;stroke:none;fill-opacity:1" />
    <path
       style="fill:#ffffff;fill-rule:nonzero;stroke:none"
       d="m 352.5118,196.75549 9.65839,0 0,71.07763 -8.73717,0 -47.52903,-54.74043 0,54.74043 -9.55762,0 0,-71.07763 8.23337,0 47.93206,55.20103 z"
       id="path4502" />
    <path
       style="fill:#ffffff;fill-rule:nonzero;stroke:none"
       d="m 380.51535,196.75549 40.28884,0 0,9.05383 -30.11227,0 0,21.67738 29.10469,0 0,9.11141 -29.10469,0 0,22.06602 31.07667,0 0,9.06823 -41.25324,0 z"
       id="path4506" />
    <path
       style="fill:#ffffff;fill-rule:nonzero;stroke:none"
       d="m 529.39982,196.75549 10.14778,0 -28.73045,71.3799 -2.24547,0 -23.23193,-57.79196 -23.47664,57.79196 -2.18789,0 -28.64408,-71.3799 10.24854,0 19.59025,48.99721 19.71979,-48.99721 9.6152,0 19.80616,48.99721 z"
       id="path4510" />
    <path
       id="path4516"
       d="m 567.12077,238.04903 -7.72959,-4.69245 c -4.85078,-2.96517 -8.30534,-5.88715 -10.36369,-8.75156 -2.04395,-2.86441 -3.06592,-6.16064 -3.06592,-9.88869 0,-5.59927 1.92879,-10.14777 5.81518,-13.63113 3.88638,-3.49774 8.93868,-5.23942 15.1425,-5.23942 5.93033,0 11.37127,1.65532 16.32281,4.99473 l 0,11.54399 c -5.10988,-4.92275 -10.62278,-7.38412 -16.52433,-7.38412 -3.32501,0 -6.05988,0.76288 -8.19019,2.30304 -2.14471,1.54016 -3.20986,3.49774 -3.20986,5.90154 0,2.13032 0.79167,4.11669 2.36061,5.98791 1.56895,1.85683 4.1023,3.80002 7.58565,5.84397 l 7.77276,4.60608 c 8.67959,5.16745 13.01219,11.75991 13.01219,19.76298 0,5.70003 -1.9144,10.3349 -5.72882,13.89022 -3.81441,3.56972 -8.78034,5.34018 -14.8834,5.34018 -7.00989,0 -13.41522,-2.1591 -19.17283,-6.46291 l 0,-12.92582 c 5.49851,6.9667 11.84627,10.43566 19.07207,10.43566 3.19547,0 5.84397,-0.87804 7.95989,-2.6485 2.13031,-1.78486 3.18107,-4.00154 3.18107,-6.67882 0,-4.31821 -3.1091,-8.4205 -9.3561,-12.30688"
       style="fill:#ffffff;fill-rule:nonzero;stroke:none" />
    <path
       id="path4520"
       d="m 522.72243,152.82784 -0.89242,0.54697 c -4.347,2.6485 -9.06823,4.07351 -13.37204,4.07351 -9.18338,-0.0288 -15.22887,-5.48412 -15.24326,-13.40083 0,-7.74398 6.31897,-13.48719 15.01295,-13.50158 4.43336,0 8.44929,1.15152 13.21371,3.75684 l 0.87803,0.48939 0,-7.08185 -0.37424,-0.14394 c -5.38336,-2.11592 -9.54323,-3.06593 -13.65992,-3.06593 -6.34776,0 -11.87506,2.10153 -15.80462,5.65685 -3.92957,3.56972 -6.2614,8.60762 -6.2614,14.37962 0.0144,4.03032 1.66971,8.73716 5.22503,12.47961 3.54092,3.75683 9.01065,6.4773 16.49553,6.4773 l 0.0288,0 c 6.21822,0 10.52203,-1.38182 14.4228,-3.29623 l 0.33106,-0.17272 z m 11.14097,17.53191 -56.07907,0 0,-52.78285 56.07907,0 z"
       style="fill:#ffffff;fill-rule:nonzero;stroke:none" />
    <path
       id="path4524"
       d="m 455.90975,152.58026 c 0.0144,-4.7932 -3.18108,-8.43489 -8.29095,-9.8455 1.38182,-0.70531 2.47577,-1.55455 3.26744,-2.60532 1.07955,-1.41061 1.58334,-3.13789 1.58334,-5.15305 0,-2.47577 -0.97879,-4.99473 -3.06592,-6.88034 -2.08714,-1.88562 -5.25382,-3.10911 -9.58642,-3.10911 l -11.94703,0 0,38.01459 14.01977,0 0,0 c 5.00912,0 8.52126,-1.35304 10.78112,-3.3682 2.27425,-2.00077 3.23865,-4.63487 3.23865,-7.05307 m 13.32885,17.791 -56.09346,0 0,-52.78284 56.09346,0 z"
       style="fill:#ffffff;fill-rule:nonzero;stroke:none" />
    <path
       id="path4528"
       d="m 448.93297,151.8217 c 0,1.25228 -0.38864,2.51895 -1.51137,3.49774 -1.12273,0.99319 -3.06592,1.74168 -6.27579,1.74168 l -6.4773,0 0,-10.37808 6.18942,0 c 2.8788,0 4.92275,0.59015 6.20382,1.49697 1.28107,0.92122 1.85683,2.13032 1.87122,3.64169"
       style="fill:#ffffff;fill-rule:nonzero;stroke:none" />
    <path
       id="path4532"
       d="m 443.69067,139.39823 c 1.2091,-0.86364 1.78486,-2.10153 1.79925,-3.92957 -0.0144,-1.26667 -0.37424,-2.36062 -1.28106,-3.16668 -0.90683,-0.80607 -2.46138,-1.38183 -4.96594,-1.38183 l -4.57729,0 0,9.83111 3.15229,0 c 2.70607,0 4.66366,-0.475 5.87275,-1.35303"
       style="fill:#ffffff;fill-rule:nonzero;stroke:none" />
    <path
       id="path4536"
       d="m 391.28783,152.58026 c 0.0144,-4.7932 -3.18107,-8.43489 -8.29095,-9.8455 1.38183,-0.70531 2.47577,-1.55455 3.26744,-2.60532 1.07955,-1.41061 1.58334,-3.13789 1.58334,-5.15305 0,-2.47577 -0.97879,-4.99473 -3.06592,-6.88034 -2.08713,-1.88562 -5.25382,-3.10911 -9.58641,-3.10911 l -11.96143,0 0,38.01459 14.03416,0 0,0 c 5.00912,0 8.52126,-1.35304 10.78112,-3.3682 2.25986,-2.00077 3.23865,-4.63487 3.23865,-7.05307 m 13.32886,17.791 -56.07907,0 0,-52.78284 56.07907,0 z"
       style="fill:#ffffff;fill-rule:nonzero;stroke:none" />
    <path
       id="path4540"
       d="m 379.06588,139.39823 c 1.1947,-0.86364 1.78485,-2.10153 1.79925,-3.92957 0,-1.26667 -0.37425,-2.36062 -1.28107,-3.16668 -0.90682,-0.80607 -2.46137,-1.38183 -4.96593,-1.38183 l -4.5629,0 0,9.83111 3.13789,0 c 2.70607,0 4.66366,-0.475 5.87276,-1.35303"
       style="fill:#ffffff;fill-rule:nonzero;stroke:none" />
    <path
       id="path4544"
       d="m 382.43983,148.18577 c -1.28106,-0.90682 -3.32501,-1.49698 -6.20382,-1.49698 l -6.18942,0 0,10.37809 6.4773,0 c 3.20987,0 5.13867,-0.74849 6.27579,-1.74168 1.10834,-0.97879 1.49698,-2.24547 1.51137,-3.49774 -0.0144,-1.51138 -0.59015,-2.72047 -1.87122,-3.64169"
       style="fill:#ffffff;fill-rule:nonzero;stroke:none" />
  </g>
</svg>
