<svg width="100" height="100" viewBox="0 0 100 100" fill="none" xmlns="http://www.w3.org/2000/svg">
<rect opacity="0.0229128" x="0.5" y="0.5" width="99" height="99" stroke="#2B2B2B"/>
<path fill-rule="evenodd" clip-rule="evenodd" d="M71.9863 33.9957C70.8419 33.9957 69.7002 34.1191 68.5841 34.3631C65.0174 26.0203 56.6912 20.4551 47.6844 20.4551C36.4424 20.4551 27.0952 28.4503 25.2345 39.5552C25.2076 39.5538 25.1807 39.5538 25.1551 39.5538C17.8047 39.5538 11.8242 45.5942 11.8242 53.0163C11.8242 60.437 17.8047 66.4746 25.1551 66.4746H71.9863C80.8514 66.4746 88.0643 59.1887 88.0643 50.2358C88.0643 41.2816 80.8514 33.9957 71.9863 33.9957ZM84.8308 50.2358C84.8308 57.3955 79.0687 63.2203 71.9863 63.2203H25.1551C19.5873 63.2203 15.0577 58.6425 15.0577 53.0163C15.0577 47.3873 19.5873 42.808 25.1551 42.808C25.5267 42.808 25.9323 42.8364 26.4329 42.8988L28.0752 43.1045L28.2411 41.4476C29.2551 31.3344 37.6139 23.7094 47.6844 23.7094C55.9212 23.7094 63.3141 28.9908 66.0824 36.8513L66.6043 38.3352L68.0948 37.8571C69.3599 37.4542 70.6688 37.2499 71.9863 37.2499C79.0687 37.2499 84.8308 43.0747 84.8308 50.2358Z" fill="white"/>
<path fill-rule="evenodd" clip-rule="evenodd" d="M57.1787 76.7986C57.1787 78.4924 55.8074 79.8642 54.1155 79.8642C52.4236 79.8642 51.0508 78.4924 51.0508 76.7986C51.0508 75.1062 52.4236 73.7344 54.1155 73.7344C55.8074 73.7344 57.1787 75.1062 57.1787 76.7986Z" fill="white"/>
<path fill-rule="evenodd" clip-rule="evenodd" d="M77.3599 75.782C77.3599 77.4758 75.9871 78.8476 74.2952 78.8476C72.6033 78.8476 71.2305 77.4758 71.2305 75.782C71.2305 74.0896 72.6033 72.7178 74.2952 72.7178C75.9871 72.7178 77.3599 74.0896 77.3599 75.782Z" fill="white"/>
<path fill-rule="evenodd" clip-rule="evenodd" d="M36.9444 77.112C36.9444 78.8059 35.573 80.1776 33.8811 80.1776C32.1878 80.1776 30.8164 78.8059 30.8164 77.112C30.8164 75.4196 32.1878 74.0479 33.8811 74.0479C35.573 74.0479 36.9444 75.4196 36.9444 77.112Z" fill="white"/>
</svg>
