<svg width="100" height="100" viewBox="0 0 100 100" fill="none" xmlns="http://www.w3.org/2000/svg">
<rect opacity="0.0229128" x="0.5" y="0.5" width="99" height="99" stroke="#2B2B2B"/>
<path fill-rule="evenodd" clip-rule="evenodd" d="M70.346 31.9794C69.1883 31.9794 68.0321 32.1031 66.9016 32.3463C63.2878 23.9837 54.8563 18.4043 45.7325 18.4043C34.3479 18.4043 24.8808 26.4199 22.9949 37.5517C22.969 37.5517 22.9417 37.5517 22.9159 37.5517C15.4712 37.5517 9.41406 43.6061 9.41406 51.0471C9.41406 58.4882 15.4712 64.5412 22.9159 64.5412H70.346C79.3248 64.5412 86.6301 57.2367 86.6301 48.2596C86.6301 39.2825 79.3248 31.9794 70.346 31.9794ZM83.3552 48.2596C83.3552 55.439 77.5207 61.2786 70.346 61.2786H22.9159C17.2767 61.2786 12.689 56.6891 12.689 51.0471C12.689 45.4038 17.2767 40.8128 22.9159 40.8128C23.2922 40.8128 23.703 40.8427 24.2086 40.9039L25.8734 41.1115L26.04 39.4503C27.0684 29.3113 35.5343 21.6655 45.7325 21.6655C54.0764 21.6655 61.5641 26.9604 64.3665 34.8423L64.8965 36.33L66.4061 35.8507C67.6873 35.4468 69.0131 35.242 70.346 35.242C77.5207 35.242 83.3552 41.0816 83.3552 48.2596Z" fill="white"/>
<path fill-rule="evenodd" clip-rule="evenodd" d="M23.1423 73.5197C24.5212 76.0129 25.9001 78.5046 27.2804 80.9978C28.2399 82.7329 30.9202 81.1841 29.9592 79.4476C28.5803 76.9544 27.2014 74.4612 25.8211 71.9681C24.8616 70.233 22.1813 71.7818 23.1423 73.5197Z" fill="white"/>
<path fill-rule="evenodd" clip-rule="evenodd" d="M38.5177 73.5197C39.8966 76.0129 41.2755 78.5046 42.6545 80.9978C43.6154 82.7329 46.2956 81.1841 45.3347 79.4476C43.9558 76.9544 42.5769 74.4612 41.1965 71.9681C40.2371 70.233 37.5554 71.7818 38.5177 73.5197Z" fill="white"/>
<path fill-rule="evenodd" clip-rule="evenodd" d="M54.6734 73.5197C56.0538 76.0129 57.4327 78.5046 58.8116 80.9978C59.7711 82.7329 62.4528 81.1841 61.4918 79.4476C60.1129 76.9544 58.7326 74.4612 57.3537 71.9681C56.3942 70.233 53.7125 71.7818 54.6734 73.5197Z" fill="white"/>
<path fill-rule="evenodd" clip-rule="evenodd" d="M70.2907 73.5197C71.6696 76.0129 73.05 78.5046 74.4289 80.9978C75.3884 82.7329 78.07 81.1841 77.1091 79.4476C75.7288 76.9544 74.3499 74.4612 72.971 71.9681C72.01 70.233 69.3298 71.7818 70.2907 73.5197Z" fill="white"/>
</svg>
