<svg width="100" height="100" viewBox="0 0 100 100" fill="none" xmlns="http://www.w3.org/2000/svg">
<rect opacity="0.0229128" x="-0.5" y="0.5" width="99" height="99" transform="matrix(-1 0 0 1 99 0)" stroke="#2B2B2B"/>
<path fill-rule="evenodd" clip-rule="evenodd" d="M84.408 66.807H12.6495C11.6171 66.807 10.7724 66.0145 10.7724 65.0443C10.7724 64.0757 11.6171 63.2832 12.6495 63.2832H84.408C85.4404 63.2832 86.2852 64.0757 86.2852 65.0443C86.2852 66.0145 85.4404 66.807 84.408 66.807Z" fill="white"/>
<path fill-rule="evenodd" clip-rule="evenodd" d="M67.6954 78.1918H12.6503C11.6178 78.1918 10.7731 77.3993 10.7731 76.4291C10.7731 75.4605 11.6178 74.668 12.6503 74.668H67.6954C68.7278 74.668 69.5742 75.4605 69.5742 76.4291C69.5742 77.3993 68.7278 78.1918 67.6954 78.1918Z" fill="white"/>
<path fill-rule="evenodd" clip-rule="evenodd" d="M27.2525 23.68C28.4257 23.68 29.5955 23.8017 30.7391 24.04C34.396 15.8433 42.93 10.375 52.1627 10.375C63.6845 10.375 73.2665 18.2317 75.1732 29.1417C75.201 29.1417 75.2271 29.1417 75.2549 29.1417C82.7878 29.1417 88.918 35.075 88.918 42.3683C88.918 49.6617 82.7878 55.5933 75.2549 55.5933H27.2525C18.1658 55.5933 10.7738 48.435 10.7738 39.6367C10.7738 30.8383 18.1658 23.68 27.2525 23.68ZM14.0883 39.6367C14.0883 46.6733 19.9926 52.3967 27.2525 52.3967H75.2549C80.961 52.3967 85.6034 47.8983 85.6034 42.3683C85.6034 36.8383 80.961 32.3383 75.2549 32.3383C74.8743 32.3383 74.4571 32.3667 73.9444 32.4283L72.2602 32.63L72.0916 31.0017C71.0522 21.065 62.4835 13.5717 52.1627 13.5717C43.7191 13.5717 36.1411 18.7617 33.3045 26.4867L32.7675 27.945L31.2414 27.475C29.9448 27.0783 28.603 26.8767 27.2525 26.8767C19.9926 26.8767 14.0883 32.6 14.0883 39.6367Z" fill="white"/>
<path fill-rule="evenodd" clip-rule="evenodd" d="M49.5469 89.1205H12.6492C11.6167 89.1205 10.772 88.3276 10.772 87.3586C10.772 86.3895 11.6167 85.5967 12.6492 85.5967H49.5469C50.5811 85.5967 51.4258 86.3895 51.4258 87.3586C51.4258 88.3276 50.5811 89.1205 49.5469 89.1205Z" fill="white"/>
</svg>
