<svg width="100" height="100" viewBox="0 0 100 100" fill="none" xmlns="http://www.w3.org/2000/svg">
<rect opacity="0.0229128" x="-0.5" y="0.5" width="99" height="99" transform="matrix(-1 0 0 1 99 0)" stroke="#2B2B2B"/>
<path fill-rule="evenodd" clip-rule="evenodd" d="M68.2574 56.9288H90.6725C94.4301 56.9288 97.4862 53.5807 97.4862 49.4636C97.4862 45.345 94.4301 41.9952 90.6725 41.9952C90.421 41.9952 90.1468 42.0166 89.8104 42.0626L88.7013 42.2137L88.5892 41.0013C87.9043 33.6035 82.2634 28.0244 75.468 28.0244C69.9089 28.0244 64.9195 31.8884 63.0528 37.6384L62.6998 38.7243L61.6937 38.3744C60.8407 38.0803 59.9574 37.9308 59.068 37.9308C58.8922 37.9308 58.721 37.9472 58.5468 37.9587C58.4619 37.1915 58.3922 36.4062 58.3543 35.5897C58.5907 35.5733 58.8271 35.5503 59.068 35.5503C59.8392 35.5503 60.6104 35.6407 61.3634 35.8181C63.771 29.7165 69.3892 25.6455 75.468 25.6455C83.0543 25.6455 89.3634 31.4941 90.6195 39.6164C90.6362 39.6164 90.6543 39.6164 90.6725 39.6164C95.6331 39.6164 99.668 44.034 99.668 49.4636C99.668 54.8916 95.6331 59.3093 90.6725 59.3093H71.7316L71.7604 59.3027C71.7604 59.3027 70.2558 58.5881 68.2574 56.9288Z" fill="white"/>
<path fill-rule="evenodd" clip-rule="evenodd" d="M65.9928 79.0724C68.4959 79.1857 71.0565 78.9919 73.6853 78.4005C78.7716 77.2554 82.8762 74.18 86.4231 70.1665C86.9459 69.575 87.4413 68.9557 88.008 68.2805C75.8792 69.6637 65.7625 65.6897 58.4959 55.0752C51.2747 44.5264 50.4853 32.9097 55.0489 20.7575C54.9853 20.7707 54.9065 20.7674 54.8444 20.8019C47.8004 24.6248 42.5595 30.25 39.9883 38.3788C39.161 38.116 38.261 37.8876 37.3504 37.748C37.4398 37.4588 37.5141 37.173 37.611 36.8822C41.0625 26.4796 48.358 20.084 57.6989 16.2183C58.3247 15.9587 58.9201 16.0622 59.361 16.6438C59.8004 17.2237 59.7898 17.8562 59.4277 18.4887C59.3231 18.6678 59.2216 18.8502 59.1216 19.0342C55.8989 24.8778 54.3125 31.1913 55.1141 37.973C56.4853 49.5667 62.0368 58.0832 71.8292 63.0759C77.8898 66.1661 84.2686 66.2827 90.708 64.5479C91.6201 64.3031 92.258 64.451 92.6398 65.0835C93.0247 65.7209 92.9822 66.3287 92.3519 67.1485C90.9292 69 89.5641 70.9205 88.005 72.6324C81.4686 79.8018 73.5822 83.0251 64.2641 81.9753C64.1095 81.9457 63.9534 81.9195 63.7974 81.8915C64.5762 81.1145 65.3383 80.1895 65.9928 79.0724Z" fill="white"/>
<path fill-rule="evenodd" clip-rule="evenodd" d="M14.2103 54.4496C15.1558 54.4496 16.1012 54.5597 17.0239 54.7782C19.9739 47.2999 26.8588 42.3105 34.3088 42.3105C43.6058 42.3105 51.3361 49.4783 52.8755 59.434C52.8967 59.4324 52.9194 59.4324 52.9406 59.4324C59.0194 59.4324 63.9648 64.8473 63.9648 71.5008C63.9648 78.1528 59.0194 83.566 52.9406 83.566H14.2103C6.87848 83.566 0.91333 77.034 0.91333 69.007C0.91333 60.9816 6.87848 54.4496 14.2103 54.4496ZM3.58757 69.007C3.58757 75.4273 8.35272 80.6483 14.2103 80.6483H52.9406C57.5451 80.6483 61.2906 76.5444 61.2906 71.5008C61.2906 66.454 57.5451 62.3485 52.9406 62.3485C52.633 62.3485 52.2982 62.3748 51.8845 62.4306L50.5254 62.6146L50.3891 61.1295C49.5497 52.0642 42.6361 45.2283 34.3088 45.2283C27.4967 45.2283 21.3815 49.963 19.0936 57.0108L18.6603 58.3399L17.4285 57.9111C16.383 57.5497 15.2997 57.3673 14.2103 57.3673C8.35272 57.3673 3.58757 62.5883 3.58757 69.007Z" fill="white"/>
</svg>
