<svg width="64" height="64" viewBox="0 0 64 64" fill="none" xmlns="http://www.w3.org/2000/svg">
<path d="M24 37V40" stroke="#FFA500" stroke-width="2" stroke-linecap="round"/>
<path d="M17.636 34.3633L15.5147 36.4846" stroke="#FFA500" stroke-width="2" stroke-linecap="round"/>
<path d="M15 28H12" stroke="#FFA500" stroke-width="2" stroke-linecap="round"/>
<path d="M17.636 21.6367L15.5147 19.5154" stroke="#FFA500" stroke-width="2" stroke-linecap="round"/>
<path d="M24 19V16" stroke="#FFA500" stroke-width="2" stroke-linecap="round"/>
<path d="M30.364 21.6367L32.4853 19.5154" stroke="#FFA500" stroke-width="2" stroke-linecap="round"/>
<path d="M33 28H36" stroke="#FFA500" stroke-width="2" stroke-linecap="round"/>
<path d="M30.364 34.3633L32.4853 36.4846" stroke="#FFA500" stroke-width="2" stroke-linecap="round"/>
<path d="M24 33C26.7614 33 29 30.7614 29 28C29 25.2386 26.7614 23 24 23C21.2386 23 19 25.2386 19 28C19 30.7614 21.2386 33 24 33Z" fill="#FFA500" stroke="#FFA500" stroke-width="2"/>
<path d="M42.5201 29.34C42.5201 26.58 40.3001 24.42 37.6001 24.42C37.0001 24.42 36.4601 24.54 35.9201 24.72C35.7401 22.68 34.0601 21 31.9601 21C29.7401 21 27.9401 22.8 27.9401 25.02C27.9401 25.5 28.0601 25.98 28.1801 26.4C28.0001 26.34 27.7601 26.34 27.5801 26.34C25.3601 26.34 23.5601 28.14 23.5601 30.36C23.5601 32.52 25.3001 34.32 27.4601 34.38H37.7801C40.4201 34.08 42.5201 31.98 42.5201 29.34Z" fill="#91C0F8" stroke="white" stroke-width="0.72" stroke-linejoin="round"/>
<path d="M51.6 40.5016C51.6 35.9016 47.9 32.3016 43.4 32.3016C42.4 32.3016 41.5 32.5016 40.6 32.8016C40.3 29.4016 37.5 26.6016 34 26.6016C30.3 26.6016 27.3 29.6016 27.3 33.3016C27.3 34.1016 27.5 34.9016 27.7 35.6016C27.4 35.5016 27 35.5016 26.7 35.5016C23 35.5016 20 38.5016 20 42.2016C20 45.8016 22.9 48.8016 26.5 48.9016H43.7C48.1 48.4016 51.6 44.9016 51.6 40.5016Z" fill="#57A0EE" stroke="white" stroke-width="1.2" stroke-linejoin="round"/>
</svg>
