<svg width="100" height="100" viewBox="0 0 100 100" fill="none" xmlns="http://www.w3.org/2000/svg">
<g clip-path="url(#clip0_1665_883)">
<rect opacity="0.0229128" x="0.5" y="0.5" width="98.0099" height="99" stroke="#2B2B2B"/>
<path fill-rule="evenodd" clip-rule="evenodd" d="M84.0938 50.7396C82.9981 50.7396 81.9041 50.8596 80.8348 51.0946C77.4156 43.023 69.4387 37.6396 60.8067 37.6396C50.0344 37.6396 41.0773 45.3746 39.2951 56.118C39.2687 56.118 39.244 56.118 39.2192 56.118C32.1763 56.118 26.4453 61.9613 26.4453 69.1413C26.4453 76.3213 32.1763 82.163 39.2192 82.163H84.0938C92.5889 82.163 99.4998 75.1146 99.4998 66.4513C99.4998 57.788 92.5889 50.7396 84.0938 50.7396ZM96.4008 66.4513C96.4008 73.3797 90.8793 79.0146 84.0938 79.0146H39.2192C33.8843 79.0146 29.5443 74.5863 29.5443 69.1413C29.5443 63.6963 33.8843 59.2646 39.2192 59.2646C39.5757 59.2646 39.9635 59.293 40.4437 59.353L42.0179 59.553L42.1763 57.9496C43.1483 48.1646 51.1582 40.7863 60.8067 40.7863C68.6994 40.7863 75.7852 45.8963 78.4354 53.503L78.9371 54.938L80.3645 54.4763C81.5773 54.0863 82.8315 53.888 84.0938 53.888C90.8793 53.888 96.4008 59.523 96.4008 66.4513Z" fill="white"/>
<path fill-rule="evenodd" clip-rule="evenodd" d="M21.2761 35.2678C21.8438 35.8945 22.8157 35.9378 23.4362 35.3645C24.0566 34.7895 24.0995 33.8078 23.5319 33.1812L14.3933 23.1012C13.8256 22.4745 12.852 22.4312 12.2332 23.0062C11.6127 23.5795 11.5698 24.5612 12.1375 25.1878L21.2761 35.2678Z" fill="white"/>
<path fill-rule="evenodd" clip-rule="evenodd" d="M20.583 60.5597L10.8173 70.0213C10.21 70.6097 10.1886 71.5913 10.7711 72.2047C11.3536 72.818 12.3272 72.838 12.9344 72.2497L22.7001 62.7897C23.3057 62.2013 23.3272 61.218 22.7447 60.6047C22.1622 59.993 21.1886 59.9713 20.583 60.5597Z" fill="white"/>
<path fill-rule="evenodd" clip-rule="evenodd" d="M36.5024 30.827C37.3423 30.8803 38.0717 30.2303 38.1245 29.3836L38.9743 15.742C39.0271 14.8936 38.3836 14.157 37.5453 14.1036C36.7054 14.0503 35.976 14.7003 35.9232 15.5486L35.0733 29.1886C35.0205 30.037 35.6641 30.7736 36.5024 30.827Z" fill="white"/>
<path fill-rule="evenodd" clip-rule="evenodd" d="M18.0575 47.1667C18.1235 46.3201 17.4898 45.5734 16.6515 45.5067L3.15979 44.4501C2.32151 44.3834 1.58224 45.0234 1.51623 45.8701C1.45187 46.7168 2.08389 47.4634 2.92382 47.5301L16.4156 48.5868C17.2539 48.6534 17.9931 48.0134 18.0575 47.1667Z" fill="white"/>
<path fill-rule="evenodd" clip-rule="evenodd" d="M41.9307 36.1263C40.2046 35.163 38.2591 34.2963 36.1666 34.1396C28.3713 33.553 21.5561 39.483 20.9769 47.3563C20.6023 52.443 22.929 57.1063 26.7195 59.9346C27.1336 59.193 27.6914 58.3813 28.4356 57.583C25.4191 55.3313 23.566 51.6213 23.8647 47.573C24.3267 41.308 29.7492 36.5896 35.9505 37.0563C37.1666 37.148 36.8366 36.833 37.9059 37.278L38.3201 37.4363C38.3201 37.4363 39.6204 36.088 41.9307 36.1263Z" fill="white"/>
<path fill-rule="evenodd" clip-rule="evenodd" d="M91.6747 46.1752C91.6747 39.2385 86.1417 33.5952 79.3398 33.5952C78.4619 33.5952 77.5856 33.6902 76.7292 33.8785C73.9932 27.4152 67.6054 23.1035 60.6929 23.1035C52.0691 23.1035 44.8959 29.2985 43.4685 37.9002C43.4487 37.9002 43.4272 37.9002 43.4074 37.9002C37.7688 37.9002 33.1797 42.5785 33.1797 48.3285C33.1797 50.0452 33.6005 51.6568 34.3249 53.0835C34.9041 52.7935 35.716 52.5035 36.7622 52.3368C36.0741 51.1602 35.6615 49.7969 35.6615 48.3285C35.6615 43.9685 39.1368 40.4202 43.4074 40.4202C43.6929 40.4202 44.0048 40.4435 44.3876 40.4918L45.6483 40.6502L45.7754 39.3668C46.5543 31.5335 52.9668 25.6252 60.6929 25.6252C67.013 25.6252 72.6863 29.7168 74.8101 35.8068L75.211 36.9568L76.3546 36.5868C77.3249 36.2735 78.3282 36.1152 79.3398 36.1152C84.7737 36.1152 89.1945 40.6285 89.1945 46.1752C89.1945 46.7402 89.1401 47.2918 89.051 47.8318C89.7325 47.9935 90.5856 48.2752 91.4025 48.7502C91.5741 47.9185 91.6747 47.0585 91.6747 46.1752Z" fill="white"/>
</g>
<defs>
<clipPath id="clip0_1665_883">
<rect width="100" height="100" fill="white"/>
</clipPath>
</defs>
</svg>
