<svg width="96" height="94" viewBox="0 0 96 94" fill="none" xmlns="http://www.w3.org/2000/svg">
<g clip-path="url(#clip0_1665_1233)">
<path fill-rule="evenodd" clip-rule="evenodd" d="M35.6422 74C35.1196 73.998 34.6082 74.1512 34.1728 74.4401C33.7373 74.7289 33.3974 75.1406 33.196 75.6228C32.9947 76.105 32.941 76.6361 33.0417 77.1489C33.1424 77.6617 33.3931 78.133 33.7619 78.5032C34.1307 78.8734 34.6011 79.1259 35.1135 79.2285C35.6258 79.3312 36.1572 79.2795 36.6402 79.08C37.1231 78.8805 37.536 78.5421 37.8266 78.1078C38.1171 77.6734 38.2722 77.1626 38.2722 76.64C38.2735 76.2938 38.2065 75.9507 38.0749 75.6305C37.9433 75.3102 37.7498 75.0191 37.5054 74.7739C37.2611 74.5286 36.9707 74.334 36.651 74.2012C36.3312 74.0684 35.9884 74 35.6422 74Z" fill="white"/>
<path fill-rule="evenodd" clip-rule="evenodd" d="M40.9 86.71C40.3774 86.708 39.866 86.8611 39.4306 87.15C38.9951 87.4389 38.6552 87.8505 38.4538 88.3327C38.2525 88.815 38.1988 89.3461 38.2995 89.8589C38.4002 90.3716 38.6509 90.843 39.0197 91.2132C39.3885 91.5834 39.8589 91.8358 40.3713 91.9385C40.8837 92.0412 41.415 91.9895 41.898 91.79C42.3809 91.5904 42.7938 91.2521 43.0844 90.8177C43.3749 90.3834 43.53 89.8725 43.53 89.35C43.53 88.6515 43.2532 87.9816 42.7603 87.4867C42.2674 86.9919 41.5984 86.7126 40.9 86.71Z" fill="white"/>
<path fill-rule="evenodd" clip-rule="evenodd" d="M56.4397 76.6698C56.4377 76.1501 56.2818 75.6426 55.9916 75.2114C55.7014 74.7802 55.29 74.4447 54.8092 74.2471C54.3285 74.0496 53.8 73.999 53.2905 74.1016C52.781 74.2042 52.3133 74.4554 51.9465 74.8237C51.5797 75.1919 51.3302 75.6605 51.2295 76.1704C51.1288 76.6803 51.1815 77.2086 51.3808 77.6886C51.5802 78.1685 51.9173 78.5787 52.3496 78.8673C52.7818 79.1558 53.2899 79.3098 53.8097 79.3098C54.1559 79.3098 54.4987 79.2414 54.8184 79.1087C55.1382 78.9759 55.4286 78.7812 55.6729 78.536C55.9173 78.2907 56.1108 77.9996 56.2423 77.6793C56.3739 77.3591 56.441 77.016 56.4397 76.6698Z" fill="white"/>
<path fill-rule="evenodd" clip-rule="evenodd" d="M58.0016 86.71C57.479 86.708 56.9676 86.8611 56.5321 87.15C56.0967 87.4389 55.7568 87.8505 55.5554 88.3327C55.3541 88.815 55.3003 89.3461 55.4011 89.8589C55.5018 90.3716 55.7525 90.843 56.1213 91.2132C56.4901 91.5834 56.9605 91.8358 57.4728 91.9385C57.9852 92.0412 58.5165 91.9895 58.9995 91.79C59.4825 91.5904 59.8954 91.2521 60.1859 90.8177C60.4765 90.3834 60.6316 89.8725 60.6316 89.35C60.6316 88.6515 60.3548 87.9816 59.8619 87.4867C59.3689 86.9919 58.7 86.7126 58.0016 86.71Z" fill="white"/>
<path fill-rule="evenodd" clip-rule="evenodd" d="M19.1622 75.17C18.6368 75.166 18.1221 75.3183 17.6835 75.6075C17.2448 75.8968 16.9021 76.3098 16.6987 76.7943C16.4954 77.2787 16.4406 77.8127 16.5414 78.3283C16.6422 78.8439 16.894 79.318 17.2648 79.6902C17.6356 80.0624 18.1087 80.316 18.6239 80.4188C19.1392 80.5215 19.6733 80.4688 20.1586 80.2673C20.6438 80.0658 21.0581 79.7246 21.349 79.287C21.6399 78.8495 21.7941 78.3354 21.7922 77.81C21.7922 77.1116 21.5154 76.4416 21.0225 75.9468C20.5295 75.452 19.8606 75.1726 19.1622 75.17Z" fill="white"/>
<path fill-rule="evenodd" clip-rule="evenodd" d="M24.4188 87.8503C23.8942 87.8384 23.378 87.983 22.9361 88.2658C22.4941 88.5485 22.1464 88.9565 21.9374 89.4377C21.7283 89.919 21.6674 90.4516 21.7624 90.9676C21.8574 91.4836 22.1039 91.9596 22.4707 92.3348C22.8374 92.71 23.3076 92.9675 23.8212 93.0743C24.3349 93.1811 24.8688 93.1325 25.3547 92.9346C25.8406 92.7366 26.2565 92.3984 26.5493 91.963C26.8421 91.5277 26.9986 91.015 26.9988 90.4903C27.0015 89.7996 26.7325 89.1356 26.2497 88.6416C25.767 88.1477 25.1093 87.8634 24.4188 87.8503Z" fill="white"/>
<path fill-rule="evenodd" clip-rule="evenodd" d="M95.7313 48.29C95.3313 47.67 94.6613 47.52 93.7313 47.76C87.0013 49.47 80.3313 49.36 74.0013 46.31C63.7913 41.39 58.0013 33 56.5613 21.57C55.8205 15.0558 57.2966 8.48209 60.7513 2.90998C60.8513 2.72998 60.9613 2.54998 61.0713 2.36998C61.2625 2.10158 61.3594 1.77736 61.3467 1.44804C61.334 1.11872 61.2126 0.802886 61.0013 0.549976C60.8023 0.292419 60.5215 0.110427 60.2051 0.0340643C59.8887 -0.0422988 59.5558 -0.00846532 59.2612 0.129976C49.5112 3.93998 41.9013 10.24 38.3013 20.5C38.2013 20.78 38.1213 21.07 38.0312 21.35C38.9616 21.4907 39.8806 21.6979 40.7812 21.97C43.4613 13.97 48.9312 8.41998 56.2812 4.64998C56.3534 4.62857 56.4269 4.61187 56.5013 4.59998C51.7313 16.6 52.5612 28.03 60.1012 38.43C67.6413 48.83 78.2413 52.8 90.9013 51.43C90.3013 52.1 89.7912 52.71 89.2412 53.29C85.5412 57.29 81.2412 60.29 75.9512 61.4C73.3241 61.9635 70.6352 62.1854 67.9512 62.06C67.313 63.083 66.5431 64.0176 65.6613 64.84L66.1413 64.93C75.8713 65.93 84.1413 62.78 90.9212 55.72C92.5513 54.03 93.9212 52.14 95.4613 50.31C96.0812 49.52 96.1313 48.92 95.7313 48.29Z" fill="white"/>
<path fill-rule="evenodd" clip-rule="evenodd" d="M54.3004 42.7196H54.2304C53.5552 38.0531 51.2278 33.7837 47.6713 30.6879C44.1149 27.5921 39.5655 25.8752 34.8504 25.8496C30.9785 25.9143 27.2104 27.1117 24.0115 29.2941C20.8126 31.4765 18.3231 34.5481 16.8504 38.1296C15.888 37.9184 14.9057 37.8111 13.9204 37.8096C10.1815 37.9083 6.62882 39.463 4.01919 42.1424C1.40956 44.8219 -0.0507812 48.4143 -0.0507812 52.1546C-0.0507813 55.8949 1.40956 59.4873 4.01919 62.1668C6.62882 64.8462 10.1815 66.4009 13.9204 66.4996H54.3004C57.3695 66.3737 60.271 65.066 62.398 62.8499C64.525 60.6339 65.7127 57.6812 65.7127 54.6096C65.7127 51.538 64.525 48.5853 62.398 46.3693C60.271 44.1533 57.3695 42.8455 54.3004 42.7196ZM54.3004 63.6296H13.8804C10.8304 63.6296 7.90538 62.418 5.74871 60.2613C3.59204 58.1047 2.38044 55.1796 2.38044 52.1296C2.38044 49.0796 3.59204 46.1545 5.74871 43.9979C7.90538 41.8412 10.8304 40.6296 13.8804 40.6296C15.0187 40.6299 16.1497 40.8122 17.2304 41.1696L18.5204 41.5896L19.0004 40.3296C20.1158 36.9919 22.2394 34.0826 25.0784 32.003C27.9174 29.9235 31.3318 28.7763 34.8504 28.7196C39.0998 28.7616 43.1794 30.3936 46.2853 33.294C49.3912 36.1945 51.2982 40.153 51.6304 44.3896L51.7804 45.8596L53.1904 45.6696C53.5587 45.6224 53.9292 45.5957 54.3004 45.5896C56.6874 45.5896 58.9766 46.5378 60.6644 48.2256C62.3522 49.9135 63.3004 52.2027 63.3004 54.5896C63.3004 56.9766 62.3522 59.2657 60.6644 60.9536C58.9766 62.6414 56.6874 63.5896 54.3004 63.5896V63.6296Z" fill="white"/>
</g>
<defs>
<clipPath id="clip0_1665_1233">
<rect width="95.99" height="93.13" fill="white"/>
</clipPath>
</defs>
</svg>
