<svg width="64" height="64" viewBox="0 0 64 64" fill="none" xmlns="http://www.w3.org/2000/svg">
<path d="M20 35V38" stroke="#FFA500" stroke-width="2" stroke-linecap="round"/>
<path d="M13.636 32.3633L11.5147 34.4846" stroke="#FFA500" stroke-width="2" stroke-linecap="round"/>
<path d="M11 26H8" stroke="#FFA500" stroke-width="2" stroke-linecap="round"/>
<path d="M13.636 19.6367L11.5147 17.5154" stroke="#FFA500" stroke-width="2" stroke-linecap="round"/>
<path d="M20 17V14" stroke="#FFA500" stroke-width="2" stroke-linecap="round"/>
<path d="M26.364 19.6367L28.4853 17.5154" stroke="#FFA500" stroke-width="2" stroke-linecap="round"/>
<path d="M29 26H32" stroke="#FFA500" stroke-width="2" stroke-linecap="round"/>
<path d="M26.364 32.3633L28.4853 34.4846" stroke="#FFA500" stroke-width="2" stroke-linecap="round"/>
<path d="M20 31C22.7614 31 25 28.7614 25 26C25 23.2386 22.7614 21 20 21C17.2386 21 15 23.2386 15 26C15 28.7614 17.2386 31 20 31Z" fill="#FFA500" stroke="#FFA500" stroke-width="2"/>
<path d="M47.7001 34.4C47.7001 29.8 44.0001 26.2 39.5001 26.2C38.5001 26.2 37.6001 26.4 36.7001 26.7C36.4001 23.3 33.6001 20.5 30.1001 20.5C26.4001 20.5 23.4001 23.5 23.4001 27.2C23.4001 28 23.6001 28.8 23.8001 29.5C23.5001 29.4 23.1001 29.4 22.8001 29.4C19.1001 29.4 16.1001 32.4 16.1001 36.1C16.1001 39.7 19.0001 42.7 22.6001 42.8H39.8001C44.2001 42.3 47.7001 38.8 47.7001 34.4Z" fill="#91C0F8" stroke="white" stroke-width="1.2" stroke-linejoin="round"/>
</svg>
