<svg width="64" height="64" viewBox="0 0 64 64" fill="none" xmlns="http://www.w3.org/2000/svg">
<path d="M38.6402 15.1992L39.2002 16.1592L40.1602 16.6392L39.2002 17.1992L38.6402 18.1592L38.1602 17.1992L37.2002 16.6392L38.1602 16.1592L38.6402 15.1992Z" fill="#FFA500"/>
<path d="M54.6402 23.1992L55.2002 24.1592L56.1602 24.6392L55.2002 25.1992L54.6402 26.1592L54.1602 25.1992L53.2002 24.6392L54.1602 24.1592L54.6402 23.1992Z" fill="#FFA500"/>
<path d="M47.6001 24.5586C47.6001 21.5986 49.2001 19.0386 51.6001 17.5986C50.4001 16.8786 49.0401 16.5586 47.6001 16.5586C43.2001 16.5586 39.6001 20.1586 39.6001 24.5586C39.6001 28.9586 43.2001 32.5586 47.6001 32.5586C49.0401 32.5586 50.4001 32.1586 51.6001 31.5186C49.2001 30.1586 47.6001 27.5186 47.6001 24.5586Z" fill="#FFA500" stroke="#FFA500" stroke-width="1.6" stroke-linejoin="round"/>
<path d="M47.7001 34.4C47.7001 29.8 44.0001 26.2 39.5001 26.2C38.5001 26.2 37.6001 26.4 36.7001 26.7C36.4001 23.3 33.6001 20.5 30.1001 20.5C26.4001 20.5 23.4001 23.5 23.4001 27.2C23.4001 28 23.6001 28.8 23.8001 29.5C23.5001 29.4 23.1001 29.4 22.8001 29.4C19.1001 29.4 16.1001 32.4 16.1001 36.1C16.1001 39.7 19.0001 42.7 22.6001 42.8H39.8001C44.2001 42.3 47.7001 38.8 47.7001 34.4Z" fill="#91C0F8" stroke="white" stroke-width="1.2" stroke-linejoin="round"/>
</svg>
