<svg width="96" height="94" viewBox="0 0 96 94" fill="none" xmlns="http://www.w3.org/2000/svg">
<g clip-path="url(#clip0_1665_1245)">
<path fill-rule="evenodd" clip-rule="evenodd" d="M13.3418 77.1703C12.4918 75.6303 10.1118 77.0103 10.9618 78.5603L14.6418 85.2304C15.4918 86.7804 17.8718 85.4004 17.0218 83.8504L13.3418 77.1703Z" fill="white"/>
<path fill-rule="evenodd" clip-rule="evenodd" d="M27.002 77.1703C26.152 75.6303 23.772 77.0103 24.622 78.5603L28.302 85.2304C29.152 86.7804 31.532 85.4004 30.682 83.8504L27.002 77.1703Z" fill="white"/>
<path fill-rule="evenodd" clip-rule="evenodd" d="M41.3418 77.1703C40.4918 75.6303 38.1118 77.0103 38.9618 78.5603L42.6418 85.2304C43.4918 86.7804 45.8718 85.4004 45.0218 83.8504L41.3418 77.1703Z" fill="white"/>
<path fill-rule="evenodd" clip-rule="evenodd" d="M55.209 77.1703C54.359 75.6303 51.979 77.0103 52.829 78.5603L56.509 85.2304C57.359 86.7804 59.739 85.4004 58.889 83.8504L55.209 77.1703Z" fill="white"/>
<path fill-rule="evenodd" clip-rule="evenodd" d="M24.5606 85.0502C23.7106 83.5102 21.3306 84.8902 22.1806 86.4402L25.8606 93.1102C26.7106 94.6602 29.0906 93.2802 28.2406 91.7302L24.5606 85.0502Z" fill="white"/>
<path fill-rule="evenodd" clip-rule="evenodd" d="M38.209 85.0501C37.359 83.5001 34.979 84.8901 35.829 86.4301L39.509 93.1101C40.359 94.6601 42.739 93.2701 41.889 91.7201L38.209 85.0501Z" fill="white"/>
<path fill-rule="evenodd" clip-rule="evenodd" d="M52.1386 84.5003C51.2786 82.9503 48.8986 84.3303 49.7586 85.8803L53.4286 92.5603C54.2786 94.1003 56.6686 92.7203 55.8086 91.1703L52.1386 84.5003Z" fill="white"/>
<path fill-rule="evenodd" clip-rule="evenodd" d="M95.7313 48.29C95.3313 47.67 94.6613 47.52 93.7313 47.76C87.0013 49.47 80.3313 49.36 74.0013 46.31C63.7913 41.39 58.0013 33 56.5613 21.57C55.8205 15.0558 57.2966 8.48209 60.7513 2.90998C60.8513 2.72998 60.9613 2.54998 61.0713 2.36998C61.2625 2.10158 61.3594 1.77736 61.3467 1.44804C61.334 1.11872 61.2126 0.802886 61.0013 0.549976C60.8023 0.292419 60.5215 0.110427 60.2051 0.0340643C59.8887 -0.0422988 59.5558 -0.00846532 59.2612 0.129976C49.5112 3.93998 41.9013 10.24 38.3013 20.5C38.2013 20.78 38.1213 21.07 38.0312 21.35C38.9616 21.4907 39.8806 21.6979 40.7812 21.97C43.4613 13.97 48.9312 8.41998 56.2812 4.64998C56.3534 4.62857 56.4269 4.61187 56.5013 4.59998C51.7313 16.6 52.5612 28.03 60.1012 38.43C67.6413 48.83 78.2413 52.8 90.9013 51.43C90.3013 52.1 89.7912 52.71 89.2412 53.29C85.5412 57.29 81.2412 60.29 75.9512 61.4C73.3241 61.9635 70.6352 62.1854 67.9512 62.06C67.313 63.083 66.5431 64.0176 65.6613 64.84L66.1413 64.93C75.8713 65.93 84.1413 62.78 90.9212 55.72C92.5513 54.03 93.9212 52.14 95.4613 50.31C96.0812 49.52 96.1313 48.92 95.7313 48.29Z" fill="white"/>
<path fill-rule="evenodd" clip-rule="evenodd" d="M54.3004 42.7196H54.2304C53.5552 38.0531 51.2278 33.7837 47.6713 30.6879C44.1149 27.5921 39.5655 25.8752 34.8504 25.8496C30.9785 25.9143 27.2104 27.1117 24.0115 29.2941C20.8126 31.4765 18.3231 34.5481 16.8504 38.1296C15.888 37.9184 14.9057 37.8111 13.9204 37.8096C10.1815 37.9083 6.62882 39.463 4.01919 42.1424C1.40956 44.8219 -0.0507812 48.4143 -0.0507812 52.1546C-0.0507813 55.8949 1.40956 59.4873 4.01919 62.1668C6.62882 64.8462 10.1815 66.4009 13.9204 66.4996H54.3004C57.3695 66.3737 60.271 65.066 62.398 62.8499C64.525 60.6339 65.7127 57.6812 65.7127 54.6096C65.7127 51.538 64.525 48.5853 62.398 46.3693C60.271 44.1533 57.3695 42.8455 54.3004 42.7196ZM54.3004 63.6296H13.8804C10.8304 63.6296 7.90538 62.418 5.74871 60.2613C3.59204 58.1047 2.38044 55.1796 2.38044 52.1296C2.38044 49.0796 3.59204 46.1545 5.74871 43.9979C7.90538 41.8412 10.8304 40.6296 13.8804 40.6296C15.0187 40.6299 16.1497 40.8122 17.2304 41.1696L18.5204 41.5896L19.0004 40.3296C20.1158 36.9919 22.2394 34.0826 25.0784 32.003C27.9174 29.9235 31.3318 28.7763 34.8504 28.7196C39.0998 28.7616 43.1794 30.3936 46.2853 33.294C49.3912 36.1945 51.2982 40.153 51.6304 44.3896L51.7804 45.8596L53.1904 45.6696C53.5587 45.6224 53.9292 45.5957 54.3004 45.5896C56.6874 45.5896 58.9766 46.5378 60.6644 48.2256C62.3522 49.9135 63.3004 52.2027 63.3004 54.5896C63.3004 56.9766 62.3522 59.2657 60.6644 60.9536C58.9766 62.6414 56.6874 63.5896 54.3004 63.5896V63.6296Z" fill="white"/>
</g>
<defs>
<clipPath id="clip0_1665_1245">
<rect width="95.99" height="93.79" fill="white"/>
</clipPath>
</defs>
</svg>
