<svg width="100" height="100" viewBox="0 0 100 100" fill="none" xmlns="http://www.w3.org/2000/svg">
<rect opacity="0.0229128" x="0.5" y="0.5" width="99" height="99" stroke="#2B2B2B"/>
<path fill-rule="evenodd" clip-rule="evenodd" d="M77.0313 57.4069L76.6099 54.4046L63.7915 56.276L53.4741 50.2036L63.7899 44.1328L76.6099 46.0042L77.0313 43.0035L67.962 41.6774L82 33.4158L80.5134 30.7894L66.4738 39.0526L69.8843 30.3812L67.1225 29.2536L62.3033 41.5064L52.2259 47.4368V35.4356L60.2251 25.0542L57.8863 23.1796L52.2259 30.5264V14H49.2511V30.5264L43.5891 23.1796L41.2518 25.0542L49.2511 35.4356V47.7175L38.6967 41.5064L33.8759 29.2536L31.1141 30.3828L34.5246 39.0526L20.4866 30.7894L19 33.4158L33.038 41.6774L23.9671 43.0035L24.3901 46.0042L37.2085 44.1328L47.5259 50.2036L37.2069 56.276L24.3901 54.4046L23.9671 57.4069L33.038 58.7314L19 66.993L20.4866 69.6194L34.5262 61.3562L31.1141 70.0276L33.8759 71.1552L38.6952 58.9024L49.2511 52.6913V64.9248L41.2518 75.3094L43.5907 77.1808L49.2511 69.8356V85.394H52.2259V69.8356L57.8863 77.1808L60.2251 75.3094L52.2259 64.9264V52.972L62.3033 58.9024L67.1225 71.1552L69.8843 70.0276L66.4738 61.3562L80.5134 69.6194L82 66.993L67.962 58.7314L77.0313 57.4069Z" fill="white"/>
</svg>
