<svg width="64" height="64" viewBox="0 0 64 64" fill="none" xmlns="http://www.w3.org/2000/svg">
<path d="M47.6 26.9C47.6 22.3 43.9 18.7 39.4 18.7C38.4 18.7 37.5 18.9 36.6 19.2C36.3 15.8 33.5 13 30 13C26.3 13 23.3 16 23.3 19.7C23.3 20.5 23.5 21.3 23.7 22C23.4 21.9 23 21.9 22.7 21.9C19 21.9 16 24.9 16 28.6C16 32.2 18.9 35.2 22.5 35.3H39.7C44.1 34.8 47.6 31.3 47.6 26.9Z" fill="#57A0EE" stroke="white" stroke-width="1.2" stroke-linejoin="round"/>
<path d="M30.8999 37V42" stroke="#57A0EE" stroke-width="1.2" stroke-linecap="round"/>
<path d="M32.6677 37.7305L29.1322 41.266" stroke="#57A0EE" stroke-linecap="round"/>
<path d="M33.3999 39.5H28.3999" stroke="#57A0EE" stroke-linecap="round"/>
<path d="M32.6677 41.2695L29.1322 37.734" stroke="#57A0EE" stroke-linecap="round"/>
<path d="M40.3999 41.5V46.5" stroke="#57A0EE" stroke-width="1.2" stroke-linecap="round"/>
<path d="M42.1677 42.2305L38.6322 45.766" stroke="#57A0EE" stroke-linecap="round"/>
<path d="M42.8999 44H37.8999" stroke="#57A0EE" stroke-linecap="round"/>
<path d="M42.1677 45.7695L38.6322 42.234" stroke="#57A0EE" stroke-linecap="round"/>
<path d="M28.3999 46.5V51.5" stroke="#57A0EE" stroke-width="1.2" stroke-linecap="round"/>
<path d="M30.1677 47.2305L26.6322 50.766" stroke="#57A0EE" stroke-linecap="round"/>
<path d="M30.8999 49H25.8999" stroke="#57A0EE" stroke-linecap="round"/>
<path d="M30.1677 50.7695L26.6322 47.234" stroke="#57A0EE" stroke-linecap="round"/>
<path d="M20.3999 38.5V43.5" stroke="#57A0EE" stroke-width="1.2" stroke-linecap="round"/>
<path d="M22.1677 39.2305L18.6322 42.766" stroke="#57A0EE" stroke-linecap="round"/>
<path d="M22.8999 41H17.8999" stroke="#57A0EE" stroke-linecap="round"/>
<path d="M22.1677 42.7695L18.6322 39.234" stroke="#57A0EE" stroke-linecap="round"/>
</svg>
