<svg width="64" height="64" viewBox="0 0 64 64" fill="none" xmlns="http://www.w3.org/2000/svg">
<path d="M38.5201 20.34C38.5201 17.58 36.3001 15.42 33.6001 15.42C33.0001 15.42 32.4601 15.54 31.9201 15.72C31.7401 13.68 30.0601 12 27.9601 12C25.7401 12 23.9401 13.8 23.9401 16.02C23.9401 16.5 24.0601 16.98 24.1801 17.4C24.0001 17.34 23.7601 17.34 23.5801 17.34C21.3601 17.34 19.5601 19.14 19.5601 21.36C19.5601 23.52 21.3001 25.32 23.4601 25.38H33.7801C36.4201 25.08 38.5201 22.98 38.5201 20.34Z" fill="#91C0F8" stroke="white" stroke-width="0.72" stroke-linejoin="round"/>
<path d="M47.6 29.5016C47.6 24.9016 43.9 21.3016 39.4 21.3016C38.4 21.3016 37.5 21.5016 36.6 21.8016C36.3 18.4016 33.5 15.6016 30 15.6016C26.3 15.6016 23.3 18.6016 23.3 22.3016C23.3 23.1016 23.5 23.9016 23.7 24.6016C23.4 24.5016 23 24.5016 22.7 24.5016C19 24.5016 16 27.5016 16 31.2016C16 34.8016 18.9 37.8016 22.5 37.9016H39.7C44.1 37.4016 47.6 33.9016 47.6 29.5016Z" fill="#57A0EE" stroke="white" stroke-width="1.2" stroke-linejoin="round"/>
<path d="M28.06 29.6211H35.5L30.58 38.2611H35.26L24.7 50.6211L28.78 41.3811H24.22L28.06 29.6211Z" fill="#FFA500" stroke="white" stroke-width="1.2"/>
<path d="M21.3892 40L20 47.8785" stroke="#91C0F8" stroke-width="2" stroke-linecap="round" stroke-dasharray="4 7"/>
<path d="M38.3892 41L37 48.8785" stroke="#91C0F8" stroke-width="2" stroke-linecap="round" stroke-dasharray="4 7"/>
</svg>
