<svg width="64" height="64" viewBox="0 0 64 64" fill="none" xmlns="http://www.w3.org/2000/svg">
<path d="M27.1773 15.1823L28.1422 15.7337L29.2136 15.6694L28.6622 16.6344L28.6573 17.7458L27.7616 17.1544L26.6502 17.1494L27.2416 16.2537L27.1773 15.1823Z" fill="#FFA500"/>
<path d="M45.0337 14.112L45.9987 14.6634L47.0701 14.5991L46.5187 15.5641L46.5137 16.6755L45.618 16.0841L44.5066 16.0791L45.098 15.1834L45.0337 14.112Z" fill="#FFA500"/>
<path d="M39.6169 18.8071C38.1369 16.2437 38.2426 13.2266 39.601 10.7796C38.2018 10.756 36.864 11.1589 35.6169 11.8789C31.8064 14.0789 30.4887 18.9966 32.6887 22.8071C34.8887 26.6176 39.8064 27.9353 43.6169 25.7353C44.864 25.0153 45.8418 23.9889 46.561 22.8346C43.8026 22.8569 41.0969 21.3705 39.6169 18.8071Z" fill="#FFA500" stroke="#FFA500" stroke-width="1.6" stroke-linejoin="round"/>
<path d="M44.5067 29.2197C44.5067 25.5067 41.5202 22.6009 37.8879 22.6009C37.0807 22.6009 36.3543 22.7623 35.6278 23.0045C35.3857 20.2601 33.1256 18 30.3004 18C27.3139 18 24.8924 20.4215 24.8924 23.4081C24.8924 24.0538 25.0538 24.6996 25.2152 25.2646C24.9731 25.1839 24.6502 25.1839 24.4081 25.1839C21.4215 25.1839 19 27.6054 19 30.5919C19 33.4978 21.3408 35.9193 24.2466 36H38.13C41.6816 35.5964 44.5067 32.7713 44.5067 29.2197Z" fill="#57A0EE" stroke="white" stroke-width="1.2" stroke-linejoin="round"/>
<path d="M28.0638 33H34L30.0745 39.9943H33.8085L25.383 50L28.6383 42.52H25L28.0638 33Z" fill="#FFA500" stroke="white" stroke-width="1.2"/>
<path d="M21.3892 40L20 47.8785" stroke="#91C0F8" stroke-width="2" stroke-linecap="round" stroke-dasharray="4 7"/>
<path d="M38.3892 41L37 48.8785" stroke="#91C0F8" stroke-width="2" stroke-linecap="round" stroke-dasharray="4 7"/>
</svg>
