<svg width="100" height="100" viewBox="0 0 100 100" fill="none" xmlns="http://www.w3.org/2000/svg">
<g clip-path="url(#clip0_1669_746)">
<path d="M66.4567 42.0354H30.1287C29.7723 42.0354 29.4306 41.8767 29.1787 41.5942C28.9267 41.3118 28.7852 40.9287 28.7852 40.5292C28.7852 40.1298 28.9267 39.7467 29.1787 39.4643C29.4306 39.1818 29.7723 39.0231 30.1287 39.0231H66.4567C67.6493 39.0204 68.8291 38.7472 69.925 38.2199C71.0209 37.6927 72.0103 36.9223 72.8337 35.9552C73.6571 34.9881 74.2974 33.8442 74.7161 32.5924C75.1348 31.3406 75.3232 30.0067 75.2701 28.6711C75.0827 26.6459 74.3872 24.7217 73.2642 23.1215C72.1412 21.5212 70.6367 20.3105 68.925 19.6295C67.2134 18.9486 65.3646 18.8253 63.593 19.274C61.8214 19.7227 60.1995 20.725 58.9153 22.1647L58.8078 22.2651C58.763 22.2651 57.2493 23.8214 56.9538 27.4562C56.9373 27.654 56.8862 27.8462 56.8035 28.0219C56.7208 28.1975 56.608 28.3532 56.4716 28.48C56.3352 28.6068 56.1779 28.7022 56.0086 28.7609C55.8393 28.8195 55.6613 28.8402 55.4849 28.8217C55.3084 28.8033 55.137 28.746 54.9803 28.6533C54.8236 28.5605 54.6847 28.4341 54.5716 28.2812C54.4585 28.1283 54.3734 27.9519 54.3211 27.7621C54.2688 27.5723 54.2503 27.3728 54.2668 27.1751C54.6519 22.6266 56.6313 20.4076 57.0433 20.016C58.6912 18.1843 60.7675 16.9123 63.0326 16.3466C65.2976 15.781 67.6592 15.9449 69.8448 16.8193C72.0304 17.6938 73.9509 19.2431 75.3847 21.2887C76.8185 23.3342 77.7071 25.7925 77.9481 28.3799C78.1286 31.1871 77.4716 33.9819 76.0805 36.3248C74.6894 38.6677 72.6431 40.4257 70.2633 41.3225C69.0391 41.7978 67.7523 42.0388 66.4567 42.0354V42.0354Z" fill="white"/>
<path d="M65.7133 84.9996C62.4629 85.001 59.3447 83.5565 57.0433 80.9833C55.3686 79.0462 54.3842 76.489 54.2757 73.7941C54.2599 73.5963 54.2789 73.3969 54.3317 73.2074C54.3846 73.0179 54.4702 72.8418 54.5837 72.6894C54.6973 72.537 54.8365 72.4111 54.9934 72.3189C55.1503 72.2268 55.3219 72.1702 55.4983 72.1524C55.6747 72.1346 55.8526 72.156 56.0216 72.2152C56.1907 72.2744 56.3477 72.3704 56.4837 72.4977C56.6197 72.625 56.732 72.781 56.8142 72.9569C56.8964 73.1329 56.9468 73.3252 56.9627 73.523C57.2583 77.1577 58.754 78.6638 58.8347 78.7241L58.9242 78.8145C60.2077 80.2506 61.8274 81.2503 63.5963 81.6982C65.3651 82.146 67.2109 82.0237 68.9203 81.3454C70.6298 80.667 72.1332 79.4603 73.2568 77.8647C74.3804 76.2691 75.0784 74.3496 75.2701 72.3281C75.3973 70.1904 74.8863 68.0661 73.8176 66.2899C72.7489 64.5138 71.1833 63.1868 69.3677 62.5183C68.437 62.1581 67.4592 61.9748 66.4747 61.9761H30.1287C29.7723 61.9761 29.4306 61.8174 29.1787 61.535C28.9267 61.2525 28.7852 60.8695 28.7852 60.47C28.7852 60.0706 28.9267 59.6875 29.1787 59.405C29.4306 59.1226 29.7723 58.9639 30.1287 58.9639H66.4567C67.7523 58.9604 69.0391 59.2014 70.2633 59.6768C72.6521 60.5675 74.7076 62.326 76.1044 64.6738C77.5012 67.0217 78.1594 69.8248 77.975 72.6394C77.6599 76.0363 76.2313 79.1812 73.966 81.4648C71.7006 83.7483 68.7598 85.0079 65.7133 84.9996V84.9996Z" fill="white"/>
<path d="M70.7183 52.0064H22.3435C21.9872 52.0064 21.6455 51.8477 21.3935 51.5652C21.1415 51.2828 21 50.8997 21 50.5003C21 50.1008 21.1415 49.7177 21.3935 49.4353C21.6455 49.1528 21.9872 48.9941 22.3435 48.9941H70.7093C71.0656 48.9941 71.4073 49.1528 71.6593 49.4353C71.9113 49.7177 72.0528 50.1008 72.0528 50.5003C72.0528 50.8997 71.9113 51.2828 71.6593 51.5652C71.4073 51.8477 71.0656 52.0064 70.7093 52.0064H70.7183Z" fill="white"/>
</g>
<defs>
<clipPath id="clip0_1669_746">
<rect width="57" height="69" fill="white" transform="translate(21 16)"/>
</clipPath>
</defs>
</svg>
