<svg width="140" height="44" viewBox="0 0 140 44" fill="none" xmlns="http://www.w3.org/2000/svg">
<path d="M30.7238 19.2415L26.2146 16.6368L25.009 15.9409C24.7671 15.8013 24.4598 15.7916 24.2005 15.9409C23.9416 16.0902 23.7964 16.3619 23.7964 16.6408V22.6056C23.7964 23.3507 23.6693 24.0911 23.4237 24.791C23.2883 25.1743 23.1182 25.5453 22.914 25.8999C22.3369 26.8998 21.5038 27.7338 20.503 28.3112L10.0938 34.3229C10.3041 34.6875 10.4033 35.085 10.4033 35.4781V41.2772C10.4033 41.73 10.6467 42.1515 11.0377 42.3778C11.2349 42.4911 11.4481 42.5483 11.6717 42.5483C11.8957 42.5483 12.1162 42.4896 12.309 42.3778L28.5859 32.9786C29.5859 32.4011 30.4187 31.5673 30.9953 30.5672C31.5725 29.5667 31.8783 28.4281 31.8783 27.2729V22.3143V21.2415C31.8783 20.8489 31.7795 20.451 31.569 20.0869C31.3593 19.7222 31.0639 19.4376 30.7238 19.2415Z" fill="white"/>
<path d="M9.01671 41.2761V36.2772C9.01671 35.8845 8.91747 35.4867 8.70679 35.122C8.49646 34.7573 8.20108 34.4727 7.86136 34.2766L2.14601 30.976C1.90482 30.8367 1.59687 30.8265 1.33773 30.976C1.07913 31.1257 0.933594 31.3975 0.933594 31.6762V36.6079C0.933594 37.5255 1.41059 38.4172 2.26158 38.9094L10.3434 43.5766C9.49299 43.0858 9.01671 42.1944 9.01671 41.2761Z" fill="white"/>
<path d="M31.241 7.04793C31.045 6.93469 30.8313 6.87744 30.6071 6.87744C30.3841 6.87744 30.1624 6.93612 29.9699 7.04793L23.7949 10.6145L30.6649 14.5817C30.9063 14.7213 31.214 14.7316 31.4726 14.5817C31.7318 14.4324 31.8768 14.1607 31.8768 13.8818V8.15033C31.8768 7.69738 31.6334 7.2744 31.241 7.04793Z" fill="white"/>
<path d="M2.14601 26.3556L7.80358 29.6224C8.04495 29.762 8.35272 29.7723 8.61186 29.6224C8.87099 29.4731 9.01653 29.2014 9.01653 28.9225V22.157C9.01653 20.801 9.3575 19.4278 10.0845 18.17C10.8104 16.9123 11.8286 15.9282 13.0016 15.2515L29.2769 5.85221C29.681 5.6191 30.1403 5.49527 30.6069 5.49527C31.0582 5.49527 31.5146 5.61084 31.9336 5.85221L23.8517 1.18363C23.4336 0.94226 22.9763 0.828125 22.5255 0.828125C22.0582 0.828125 21.5988 0.950515 21.1947 1.18363L4.9197 10.5843C3.74677 11.2611 2.72799 12.2452 2.00208 13.5028C1.27564 14.7605 0.933594 16.1339 0.933594 17.4898V24.2548C0.933594 24.6671 1.03768 25.0852 1.25877 25.4678C1.47986 25.8504 1.78943 26.1494 2.14601 26.3556Z" fill="white"/>
<path d="M50.8881 6.86719H68.7681V10.9472H55.4881V19.0672H66.4481V23.0272H55.4881V34.8672H50.8881V6.86719ZM80.05 35.1072C73.81 35.1072 69.61 30.9072 69.61 24.6272C69.61 18.3872 73.81 14.1472 80.05 14.1472C86.29 14.1472 90.49 18.3872 90.49 24.6272C90.49 30.9072 86.29 35.1072 80.05 35.1072ZM80.05 31.4272C83.69 31.4272 86.09 28.5872 86.09 24.6272C86.09 20.6672 83.69 17.8272 80.05 17.8272C76.41 17.8272 74.05 20.6672 74.05 24.6272C74.05 28.5872 76.41 31.4272 80.05 31.4272ZM103.644 35.1072C97.4038 35.1072 93.2038 30.9072 93.2038 24.6272C93.2038 18.3872 97.4038 14.1472 103.644 14.1472C109.884 14.1472 114.084 18.3872 114.084 24.6272C114.084 30.9072 109.884 35.1072 103.644 35.1072ZM103.644 31.4272C107.284 31.4272 109.684 28.5872 109.684 24.6272C109.684 20.6672 107.284 17.8272 103.644 17.8272C100.004 17.8272 97.6438 20.6672 97.6438 24.6272C97.6438 28.5872 100.004 31.4272 103.644 31.4272ZM133.118 6.86719H137.438V34.8672H133.678L133.158 31.7872C131.838 33.5872 129.718 35.1072 126.478 35.1072C120.918 35.1072 116.798 31.1872 116.798 24.6272C116.798 18.3072 120.918 14.1472 126.478 14.1472C129.598 14.1472 131.798 15.4272 133.118 17.2272V6.86719ZM127.197 31.4672C130.798 31.4672 133.158 28.6672 133.158 24.7072C133.158 20.6272 130.798 17.8272 127.197 17.8272C123.598 17.8272 121.238 20.6272 121.238 24.6272C121.238 28.6672 123.598 31.4672 127.197 31.4672Z" fill="white"/>
</svg>
