<svg width="64" height="64" viewBox="0 0 64 64" fill="none" xmlns="http://www.w3.org/2000/svg">
<path d="M38.6202 23.2384C38.6202 20.4784 36.4002 18.3184 33.7002 18.3184C33.1002 18.3184 32.5602 18.4384 32.0202 18.6184C31.8402 16.5784 30.1602 14.8984 28.0602 14.8984C25.8402 14.8984 24.0402 16.6984 24.0402 18.9184C24.0402 19.3984 24.1602 19.8784 24.2802 20.2984C24.1002 20.2384 23.8602 20.2384 23.6802 20.2384C21.4602 20.2384 19.6602 22.0384 19.6602 24.2584C19.6602 26.4184 21.4002 28.2184 23.5602 28.2784H33.8802C36.5202 27.9784 38.6202 25.8784 38.6202 23.2384Z" fill="white" stroke="white" stroke-width="0.72" stroke-linejoin="round"/>
<path d="M47.7001 34.4C47.7001 29.8 44.0001 26.2 39.5001 26.2C38.5001 26.2 37.6001 26.4 36.7001 26.7C36.4001 23.3 33.6001 20.5 30.1001 20.5C26.4001 20.5 23.4001 23.5 23.4001 27.2C23.4001 28 23.6001 28.8 23.8001 29.5C23.5001 29.4 23.1001 29.4 22.8001 29.4C19.1001 29.4 16.1001 32.4 16.1001 36.1C16.1001 39.7 19.0001 42.7 22.6001 42.8H39.8001C44.2001 42.3 47.7001 38.8 47.7001 34.4Z" fill="white" stroke="white" stroke-width="1.2" stroke-linejoin="round"/>
</svg>
