<svg width="18" height="20" viewBox="0 0 18 20" fill="none" xmlns="http://www.w3.org/2000/svg">
<path d="M1.00098 19.998C0.717643 19.998 0.48031 19.902 0.288977 19.71C0.0976433 19.518 0.00164323 19.2807 0.000976562 18.998V14.998C0.000976562 14.448 0.196977 13.9774 0.588977 13.586C0.980977 13.1947 1.45164 12.9987 2.00098 12.998H16.001C16.551 12.998 17.022 13.194 17.414 13.586C17.806 13.978 18.0016 14.4487 18.001 14.998V18.998C18.001 19.2814 17.905 19.519 17.713 19.711C17.521 19.903 17.2836 19.9987 17.001 19.998H1.00098ZM2.00098 10.998V7.99805C2.00098 7.44805 2.19698 6.97738 2.58898 6.58605C2.98098 6.19471 3.45164 5.99871 4.00098 5.99805H8.00098V4.54805C7.70098 4.34805 7.45931 4.10638 7.27598 3.82305C7.09264 3.53971 7.00098 3.19805 7.00098 2.79805C7.00098 2.54805 7.05098 2.30205 7.15098 2.06005C7.25098 1.81805 7.40098 1.59738 7.60098 1.39805L9.00098 -0.00195312L10.401 1.39805C10.601 1.59805 10.751 1.81871 10.851 2.06005C10.951 2.30138 11.001 2.54738 11.001 2.79805C11.001 3.19805 10.9093 3.53971 10.726 3.82305C10.5426 4.10638 10.301 4.34805 10.001 4.54805V5.99805H14.001C14.551 5.99805 15.022 6.19371 15.414 6.58505C15.806 6.97638 16.0016 7.44738 16.001 7.99805V10.998H2.00098Z" fill="white"/>
</svg>
