<svg version="1.1" id="Layer_1" xmlns="http://www.w3.org/2000/svg" xmlns:xlink="http://www.w3.org/1999/xlink" x="0px" y="0px"
	 width="100%" viewBox="0 0 414 414" enable-background="new 0 0 414 414" xml:space="preserve">
<path fill="#FBFCFD" opacity="1.000000" stroke="none" 
	d="
M415.000000,162.000000 
	C415.000000,246.666656 415.000000,330.833313 415.000000,415.000000 
	C277.000031,415.000000 139.000046,415.000000 1.000060,415.000000 
	C1.000040,277.000031 1.000040,139.000092 1.000020,1.000097 
	C138.999939,1.000064 276.999878,1.000064 414.999908,1.000032 
	C415.000000,54.500000 415.000000,108.000000 415.000000,162.000000 
M310.979218,401.722504 
	C340.974396,371.789215 370.971039,341.857422 400.951050,311.908936 
	C401.397919,311.462494 401.638397,310.809387 402.414215,309.522797 
	C402.472351,308.694092 402.581268,307.865387 402.581360,307.036682 
	C402.589630,241.250717 402.591797,175.464752 402.572052,109.678787 
	C402.571655,108.367096 402.307434,107.055489 402.323303,104.852257 
	C402.351532,84.391090 402.610352,63.926796 402.333099,43.469765 
	C402.121582,27.859501 390.358856,14.486253 375.332397,14.003833 
	C353.575043,13.305320 331.776367,13.893462 309.076141,13.729058 
	C220.811417,13.715258 132.546692,13.693347 44.281971,13.727013 
	C41.647404,13.728017 38.931656,14.003847 36.392067,14.674929 
	C21.959574,18.488678 13.685576,30.127901 13.683276,46.480564 
	C13.671145,132.747177 13.675676,219.013779 13.686460,305.280396 
	C13.686667,306.939331 13.834223,308.598236 13.690255,311.122589 
	C13.659435,331.412994 13.443274,351.705322 13.654375,371.993225 
	C13.834678,389.321259 26.702019,401.999420 44.092899,402.428741 
	C50.243355,402.580597 56.400715,402.493835 62.554585,402.457947 
	C77.008102,402.373657 91.461411,402.254333 106.808670,402.461273 
	C107.473160,402.495270 108.137657,402.558960 108.802147,402.559021 
	C174.547028,402.564728 240.291916,402.569611 306.036804,402.541321 
	C307.494629,402.540680 308.952271,402.159149 310.979218,401.722504 
z"/>
<path fill="#4385F4" opacity="1.000000" stroke="none" 
	d="
M13.913031,310.257172 
	C13.834223,308.598236 13.686667,306.939331 13.686460,305.280396 
	C13.675676,219.013779 13.671145,132.747177 13.683276,46.480564 
	C13.685576,30.127901 21.959574,18.488678 36.392067,14.674929 
	C38.931656,14.003847 41.647404,13.728017 44.281971,13.727013 
	C132.546692,13.693347 220.811417,13.715258 309.548218,14.304798 
	C310.023712,43.155083 310.018982,71.429634 310.048218,99.704155 
	C310.050262,101.683617 310.303528,103.662827 310.415527,105.785095 
	C310.391083,105.928047 310.132416,106.059227 309.662048,105.956329 
	C241.482407,105.853424 173.773087,105.853424 105.793907,105.853424 
	C105.793907,108.652031 105.793907,110.640564 105.793907,112.629089 
	C105.793907,175.100784 105.791328,237.572464 105.801094,300.044159 
	C105.801613,303.372589 105.906395,306.700989 105.888855,310.190674 
	C105.815071,310.351959 105.718857,310.693329 105.300682,310.532410 
	C74.559349,310.333405 44.236191,310.295288 13.913031,310.257172 
z"/>
<path fill="#FBBD06" opacity="1.000000" stroke="none" 
	d="
M402.166321,105.743843 
	C402.307434,107.055489 402.571655,108.367096 402.572052,109.678787 
	C402.591797,175.464752 402.589630,241.250717 402.581360,307.036682 
	C402.581268,307.865387 402.472351,308.694092 401.729431,309.847168 
	C370.819031,310.230835 340.593384,310.290131 310.257690,310.296936 
	C310.147644,310.244446 310.011688,310.042084 310.123779,309.581787 
	C310.253296,250.412140 310.277679,191.702805 310.280884,132.993454 
	C310.281372,124.015381 310.184326,115.037300 310.132385,106.059227 
	C310.132416,106.059227 310.391083,105.928047 310.835480,105.847069 
	C341.575348,105.758675 371.870850,105.751259 402.166321,105.743843 
z"/>
<path fill="#36A955" opacity="1.000000" stroke="none" 
	d="
M310.410004,401.955292 
	C308.952271,402.159149 307.494629,402.540680 306.036804,402.541321 
	C240.291916,402.569611 174.547028,402.564728 108.802147,402.559021 
	C108.137657,402.558960 107.473160,402.495270 106.380638,401.894684 
	C105.961662,388.210907 106.008095,375.093628 105.970490,361.976593 
	C105.921478,344.882050 105.805832,327.787750 105.718857,310.693329 
	C105.718857,310.693329 105.815071,310.351959 106.350182,310.296753 
	C173.603241,310.256744 240.321198,310.272980 307.039154,310.276825 
	C308.029999,310.276886 309.020844,310.123718 310.011688,310.042053 
	C310.011688,310.042084 310.147644,310.244446 310.201965,310.729736 
	C310.307495,341.461792 310.358734,371.708527 310.410004,401.955292 
z"/>
<path fill="#188038" opacity="1.000000" stroke="none" 
	d="
M105.300682,310.532410 
	C105.805832,327.787750 105.921478,344.882050 105.970490,361.976593 
	C106.008095,375.093628 105.961662,388.210907 105.933708,401.738647 
	C91.461411,402.254333 77.008102,402.373657 62.554585,402.457947 
	C56.400715,402.493835 50.243355,402.580597 44.092899,402.428741 
	C26.702019,401.999420 13.834678,389.321259 13.654375,371.993225 
	C13.443274,351.705322 13.659435,331.412994 13.801643,310.689880 
	C44.236191,310.295288 74.559349,310.333405 105.300682,310.532410 
z"/>
<path fill="#1B68D2" opacity="1.000000" stroke="none" 
	d="
M402.244812,105.298050 
	C371.870850,105.751259 341.575348,105.758675 310.859924,105.704117 
	C310.303528,103.662827 310.050262,101.683617 310.048218,99.704155 
	C310.018982,71.429634 310.023712,43.155083 310.007812,14.406641 
	C331.776367,13.893462 353.575043,13.305320 375.332397,14.003833 
	C390.358856,14.486253 402.121582,27.859501 402.333099,43.469765 
	C402.610352,63.926796 402.351532,84.391090 402.244812,105.298050 
z"/>
<path fill="#E94535" opacity="1.000000" stroke="none" 
	d="
M310.694611,401.838898 
	C310.358734,371.708527 310.307495,341.461792 310.312012,310.782227 
	C340.593384,310.290131 370.819031,310.230835 401.509949,310.212158 
	C401.638397,310.809387 401.397919,311.462494 400.951050,311.908936 
	C370.971039,341.857422 340.974396,371.789215 310.694611,401.838898 
z"/>
<path fill="#FEFEFF" opacity="1.000000" stroke="none" 
	d="
M310.123779,309.581787 
	C309.020844,310.123718 308.029999,310.276886 307.039154,310.276825 
	C240.321198,310.272980 173.603241,310.256744 106.423965,310.135498 
	C105.906395,306.700989 105.801613,303.372589 105.801094,300.044159 
	C105.791328,237.572464 105.793907,175.100784 105.793907,112.629089 
	C105.793907,110.640564 105.793907,108.652031 105.793907,105.853424 
	C173.773087,105.853424 241.482407,105.853424 309.662048,105.956329 
	C310.184326,115.037300 310.281372,124.015381 310.280884,132.993454 
	C310.277679,191.702805 310.253296,250.412140 310.123779,309.581787 
M145.560852,262.983063 
	C161.458282,274.467163 181.984726,275.166016 197.604202,265.251160 
	C218.066422,252.262222 220.162659,219.732361 195.658020,207.861618 
	C195.003189,207.544403 194.475433,206.964813 193.622101,206.300140 
	C194.625168,205.552673 195.265106,205.058502 195.922363,204.588531 
	C214.623062,191.217133 213.600677,165.348312 193.909088,153.396194 
	C184.606583,147.749893 174.412918,146.826233 163.978775,148.194504 
	C150.651169,149.942215 137.849106,161.034897 135.145203,172.920181 
	C140.703644,175.226868 146.318832,177.557114 152.031738,179.927902 
	C152.753433,178.521317 153.257126,177.486694 153.806595,176.476959 
	C159.270645,166.435898 169.741608,162.800217 180.268509,167.281219 
	C187.482758,170.352127 191.013153,177.089493 189.406067,184.719269 
	C187.826248,192.219666 181.496445,197.481705 172.826172,198.123886 
	C168.767319,198.424515 164.667740,198.175354 160.569672,198.175354 
	C160.569672,204.669678 160.569672,210.105072 160.569672,216.048401 
	C164.133072,216.048401 167.477921,215.666199 170.696075,216.141571 
	C175.082657,216.789520 179.659058,217.457642 183.639267,219.256317 
	C190.188690,222.216064 193.854752,227.737259 193.791809,235.140686 
	C193.729111,242.513382 189.907654,247.705978 183.556824,251.100784 
	C171.401367,257.598389 157.083527,252.475494 151.392136,239.647110 
	C150.685669,238.054703 150.049271,236.431213 149.271698,234.560669 
	C143.199661,237.091125 137.589890,239.428925 131.880127,241.808380 
	C134.311859,250.386307 138.521988,257.179504 145.560852,262.983063 
M275.959534,244.500000 
	C275.959534,213.270630 275.959534,182.041260 275.959534,150.029465 
	C270.758423,150.401276 265.218719,149.182205 261.803833,151.334488 
	C250.050095,158.742462 239.039093,167.328888 227.500336,175.642700 
	C230.873886,180.770981 233.954666,185.454224 237.221664,190.420532 
	C243.691193,185.799805 249.813095,181.427353 256.808167,176.431244 
	C256.808167,208.076447 256.808167,238.585815 256.808167,269.231781 
	C263.424377,269.231781 269.501953,269.231781 275.959534,269.231781 
	C275.959534,261.099243 275.959534,253.299606 275.959534,244.500000 
z"/>
<path fill="#1E75E8" opacity="1.000000" stroke="none" 
	d="
M145.281738,262.760498 
	C138.521988,257.179504 134.311859,250.386307 131.880127,241.808380 
	C137.589890,239.428925 143.199661,237.091125 149.271698,234.560669 
	C150.049271,236.431213 150.685669,238.054703 151.392136,239.647110 
	C157.083527,252.475494 171.401367,257.598389 183.556824,251.100784 
	C189.907654,247.705978 193.729111,242.513382 193.791809,235.140686 
	C193.854752,227.737259 190.188690,222.216064 183.639267,219.256317 
	C179.659058,217.457642 175.082657,216.789520 170.696075,216.141571 
	C167.477921,215.666199 164.133072,216.048401 160.569672,216.048401 
	C160.569672,210.105072 160.569672,204.669678 160.569672,198.175354 
	C164.667740,198.175354 168.767319,198.424515 172.826172,198.123886 
	C181.496445,197.481705 187.826248,192.219666 189.406067,184.719269 
	C191.013153,177.089493 187.482758,170.352127 180.268509,167.281219 
	C169.741608,162.800217 159.270645,166.435898 153.806595,176.476959 
	C153.257126,177.486694 152.753433,178.521317 152.031738,179.927902 
	C146.318832,177.557114 140.703644,175.226868 135.145203,172.920181 
	C137.849106,161.034897 150.651169,149.942215 163.978775,148.194504 
	C174.412918,146.826233 184.606583,147.749893 193.909088,153.396194 
	C213.600677,165.348312 214.623062,191.217133 195.922363,204.588531 
	C195.265106,205.058502 194.625168,205.552673 193.622101,206.300140 
	C194.475433,206.964813 195.003189,207.544403 195.658020,207.861618 
	C220.162659,219.732361 218.066422,252.262222 197.604202,265.251160 
	C181.984726,275.166016 161.458282,274.467163 145.281738,262.760498 
z"/>
<path fill="#1D74E8" opacity="1.000000" stroke="none" 
	d="
M275.959534,244.999985 
	C275.959534,253.299606 275.959534,261.099243 275.959534,269.231781 
	C269.501953,269.231781 263.424377,269.231781 256.808167,269.231781 
	C256.808167,238.585815 256.808167,208.076447 256.808167,176.431244 
	C249.813095,181.427353 243.691193,185.799805 237.221664,190.420532 
	C233.954666,185.454224 230.873886,180.770981 227.500336,175.642700 
	C239.039093,167.328888 250.050095,158.742462 261.803833,151.334488 
	C265.218719,149.182205 270.758423,150.401276 275.959534,150.029465 
	C275.959534,182.041260 275.959534,213.270630 275.959534,244.999985 
z"/>
</svg>