<svg width="414" height="414" viewBox="0 0 414 414" fill="none" xmlns="http://www.w3.org/2000/svg">
<g clip-path="url(#clip0_5777_57326)">
<mask id="mask0_5777_57326" style="mask-type:luminance" maskUnits="userSpaceOnUse" x="0" y="0" width="414" height="414">
<path d="M398 0H16C7.16344 0 0 7.16344 0 16V398C0 406.837 7.16344 414 16 414H398C406.837 414 414 406.837 414 398V16C414 7.16344 406.837 0 398 0Z" fill="white"/>
</mask>
<g mask="url(#mask0_5777_57326)">
<path d="M374 0H40C17.9086 0 0 17.9086 0 40V374C0 396.091 17.9086 414 40 414H374C396.091 414 414 396.091 414 374V40C414 17.9086 396.091 0 374 0Z" fill="white"/>
</g>
<path d="M168.199 243.284C163.281 239.962 159.876 235.11 158.018 228.695L169.432 223.991C170.468 227.939 172.277 230.998 174.86 233.169C177.426 235.34 180.551 236.409 184.202 236.409C187.936 236.409 191.143 235.275 193.824 233.005C196.505 230.735 197.854 227.84 197.854 224.337C197.854 220.751 196.439 217.823 193.61 215.554C190.781 213.284 187.229 212.149 182.985 212.149H176.39V200.85H182.311C185.962 200.85 189.038 199.863 191.538 197.889C194.038 195.916 195.288 193.218 195.288 189.781C195.288 186.722 194.169 184.287 191.932 182.462C189.695 180.636 186.866 179.715 183.429 179.715C180.073 179.715 177.409 180.604 175.435 182.397C173.461 184.189 172.03 186.393 171.126 188.992L159.827 184.288C161.323 180.044 164.07 176.294 168.1 173.054C172.129 169.814 177.277 168.186 183.527 168.186C188.149 168.186 192.31 169.074 195.995 170.867C199.679 172.66 202.574 175.143 204.663 178.301C206.752 181.475 207.788 185.028 207.788 188.975C207.788 193.005 206.817 196.409 204.877 199.206C202.936 202.002 200.551 204.14 197.722 205.637V206.311C201.455 207.874 204.498 210.258 206.9 213.466C209.284 216.673 210.485 220.505 210.485 224.979C210.485 229.453 209.35 233.449 207.08 236.953C204.811 240.456 201.669 243.219 197.689 245.226C193.692 247.232 189.202 248.252 184.218 248.252C178.445 248.268 173.117 246.607 168.199 243.284Z" fill="#0085F7"/>
<path d="M238.315 186.638L225.782 195.7L219.516 186.193L241.999 169.977H250.618V246.473H238.315V186.638Z" fill="#0085F7"/>
<path d="M272.787 272.789H141.208L122.373 300.542L141.208 332H272.787L288.348 298.53L272.787 272.789Z" fill="#00A94B"/>
<path d="M272.79 82H101.737C90.8321 82 82 90.8321 82 101.737V272.79L111.606 293.836L141.211 272.79V141.211H272.79L293.045 111.605L272.79 82Z" fill="#0085F7"/>
<path d="M82 272.789V312.263C82 323.168 90.8321 332 101.737 332H141.211V272.789H82Z" fill="#00802E"/>
<path d="M332 141.21L302.394 122.16L272.789 141.21V272.789L299.415 286.687L332 272.789V141.21Z" fill="#FFBC00"/>
<path d="M332 141.211V101.737C332 90.8321 323.168 82 312.263 82H272.789V141.211H332Z" fill="#0067D5"/>
<path d="M272.789 332L332 272.789H272.789V332Z" fill="#FF4131"/>
</g>
<defs>
<clipPath id="clip0_5777_57326">
<rect width="414" height="414" fill="white"/>
</clipPath>
</defs>
</svg>
