<?xml version="1.0" encoding="UTF-8"?>
<svg id="Layer_2" data-name="Layer 2" xmlns="http://www.w3.org/2000/svg" viewBox="0 0 397.99 243.94">
  <defs>
    <style>
      .cls-1 {
        fill: #00cd00;
        stroke-width: 0px;
      }
    </style>
  </defs>
  <g id="Layer_1-2" data-name="Layer 1">
    <g>
      <g>
        <path class="cls-1" d="m69.71,5.16c1.21.24,2.44.5,3.68.77-1.22-.29-2.46-.53-3.68-.77ZM26.91,243.72c-.27.07-.48.13-.6.15.22.02.43.04.65.07-.02-.07-.03-.15-.05-.22Zm47.45-24.16s0,.06,0,.09t.02,0s-.01-.05-.02-.08Zm1.24,7.6c-.05.5-.17.92-.33,1.28.21-.45.35-.93.33-1.28Zm321.39-98.57s-.02-.06-.04-.1c.02.06.04.12.05.18,0-.02-.01-.05-.02-.08Zm-262.96,80.22c-1.47-11.96-2.95-23.93-4.44-35.9-.7-5.53-1.46-11.06-2.2-16.58-.04-.27-.08-.53-.13-.76-.03-.17-.07-.32-.12-.46-.05-.15-.1-.29-.16-.41-.06-.13-.12-.25-.19-.37-.07-.09-.13-.18-.21-.26-.03-.04-.07-.07-.11-.11-.03-.04-.07-.06-.12-.09-.5-.35-1.24-.39-2.36,0-.51.18-1.02.35-1.54.5-.51.16-1.04.3-1.56.44-1.05.27-2.1.53-3.15.81-13.54,3.75-27.08,7.51-40.63,11.25-1.5.42-2.26,1.26-1.94,2.91.32,1.72.53,3.46.85,5.18,1.94,10.96,3.89,21.93,5.84,32.9.92,5.22,1.87,10.43,2.74,15.67.03.19.07.35.11.52.08.33.18.63.31.88.05.1.09.19.17.28.06.12.15.24.25.33.03.04.06.06.1.09.08.08.17.15.26.19.07.05.15.09.22.12.04.02.07.03.1.05.11.04.21.06.32.08h0c.2.03.41.04.65.01.02,0,.04,0,.07,0,.26-.02.53-.08.84-.17.83-.25,1.66-.5,2.5-.76.84-.25,1.68-.5,2.51-.75,11.15-3.3,22.32-6.59,33.44-9.95,1.44-.43,2.88-.86,4.33-1.29.33-.1.66-.25.97-.42.01,0,0,0,0,0,.31-.17.61-.37.89-.58.57-.41,1.11-.85,1.59-1.15-.12-1.22-.15-1.73-.21-2.22Zm-15.25-71.62c.01-.15.03-.3.03-.45.02-.19.02-.38.02-.56,0-.21,0-.44-.02-.65-.02-.28-.03-.56-.07-.83h0c-.04-.28-.08-.55-.14-.81,0,0,0-.02,0-.03-.04-.21-.09-.42-.14-.63-.02-.08-.04-.17-.07-.24-.06-.23-.14-.47-.22-.69-.04-.13-.09-.26-.15-.39-.11-.27-.23-.54-.36-.81-.25-.49-.52-.96-.84-1.42-.11-.16-.21-.31-.33-.46-.23-.3-.46-.59-.72-.87-.19-.21-.39-.42-.6-.61-.12-.12-.25-.24-.38-.35-.1-.09-.2-.17-.29-.25-.15-.14-.3-.26-.47-.38-.12-.1-.24-.19-.37-.28-.13-.09-.26-.17-.38-.26-.17-.12-.36-.24-.54-.35-.16-.1-.3-.19-.46-.28-.23-.14-.47-.27-.73-.39-.5-.26-1.02-.49-1.57-.71-.16-.07-.32-.12-.49-.18-.23-.09-.47-.17-.71-.24-.21-.06-.42-.13-.63-.18-.21-.06-.43-.12-.64-.16-.21-.05-.44-.1-.66-.15-.24-.05-.48-.09-.73-.13-.31-.05-.62-.09-.93-.12-.43-.05-.87-.09-1.31-.11-.41-.02-.82-.02-1.23,0-.03,0-.06,0-.09,0-.13,0-.25,0-.39,0-1.77.05-3.57.32-5.32.77-.34.09-.68.19-1.02.29-.33.09-.65.19-.97.31-.28.09-.55.19-.82.29-.35.13-.7.27-1.04.42-.23.1-.45.19-.67.3-.17.07-.35.16-.53.25-.15.08-.32.16-.47.25-1.09.56-2.13,1.2-3.09,1.91-.41.31-.82.63-1.22.96-.27.23-.53.46-.78.71-.86.81-1.62,1.68-2.29,2.6-.14.21-.29.42-.42.63-.08.13-.17.27-.26.39-.01.02-.03.04-.03.05-.11.17-.19.33-.29.49-.1.17-.19.34-.27.51-.07.15-.15.3-.22.45-.23.47-.42.94-.6,1.4-.1.27-.19.53-.26.79-.08.26-.15.52-.21.79-.03.13-.05.25-.07.35-.07.31-.11.63-.15.93-.02.18-.04.35-.05.51-.02.17-.02.34-.03.51,0,.17,0,.33,0,.5,0,.35.03.67.06,1,.06.47.14.95.26,1.43,0,.04.02.09.04.14.03.13.06.24.1.37,0,.02.01.05.02.07.02.1.06.21.1.31,0,.03.02.05.04.09.06.15.11.31.18.46.06.15.12.3.19.46.07.15.14.31.23.46.07.13.14.28.23.41.32.56.7,1.1,1.13,1.61.08.09.16.2.24.29.28.33.6.64.92.94.09.08.19.17.28.26.21.2.43.37.65.55.24.2.5.38.76.57.25.18.52.35.79.5.48.28.98.52,1.46.74.18.08.36.16.54.24.56.24,1.11.45,1.61.64.13.04.24.09.35.14.47.18.89.32,1.23.48.39.04.77.07,1.15.1.32.02.63.05.94.06.76.05,1.5.07,2.23.06.23,0,.46,0,.68,0,.49-.01.98-.03,1.46-.06.48-.02.95-.07,1.43-.12.45-.05.9-.11,1.34-.18.47-.08.94-.16,1.4-.26.45-.1.9-.21,1.35-.34.31-.08.61-.18.91-.28.28-.09.56-.18.82-.28.37-.13.73-.29,1.09-.44.24-.1.48-.22.71-.33.28-.13.56-.27.84-.42.29-.15.56-.3.84-.47.27-.16.54-.33.8-.5.27-.18.53-.36.8-.55.5-.37,1-.75,1.48-1.16.26-.22.51-.45.76-.68.2-.16.38-.32.55-.5.66-.65,1.25-1.32,1.77-2.01.04-.07.09-.14.14-.21.12-.16.23-.33.34-.48.17-.23.32-.47.47-.71.14-.23.28-.46.41-.7.07-.14.16-.29.22-.43.18-.35.33-.7.47-1.05.27-.67.49-1.33.63-2.01.06-.26.11-.53.16-.8s.07-.52.09-.78Z"/>
        <path class="cls-1" d="m75.6,227.16c-.05.5-.17.92-.33,1.28.21-.45.35-.93.33-1.28Zm-1.24-7.6s0,.06,0,.09t.02,0s.02,0,.03-.02l-.05-.07Zm-47.45,24.16c-.27.07-.48.13-.6.15.22.02.43.04.65.07-.02-.07-.03-.15-.05-.22ZM69.71,5.16c1.21.24,2.44.5,3.68.77-1.22-.29-2.46-.53-3.68-.77Z"/>
        <path class="cls-1" d="m200.62,134.32c-.49.69-.3,1.89-.42,2.84,1-.2,2.3-.09,2.97-.68,9.85-8.59,19.58-17.27,29.4-25.88.65-.57,1.69-.7,2.55-1.03.21.88.71,1.81.61,2.65-2.92,22.72-5.88,45.44-8.86,68.16-.57,4.41-.91,4.63-5.15,5.85-18.38,5.28-36.74,10.64-55.11,15.96-8.14,2.36-16.29,4.73-24.45,7.05-3.14.89-3.48.66-3.79-2.53-1.32-13.16-2.62-26.33-3.87-39.5-.29-3.05.31-5.9,2.12-8.52,9.26-13.42,18.45-26.88,27.68-40.32,2.11-3.09,4.34-6.1,6.28-9.29.51-.85.21-2.19.28-3.32-1.01.28-2.31.25-2.98.88-7.05,6.69-14,13.5-21.01,20.24-2.51,2.42-5.09,4.79-7.75,7.05-.81.68-2,.91-3.02,1.34-.19-1.16-.71-2.37-.53-3.47,2.67-17.2,5.44-34.4,8.18-51.6l-.2-.03,8.19-51.34c.57-3.58.65-3.81,4.13-2.84,7.45,2.09,14.85,4.37,22.23,6.69,16.05,5.03,32.08,10.12,48.11,15.21,8.8,2.8,17.6,5.63,26.38,8.51,3.22,1.05,3.57,2.09,1.54,4.87-14.31,19.63-28.64,39.23-42.99,58.82-3.48,4.76-7.1,9.43-10.54,14.23Z"/>
        <path class="cls-1" d="m134.24,211.03c-.98.62-2.11,1.74-3.46,2.15-12.57,3.82-25.17,7.51-37.77,11.25-1.68.5-3.35,1.01-5.02,1.5-2.13.63-3.06-.33-3.4-2.38-.87-5.23-1.81-10.45-2.74-15.67-1.94-10.97-3.9-21.93-5.84-32.9-.3-1.72-.52-3.45-.84-5.17-.31-1.65.45-2.5,1.95-2.92,13.54-3.75,27.08-7.5,40.63-11.25,2.08-.58,4.22-1.02,6.24-1.76,2.5-.91,3.14.45,3.41,2.45.74,5.53,1.5,11.05,2.19,16.58,1.5,11.97,2.97,23.93,4.44,35.9.06.5.1.99.21,2.22Z"/>
        <path class="cls-1" d="m92.52,152.74c-1.37-.61-3.92-1.32-5.99-2.75-6.22-4.3-7.14-11.33-2.58-17.71,5.1-7.14,16.42-10.89,24.81-8.23,10.84,3.44,13.42,14.3,5.3,22.3-5.71,5.63-12.66,7.29-21.55,6.38Z"/>
        <path class="cls-1" d="m74.4,219.62s-.02,0-.03.02t-.02,0s0-.06,0-.09l.05.07Z"/>
      </g>
      <path class="cls-1" d="m26.3,243.86c-2.71.56-3.8-1.68-5.72-8.48.2.57.39,1.15.6,1.72.47,1.33,1.37,2.5,2.08,3.73.41.73.26,1.98.81,2.54.42.44,1.31.42,2.23.49Z"/>
      <path class="cls-1" d="m74.35,219.65s0-.06,0-.09l.05.07s-.02,0-.03.02t-.02,0Z"/>
      <path class="cls-1" d="m74.25,229.75c-1.18.91-2.66.88-2.66.88.78-.24,1.55-.47,2.32-.71.11-.03.23-.1.34-.17Z"/>
      <path class="cls-1" d="m139.04,66.58c1.29-20.92-10.89-41.22-30.11-49.61-4.88-2.12-9.98-3.76-15.13-5.28,0-.01-.02-.01-.03-.01-5.46-2.14-13.15-4.16-20.38-5.74-1.24-.27-2.48-.53-3.68-.77C52.24,1.85,34.68-.4,16.84.06c-6.88.18-6.85.07-8.25,6.93C4.24,28.23,1.83,49.7.67,71.36c-1.06,19.98-.83,39.95.46,59.89,1.33,20.53,3.93,40.9,7.98,61.08,2.93,14.59,6.65,28.97,11.47,43.05.2.57.39,1.15.6,1.72.47,1.33,1.37,2.5,2.08,3.73.41.73.26,1.98.81,2.54.42.44,1.31.42,2.23.49h0c.12-.02.33-.08.6-.15,3.94-1.03,22.8-6.6,34.73-10.14.69-.2,1.36-.4,2.01-.59.42-.12.83-.25,1.23-.36.01,0,.02,0,.03-.02.5-.14.98-.29,1.43-.42.86-.26,1.64-.49,2.31-.69.22-.07.44-.13.64-.19.32-.1.62-.19.88-.26.22-.06.43-.12.65-.2,0,0,.02,0,.03-.02.19-.04.34-.09.46-.13.13-.03.2-.06.24-.07.02,0,.03,0,.03,0,.78-.24,1.55-.47,2.32-.71.11-.03.23-.1.34-.17.12-.09.22-.19.33-.3.13-.14.26-.29.38-.47.09-.15.19-.31.28-.47.01-.03.02-.05.03-.07.16-.37.28-.79.33-1.28.37-3.54-.33-3.45-3.57-29.17-.02-.15-.04-.31-.07-.47,0-.08-.03-.16-.03-.24-1.11-8.94-2.23-17.86-3.36-26.78-1.67-13.21-3.36-26.41-4.96-39.63-.07-.6.65-1.76,1.17-1.88,13.71-3.09,26.6-8.47,39.42-14.03,21.22-9.2,33.41-25.09,34.85-48.4Zm-64.63,153.05s-.02,0-.03.02t-.02,0s0-.06,0-.09l.05.07Zm4.52-141.14c-5.17,3.93-11,5.28-17.23,4.38-5.57-.96-10.15-3.26-13.07-8.07-2.96-4.92-2.31-10.95,1.45-15.29,7.18-8.29,21.2-9.51,29.64-2.56,6.99,5.75,6.62,15.92-.79,21.54Z"/>
      <path class="cls-1" d="m293.44,123.14c-.93,1-3.17,1.97-1.51,3.8,1.43,1.58,2.76-.21,3.89-.9,5.66-3.49,11.22-7.14,16.87-10.67.81-.5,1.89-.59,2.83-.87.06.93.34,1.93.15,2.81-2.75,12.36-5.92,24.63-8.21,37.08-1.01,5.52-3.5,7.73-8.71,9.22-19.98,5.74-39.8,12.03-59.68,18.14-4.73,1.44-4.97,1.3-4.52-3.65.92-10.29,2.15-20.56,2.75-30.86.31-5.4,2.54-9.37,6.23-13.03,8.09-8.02,16.05-16.18,23.98-24.37.74-.76,1.59-2.43,1.24-3.03-.97-1.69-2.3-.29-3.39.29-6.75,3.6-13.45,7.3-20.24,10.84-.95.49-2.27.27-3.42.38,0-1.09-.32-2.31.03-3.27,5.84-15.86,11.77-31.68,17.67-47.52.67-1.8,1.48-3.56,1.91-5.41.57-2.47,1.94-2.49,3.88-1.8,4.22,1.48,8.44,2.93,12.67,4.38l.66.23,21.96,7.44.15.04c.59.18,1.17.36,1.74.54.35.11.68.22,1.01.32.67.22,1.34.44,1.99.66,3.1,1.07,6.2,2.15,9.3,3.23l.66.23c.08.02.16.06.24.09,4.23,1.46,8.45,2.95,12.68,4.41,2.68.92,2.8,1.34.78,3.49-11.87,12.59-23.77,25.14-35.59,37.76Z"/>
      <path class="cls-1" d="m315.57,77.48h0c-.08-.02-.16-.06-.24-.08l.24.08Z"/>
      <path class="cls-1" d="m397.89,132.03c-.16-.65-.32-1.3-.5-1.94-.12-.45-.24-.91-.38-1.37,0,0,0-.02-.01-.04-.01-.06-.03-.12-.05-.18,0-.04-.02-.08-.04-.13-.1-.35-.2-.7-.31-1.05-.41-1.36-.85-2.72-1.32-4.06h0s-.01-.06-.04-.1c-.02-.07-.05-.15-.09-.23h0c-1.46-3.81-3.56-7.79-6.62-11.62-.16-.33-.39-.64-.71-.99-.08-.1-.19-.2-.29-.32-.09-.11-.21-.23-.33-.35-.43-.43-.84-.87-1.27-1.32-.03-.02-.04-.05-.07-.07-.08-.08-.17-.17-.24-.25-.49-.51-1-1.04-1.49-1.55-1.03-1.09-2.08-2.15-3.15-3.2-.55-.54-1.1-1.09-1.67-1.61-.18-.17-.36-.34-.55-.51-.91-.84-1.83-1.65-2.79-2.42-7.53-6.08-15.9-10.71-25.74-11.75-6.68-.71-12.67,1.13-16.85,6.63-2.38,3.13-4.64,6.58-6.02,10.25-5.37,14.34-9.89,28.97-13.05,43.98-.68,3.26-1.27,6.54-1.65,9.85-.08.72.96,2.26,1.36,2.22,2.2-.22,4.43-.62,6.54-1.31,6.79-2.2,13.52-4.61,20.32-6.82,1.76-.57,2.4-1.54,2.23-3.3-.28-2.65-.42-5.31-.74-7.95-.18-1.64.39-2.47,2-2.82,1.7-.37,3.37-.92,5.04-1.39,5.58-1.55,11.17-3.1,17.06-4.73.79,2.75,1.51,5.28,2.24,7.82.37,1.26.78,2.4,2.54,1.96,8.08-1.97,16.17-3.89,24.24-5.87,1.78-.43,2.87-1.65,2.43-3.48Zm-40.44-15.23c-2.3,1.49-4.82,2.19-7.16,1.63-4.35-.72-7.06-3.36-7.15-6.62-.09-3.06,2.49-6.01,6.09-6.95,2.85-.73,5.6-.53,8.14,1.07,4.26,2.67,4.32,8.13.07,10.87Z"/>
      <path class="cls-1" d="m395.28,123.24s0,0,0,0c-.02-.03-.02-.06-.04-.1.02.03.03.07.04.09Z"/>
      <path class="cls-1" d="m397,128.67c-.01-.06-.03-.12-.05-.18,0-.04-.02-.08-.04-.13-.1-.35-.2-.7-.31-1.05-.41-1.36-.85-2.72-1.32-4.06.71,1.83,1.25,3.62,1.7,5.33,0,.03.01.06.02.08Z"/>
    </g>
  </g>
</svg>