<svg width="100" height="100" viewBox="0 0 100 100" fill="none" xmlns="http://www.w3.org/2000/svg">
<rect opacity="0.0229128" x="0.5" y="0.5" width="99" height="99" stroke="#2B2B2B"/>
<path fill-rule="evenodd" clip-rule="evenodd" d="M74.9489 74.8611L64.0308 64.7974C63.3533 64.1736 63.3193 63.1175 63.958 62.4525C64.5967 61.7891 65.6753 61.7574 66.3544 62.3828L77.2726 72.4449C77.9501 73.0703 77.9824 74.1248 77.3437 74.7898C76.7066 75.4548 75.6281 75.4865 74.9489 74.8611Z" fill="#FFFFFE"/>
<path fill-rule="evenodd" clip-rule="evenodd" d="M33.2386 36.6656L22.3204 26.6035C21.6413 25.9781 21.6089 24.9236 22.2477 24.2586C22.8864 23.5936 23.9633 23.5619 24.6425 24.1873L35.5606 34.251C36.2398 34.8764 36.2721 35.9309 35.6334 36.5959C34.9946 37.2593 33.9161 37.291 33.2386 36.6656Z" fill="#FFFFFE"/>
<path fill-rule="evenodd" clip-rule="evenodd" d="M24.5095 74.7361L34.5302 63.8143C35.1528 63.1366 36.2297 63.0796 36.9234 63.6892C37.6171 64.2988 37.6737 65.3533 37.0512 66.0325L27.0305 76.9544C26.4079 77.632 25.331 77.689 24.6389 77.0794C23.9452 76.4699 23.887 75.4154 24.5095 74.7361Z" fill="#FFFFFE"/>
<path fill-rule="evenodd" clip-rule="evenodd" d="M62.541 33.0154L72.5616 22.0936C73.1842 21.4159 74.2611 21.3589 74.9548 21.9685C75.6469 22.5781 75.7051 23.6326 75.0826 24.3118L65.0619 35.2337C64.4393 35.9113 63.3624 35.9683 62.6687 35.3587C61.9766 34.7492 61.9184 33.6947 62.541 33.0154Z" fill="#FFFFFE"/>
<path fill-rule="evenodd" clip-rule="evenodd" d="M48.8277 84.9571L48.6563 70.2765C48.6466 69.3645 49.4002 68.6092 50.3316 68.5997C51.263 68.5886 52.0343 69.3265 52.0456 70.2385L52.217 84.9191C52.2267 85.8327 51.4732 86.5864 50.5418 86.5975C49.6104 86.6086 48.8391 85.8707 48.8277 84.9571Z" fill="#FFFFFE"/>
<path fill-rule="evenodd" clip-rule="evenodd" d="M47.9918 29.0427L47.8204 14.3621C47.8091 13.4485 48.5627 12.6948 49.4941 12.6837C50.4255 12.6726 51.1968 13.4105 51.2081 14.3241L51.3795 29.0047C51.3908 29.9167 50.6357 30.672 49.7043 30.6815C48.7729 30.6926 48.0015 29.9547 47.9918 29.0427Z" fill="#FFFFFE"/>
<path fill-rule="evenodd" clip-rule="evenodd" d="M13.969 47.959L28.9637 48.0065C29.8951 48.0097 30.6551 48.7586 30.6518 49.6706C30.6502 50.5826 29.8854 51.3267 28.9524 51.3236L13.9593 51.2777C13.0263 51.2745 12.2663 50.5256 12.2695 49.6136C12.2728 48.7 13.0376 47.9558 13.969 47.959Z" fill="#FFFFFE"/>
<path fill-rule="evenodd" clip-rule="evenodd" d="M71.0823 47.957L86.077 48.003C87.0084 48.0061 87.7684 48.755 87.7651 49.667C87.7619 50.5806 86.997 51.3248 86.0656 51.3216L71.071 51.2741C70.1396 51.271 69.3796 50.522 69.3828 49.61C69.3861 48.698 70.1509 47.9539 71.0823 47.957Z" fill="#FFFFFE"/>
<path fill-rule="evenodd" clip-rule="evenodd" d="M49.5984 34.2588C40.9376 34.2588 33.8906 41.159 33.8906 49.6393C33.8906 58.1212 40.9376 65.0214 49.5984 65.0214C58.2608 65.0214 65.3077 58.1212 65.3077 49.6393C65.3077 41.159 58.2608 34.2588 49.5984 34.2588ZM62.0979 49.6393C62.0979 56.3875 56.4901 61.8785 49.5984 61.8785C42.7066 61.8785 37.1004 56.3875 37.1004 49.6393C37.1004 42.8911 42.7066 37.4001 49.5984 37.4001C56.4901 37.4001 62.0979 42.8911 62.0979 49.6393Z" fill="#FFFFFE"/>
</svg>
