<svg width="100" height="100" viewBox="0 0 100 100" fill="none" xmlns="http://www.w3.org/2000/svg">
<rect opacity="0.0229128" x="-0.5" y="0.5" width="99" height="99" transform="matrix(-1 0 0 1 99 0)" stroke="#2B2B2B"/>
<path fill-rule="evenodd" clip-rule="evenodd" d="M50.9681 80.0265C60.7466 81.0306 69.0196 77.9459 75.8778 71.0882C77.5136 69.4523 78.946 67.6153 80.4404 65.8443C81.1001 65.0602 81.1446 64.4788 80.7408 63.8675C80.3402 63.2641 79.6709 63.1211 78.7139 63.3568C71.9575 65.0162 65.2647 64.9046 58.9057 61.9488C48.6312 57.1716 42.8064 49.0253 41.3676 37.9373C40.5267 31.4489 42.1911 25.4115 45.5725 19.8203C45.679 19.6459 45.784 19.4715 45.8936 19.2986C46.2752 18.6952 46.2863 18.0902 45.8253 17.5355C45.3611 16.9792 44.7379 16.8802 44.0813 17.1285C34.2806 20.8261 26.6244 26.9436 23.0029 36.8939C18.461 49.3726 20.9792 60.6193 30.3396 70.1893C34.9355 74.8895 40.6141 77.8375 47.0494 79.3319C48.3403 79.6321 49.6613 79.7986 50.9681 80.0265ZM75.8826 66.9255C75.288 67.5729 74.7682 68.1653 74.2197 68.7295C70.4965 72.5685 66.1915 75.5118 60.8547 76.6071C51.7312 78.4786 43.3151 76.6353 35.7829 71.2831C24.9981 63.6208 21.4164 50.9063 25.2588 38.9493C27.8707 30.8251 33.4936 25.2701 41.0847 21.5112C41.1498 21.4798 41.2325 21.4813 41.3009 21.4688C36.511 33.0926 37.3408 44.2042 44.9175 54.2943C52.542 64.4489 63.1567 68.2502 75.8826 66.9255Z" fill="#FFFFFE"/>
</svg>
