<svg width="24" height="24" viewBox="0 0 24 24" fill="none" xmlns="http://www.w3.org/2000/svg">
<g clip-path="url(#clip0_1406_2274)">
<path fill-rule="evenodd" clip-rule="evenodd" d="M12 2C9.87827 2 7.84344 2.84285 6.34315 4.34315C4.84285 5.84344 4 7.87827 4 10C4 13.0981 6.01574 16.1042 8.22595 18.4373C9.31061 19.5822 10.3987 20.5195 11.2167 21.1708C11.5211 21.4133 11.787 21.6152 12 21.7726C12.213 21.6152 12.4789 21.4133 12.7833 21.1708C13.6013 20.5195 14.6894 19.5822 15.774 18.4373C17.9843 16.1042 20 13.0981 20 10C20 7.87827 19.1571 5.84344 17.6569 4.34315C16.1566 2.84285 14.1217 2 12 2ZM12 23C11.4453 23.8321 11.445 23.8319 11.4448 23.8317L11.444 23.8312L11.4419 23.8298L11.4352 23.8253L11.4123 23.8098C11.3928 23.7966 11.3651 23.7776 11.3296 23.753C11.2585 23.7038 11.1565 23.6321 11.0278 23.5392C10.7705 23.3534 10.4064 23.0822 9.97082 22.7354C9.10133 22.043 7.93939 21.0428 6.77405 19.8127C4.48426 17.3958 2 13.9019 2 10C2 7.34784 3.05357 4.8043 4.92893 2.92893C6.8043 1.05357 9.34784 0 12 0C14.6522 0 17.1957 1.05357 19.0711 2.92893C20.9464 4.8043 22 7.34784 22 10C22 13.9019 19.5157 17.3958 17.226 19.8127C16.0606 21.0428 14.8987 22.043 14.0292 22.7354C13.5936 23.0822 13.2295 23.3534 12.9722 23.5392C12.8435 23.6321 12.7415 23.7038 12.6704 23.753C12.6349 23.7776 12.6072 23.7966 12.5877 23.8098L12.5648 23.8253L12.5581 23.8298L12.556 23.8312L12.5552 23.8317C12.555 23.8319 12.5547 23.8321 12 23ZM12 23L12.5547 23.8321C12.2188 24.056 11.7812 24.056 11.4453 23.8321L12 23Z" fill="white"/>
<path d="M12 13C13.6569 13 15 11.6569 15 10C15 8.34315 13.6569 7 12 7C10.3431 7 9 8.34315 9 10C9 11.6569 10.3431 13 12 13Z" stroke="white" stroke-width="2" stroke-linecap="round" stroke-linejoin="round"/>
</g>
<defs>
<clipPath id="clip0_1406_2274">
<rect width="24" height="24" fill="white"/>
</clipPath>
</defs>
</svg>
