<svg width="100" height="100" viewBox="0 0 100 100" fill="none" xmlns="http://www.w3.org/2000/svg">
<rect opacity="0.0229128" x="0.5" y="0.5" width="99" height="99" stroke="#2B2B2B"/>
<g clip-path="url(#clip0_1665_846)">
<path fill-rule="evenodd" clip-rule="evenodd" d="M76.8271 54.1398C75.8803 54.1398 74.9351 54.2417 74.0111 54.4441C71.0555 47.5194 64.1611 42.8994 56.7009 42.8994C47.3911 42.8994 39.6501 49.5366 38.1086 58.7537C38.0874 58.7537 38.0661 58.7537 38.0434 58.7537C31.9562 58.7537 27.0039 63.7662 27.0039 69.9287C27.0039 76.0882 31.9562 81.0992 38.0434 81.0992H76.8271C84.169 81.0992 90.1424 75.0522 90.1424 67.6195C90.1424 60.1867 84.169 54.1398 76.8271 54.1398ZM87.4645 67.6195C87.4645 73.563 82.6927 78.399 76.8271 78.399H38.0434C33.4325 78.399 29.6818 74.5989 29.6818 69.9287C29.6818 65.2555 33.4325 61.4539 38.0434 61.4539C38.3514 61.4539 38.6882 61.4783 39.1024 61.53L40.4634 61.7004L40.5999 60.3252C41.4389 51.931 48.3621 45.6011 56.7009 45.6011C63.5224 45.6011 69.646 49.9838 71.9385 56.5099L72.3709 57.7421L73.6045 57.3451C74.6529 57.0104 75.7362 56.8415 76.8271 56.8415C82.6927 56.8415 87.4645 61.676 87.4645 67.6195Z" fill="white"/>
<path fill-rule="evenodd" clip-rule="evenodd" d="M22.2256 36.8875C22.7551 37.4838 23.6745 37.5386 24.2693 37.0092C24.8656 36.4783 24.9202 35.5564 24.3907 34.9601L15.8835 25.3535C15.3555 24.7572 14.4361 24.7024 13.8398 25.2333C13.245 25.7627 13.1904 26.6846 13.7184 27.2824L22.2256 36.8875Z" fill="white"/>
<path fill-rule="evenodd" clip-rule="evenodd" d="M21.2104 60.6442L11.8308 69.3944C11.2482 69.939 11.2148 70.8608 11.7565 71.4465C12.2997 72.0307 13.2206 72.0641 13.8033 71.5195L23.1828 62.7694C23.7655 62.2263 23.7988 61.3029 23.2572 60.7188C22.714 60.1346 21.793 60.1011 21.2104 60.6442Z" fill="white"/>
<path fill-rule="evenodd" clip-rule="evenodd" d="M58.8742 27.2744C58.331 26.6903 57.41 26.6568 56.8274 27.1999L47.4478 35.95C46.8652 36.4946 46.8318 37.4165 47.375 38.0022C47.9166 38.5863 48.8376 38.6198 49.4202 38.0752L58.7998 29.3251C59.3824 28.782 59.4158 27.8586 58.8742 27.2744Z" fill="white"/>
<path fill-rule="evenodd" clip-rule="evenodd" d="M36.7062 32.9336C37.4997 32.996 38.1991 32.3951 38.2613 31.5995L39.2612 18.7938C39.3234 17.9981 38.7241 17.2953 37.9306 17.233C37.1371 17.1706 36.4361 17.7715 36.3739 18.5671L35.3755 31.3728C35.3133 32.17 35.9111 32.8713 36.7062 32.9336Z" fill="white"/>
<path fill-rule="evenodd" clip-rule="evenodd" d="M19.0132 48.0209C19.0861 47.2268 18.4974 46.5164 17.7054 46.4418L4.94842 45.2522C4.1549 45.1792 3.44635 45.7679 3.37352 46.5635C3.29918 47.3591 3.88787 48.0695 4.67987 48.1426L17.4368 49.3322C18.2304 49.4067 18.9389 48.8165 19.0132 48.0209Z" fill="white"/>
<path fill-rule="evenodd" clip-rule="evenodd" d="M24.5001 48.4885C25.0266 42.6074 30.2262 38.2521 36.0918 38.78C39.055 39.0477 41.6267 40.5111 43.3807 42.6515C44.0194 42.0217 44.7158 41.4224 45.4714 40.8717C43.2669 38.2004 40.0443 36.3749 36.3361 36.0418C28.9654 35.3785 22.4306 40.8519 21.7691 48.2421C21.3412 53.0187 23.4775 57.4334 27.0263 60.1457C27.4269 59.4551 27.967 58.7006 28.6847 57.9612C25.8611 55.8026 24.1603 52.2886 24.5001 48.4885Z" fill="white"/>
</g>
<defs>
<clipPath id="clip0_1665_846">
<rect width="88" height="64.4651" fill="white" transform="translate(3 17)"/>
</clipPath>
</defs>
</svg>
