<svg width="100" height="100" viewBox="0 0 100 100" fill="none" xmlns="http://www.w3.org/2000/svg">
<g clip-path="url(#clip0_1665_1045)">
<rect opacity="0.0229128" x="-0.5" y="0.5" width="97.0392" height="99" transform="matrix(-1 0 0 1 99 0)" stroke="#2B2B2B"/>
</g>
<path fill-rule="evenodd" clip-rule="evenodd" d="M68.8855 77.0894C71.4978 77.2011 74.1701 77.0117 76.9152 76.4272C82.222 75.2987 86.5057 72.2679 90.2075 68.3125C90.753 67.7297 91.2717 67.1209 91.8631 66.4539C79.2049 67.8187 68.6452 63.9006 61.0629 53.44C53.525 43.0441 52.7011 31.5958 57.4655 19.6197C57.3975 19.6326 57.3153 19.631 57.2505 19.6634C49.9007 23.4325 44.4295 28.9745 41.746 36.9856C40.8827 36.7282 39.9434 36.5015 38.993 36.3655C39.0863 36.0805 39.1654 35.7972 39.265 35.5122C42.8672 25.2588 50.481 18.9575 60.2296 15.1462C60.8827 14.8921 61.5041 14.9924 61.9643 15.5672C62.4244 16.1371 62.4118 16.7621 62.0338 17.3838C61.9247 17.5619 61.8188 17.7416 61.7144 17.9213C58.351 23.6803 56.6954 29.9022 57.5319 36.5857C58.963 48.0113 64.7568 56.4044 74.9766 61.3247C81.3017 64.3702 87.9589 64.4867 94.6793 62.777C95.6312 62.5342 96.297 62.6815 96.6954 63.3032C97.0971 63.9314 97.0528 64.5321 96.395 65.3383C94.9102 67.1646 93.4854 69.0573 91.8583 70.7427C85.0367 77.8083 76.8061 80.9864 67.0813 79.9502C66.92 79.9211 66.7571 79.8968 66.5942 79.8693C67.407 79.1019 68.2024 78.192 68.8855 77.0894Z" fill="white"/>
<path fill-rule="evenodd" clip-rule="evenodd" d="M14.8435 52.8245C15.8318 52.8245 16.817 52.9329 17.78 53.1483C20.8587 45.7768 28.044 40.8613 35.8192 40.8613C45.5219 40.8613 53.5896 47.9252 55.1962 57.735C55.2183 57.735 55.242 57.735 55.2642 57.735C61.6082 57.735 66.7695 63.0698 66.7695 69.6269C66.7695 76.1841 61.6082 81.5172 55.2642 81.5172H14.8435C7.19173 81.5172 0.967827 75.0815 0.967827 67.1709C0.967827 59.2602 7.19173 52.8245 14.8435 52.8245ZM3.75878 67.1709C3.75878 73.4965 8.73032 78.6434 14.8435 78.6434H55.2642C60.0697 78.6434 63.9786 74.599 63.9786 69.6269C63.9786 64.6532 60.0697 60.6089 55.2642 60.6089C54.9432 60.6089 54.5937 60.6348 54.162 60.6882L52.7436 60.8711L52.6013 59.4075C51.7253 50.472 44.5115 43.7351 35.8192 43.7351C28.7098 43.7351 22.3277 48.4012 19.94 55.3469L19.4877 56.6568L18.2022 56.2358C17.1111 55.878 15.9805 55.6983 14.8435 55.6983C8.73032 55.6983 3.75878 60.8436 3.75878 67.1709Z" fill="white"/>
<defs>
<clipPath id="clip0_1665_1045">
<rect width="98.0392" height="100" fill="white" transform="matrix(-1 0 0 1 100 0)"/>
</clipPath>
</defs>
</svg>
