<svg width="100" height="100" viewBox="0 0 100 100" fill="none" xmlns="http://www.w3.org/2000/svg">
<rect opacity="0.0229128" x="0.5" y="0.5" width="99" height="99" stroke="#2B2B2B"/>
<path fill-rule="evenodd" clip-rule="evenodd" d="M82.7004 54.7434C81.6784 54.7434 80.6579 54.8525 79.6604 55.069C76.4698 47.6588 69.027 42.7148 60.9733 42.7148C50.9229 42.7148 42.5662 49.8174 40.9021 59.6809C40.8791 59.6809 40.8562 59.6809 40.8316 59.6809C34.2603 59.6809 28.9141 65.0448 28.9141 71.6395C28.9141 78.2309 34.2603 83.5932 40.8316 83.5932H82.7004C90.6264 83.5932 97.0749 77.1223 97.0749 69.1683C97.0749 61.2144 90.6264 54.7434 82.7004 54.7434ZM94.184 69.1683C94.184 75.5286 89.0327 80.7037 82.7004 80.7037H40.8316C35.854 80.7037 31.805 76.6372 31.805 71.6395C31.805 66.6386 35.854 62.5704 40.8316 62.5704C41.1641 62.5704 41.5278 62.5965 41.9749 62.6518L43.4441 62.8341L43.5916 61.3625C44.4973 52.3797 51.9712 45.606 60.9733 45.606C68.3374 45.606 74.9481 50.296 77.423 57.2797L77.8898 58.5983L79.2215 58.1734C80.3533 57.8153 81.5228 57.6346 82.7004 57.6346C89.0327 57.6346 94.184 62.8081 94.184 69.1683Z" fill="white"/>
<path fill-rule="evenodd" clip-rule="evenodd" d="M23.7554 36.2821C24.327 36.9202 25.3196 36.9788 25.9617 36.4123C26.6054 35.8442 26.6643 34.8577 26.0927 34.2195L16.9088 23.9393C16.3388 23.3012 15.3462 23.2426 14.7025 23.8107C14.0605 24.3772 14.0015 25.3637 14.5715 26.0035L23.7554 36.2821Z" fill="white"/>
<path fill-rule="evenodd" clip-rule="evenodd" d="M22.6572 61.7045L12.5315 71.0682C11.9025 71.651 11.8665 72.6375 12.4512 73.2643C13.0376 73.8894 14.0318 73.9252 14.6608 73.3424L24.7865 63.9787C25.4154 63.3975 25.4515 62.4094 24.8667 61.7843C24.2803 61.1592 23.2861 61.1234 22.6572 61.7045Z" fill="white"/>
<path fill-rule="evenodd" clip-rule="evenodd" d="M63.3196 25.9952C62.7332 25.3701 61.739 25.3343 61.11 25.9155L50.9844 35.2792C50.3554 35.862 50.3194 36.8485 50.9057 37.4752C51.4905 38.1003 52.4847 38.1362 53.1137 37.5534L63.2394 28.1896C63.8683 27.6085 63.9044 26.6203 63.3196 25.9952Z" fill="white"/>
<path fill-rule="evenodd" clip-rule="evenodd" d="M39.3866 32.0505C40.2432 32.1173 40.9983 31.4743 41.0655 30.6229L42.1449 16.9191C42.212 16.0677 41.565 15.3156 40.7084 15.2489C39.8518 15.1822 39.095 15.8252 39.0279 16.6766L37.9501 30.3803C37.883 31.2333 38.5283 31.9838 39.3866 32.0505Z" fill="white"/>
<path fill-rule="evenodd" clip-rule="evenodd" d="M20.2852 48.1959C20.3638 47.3461 19.7283 46.5859 18.8733 46.5061L5.10154 45.2331C4.24491 45.155 3.47999 45.785 3.40137 46.6364C3.32111 47.4878 3.95663 48.248 4.81163 48.3261L18.5834 49.5992C19.44 49.6789 20.2049 49.0473 20.2852 48.1959Z" fill="white"/>
<path fill-rule="evenodd" clip-rule="evenodd" d="M26.2099 48.6962C26.7783 42.4027 32.3915 37.742 38.7237 38.3069C41.9226 38.5934 44.6989 40.1594 46.5924 42.4499C47.2819 41.7759 48.0337 41.1345 48.8494 40.5452C46.4695 37.6866 42.9906 35.7331 38.9874 35.3766C31.0304 34.6669 23.9758 40.5241 23.2617 48.4324C22.7998 53.5441 25.106 58.2683 28.9371 61.1708C29.3695 60.4317 29.9526 59.6243 30.7274 58.8331C27.6792 56.5231 25.8431 52.7627 26.2099 48.6962Z" fill="white"/>
</svg>
