<svg width="100" height="100" viewBox="0 0 100 100" fill="none" xmlns="http://www.w3.org/2000/svg">
<rect opacity="0.0229128" x="0.5" y="0.5" width="99" height="99" stroke="#2B2B2B"/>
<path fill-rule="evenodd" clip-rule="evenodd" d="M20.7895 46.0433H14.3371C10.1312 46.0433 6.70828 42.5396 6.70828 38.2331C6.70828 33.9253 10.1312 30.4216 14.3371 30.4216C14.6177 30.4216 14.9239 30.4434 15.3026 30.491L16.5434 30.6488L16.6683 29.3807C17.435 21.6413 23.7491 15.8054 31.3578 15.8054C34.6612 15.8054 37.7793 16.9538 40.2958 18.9227C40.8397 18.2968 41.4091 17.7035 42.0107 17.1525C39.0215 14.7346 35.2776 13.3154 31.3578 13.3154C22.8642 13.3154 15.8021 19.4343 14.3961 27.9316C14.376 27.9316 14.3572 27.9316 14.3371 27.9316C8.78434 27.9316 4.26562 32.5537 4.26562 38.2331C4.26562 43.9125 8.78434 48.5333 14.3371 48.5333H20.8459C20.7881 48.0176 20.7492 47.4965 20.7492 46.9631C20.7492 46.6529 20.7693 46.3481 20.7895 46.0433Z" fill="white"/>
<path fill-rule="evenodd" clip-rule="evenodd" d="M80.9927 27.9582C79.9103 27.9582 78.8293 28.0765 77.7725 28.3106C74.3939 20.3086 66.5113 14.9707 57.9815 14.9707C47.338 14.9707 38.4872 22.6394 36.7241 33.2892C36.6999 33.2892 36.6744 33.2892 36.6502 33.2892C29.6902 33.2892 24.0273 39.0815 24.0273 46.2005C24.0273 53.3194 29.6902 59.109 36.6502 59.109H80.9927C89.3869 59.109 96.2167 52.122 96.2167 43.5336C96.2167 34.9451 89.3869 27.9582 80.9927 27.9582ZM93.1549 43.5336C93.1549 50.4022 87.7003 55.989 80.9927 55.989H36.6502C31.3781 55.989 27.0891 51.5982 27.0891 46.2005C27.0891 40.8014 31.3781 36.4092 36.6502 36.4092C37.002 36.4092 37.3861 36.4378 37.8588 36.4963L39.4151 36.6949L39.5709 35.1057C40.5324 25.4056 48.4472 18.0907 57.9815 18.0907C65.7821 18.0907 72.7825 23.1564 75.4024 30.6972L75.8979 32.1204L77.3092 31.6619C78.5071 31.2754 79.7465 31.0795 80.9927 31.0795C87.7003 31.0795 93.1549 36.6664 93.1549 43.5336Z" fill="white"/>
<path fill-rule="evenodd" clip-rule="evenodd" d="M36.8633 67.7001C38.1525 70.0839 39.4416 72.4692 40.7321 74.8544C41.6291 76.5144 44.1349 75.0327 43.2365 73.3699C41.9474 70.9861 40.6582 68.6008 39.3677 66.2156C38.4707 64.557 35.9649 66.0387 36.8633 67.7001Z" fill="white"/>
<path fill-rule="evenodd" clip-rule="evenodd" d="M80.9414 67.7001C82.2306 70.0839 83.5211 72.4692 84.8102 74.8544C85.7072 76.5144 88.2143 75.0327 87.316 73.3699C86.0255 70.9861 84.7363 68.6008 83.4472 66.2156C82.5488 64.557 80.0431 66.0387 80.9414 67.7001Z" fill="white"/>
<path fill-rule="evenodd" clip-rule="evenodd" d="M77.7032 75.5551C78.9923 77.9403 80.2814 80.3256 81.5719 82.7108C82.469 84.3694 84.9747 82.8877 84.0764 81.2263C82.7872 78.8411 81.4981 76.4572 80.2076 74.072C79.3106 72.412 76.8048 73.8937 77.7032 75.5551Z" fill="white"/>
<path fill-rule="evenodd" clip-rule="evenodd" d="M14.9335 58.1821C16.224 60.5673 17.5132 62.9525 18.8023 65.3377C19.6993 66.9964 22.2065 65.5146 21.3081 63.8533C20.0189 61.468 18.7285 59.0842 17.4393 56.6989C16.5423 55.0389 14.0352 56.5207 14.9335 58.1821Z" fill="white"/>
<path fill-rule="evenodd" clip-rule="evenodd" d="M26.7461 66.6333C28.0353 69.0185 29.3244 71.4024 30.6149 73.7876C31.5119 75.4476 34.0177 73.9659 33.1193 72.3045C31.8302 69.9193 30.541 67.5341 29.2506 65.1488C28.3535 63.4888 25.8478 64.9719 26.7461 66.6333Z" fill="white"/>
<path fill-rule="evenodd" clip-rule="evenodd" d="M23.3672 76.1498C24.6564 78.5351 25.9455 80.9203 27.236 83.3055C28.133 84.9642 30.6401 83.4824 29.7404 81.821C28.4513 79.4358 27.1621 77.0506 25.873 74.6667C24.9746 73.0067 22.4688 74.4885 23.3672 76.1498Z" fill="white"/>
<path fill-rule="evenodd" clip-rule="evenodd" d="M36.8633 77.7905C38.1525 80.1744 39.4416 82.5596 40.7321 84.9449C41.6291 86.6049 44.1349 85.1231 43.2365 83.4604C41.9474 81.0765 40.6582 78.6913 39.3677 76.306C38.4707 74.646 35.9649 76.1292 36.8633 77.7905Z" fill="white"/>
<path fill-rule="evenodd" clip-rule="evenodd" d="M64.8557 58.9629L64.5469 59.1085H64.9242L64.8557 58.9629Z" fill="white"/>
<path fill-rule="evenodd" clip-rule="evenodd" d="M50.8582 58.8311L50.4258 59.1086H51.0328L50.8582 58.8311Z" fill="white"/>
<path fill-rule="evenodd" clip-rule="evenodd" d="M70.9708 77.6951H66.2977C65.6786 77.6951 65.1039 78.0066 64.7601 78.5305C64.4177 79.053 64.3532 79.7115 64.5923 80.2912L68.9794 90.9233L51.1154 71.7286H55.5871C56.2612 71.7286 56.8829 71.3558 57.2066 70.7571C57.5315 70.157 57.5087 69.4277 57.1461 68.8494L52.7295 61.8135H49.978L54.725 69.376H50.0209C49.2824 69.376 48.615 69.8209 48.3236 70.5067C48.0308 71.1938 48.1691 71.9898 48.6754 72.5341L69.0707 94.4488C69.436 94.842 69.918 95.0448 70.4095 95.0448C70.756 95.0448 71.1065 94.9441 71.422 94.7359C72.1834 94.2352 72.4721 93.2922 72.1217 92.4418L67.0081 80.0476H71.7148C72.3513 80.0476 72.9354 79.7211 73.2765 79.1768C73.6163 78.6325 73.6592 77.959 73.388 77.378L66.1755 61.8135H63.612L70.9708 77.6951Z" fill="white"/>
</svg>
