<svg width="128" height="128" viewBox="0 0 128 128" fill="none" xmlns="http://www.w3.org/2000/svg">
<path d="M77.2403 46.4798C77.2403 40.9598 72.8003 36.6398 67.4003 36.6398C66.2003 36.6398 65.1203 36.8798 64.0403 37.2398C63.6803 33.1598 60.3203 29.7998 56.1203 29.7998C51.6803 29.7998 48.0803 33.3998 48.0803 37.8398C48.0803 38.7998 48.3203 39.7598 48.5603 40.5998C48.2003 40.4798 47.7203 40.4798 47.3603 40.4798C42.9203 40.4798 39.3203 44.0798 39.3203 48.5198C39.3203 52.8398 42.8003 56.4398 47.1203 56.5598H67.7603C73.0403 55.9598 77.2403 51.7598 77.2403 46.4798Z" fill="white" stroke="white" stroke-width="1.44" stroke-linejoin="round"/>
<path d="M95.4002 68.8C95.4002 59.6 88.0002 52.4 79.0002 52.4C77.0002 52.4 75.2002 52.8 73.4002 53.4C72.8002 46.6 67.2002 41 60.2002 41C52.8002 41 46.8002 47 46.8002 54.4C46.8002 56 47.2002 57.6 47.6002 59C47.0002 58.8 46.2002 58.8 45.6002 58.8C38.2002 58.8 32.2002 64.8 32.2002 72.2C32.2002 79.4 38.0002 85.4 45.2002 85.6H79.6002C88.4002 84.6 95.4002 77.6 95.4002 68.8Z" fill="white" stroke="white" stroke-width="2.4" stroke-linejoin="round"/>
</svg>
