<svg width="112" height="112" viewBox="0 0 112 112" fill="none" xmlns="http://www.w3.org/2000/svg">
<path d="M87.4002 49.0002C87.4002 39.8002 80.0002 32.6002 71.0002 32.6002C69.0002 32.6002 67.2002 33.0002 65.4002 33.6002C64.8002 26.8002 59.2002 21.2002 52.2002 21.2002C44.8002 21.2002 38.8002 27.2002 38.8002 34.6002C38.8002 36.2002 39.2002 37.8002 39.6002 39.2002C39.0002 39.0002 38.2002 39.0002 37.6002 39.0002C30.2002 39.0002 24.2002 45.0002 24.2002 52.4002C24.2002 59.6002 30.0002 65.6002 37.2002 65.8002H71.6002C80.4002 64.8002 87.4002 57.8002 87.4002 49.0002Z" fill="white" stroke="white" stroke-width="2.4" stroke-linejoin="round"/>
<path d="M45.7744 72.7803L42.996 88.5372" stroke="white" stroke-width="4" stroke-linecap="round" stroke-dasharray="8 8"/>
<path d="M54.3477 70.2305L51.5693 85.9874" stroke="white" stroke-width="4" stroke-linecap="round" stroke-dasharray="8 8"/>
<path d="M61.8779 73.5889L59.0996 89.3458" stroke="white" stroke-width="4" stroke-linecap="round" stroke-dasharray="8 8"/>
</svg>
