<svg width="22" height="28" viewBox="0 0 22 28" fill="none" xmlns="http://www.w3.org/2000/svg">
<path d="M11 0C8.08368 0.00344047 5.28779 1.16347 3.22563 3.22563C1.16348 5.28778 0.00344738 8.08367 6.90418e-06 11C-0.00267443 13.3831 0.775714 15.7014 2.21601 17.6C2.21601 17.6 2.51601 17.995 2.56501 18.052L11 28L19.439 18.047C19.483 17.994 19.784 17.6 19.784 17.6L19.785 17.597C21.2243 15.6991 22.0023 13.382 22 11C21.9966 8.08367 20.8365 5.28778 18.7744 3.22563C16.7122 1.16347 13.9163 0.00344047 11 0ZM11 15C10.2089 15 9.43552 14.7654 8.77773 14.3259C8.11993 13.8864 7.60724 13.2616 7.30449 12.5307C7.00174 11.7998 6.92252 10.9956 7.07687 10.2196C7.23121 9.44372 7.61217 8.73098 8.17158 8.17157C8.73099 7.61216 9.44372 7.2312 10.2196 7.07686C10.9956 6.92252 11.7998 7.00173 12.5307 7.30448C13.2616 7.60723 13.8864 8.11992 14.3259 8.77772C14.7654 9.43552 15 10.2089 15 11C14.9987 12.0605 14.5768 13.0771 13.827 13.827C13.0771 14.5768 12.0605 14.9987 11 15Z" fill="#454BD2"/>
</svg>
