<svg width="414" height="414" viewBox="0 0 414 414" fill="none" xmlns="http://www.w3.org/2000/svg">
<rect width="414" height="414" rx="40" fill="url(#paint0_linear_228_611)"/>
<path opacity="0.8" fill-rule="evenodd" clip-rule="evenodd" d="M207 332C276.036 332 332 276.036 332 207C332 137.964 276.036 82 207 82C137.964 82 82 137.964 82 207C82 276.036 137.964 332 207 332ZM259.589 172.089C264.47 167.207 264.47 159.293 259.589 154.411C254.707 149.53 246.793 149.53 241.911 154.411L207 189.322L190.839 173.161C185.957 168.28 178.043 168.28 173.161 173.161C168.28 178.043 168.28 185.957 173.161 190.839L198.161 215.839C203.043 220.72 210.957 220.72 215.839 215.839L259.589 172.089Z" fill="white"/>
<defs>
<linearGradient id="paint0_linear_228_611" x1="207" y1="50.5" x2="207.676" y2="405.507" gradientUnits="userSpaceOnUse">
<stop stop-color="#972EFF"/>
<stop offset="1" stop-color="#3153FC"/>
</linearGradient>
</defs>
</svg>
