<svg width="366" height="366" viewBox="0 0 366 366" fill="none" xmlns="http://www.w3.org/2000/svg">
<circle opacity="0.2" cx="183" cy="183" r="109.8" fill="#C4C4C4"/>
<g clip-path="url(#clip0_3431_18805)">
<g filter="url(#filter0_d_3431_18805)">
<path fill-rule="evenodd" clip-rule="evenodd" d="M197.848 213.311C208.349 207.915 215.533 196.974 215.533 184.356C215.533 166.388 200.968 151.822 183 151.822C165.032 151.822 150.467 166.388 150.467 184.356C150.467 196.974 157.651 207.915 168.152 213.311L183 228.159L197.848 213.311Z" fill="#80DD7D"/>
</g>
<path fill-rule="evenodd" clip-rule="evenodd" d="M191.133 196.555C190.618 196.559 190.145 196.27 189.913 195.81L188.937 193.844H177.063L176.087 195.81C175.741 196.455 174.944 196.709 174.289 196.383C173.633 196.057 173.355 195.269 173.66 194.603L174.636 192.638C175.094 191.716 176.034 191.134 177.063 191.133H188.937C189.966 191.134 190.906 191.716 191.364 192.638L192.34 194.603C192.545 195.022 192.521 195.516 192.276 195.912C192.031 196.309 191.599 196.552 191.133 196.555ZM199.267 189.777V176.222C199.267 173.976 197.446 172.155 195.2 172.155H170.8C168.554 172.155 166.733 173.976 166.733 176.222V189.777C166.733 192.023 168.554 193.844 170.8 193.844C171.549 193.844 172.156 193.237 172.156 192.489C172.156 191.74 171.549 191.133 170.8 191.133C170.051 191.133 169.445 190.526 169.445 189.777V176.222C169.445 175.473 170.051 174.866 170.8 174.866H195.2C195.949 174.866 196.556 175.473 196.556 176.222V189.777C196.556 190.526 195.949 191.133 195.2 191.133C194.451 191.133 193.845 191.74 193.845 192.489C193.845 193.237 194.451 193.844 195.2 193.844C197.446 193.844 199.267 192.023 199.267 189.777V189.777Z" fill="#191D2C"/>
</g>
<circle opacity="0.2" cx="183" cy="183" r="183" fill="#C4C4C4"/>
<defs>
<filter id="filter0_d_3431_18805" x="147.756" y="150.467" width="70.4889" height="81.7582" filterUnits="userSpaceOnUse" color-interpolation-filters="sRGB">
<feFlood flood-opacity="0" result="BackgroundImageFix"/>
<feColorMatrix in="SourceAlpha" type="matrix" values="0 0 0 0 0 0 0 0 0 0 0 0 0 0 0 0 0 0 127 0" result="hardAlpha"/>
<feOffset dy="1.35556"/>
<feGaussianBlur stdDeviation="1.35556"/>
<feColorMatrix type="matrix" values="0 0 0 0 0.585994 0 0 0 0 0.585994 0 0 0 0 0.585994 0 0 0 1 0"/>
<feBlend mode="normal" in2="BackgroundImageFix" result="effect1_dropShadow_3431_18805"/>
<feBlend mode="normal" in="SourceGraphic" in2="effect1_dropShadow_3431_18805" result="shape"/>
</filter>
<clipPath id="clip0_3431_18805">
<rect width="70.4889" height="82.6889" fill="white" transform="translate(147.756 150.467)"/>
</clipPath>
</defs>
</svg>
