<svg width="50" height="26" viewBox="0 0 50 26" fill="none" xmlns="http://www.w3.org/2000/svg">
<path d="M12 19V5" stroke="white" stroke-width="2" stroke-linecap="round" stroke-linejoin="round"/>
<path d="M5 12L12 5L19 12" stroke="white" stroke-width="2" stroke-linecap="round" stroke-linejoin="round"/>
<g filter="url(#filter0_d_104_2573)">
<path d="M29.1193 17.5V16.2273L33.0568 12.1477C33.4773 11.7045 33.8239 11.3163 34.0966 10.983C34.3731 10.6458 34.5795 10.3258 34.7159 10.0227C34.8523 9.7197 34.9205 9.39773 34.9205 9.05682C34.9205 8.67045 34.8295 8.33712 34.6477 8.05682C34.4659 7.77273 34.2178 7.55492 33.9034 7.40341C33.589 7.24811 33.2348 7.17045 32.8409 7.17045C32.4242 7.17045 32.0606 7.25568 31.75 7.42614C31.4394 7.59659 31.2008 7.83712 31.0341 8.14773C30.8674 8.45833 30.7841 8.82197 30.7841 9.23864H29.108C29.108 8.5303 29.2708 7.91098 29.5966 7.38068C29.9223 6.85038 30.3693 6.43939 30.9375 6.14773C31.5057 5.85227 32.1515 5.70455 32.875 5.70455C33.6061 5.70455 34.25 5.85038 34.8068 6.14205C35.3674 6.42992 35.8049 6.82386 36.1193 7.32386C36.4337 7.82008 36.5909 8.38068 36.5909 9.00568C36.5909 9.4375 36.5095 9.85985 36.3466 10.2727C36.1875 10.6856 35.9091 11.1458 35.5114 11.6534C35.1136 12.1572 34.5606 12.7689 33.8523 13.4886L31.5398 15.9091V15.9943H36.7784V17.5H29.1193ZM40.8202 11.125C40.3278 11.125 39.8789 11.0057 39.4736 10.767C39.0721 10.5246 38.7502 10.2008 38.5077 9.79545C38.2691 9.39015 38.1498 8.94129 38.1498 8.44886C38.1498 7.95644 38.2691 7.50947 38.5077 7.10795C38.7502 6.70265 39.0721 6.38068 39.4736 6.14205C39.8789 5.89962 40.3278 5.77841 40.8202 5.77841C41.3127 5.77841 41.7615 5.89962 42.1668 6.14205C42.5721 6.38068 42.8941 6.70265 43.1327 7.10795C43.3752 7.50947 43.4964 7.95644 43.4964 8.44886C43.4964 8.94129 43.3752 9.39015 43.1327 9.79545C42.8941 10.2008 42.5721 10.5246 42.1668 10.767C41.7615 11.0057 41.3127 11.125 40.8202 11.125ZM40.8202 9.82955C41.0778 9.82955 41.3108 9.76705 41.5191 9.64205C41.7274 9.51705 41.8922 9.35038 42.0134 9.14205C42.1384 8.93371 42.2009 8.70265 42.2009 8.44886C42.2009 8.19508 42.1384 7.96402 42.0134 7.75568C41.8922 7.54735 41.7274 7.38258 41.5191 7.26136C41.3108 7.13636 41.0778 7.07386 40.8202 7.07386C40.5664 7.07386 40.3354 7.13636 40.127 7.26136C39.9187 7.38258 39.752 7.54735 39.627 7.75568C39.5058 7.96402 39.4452 8.19508 39.4452 8.44886C39.4452 8.70265 39.5058 8.93371 39.627 9.14205C39.752 9.35038 39.9187 9.51705 40.127 9.64205C40.3354 9.76705 40.5664 9.82955 40.8202 9.82955Z" fill="white"/>
</g>
<defs>
<filter id="filter0_d_104_2573" x="23.1084" y="1.70459" width="26.3877" height="23.7954" filterUnits="userSpaceOnUse" color-interpolation-filters="sRGB">
<feFlood flood-opacity="0" result="BackgroundImageFix"/>
<feColorMatrix in="SourceAlpha" type="matrix" values="0 0 0 0 0 0 0 0 0 0 0 0 0 0 0 0 0 0 127 0" result="hardAlpha"/>
<feOffset dy="2"/>
<feGaussianBlur stdDeviation="3"/>
<feComposite in2="hardAlpha" operator="out"/>
<feColorMatrix type="matrix" values="0 0 0 0 0 0 0 0 0 0 0 0 0 0 0 0 0 0 0.25 0"/>
<feBlend mode="normal" in2="BackgroundImageFix" result="effect1_dropShadow_104_2573"/>
<feBlend mode="normal" in="SourceGraphic" in2="effect1_dropShadow_104_2573" result="shape"/>
</filter>
</defs>
</svg>
