<svg width="64" height="64" viewBox="0 0 64 64" fill="none" xmlns="http://www.w3.org/2000/svg">
<path d="M38.6202 25.2384C38.6202 22.4784 36.4002 20.3184 33.7002 20.3184C33.1002 20.3184 32.5602 20.4384 32.0202 20.6184C31.8402 18.5784 30.1602 16.8984 28.0602 16.8984C25.8402 16.8984 24.0402 18.6984 24.0402 20.9184C24.0402 21.3984 24.1602 21.8784 24.2802 22.2984C24.1002 22.2384 23.8602 22.2384 23.6802 22.2384C21.4602 22.2384 19.6602 24.0384 19.6602 26.2584C19.6602 28.4184 21.4002 30.2184 23.5602 30.2784H33.8802C36.5202 29.9784 38.6202 27.8784 38.6202 25.2384Z" fill="#91C0F8" stroke="white" stroke-width="0.72" stroke-linejoin="round"/>
<path d="M47.7001 34.4C47.7001 29.8 44.0001 26.2 39.5001 26.2C38.5001 26.2 37.6001 26.4 36.7001 26.7C36.4001 23.3 33.6001 20.5 30.1001 20.5C26.4001 20.5 23.4001 23.5 23.4001 27.2C23.4001 28 23.6001 28.8 23.8001 29.5C23.5001 29.4 23.1001 29.4 22.8001 29.4C19.1001 29.4 16.1001 32.4 16.1001 36.1C16.1001 39.7 19.0001 42.7 22.6001 42.8H39.8001C44.2001 42.3 47.7001 38.8 47.7001 34.4Z" fill="#57A0EE" stroke="white" stroke-width="1.2" stroke-linejoin="round"/>
<path d="M28.1601 34.5195H35.6001L30.6801 43.1595H35.3601L24.8001 55.5195L28.8801 46.2795H24.3201L28.1601 34.5195Z" fill="#FFA500" stroke="white" stroke-width="1.2"/>
</svg>
