<svg width="64" height="64" viewBox="0 0 64 64" fill="none" xmlns="http://www.w3.org/2000/svg">
<path d="M38.6202 25.2384C38.6202 22.4784 36.4002 20.3184 33.7002 20.3184C33.1002 20.3184 32.5602 20.4384 32.0202 20.6184C31.8402 18.5784 30.1602 16.8984 28.0602 16.8984C25.8402 16.8984 24.0402 18.6984 24.0402 20.9184C24.0402 21.3984 24.1602 21.8784 24.2802 22.2984C24.1002 22.2384 23.8602 22.2384 23.6802 22.2384C21.4602 22.2384 19.6602 24.0384 19.6602 26.2584C19.6602 28.4184 21.4002 30.2184 23.5602 30.2784H33.8802C36.5202 29.9784 38.6202 27.8784 38.6202 25.2384Z" fill="#91C0F8" stroke="white" stroke-width="0.72" stroke-linejoin="round"/>
<path d="M47.7001 34.4C47.7001 29.8 44.0001 26.2 39.5001 26.2C38.5001 26.2 37.6001 26.4 36.7001 26.7C36.4001 23.3 33.6001 20.5 30.1001 20.5C26.4001 20.5 23.4001 23.5 23.4001 27.2C23.4001 28 23.6001 28.8 23.8001 29.5C23.5001 29.4 23.1001 29.4 22.8001 29.4C19.1001 29.4 16.1001 32.4 16.1001 36.1C16.1001 39.7 19.0001 42.7 22.6001 42.8H39.8001C44.2001 42.3 47.7001 38.8 47.7001 34.4Z" fill="#57A0EE" stroke="white" stroke-width="1.2" stroke-linejoin="round"/>
<path d="M28.1601 34.5195H35.6001L30.6801 43.1595H35.3601L24.8001 55.5195L28.8801 46.2795H24.3201L28.1601 34.5195Z" fill="#FFA500" stroke="white" stroke-width="1.2"/>
<path d="M32 41V44" stroke="#FFA500" stroke-width="2" stroke-linecap="round"/>
<path d="M25.636 38.3633L23.5147 40.4846" stroke="#FFA500" stroke-width="2" stroke-linecap="round"/>
<path d="M23 32H20" stroke="#FFA500" stroke-width="2" stroke-linecap="round"/>
<path d="M25.636 25.6367L23.5147 23.5154" stroke="#FFA500" stroke-width="2" stroke-linecap="round"/>
<path d="M32 23V20" stroke="#FFA500" stroke-width="2" stroke-linecap="round"/>
<path d="M38.364 25.6367L40.4853 23.5154" stroke="#FFA500" stroke-width="2" stroke-linecap="round"/>
<path d="M41 32H44" stroke="#FFA500" stroke-width="2" stroke-linecap="round"/>
<path d="M38.364 38.3633L40.4853 40.4846" stroke="#FFA500" stroke-width="2" stroke-linecap="round"/>
<path d="M32 37C34.7614 37 37 34.7614 37 32C37 29.2386 34.7614 27 32 27C29.2386 27 27 29.2386 27 32C27 34.7614 29.2386 37 32 37Z" fill="#FFA500" stroke="#FFA500" stroke-width="2"/>
<path d="M23.3 21.5L24 22.7L25.2 23.3L24 24L23.3 25.2L22.7 24L21.5 23.3L22.7 22.7L23.3 21.5Z" fill="#FFA500"/>
<path d="M43.3 31.5L44 32.7L45.2 33.3L44 34L43.3 35.2L42.7 34L41.5 33.3L42.7 32.7L43.3 31.5Z" fill="#FFA500"/>
<path d="M34.5 33.1992C34.5 29.4992 36.5 26.2992 39.5 24.4992C38 23.5992 36.3 23.1992 34.5 23.1992C29 23.1992 24.5 27.6992 24.5 33.1992C24.5 38.6992 29 43.1992 34.5 43.1992C36.3 43.1992 38 42.6992 39.5 41.8992C36.5 40.1992 34.5 36.8992 34.5 33.1992Z" fill="#FFA500" stroke="#FFA500" stroke-width="2" stroke-linejoin="round"/>
<path d="M20 35V38" stroke="#FFA500" stroke-width="2" stroke-linecap="round"/>
<path d="M13.636 32.3633L11.5147 34.4846" stroke="#FFA500" stroke-width="2" stroke-linecap="round"/>
<path d="M11 26H8" stroke="#FFA500" stroke-width="2" stroke-linecap="round"/>
<path d="M13.636 19.6367L11.5147 17.5154" stroke="#FFA500" stroke-width="2" stroke-linecap="round"/>
<path d="M20 17V14" stroke="#FFA500" stroke-width="2" stroke-linecap="round"/>
<path d="M26.364 19.6367L28.4853 17.5154" stroke="#FFA500" stroke-width="2" stroke-linecap="round"/>
<path d="M29 26H32" stroke="#FFA500" stroke-width="2" stroke-linecap="round"/>
<path d="M26.364 32.3633L28.4853 34.4846" stroke="#FFA500" stroke-width="2" stroke-linecap="round"/>
<path d="M20 31C22.7614 31 25 28.7614 25 26C25 23.2386 22.7614 21 20 21C17.2386 21 15 23.2386 15 26C15 28.7614 17.2386 31 20 31Z" fill="#FFA500" stroke="#FFA500" stroke-width="2"/>
<path d="M47.7001 34.4C47.7001 29.8 44.0001 26.2 39.5001 26.2C38.5001 26.2 37.6001 26.4 36.7001 26.7C36.4001 23.3 33.6001 20.5 30.1001 20.5C26.4001 20.5 23.4001 23.5 23.4001 27.2C23.4001 28 23.6001 28.8 23.8001 29.5C23.5001 29.4 23.1001 29.4 22.8001 29.4C19.1001 29.4 16.1001 32.4 16.1001 36.1C16.1001 39.7 19.0001 42.7 22.6001 42.8H39.8001C44.2001 42.3 47.7001 38.8 47.7001 34.4Z" fill="#C6DEFF" stroke="white" stroke-width="1.2" stroke-linejoin="round"/>
<path d="M38.6402 15.1992L39.2002 16.1592L40.1602 16.6392L39.2002 17.1992L38.6402 18.1592L38.1602 17.1992L37.2002 16.6392L38.1602 16.1592L38.6402 15.1992Z" fill="#FFA500"/>
<path d="M54.6402 23.1992L55.2002 24.1592L56.1602 24.6392L55.2002 25.1992L54.6402 26.1592L54.1602 25.1992L53.2002 24.6392L54.1602 24.1592L54.6402 23.1992Z" fill="#FFA500"/>
<path d="M47.6001 24.5586C47.6001 21.5986 49.2001 19.0386 51.6001 17.5986C50.4001 16.8786 49.0401 16.5586 47.6001 16.5586C43.2001 16.5586 39.6001 20.1586 39.6001 24.5586C39.6001 28.9586 43.2001 32.5586 47.6001 32.5586C49.0401 32.5586 50.4001 32.1586 51.6001 31.5186C49.2001 30.1586 47.6001 27.5186 47.6001 24.5586Z" fill="#FFA500" stroke="#FFA500" stroke-width="1.6" stroke-linejoin="round"/>
<path d="M47.7001 34.4C47.7001 29.8 44.0001 26.2 39.5001 26.2C38.5001 26.2 37.6001 26.4 36.7001 26.7C36.4001 23.3 33.6001 20.5 30.1001 20.5C26.4001 20.5 23.4001 23.5 23.4001 27.2C23.4001 28 23.6001 28.8 23.8001 29.5C23.5001 29.4 23.1001 29.4 22.8001 29.4C19.1001 29.4 16.1001 32.4 16.1001 36.1C16.1001 39.7 19.0001 42.7 22.6001 42.8H39.8001C44.2001 42.3 47.7001 38.8 47.7001 34.4Z" fill="#C6DEFF" stroke="white" stroke-width="1.2" stroke-linejoin="round"/>
<path d="M20 35V38" stroke="#FFA500" stroke-width="2" stroke-linecap="round"/>
<path d="M13.636 32.3633L11.5147 34.4846" stroke="#FFA500" stroke-width="2" stroke-linecap="round"/>
<path d="M11 26H8" stroke="#FFA500" stroke-width="2" stroke-linecap="round"/>
<path d="M13.636 19.6367L11.5147 17.5154" stroke="#FFA500" stroke-width="2" stroke-linecap="round"/>
<path d="M20 17V14" stroke="#FFA500" stroke-width="2" stroke-linecap="round"/>
<path d="M26.364 19.6367L28.4853 17.5154" stroke="#FFA500" stroke-width="2" stroke-linecap="round"/>
<path d="M29 26H32" stroke="#FFA500" stroke-width="2" stroke-linecap="round"/>
<path d="M26.364 32.3633L28.4853 34.4846" stroke="#FFA500" stroke-width="2" stroke-linecap="round"/>
<path d="M20 31C22.7614 31 25 28.7614 25 26C25 23.2386 22.7614 21 20 21C17.2386 21 15 23.2386 15 26C15 28.7614 17.2386 31 20 31Z" fill="#FFA500" stroke="#FFA500" stroke-width="2"/>
<path d="M47.7001 34.4C47.7001 29.8 44.0001 26.2 39.5001 26.2C38.5001 26.2 37.6001 26.4 36.7001 26.7C36.4001 23.3 33.6001 20.5 30.1001 20.5C26.4001 20.5 23.4001 23.5 23.4001 27.2C23.4001 28 23.6001 28.8 23.8001 29.5C23.5001 29.4 23.1001 29.4 22.8001 29.4C19.1001 29.4 16.1001 32.4 16.1001 36.1C16.1001 39.7 19.0001 42.7 22.6001 42.8H39.8001C44.2001 42.3 47.7001 38.8 47.7001 34.4Z" fill="#91C0F8" stroke="white" stroke-width="1.2" stroke-linejoin="round"/>
<path d="M38.6402 15.1992L39.2002 16.1592L40.1602 16.6392L39.2002 17.1992L38.6402 18.1592L38.1602 17.1992L37.2002 16.6392L38.1602 16.1592L38.6402 15.1992Z" fill="#FFA500"/>
<path d="M54.6402 23.1992L55.2002 24.1592L56.1602 24.6392L55.2002 25.1992L54.6402 26.1592L54.1602 25.1992L53.2002 24.6392L54.1602 24.1592L54.6402 23.1992Z" fill="#FFA500"/>
<path d="M47.6001 24.5586C47.6001 21.5986 49.2001 19.0386 51.6001 17.5986C50.4001 16.8786 49.0401 16.5586 47.6001 16.5586C43.2001 16.5586 39.6001 20.1586 39.6001 24.5586C39.6001 28.9586 43.2001 32.5586 47.6001 32.5586C49.0401 32.5586 50.4001 32.1586 51.6001 31.5186C49.2001 30.1586 47.6001 27.5186 47.6001 24.5586Z" fill="#FFA500" stroke="#FFA500" stroke-width="1.6" stroke-linejoin="round"/>
<path d="M47.7001 34.4C47.7001 29.8 44.0001 26.2 39.5001 26.2C38.5001 26.2 37.6001 26.4 36.7001 26.7C36.4001 23.3 33.6001 20.5 30.1001 20.5C26.4001 20.5 23.4001 23.5 23.4001 27.2C23.4001 28 23.6001 28.8 23.8001 29.5C23.5001 29.4 23.1001 29.4 22.8001 29.4C19.1001 29.4 16.1001 32.4 16.1001 36.1C16.1001 39.7 19.0001 42.7 22.6001 42.8H39.8001C44.2001 42.3 47.7001 38.8 47.7001 34.4Z" fill="#91C0F8" stroke="white" stroke-width="1.2" stroke-linejoin="round"/>
<path d="M20 35V38" stroke="#FFA500" stroke-width="2" stroke-linecap="round"/>
<path d="M13.636 32.3633L11.5147 34.4846" stroke="#FFA500" stroke-width="2" stroke-linecap="round"/>
<path d="M11 26H8" stroke="#FFA500" stroke-width="2" stroke-linecap="round"/>
<path d="M13.636 19.6367L11.5147 17.5154" stroke="#FFA500" stroke-width="2" stroke-linecap="round"/>
<path d="M20 17V14" stroke="#FFA500" stroke-width="2" stroke-linecap="round"/>
<path d="M26.364 19.6367L28.4853 17.5154" stroke="#FFA500" stroke-width="2" stroke-linecap="round"/>
<path d="M29 26H32" stroke="#FFA500" stroke-width="2" stroke-linecap="round"/>
<path d="M26.364 32.3633L28.4853 34.4846" stroke="#FFA500" stroke-width="2" stroke-linecap="round"/>
<path d="M20 31C22.7614 31 25 28.7614 25 26C25 23.2386 22.7614 21 20 21C17.2386 21 15 23.2386 15 26C15 28.7614 17.2386 31 20 31Z" fill="#FFA500" stroke="#FFA500" stroke-width="2"/>
<path d="M47.7001 34.4C47.7001 29.8 44.0001 26.2 39.5001 26.2C38.5001 26.2 37.6001 26.4 36.7001 26.7C36.4001 23.3 33.6001 20.5 30.1001 20.5C26.4001 20.5 23.4001 23.5 23.4001 27.2C23.4001 28 23.6001 28.8 23.8001 29.5C23.5001 29.4 23.1001 29.4 22.8001 29.4C19.1001 29.4 16.1001 32.4 16.1001 36.1C16.1001 39.7 19.0001 42.7 22.6001 42.8H39.8001C44.2001 42.3 47.7001 38.8 47.7001 34.4Z" fill="#57A0EE" stroke="white" stroke-width="1.2" stroke-linejoin="round"/>
<path d="M38.6402 15.1992L39.2002 16.1592L40.1602 16.6392L39.2002 17.1992L38.6402 18.1592L38.1602 17.1992L37.2002 16.6392L38.1602 16.1592L38.6402 15.1992Z" fill="#FFA500"/>
<path d="M54.6402 23.1992L55.2002 24.1592L56.1602 24.6392L55.2002 25.1992L54.6402 26.1592L54.1602 25.1992L53.2002 24.6392L54.1602 24.1592L54.6402 23.1992Z" fill="#FFA500"/>
<path d="M47.6001 24.5586C47.6001 21.5986 49.2001 19.0386 51.6001 17.5986C50.4001 16.8786 49.0401 16.5586 47.6001 16.5586C43.2001 16.5586 39.6001 20.1586 39.6001 24.5586C39.6001 28.9586 43.2001 32.5586 47.6001 32.5586C49.0401 32.5586 50.4001 32.1586 51.6001 31.5186C49.2001 30.1586 47.6001 27.5186 47.6001 24.5586Z" fill="#FFA500" stroke="#FFA500" stroke-width="1.6" stroke-linejoin="round"/>
<path d="M47.7001 34.4C47.7001 29.8 44.0001 26.2 39.5001 26.2C38.5001 26.2 37.6001 26.4 36.7001 26.7C36.4001 23.3 33.6001 20.5 30.1001 20.5C26.4001 20.5 23.4001 23.5 23.4001 27.2C23.4001 28 23.6001 28.8 23.8001 29.5C23.5001 29.4 23.1001 29.4 22.8001 29.4C19.1001 29.4 16.1001 32.4 16.1001 36.1C16.1001 39.7 19.0001 42.7 22.6001 42.8H39.8001C44.2001 42.3 47.7001 38.8 47.7001 34.4Z" fill="#57A0EE" stroke="white" stroke-width="1.2" stroke-linejoin="round"/>
<path d="M38.6202 23.2384C38.6202 20.4784 36.4002 18.3184 33.7002 18.3184C33.1002 18.3184 32.5602 18.4384 32.0202 18.6184C31.8402 16.5784 30.1602 14.8984 28.0602 14.8984C25.8402 14.8984 24.0402 16.6984 24.0402 18.9184C24.0402 19.3984 24.1602 19.8784 24.2802 20.2984C24.1002 20.2384 23.8602 20.2384 23.6802 20.2384C21.4602 20.2384 19.6602 22.0384 19.6602 24.2584C19.6602 26.4184 21.4002 28.2184 23.5602 28.2784H33.8802C36.5202 27.9784 38.6202 25.8784 38.6202 23.2384Z" fill="#91C0F8" stroke="white" stroke-width="0.72" stroke-linejoin="round"/>
<path d="M47.7001 34.4C47.7001 29.8 44.0001 26.2 39.5001 26.2C38.5001 26.2 37.6001 26.4 36.7001 26.7C36.4001 23.3 33.6001 20.5 30.1001 20.5C26.4001 20.5 23.4001 23.5 23.4001 27.2C23.4001 28 23.6001 28.8 23.8001 29.5C23.5001 29.4 23.1001 29.4 22.8001 29.4C19.1001 29.4 16.1001 32.4 16.1001 36.1C16.1001 39.7 19.0001 42.7 22.6001 42.8H39.8001C44.2001 42.3 47.7001 38.8 47.7001 34.4Z" fill="#57A0EE" stroke="white" stroke-width="1.2" stroke-linejoin="round"/>
<path d="M20 36.8008V40.4008" stroke="#FFA500" stroke-width="2.4" stroke-linecap="round"/>
<path d="M12.3633 33.6367L9.8177 36.1823" stroke="#FFA500" stroke-width="2.4" stroke-linecap="round"/>
<path d="M9.2002 26H5.6002" stroke="#FFA500" stroke-width="2.4" stroke-linecap="round"/>
<path d="M12.3633 18.3633L9.8177 15.8177" stroke="#FFA500" stroke-width="2.4" stroke-linecap="round"/>
<path d="M20 15.2031V11.6031" stroke="#FFA500" stroke-width="2.4" stroke-linecap="round"/>
<path d="M27.637 18.3633L30.1825 15.8177" stroke="#FFA500" stroke-width="2.4" stroke-linecap="round"/>
<path d="M30.8 26H34.4" stroke="#FFA500" stroke-width="2.4" stroke-linecap="round"/>
<path d="M27.637 33.6367L30.1825 36.1823" stroke="#FFA500" stroke-width="2.4" stroke-linecap="round"/>
<path d="M20 32C23.3137 32 26 29.3137 26 26C26 22.6863 23.3137 20 20 20C16.6863 20 14 22.6863 14 26C14 29.3137 16.6863 32 20 32Z" fill="#FFA500" stroke="#FFA500" stroke-width="2.4"/>
<path d="M45.5451 35.0923C45.5451 31.1823 42.4001 28.1223 38.5751 28.1223C37.7251 28.1223 36.9601 28.2923 36.1951 28.5473C35.9401 25.6573 33.5601 23.2773 30.5851 23.2773C27.4401 23.2773 24.8901 25.8273 24.8901 28.9723C24.8901 29.6523 25.0601 30.3323 25.2301 30.9273C24.9751 30.8423 24.6351 30.8423 24.3801 30.8423C21.2351 30.8423 18.6851 33.3923 18.6851 36.5373C18.6851 39.5973 21.1501 42.1473 24.2101 42.2323H38.8301C42.5701 41.8073 45.5451 38.8323 45.5451 35.0923Z" fill="#57A0EE" stroke="white" stroke-width="1.275" stroke-linejoin="round"/>
<path d="M27.9175 45.9453L26.5283 53.8238" stroke="#91C0F8" stroke-width="2" stroke-linecap="round" stroke-dasharray="4 7"/>
<path d="M34.1738 45.0195L32.7846 52.898" stroke="#91C0F8" stroke-width="2" stroke-linecap="round" stroke-dasharray="4 7"/>
<path d="M20 35V38" stroke="#FFA500" stroke-width="2" stroke-linecap="round"/>
<path d="M13.636 32.3633L11.5147 34.4846" stroke="#FFA500" stroke-width="2" stroke-linecap="round"/>
<path d="M11 26H8" stroke="#FFA500" stroke-width="2" stroke-linecap="round"/>
<path d="M13.636 19.6367L11.5147 17.5154" stroke="#FFA500" stroke-width="2" stroke-linecap="round"/>
<path d="M20 17V14" stroke="#FFA500" stroke-width="2" stroke-linecap="round"/>
<path d="M26.364 19.6367L28.4853 17.5154" stroke="#FFA500" stroke-width="2" stroke-linecap="round"/>
<path d="M29 26H32" stroke="#FFA500" stroke-width="2" stroke-linecap="round"/>
<path d="M26.364 32.3633L28.4853 34.4846" stroke="#FFA500" stroke-width="2" stroke-linecap="round"/>
<path d="M20 31C22.7614 31 25 28.7614 25 26C25 23.2386 22.7614 21 20 21C17.2386 21 15 23.2386 15 26C15 28.7614 17.2386 31 20 31Z" fill="#FFA500" stroke="#FFA500" stroke-width="2"/>
<path d="M47.7001 34.4C47.7001 29.8 44.0001 26.2 39.5001 26.2C38.5001 26.2 37.6001 26.4 36.7001 26.7C36.4001 23.3 33.6001 20.5 30.1001 20.5C26.4001 20.5 23.4001 23.5 23.4001 27.2C23.4001 28 23.6001 28.8 23.8001 29.5C23.5001 29.4 23.1001 29.4 22.8001 29.4C19.1001 29.4 16.1001 32.4 16.1001 36.1C16.1001 39.7 19.0001 42.7 22.6001 42.8H39.8001C44.2001 42.3 47.7001 38.8 47.7001 34.4Z" fill="#57A0EE" stroke="white" stroke-width="1.2" stroke-linejoin="round"/>
<path d="M30.9175 44.9414L29.5283 52.8199" stroke="#91C0F8" stroke-width="2" stroke-linecap="round" stroke-dasharray="4 7"/>
<path d="M20 35V38" stroke="#FFA500" stroke-width="2" stroke-linecap="round"/>
<path d="M13.636 32.3633L11.5147 34.4846" stroke="#FFA500" stroke-width="2" stroke-linecap="round"/>
<path d="M11 26H8" stroke="#FFA500" stroke-width="2" stroke-linecap="round"/>
<path d="M13.636 19.6367L11.5147 17.5154" stroke="#FFA500" stroke-width="2" stroke-linecap="round"/>
<path d="M20 17V14" stroke="#FFA500" stroke-width="2" stroke-linecap="round"/>
<path d="M26.364 19.6367L28.4853 17.5154" stroke="#FFA500" stroke-width="2" stroke-linecap="round"/>
<path d="M29 26H32" stroke="#FFA500" stroke-width="2" stroke-linecap="round"/>
<path d="M26.364 32.3633L28.4853 34.4846" stroke="#FFA500" stroke-width="2" stroke-linecap="round"/>
<path d="M20 31C22.7614 31 25 28.7614 25 26C25 23.2386 22.7614 21 20 21C17.2386 21 15 23.2386 15 26C15 28.7614 17.2386 31 20 31Z" fill="#FFA500" stroke="#FFA500" stroke-width="2"/>
<path d="M47.7001 34.4C47.7001 29.8 44.0001 26.2 39.5001 26.2C38.5001 26.2 37.6001 26.4 36.7001 26.7C36.4001 23.3 33.6001 20.5 30.1001 20.5C26.4001 20.5 23.4001 23.5 23.4001 27.2C23.4001 28 23.6001 28.8 23.8001 29.5C23.5001 29.4 23.1001 29.4 22.8001 29.4C19.1001 29.4 16.1001 32.4 16.1001 36.1C16.1001 39.7 19.0001 42.7 22.6001 42.8H39.8001C44.2001 42.3 47.7001 38.8 47.7001 34.4Z" fill="#57A0EE" stroke="white" stroke-width="1.2" stroke-linejoin="round"/>
<path d="M27.9175 45.9414L26.5283 53.8199" stroke="#91C0F8" stroke-width="2" stroke-linecap="round" stroke-dasharray="4 7"/>
<path d="M34.1738 45.0156L32.7846 52.8941" stroke="#91C0F8" stroke-width="2" stroke-linecap="round" stroke-dasharray="4 7"/>
<path d="M47.7001 34.4C47.7001 29.8 44.0001 26.2 39.5001 26.2C38.5001 26.2 37.6001 26.4 36.7001 26.7C36.4001 23.3 33.6001 20.5 30.1001 20.5C26.4001 20.5 23.4001 23.5 23.4001 27.2C23.4001 28 23.6001 28.8 23.8001 29.5C23.5001 29.4 23.1001 29.4 22.8001 29.4C19.1001 29.4 16.1001 32.4 16.1001 36.1C16.1001 39.7 19.0001 42.7 22.6001 42.8H39.8001C44.2001 42.3 47.7001 38.8 47.7001 34.4Z" fill="#57A0EE" stroke="white" stroke-width="1.2" stroke-linejoin="round"/>
<path d="M30.9175 44.9414L29.5283 52.8199" stroke="#91C0F8" stroke-width="2" stroke-linecap="round" stroke-dasharray="4 7"/>
<path d="M47.7001 34.4C47.7001 29.8 44.0001 26.2 39.5001 26.2C38.5001 26.2 37.6001 26.4 36.7001 26.7C36.4001 23.3 33.6001 20.5 30.1001 20.5C26.4001 20.5 23.4001 23.5 23.4001 27.2C23.4001 28 23.6001 28.8 23.8001 29.5C23.5001 29.4 23.1001 29.4 22.8001 29.4C19.1001 29.4 16.1001 32.4 16.1001 36.1C16.1001 39.7 19.0001 42.7 22.6001 42.8H39.8001C44.2001 42.3 47.7001 38.8 47.7001 34.4Z" fill="#57A0EE" stroke="white" stroke-width="1.2" stroke-linejoin="round"/>
<path d="M27.9175 45.9414L26.5283 53.8199" stroke="#91C0F8" stroke-width="2" stroke-linecap="round" stroke-dasharray="4 7"/>
<path d="M34.1738 45.0156L32.7846 52.8941" stroke="#91C0F8" stroke-width="2" stroke-linecap="round" stroke-dasharray="4 7"/>
<path d="M47.7001 34.4C47.7001 29.8 44.0001 26.2 39.5001 26.2C38.5001 26.2 37.6001 26.4 36.7001 26.7C36.4001 23.3 33.6001 20.5 30.1001 20.5C26.4001 20.5 23.4001 23.5 23.4001 27.2C23.4001 28 23.6001 28.8 23.8001 29.5C23.5001 29.4 23.1001 29.4 22.8001 29.4C19.1001 29.4 16.1001 32.4 16.1001 36.1C16.1001 39.7 19.0001 42.7 22.6001 42.8H39.8001C44.2001 42.3 47.7001 38.8 47.7001 34.4Z" fill="#57A0EE" stroke="white" stroke-width="1.2" stroke-linejoin="round"/>
<path d="M26.8872 46.2891L25.498 54.1675" stroke="#91C0F8" stroke-width="2" stroke-linecap="round" stroke-dasharray="4 4"/>
<path d="M31.1738 45.0156L29.7846 52.8941" stroke="#91C0F8" stroke-width="2" stroke-linecap="round" stroke-dasharray="4 4"/>
<path d="M34.9395 46.6953L33.5503 54.5738" stroke="#91C0F8" stroke-width="2" stroke-linecap="round" stroke-dasharray="4 4"/>
<path d="M47.7001 34.4C47.7001 29.8 44.0001 26.2 39.5001 26.2C38.5001 26.2 37.6001 26.4 36.7001 26.7C36.4001 23.3 33.6001 20.5 30.1001 20.5C26.4001 20.5 23.4001 23.5 23.4001 27.2C23.4001 28 23.6001 28.8 23.8001 29.5C23.5001 29.4 23.1001 29.4 22.8001 29.4C19.1001 29.4 16.1001 32.4 16.1001 36.1C16.1001 39.7 19.0001 42.7 22.6001 42.8H39.8001C44.2001 42.3 47.7001 38.8 47.7001 34.4Z" fill="#57A0EE" stroke="white" stroke-width="1.2" stroke-linejoin="round"/>
<path d="M25.9023 46.1172L24.5132 53.9956" stroke="#91C0F8" stroke-width="3" stroke-linecap="round" stroke-dasharray="0.1 7"/>
<path d="M31.1738 45.0156L29.7846 52.8941" stroke="#91C0F8" stroke-width="3" stroke-linecap="round" stroke-dasharray="0.1 7"/>
<path d="M35.9241 46.8711L34.5349 54.7496" stroke="#91C0F8" stroke-width="3" stroke-linecap="round" stroke-dasharray="0.1 7"/>
<path d="M20 36.8008V40.4008" stroke="#FFA500" stroke-width="2.4" stroke-linecap="round"/>
<path d="M12.3633 33.6367L9.8177 36.1823" stroke="#FFA500" stroke-width="2.4" stroke-linecap="round"/>
<path d="M9.2002 26H5.6002" stroke="#FFA500" stroke-width="2.4" stroke-linecap="round"/>
<path d="M12.3633 18.3633L9.8177 15.8177" stroke="#FFA500" stroke-width="2.4" stroke-linecap="round"/>
<path d="M20 15.2031V11.6031" stroke="#FFA500" stroke-width="2.4" stroke-linecap="round"/>
<path d="M27.637 18.3633L30.1825 15.8177" stroke="#FFA500" stroke-width="2.4" stroke-linecap="round"/>
<path d="M30.8 26H34.4" stroke="#FFA500" stroke-width="2.4" stroke-linecap="round"/>
<path d="M27.637 33.6367L30.1825 36.1823" stroke="#FFA500" stroke-width="2.4" stroke-linecap="round"/>
<path d="M20 32C23.3137 32 26 29.3137 26 26C26 22.6863 23.3137 20 20 20C16.6863 20 14 22.6863 14 26C14 29.3137 16.6863 32 20 32Z" fill="#FFA500" stroke="#FFA500" stroke-width="2.4"/>
<path d="M45.5451 35.0923C45.5451 31.1823 42.4001 28.1223 38.5751 28.1223C37.7251 28.1223 36.9601 28.2923 36.1951 28.5473C35.9401 25.6573 33.5601 23.2773 30.5851 23.2773C27.4401 23.2773 24.8901 25.8273 24.8901 28.9723C24.8901 29.6523 25.0601 30.3323 25.2301 30.9273C24.9751 30.8423 24.6351 30.8423 24.3801 30.8423C21.2351 30.8423 18.6851 33.3923 18.6851 36.5373C18.6851 39.5973 21.1501 42.1473 24.2101 42.2323H38.8301C42.5701 41.8073 45.5451 38.8323 45.5451 35.0923Z" fill="#57A0EE" stroke="white" stroke-width="1.275" stroke-linejoin="round"/>
<path d="M27 43.5V48.5" stroke="#57A0EE" stroke-width="1.2" stroke-linecap="round"/>
<path d="M28.7678 44.2305L25.2323 47.766" stroke="#57A0EE" stroke-linecap="round"/>
<path d="M29.5 46H24.5" stroke="#57A0EE" stroke-linecap="round"/>
<path d="M28.7678 47.7695L25.2323 44.234" stroke="#57A0EE" stroke-linecap="round"/>
<path d="M36 43.5V48.5" stroke="#57A0EE" stroke-width="1.2" stroke-linecap="round"/>
<path d="M37.7678 44.2305L34.2323 47.766" stroke="#57A0EE" stroke-linecap="round"/>
<path d="M38.5 46H33.5" stroke="#57A0EE" stroke-linecap="round"/>
<path d="M37.7678 47.7695L34.2323 44.234" stroke="#57A0EE" stroke-linecap="round"/>
<path d="M20 35V38" stroke="#FFA500" stroke-width="2" stroke-linecap="round"/>
<path d="M13.636 32.3633L11.5147 34.4846" stroke="#FFA500" stroke-width="2" stroke-linecap="round"/>
<path d="M11 26H8" stroke="#FFA500" stroke-width="2" stroke-linecap="round"/>
<path d="M13.636 19.6367L11.5147 17.5154" stroke="#FFA500" stroke-width="2" stroke-linecap="round"/>
<path d="M20 17V14" stroke="#FFA500" stroke-width="2" stroke-linecap="round"/>
<path d="M26.364 19.6367L28.4853 17.5154" stroke="#FFA500" stroke-width="2" stroke-linecap="round"/>
<path d="M29 26H32" stroke="#FFA500" stroke-width="2" stroke-linecap="round"/>
<path d="M26.364 32.3633L28.4853 34.4846" stroke="#FFA500" stroke-width="2" stroke-linecap="round"/>
<path d="M20 31C22.7614 31 25 28.7614 25 26C25 23.2386 22.7614 21 20 21C17.2386 21 15 23.2386 15 26C15 28.7614 17.2386 31 20 31Z" fill="#FFA500" stroke="#FFA500" stroke-width="2"/>
<path d="M47.7001 34.4C47.7001 29.8 44.0001 26.2 39.5001 26.2C38.5001 26.2 37.6001 26.4 36.7001 26.7C36.4001 23.3 33.6001 20.5 30.1001 20.5C26.4001 20.5 23.4001 23.5 23.4001 27.2C23.4001 28 23.6001 28.8 23.8001 29.5C23.5001 29.4 23.1001 29.4 22.8001 29.4C19.1001 29.4 16.1001 32.4 16.1001 36.1C16.1001 39.7 19.0001 42.7 22.6001 42.8H39.8001C44.2001 42.3 47.7001 38.8 47.7001 34.4Z" fill="#57A0EE" stroke="white" stroke-width="1.2" stroke-linejoin="round"/>
<path d="M32 44.5V49.5" stroke="#57A0EE" stroke-width="1.2" stroke-linecap="round"/>
<path d="M33.7678 45.2305L30.2323 48.766" stroke="#57A0EE" stroke-linecap="round"/>
<path d="M34.5 47H29.5" stroke="#57A0EE" stroke-linecap="round"/>
<path d="M33.7678 48.7695L30.2323 45.234" stroke="#57A0EE" stroke-linecap="round"/>
<path d="M20 35V38" stroke="#FFA500" stroke-width="2" stroke-linecap="round"/>
<path d="M13.636 32.3633L11.5147 34.4846" stroke="#FFA500" stroke-width="2" stroke-linecap="round"/>
<path d="M11 26H8" stroke="#FFA500" stroke-width="2" stroke-linecap="round"/>
<path d="M13.636 19.6367L11.5147 17.5154" stroke="#FFA500" stroke-width="2" stroke-linecap="round"/>
<path d="M20 17V14" stroke="#FFA500" stroke-width="2" stroke-linecap="round"/>
<path d="M26.364 19.6367L28.4853 17.5154" stroke="#FFA500" stroke-width="2" stroke-linecap="round"/>
<path d="M29 26H32" stroke="#FFA500" stroke-width="2" stroke-linecap="round"/>
<path d="M26.364 32.3633L28.4853 34.4846" stroke="#FFA500" stroke-width="2" stroke-linecap="round"/>
<path d="M20 31C22.7614 31 25 28.7614 25 26C25 23.2386 22.7614 21 20 21C17.2386 21 15 23.2386 15 26C15 28.7614 17.2386 31 20 31Z" fill="#FFA500" stroke="#FFA500" stroke-width="2"/>
<path d="M47.7001 34.4C47.7001 29.8 44.0001 26.2 39.5001 26.2C38.5001 26.2 37.6001 26.4 36.7001 26.7C36.4001 23.3 33.6001 20.5 30.1001 20.5C26.4001 20.5 23.4001 23.5 23.4001 27.2C23.4001 28 23.6001 28.8 23.8001 29.5C23.5001 29.4 23.1001 29.4 22.8001 29.4C19.1001 29.4 16.1001 32.4 16.1001 36.1C16.1001 39.7 19.0001 42.7 22.6001 42.8H39.8001C44.2001 42.3 47.7001 38.8 47.7001 34.4Z" fill="#57A0EE" stroke="white" stroke-width="1.2" stroke-linejoin="round"/>
<path d="M27 44.5V49.5" stroke="#57A0EE" stroke-width="1.2" stroke-linecap="round"/>
<path d="M28.7678 45.2305L25.2323 48.766" stroke="#57A0EE" stroke-linecap="round"/>
<path d="M29.5 47H24.5" stroke="#57A0EE" stroke-linecap="round"/>
<path d="M28.7678 48.7695L25.2323 45.234" stroke="#57A0EE" stroke-linecap="round"/>
<path d="M36 44.5V49.5" stroke="#57A0EE" stroke-width="1.2" stroke-linecap="round"/>
<path d="M37.7678 45.2305L34.2323 48.766" stroke="#57A0EE" stroke-linecap="round"/>
<path d="M38.5 47H33.5" stroke="#57A0EE" stroke-linecap="round"/>
<path d="M37.7678 48.7695L34.2323 45.234" stroke="#57A0EE" stroke-linecap="round"/>
<path d="M47.7001 34.4C47.7001 29.8 44.0001 26.2 39.5001 26.2C38.5001 26.2 37.6001 26.4 36.7001 26.7C36.4001 23.3 33.6001 20.5 30.1001 20.5C26.4001 20.5 23.4001 23.5 23.4001 27.2C23.4001 28 23.6001 28.8 23.8001 29.5C23.5001 29.4 23.1001 29.4 22.8001 29.4C19.1001 29.4 16.1001 32.4 16.1001 36.1C16.1001 39.7 19.0001 42.7 22.6001 42.8H39.8001C44.2001 42.3 47.7001 38.8 47.7001 34.4Z" fill="#57A0EE" stroke="white" stroke-width="1.2" stroke-linejoin="round"/>
<path d="M31 44.5V49.5" stroke="#57A0EE" stroke-width="1.2" stroke-linecap="round"/>
<path d="M32.7678 45.2305L29.2323 48.766" stroke="#57A0EE" stroke-linecap="round"/>
<path d="M33.5 47H28.5" stroke="#57A0EE" stroke-linecap="round"/>
<path d="M32.7678 48.7695L29.2323 45.234" stroke="#57A0EE" stroke-linecap="round"/>
<path d="M47.7001 34.4C47.7001 29.8 44.0001 26.2 39.5001 26.2C38.5001 26.2 37.6001 26.4 36.7001 26.7C36.4001 23.3 33.6001 20.5 30.1001 20.5C26.4001 20.5 23.4001 23.5 23.4001 27.2C23.4001 28 23.6001 28.8 23.8001 29.5C23.5001 29.4 23.1001 29.4 22.8001 29.4C19.1001 29.4 16.1001 32.4 16.1001 36.1C16.1001 39.7 19.0001 42.7 22.6001 42.8H39.8001C44.2001 42.3 47.7001 38.8 47.7001 34.4Z" fill="#57A0EE" stroke="white" stroke-width="1.2" stroke-linejoin="round"/>
<path d="M27 44.5V49.5" stroke="#57A0EE" stroke-width="1.2" stroke-linecap="round"/>
<path d="M28.7678 45.2305L25.2323 48.766" stroke="#57A0EE" stroke-linecap="round"/>
<path d="M29.5 47H24.5" stroke="#57A0EE" stroke-linecap="round"/>
<path d="M28.7678 48.7695L25.2323 45.234" stroke="#57A0EE" stroke-linecap="round"/>
<path d="M36 44.5V49.5" stroke="#57A0EE" stroke-width="1.2" stroke-linecap="round"/>
<path d="M37.7678 45.2305L34.2323 48.766" stroke="#57A0EE" stroke-linecap="round"/>
<path d="M38.5 47H33.5" stroke="#57A0EE" stroke-linecap="round"/>
<path d="M37.7678 48.7695L34.2323 45.234" stroke="#57A0EE" stroke-linecap="round"/>
<path d="M47.7001 34.4C47.7001 29.8 44.0001 26.2 39.5001 26.2C38.5001 26.2 37.6001 26.4 36.7001 26.7C36.4001 23.3 33.6001 20.5 30.1001 20.5C26.4001 20.5 23.4001 23.5 23.4001 27.2C23.4001 28 23.6001 28.8 23.8001 29.5C23.5001 29.4 23.1001 29.4 22.8001 29.4C19.1001 29.4 16.1001 32.4 16.1001 36.1C16.1001 39.7 19.0001 42.7 22.6001 42.8H39.8001C44.2001 42.3 47.7001 38.8 47.7001 34.4Z" fill="#57A0EE" stroke="white" stroke-width="1.2" stroke-linejoin="round"/>
<path d="M23 44.5V49.5" stroke="#57A0EE" stroke-width="1.2" stroke-linecap="round"/>
<path d="M24.7678 45.2305L21.2323 48.766" stroke="#57A0EE" stroke-linecap="round"/>
<path d="M25.5 47H20.5" stroke="#57A0EE" stroke-linecap="round"/>
<path d="M24.7678 48.7695L21.2323 45.234" stroke="#57A0EE" stroke-linecap="round"/>
<path d="M31 44.5V49.5" stroke="#57A0EE" stroke-width="1.2" stroke-linecap="round"/>
<path d="M32.7678 45.2305L29.2323 48.766" stroke="#57A0EE" stroke-linecap="round"/>
<path d="M33.5 47H28.5" stroke="#57A0EE" stroke-linecap="round"/>
<path d="M32.7678 48.7695L29.2323 45.234" stroke="#57A0EE" stroke-linecap="round"/>
<path d="M40 44.5V49.5" stroke="#57A0EE" stroke-width="1.2" stroke-linecap="round"/>
<path d="M41.7678 45.2305L38.2323 48.766" stroke="#57A0EE" stroke-linecap="round"/>
<path d="M42.5 47H37.5" stroke="#57A0EE" stroke-linecap="round"/>
<path d="M41.7678 48.7695L38.2323 45.234" stroke="#57A0EE" stroke-linecap="round"/>
</svg>
