<svg width="414" height="414" viewBox="0 0 414 414" fill="none" xmlns="http://www.w3.org/2000/svg">
<rect width="414" height="414" rx="40" fill="url(#paint0_linear_367_34)"/>
<rect x="103.5" y="103.5" width="207" height="207" rx="48.5" stroke="white" stroke-opacity="0.5" stroke-width="13"/>
<path d="M135 148L281 148" stroke="#8899EB" stroke-width="14.3" stroke-linecap="round"/>
<path d="M170.564 263.784C168.769 263.784 166.951 263.162 165.515 261.869L131.461 231.668C129.833 230.232 128.9 228.15 128.9 225.949C128.9 223.747 129.833 221.689 131.461 220.229L165.515 190.028C168.674 187.228 173.484 187.515 176.284 190.674C179.084 193.833 178.797 198.643 175.638 201.443L148.021 225.925L175.638 250.406C178.797 253.206 179.084 258.016 176.284 261.175C174.776 262.874 172.67 263.736 170.564 263.736V263.784Z" fill="white"/>
<path d="M244.536 263.784C242.43 263.784 240.324 262.922 238.816 261.223C236.016 258.064 236.303 253.254 239.462 250.454L267.079 225.972L239.462 201.491C236.303 198.691 236.016 193.881 238.816 190.722C241.616 187.563 246.426 187.276 249.585 190.076L283.639 220.277C285.267 221.713 286.2 223.795 286.2 225.996C286.2 228.198 285.267 230.256 283.639 231.716L249.585 261.917C248.125 263.209 246.331 263.832 244.536 263.832V263.784Z" fill="white"/>
<path d="M194.735 267.206C193.825 267.206 192.916 267.038 192.007 266.703C188.082 265.196 186.096 260.792 187.603 256.844L213.234 189.908C214.741 185.983 219.145 183.997 223.093 185.505C227.018 187.012 229.004 191.416 227.497 195.364L201.866 262.3C200.694 265.339 197.822 267.206 194.735 267.206Z" fill="white"/>
<defs>
<linearGradient id="paint0_linear_367_34" x1="207" y1="20" x2="207.201" y2="405.502" gradientUnits="userSpaceOnUse">
<stop stop-color="#0323C4"/>
<stop offset="1" stop-color="#3153FC"/>
</linearGradient>
</defs>
</svg>
