<svg width="819" height="250" viewBox="0 0 819 250" fill="none" xmlns="http://www.w3.org/2000/svg">
<path fill-rule="evenodd" clip-rule="evenodd" d="M47.3735 236.866V207.398C47.3609 205.035 46.7299 202.717 45.5433 200.673C44.3567 198.63 42.6559 196.933 40.6099 195.751L7.10772 176.436C6.40254 176.099 5.62505 175.942 4.84455 175.979C4.06405 176.016 3.3048 176.245 2.63447 176.647C1.96414 177.048 1.40358 177.609 1.00273 178.28C0.601888 178.951 0.373225 179.71 0.337125 180.491V209.39C0.34125 212.13 1.06228 214.82 2.42855 217.195C3.79482 219.569 5.75873 221.545 8.12507 222.925L55.4982 250C53.1234 248.701 51.1264 246.807 49.7023 244.505C48.2783 242.203 47.4758 239.571 47.3735 236.866ZM178.87 112.68C177.688 110.644 175.995 108.951 173.959 107.768L147.635 92.5432L140.864 88.4809C139.776 87.8529 138.484 87.6828 137.271 88.0078C136.057 88.3328 135.023 89.1263 134.395 90.2139C133.982 90.9212 133.762 91.7243 133.757 92.5432V127.463C133.748 131.817 133.015 136.139 131.589 140.253C130.838 142.609 129.841 144.878 128.614 147.024C125.238 152.869 120.384 157.723 114.539 161.098L53.4986 196.291C54.7185 198.335 55.3521 200.675 55.3298 203.055V236.866C55.2646 238.228 55.5775 239.581 56.2338 240.776C56.8901 241.971 57.8642 242.961 59.0484 243.636C60.1738 244.31 61.4624 244.662 62.774 244.654C64.0643 244.668 65.3322 244.315 66.4294 243.636L155.086 192.418C149.766 187.504 146.052 181.1 144.429 174.043C142.806 166.985 143.349 159.602 145.988 152.858C148.626 146.114 153.238 140.322 159.219 136.24C165.201 132.158 172.274 129.974 179.516 129.974H180.667V119.45C180.672 117.075 180.053 114.74 178.87 112.68ZM176.976 36.4069C175.834 35.7854 174.554 35.4599 173.254 35.4599C171.954 35.4599 170.674 35.7854 169.532 36.4069L133.462 57.3221L173.594 80.5315C174.314 80.9486 175.131 81.1682 175.962 81.1682C176.794 81.1682 177.611 80.9486 178.33 80.5315C179.037 80.1002 179.62 79.4938 180.023 78.771C180.426 78.0483 180.636 77.2337 180.632 76.406V42.9039C180.624 41.5995 180.285 40.3186 179.645 39.1818C179.006 38.045 178.087 37.09 176.976 36.4069ZM133.799 2.10485C131.46 0.728156 128.795 0.0014774 126.081 0C123.349 0.016796 120.668 0.742033 118.3 2.10485L23.5817 57.1256C16.3592 61.2209 10.3897 67.2075 6.3149 74.4415C2.2387 81.4559 0.0622383 89.4121 0.000349494 97.5247V137.11C-0.0172841 139.601 0.632654 142.05 1.88258 144.205C3.1325 146.359 4.93676 148.139 7.10772 149.36L40.1328 168.514C40.8523 168.931 41.6692 169.151 42.5008 169.151C43.3324 169.151 44.1492 168.931 44.8687 168.514C45.6097 168.105 46.2307 167.508 46.67 166.785C47.1094 166.061 47.3519 165.235 47.3735 164.389V124.797C47.3539 116.589 49.4876 108.521 53.5615 101.396C57.6354 94.2713 63.507 88.3399 70.59 84.194L165.308 29.2434C167.709 27.8348 170.439 27.0868 173.222 27.0754C175.937 27.0762 178.601 27.8029 180.94 29.1802L133.799 2.10485Z" fill="url(#paint0_linear_1043_158)"/>
<circle cx="180.571" cy="165.571" r="29.5714" fill="#4E49FD"/>
<path d="M172.988 160.45L167.865 165.571L172.988 170.693C173.876 171.58 173.876 173.021 172.988 173.909C172.543 174.354 171.961 174.576 171.379 174.576C170.797 174.576 170.215 174.354 169.771 173.909L163.04 167.18C162.614 166.753 162.374 166.175 162.374 165.571C162.374 164.968 162.614 164.39 163.04 163.963L169.771 157.233C170.659 156.345 172.099 156.345 172.988 157.233C173.876 158.122 173.876 159.563 172.988 160.45ZM198.676 165.571C198.676 166.175 198.436 166.753 198.01 167.18L191.279 173.91C190.834 174.354 190.252 174.576 189.67 174.576C189.088 174.576 188.506 174.354 188.062 173.91C187.174 173.021 187.174 171.58 188.062 170.693L193.185 165.571L188.062 160.45C187.174 159.563 187.174 158.122 188.062 157.233C188.951 156.345 190.39 156.345 191.279 157.233L198.01 163.963C198.436 164.39 198.676 164.968 198.676 165.571ZM182.846 151.923V165.571V179.22C182.846 180.476 181.829 181.495 180.571 181.495C179.314 181.495 178.297 180.476 178.297 179.22V151.923C178.297 150.667 179.314 149.648 180.571 149.648C181.829 149.648 182.846 150.667 182.846 151.923Z" fill="white"/>
<path d="M254 105.358L269.074 96.5252C272.876 107.334 281.094 114.493 295.563 114.493C309.417 114.493 315.356 108.252 315.356 100.488C315.356 91.0399 306.977 87.8436 291.157 82.9734C274.56 77.9317 258.427 71.8818 258.427 51.7658C258.427 32.1237 274.711 21.0019 292.709 21.0019C310.224 21.0019 323.161 30.2885 329.856 44.4555L315.094 52.9758C311.283 44.4555 304.587 38.0627 292.709 38.0627C282.505 38.0627 275.961 43.2354 275.961 51.302C275.961 59.5299 281.9 63.0288 297.428 67.8989C315.094 73.5355 332.901 78.9905 332.901 100.165C332.901 119.656 317.373 131.534 295.15 131.534C274.096 131.544 259.626 121.189 254 105.358Z" fill="#000212"/>
<path d="M340.473 91.5075C340.473 68.8203 357.675 51.457 380.675 51.457C395.588 51.457 408.535 59.2211 414.625 71.0991L400.509 79.327C397.111 72.1679 389.609 67.6002 380.534 67.6002C367.143 67.6002 356.939 77.8044 356.939 91.5075C356.939 105.211 367.143 115.405 380.534 115.405C389.669 115.405 397.131 110.686 400.791 103.688L414.907 111.755C408.515 123.784 395.568 131.548 380.625 131.548C357.675 131.548 340.473 114.033 340.473 91.5075Z" fill="#000212"/>
<path d="M462.884 52.0666V69.8735C452.075 69.1173 439.44 74.1387 439.44 91.1894V129.566H422.995V53.4379H439.44V66.2234C444.058 55.8679 453.295 52.0666 462.884 52.0666Z" fill="#000212"/>
<path d="M504.61 116.474C513.745 116.474 520.592 112.36 524.252 107.036L537.834 114.951C530.776 125.306 519.412 131.548 504.489 131.548C479.361 131.548 463.067 114.346 463.067 91.5075C463.067 68.9715 479.361 51.457 503.269 51.457C525.956 51.457 541.484 69.7278 541.484 91.6588C541.439 93.9521 541.237 96.2397 540.879 98.5053H480.279C482.83 110.383 492.459 116.474 504.61 116.474ZM524.857 85.1148C522.578 72.0066 512.979 66.3802 503.087 66.3802C490.755 66.3802 482.376 73.6905 480.097 85.1148H524.857Z" fill="#000212"/>
<path d="M588.501 116.474C597.637 116.474 604.483 112.36 608.144 107.036L621.695 114.951C614.688 125.306 603.273 131.548 588.35 131.548C563.223 131.548 546.908 114.306 546.908 91.5075C546.908 68.9715 563.193 51.457 587.1 51.457C609.787 51.457 625.315 69.7278 625.315 91.6588C625.271 93.9521 625.068 96.2397 624.71 98.5053H564.11C566.722 110.383 576.321 116.474 588.501 116.474ZM608.749 85.1148C606.47 72.0066 596.871 66.3802 586.979 66.3802C574.647 66.3802 566.268 73.6905 563.989 85.1148H608.749Z" fill="#000212"/>
<path d="M704.821 82.8259V129.572H688.376V84.4997C688.376 72.9343 681.68 66.8339 671.325 66.8339C660.516 66.8339 651.985 73.2368 651.985 88.7649V129.572H635.54V53.4434H651.985V63.1838C657.027 55.2685 665.235 51.457 675.59 51.457C692.641 51.457 704.821 63.0325 704.821 82.8259Z" fill="#000212"/>
<path d="M718.222 18.4116H734.667V129.559H718.222V18.4116Z" fill="#000212"/>
<path d="M818.247 53.4255L789.005 131.984C781.846 151.323 769.363 161.064 751.859 160.005V144.628C762.517 145.233 768.294 139.748 772.106 129.705L772.862 128.183L740.596 53.4255H758.564L781.251 108.692L800.742 53.4255H818.247Z" fill="#000212"/>
<path d="M293.853 172.922C293.853 183.485 285.91 191.518 275.257 191.518H260.042V213.496H254.125V154.325H275.257C285.91 154.325 293.853 162.269 293.853 172.922ZM287.936 172.922C287.936 165.314 282.612 159.901 275.257 159.901H260.042V185.937H275.257C282.612 185.937 287.936 180.445 287.936 172.922Z" fill="#000212"/>
<path d="M300.811 151.781H306.409V213.487H300.811V151.781Z" fill="#000212"/>
<path d="M357.76 171.225V213.489H352.162V205.204C348.612 210.869 342.611 214.502 335.088 214.502C329.214 214.502 323.582 212.169 319.429 208.016C315.276 203.863 312.942 198.23 312.942 192.357C312.942 186.484 315.276 180.851 319.429 176.698C323.582 172.545 329.214 170.212 335.088 170.212C342.611 170.212 348.612 173.845 352.162 179.51V171.225H357.76ZM352.162 192.357C352.145 189.066 351.154 185.854 349.313 183.126C347.473 180.399 344.865 178.277 341.82 177.03C338.775 175.783 335.429 175.465 332.203 176.118C328.978 176.771 326.019 178.365 323.698 180.699C321.378 183.032 319.801 186.001 319.167 189.23C318.532 192.459 318.868 195.803 320.133 198.841C321.398 201.879 323.534 204.474 326.272 206.299C329.011 208.124 332.228 209.097 335.519 209.095C337.72 209.118 339.903 208.699 341.939 207.865C343.976 207.031 345.825 205.798 347.377 204.238C348.93 202.678 350.154 200.823 350.979 198.783C351.804 196.742 352.211 194.558 352.178 192.357H352.162Z" fill="#000212"/>
<path d="M403.574 171.221L385.481 217.371C382.273 225.488 376.015 230.979 368.407 230.392V225.152C373.904 225.74 377.705 221.855 379.989 216.358L381.109 213.738L362.177 171.193H368.094L383.986 206.612L397.657 171.221H403.574Z" fill="#000212"/>
<path d="M448.206 171.225V211.799C448.206 224.646 437.889 231.391 426.99 231.391C417.266 231.391 410.252 227.674 406.955 221.08L411.859 218.281C413.969 222.592 417.86 225.973 426.973 225.973C436.775 225.973 442.608 220.375 442.608 211.771V205.204C439.059 210.869 433.058 214.502 425.535 214.502C419.661 214.502 414.028 212.169 409.875 208.016C405.722 203.863 403.389 198.23 403.389 192.357C403.389 186.484 405.722 180.851 409.875 176.698C414.028 172.545 419.661 170.212 425.535 170.212C433.058 170.212 439.059 173.845 442.608 179.51V171.225H448.206ZM442.608 192.357C442.592 189.067 441.601 185.855 439.761 183.128C437.921 180.4 435.314 178.278 432.27 177.031C429.225 175.783 425.879 175.465 422.654 176.117C419.429 176.769 416.47 178.362 414.149 180.695C411.828 183.027 410.251 185.995 409.615 189.223C408.979 192.451 409.314 195.795 410.576 198.833C411.839 201.872 413.974 204.468 416.711 206.294C419.448 208.12 422.664 209.095 425.954 209.095C428.156 209.119 430.34 208.702 432.378 207.869C434.416 207.035 436.266 205.802 437.82 204.242C439.374 202.682 440.6 200.827 441.425 198.786C442.25 196.744 442.658 194.559 442.625 192.357H442.608Z" fill="#000212"/>
<path d="M476.588 170.548V175.955C469.826 175.955 463.231 179.51 463.231 189.989V213.501H457.633V171.225H463.231V178.239C466.209 172.322 471.197 170.548 476.588 170.548Z" fill="#000212"/>
<path d="M476.772 192.349C476.754 187.948 478.043 183.64 480.476 179.972C482.908 176.303 486.375 173.439 490.436 171.743C494.497 170.046 498.971 169.593 503.29 170.441C507.609 171.289 511.579 173.399 514.698 176.505C517.816 179.611 519.943 183.573 520.808 187.889C521.673 192.204 521.238 196.679 519.558 200.748C517.878 204.816 515.028 208.294 511.37 210.741C507.711 213.188 503.409 214.494 499.007 214.494C496.085 214.53 493.185 213.981 490.478 212.882C487.77 211.783 485.309 210.154 483.238 208.092C481.168 206.03 479.529 203.575 478.419 200.872C477.309 198.169 476.749 195.271 476.772 192.349ZM515.655 192.349C515.639 189.059 514.648 185.847 512.808 183.119C510.967 180.391 508.36 178.27 505.315 177.022C502.271 175.775 498.925 175.457 495.699 176.11C492.474 176.762 489.515 178.356 487.194 180.689C484.874 183.022 483.296 185.99 482.661 189.218C482.026 192.447 482.361 195.791 483.625 198.829C484.889 201.867 487.024 204.463 489.762 206.289C492.5 208.114 495.717 209.088 499.007 209.087C501.207 209.108 503.389 208.689 505.424 207.854C507.459 207.019 509.307 205.786 510.858 204.226C512.41 202.666 513.633 200.812 514.457 198.772C515.281 196.733 515.688 194.549 515.655 192.349Z" fill="#000212"/>
<path d="M563.499 171.22V213.485H557.901V206.89C554.604 212.214 549.7 214.498 543.699 214.498C533.388 214.498 527.135 207.736 527.135 197.144V171.22H532.733V197.167C532.733 204.69 536.875 209.09 544.231 209.09C551.587 209.09 557.923 204.69 557.923 193.366V171.22H563.499Z" fill="#000212"/>
<path d="M609.313 187.515V213.489H603.715V187.515C603.715 179.991 599.573 175.597 592.223 175.597C584.783 175.597 578.525 179.991 578.525 191.322V213.489H572.927V171.225H578.525V177.814C581.822 172.49 586.726 170.212 592.727 170.212C603.055 170.212 609.313 176.974 609.313 187.515Z" fill="#000212"/>
<path d="M659.69 154.326V213.496H654.092V205.211C650.543 210.876 644.542 214.509 637.018 214.509C631.145 214.509 625.512 212.176 621.359 208.023C617.206 203.87 614.873 198.237 614.873 192.364C614.873 186.49 617.206 180.857 621.359 176.704C625.512 172.551 631.145 170.218 637.018 170.218C644.542 170.218 650.543 173.851 654.092 179.516V154.326H659.69ZM654.092 192.391C654.075 189.101 653.084 185.89 651.244 183.162C649.404 180.434 646.798 178.313 643.753 177.065C640.709 175.818 637.363 175.5 634.138 176.152C630.913 176.804 627.953 178.397 625.632 180.729C623.312 183.061 621.734 186.029 621.098 189.257C620.462 192.485 620.797 195.83 622.06 198.868C623.323 201.906 625.457 204.502 628.194 206.328C630.931 208.155 634.148 209.129 637.438 209.129C639.642 209.154 641.829 208.737 643.87 207.902C645.91 207.067 647.763 205.832 649.317 204.269C650.872 202.706 652.098 200.847 652.921 198.802C653.745 196.757 654.151 194.568 654.114 192.364L654.092 192.391Z" fill="#000212"/>
<defs>
<linearGradient id="paint0_linear_1043_158" x1="56.9754" y1="120.239" x2="172.401" y2="136.371" gradientUnits="userSpaceOnUse">
<stop stop-color="#972EFF"/>
<stop offset="1" stop-color="#3153FC"/>
</linearGradient>
</defs>
</svg>
