<svg version="1.1" id="Layer_1" xmlns="http://www.w3.org/2000/svg" xmlns:xlink="http://www.w3.org/1999/xlink" x="0px" y="0px"
	 width="100%" viewBox="0 0 274 119" enable-background="new 0 0 274 119" xml:space="preserve">
<path fill="#FEFEFE" opacity="1.000000" stroke="none" 
	d="
M165.000000,120.000000 
	C110.000015,120.000000 55.500034,120.000000 1.000036,120.000000 
	C1.000024,80.333359 1.000024,40.666721 1.000012,1.000063 
	C92.333282,1.000042 183.666565,1.000042 274.999878,1.000021 
	C274.999939,40.666599 274.999939,80.333199 274.999969,119.999901 
	C238.500000,120.000000 202.000000,120.000000 165.000000,120.000000 
M58.176796,28.314701 
	C58.130432,47.696697 58.074959,67.078690 58.079830,86.460678 
	C58.079983,87.067932 58.703255,87.675018 59.935005,88.541473 
	C79.536659,88.541473 99.138306,88.541473 119.032028,88.541473 
	C119.032028,68.117622 119.032028,48.096230 119.032028,27.935795 
	C98.822205,27.935795 78.897537,27.935795 58.176796,28.314701 
M138.090851,69.813606 
	C140.372162,69.882874 142.709656,70.005150 141.126541,66.057587 
	C137.833420,66.057587 134.435654,66.057587 130.779922,66.057587 
	C133.498138,59.653854 140.593201,56.394646 141.323425,49.096630 
	C126.894005,48.302902 126.894005,48.302902 126.392418,52.087742 
	C129.235947,52.235653 132.071671,52.383160 135.064575,52.538841 
	C132.296082,58.927261 125.071281,62.048622 124.761543,69.813538 
	C129.229218,69.813538 133.206528,69.813538 138.090851,69.813606 
M160.805054,60.442661 
	C160.805054,63.511108 160.805054,66.579552 160.805054,69.185333 
	C163.781113,69.506844 166.035172,69.772697 168.293961,69.989372 
	C172.094818,70.353958 174.246582,68.299660 175.094620,64.890991 
	C176.978363,57.319244 172.781265,53.294952 165.227112,55.114590 
	C163.532013,53.303680 167.377563,47.938534 160.805099,49.112545 
	C160.805099,52.581631 160.805099,56.034847 160.805054,60.442661 
M187.114685,54.212631 
	C185.711975,54.586761 184.309250,54.960892 182.627014,55.409576 
	C182.462738,53.252506 182.314301,51.303295 182.090637,48.366249 
	C180.671997,49.241665 178.830658,49.828285 178.808685,50.476612 
	C178.592148,56.859859 178.677902,63.253361 178.677902,68.908386 
	C181.736267,69.367058 184.143616,70.441620 185.996490,69.831688 
	C188.510803,69.004013 191.602173,67.379425 192.664230,65.220207 
	C194.883133,60.709110 192.719711,56.741901 187.114685,54.212631 
M144.906708,62.274769 
	C144.544907,64.064194 143.483612,66.122375 144.036148,67.560493 
	C144.502701,68.774796 146.804672,69.857925 148.358765,69.953819 
	C151.095154,70.122643 153.880737,69.493996 156.737991,69.189430 
	C156.737991,66.423645 156.685150,63.478764 156.752304,60.536625 
	C156.824966,57.352859 155.851303,54.907528 152.372284,54.379948 
	C148.793472,53.837238 145.507309,54.160931 143.658447,58.778553 
	C146.935593,58.476185 149.673523,58.223564 152.411453,57.970943 
	C152.463547,58.579811 152.515640,59.188675 152.567734,59.797543 
	C150.237991,60.489090 147.908249,61.180641 144.906708,62.274769 
M215.229660,54.723682 
	C213.586487,55.805042 211.943329,56.886402 211.003128,57.505131 
	C208.601273,56.348576 206.466003,55.320396 204.330750,54.292221 
	C204.106888,54.712524 203.883011,55.132828 203.659134,55.553131 
	C205.151291,57.668438 206.643448,59.783749 208.150864,61.920681 
	C206.399261,64.550171 204.813416,66.930817 203.227570,69.311462 
	C203.608063,69.727821 203.988556,70.144188 204.369064,70.560547 
	C206.548645,69.052414 208.728226,67.544289 210.342529,66.427299 
	C212.614655,67.803955 214.848267,69.157272 217.081879,70.510590 
	C217.371048,70.109116 217.660202,69.707642 217.949356,69.306168 
	C216.296143,66.730270 214.642929,64.154381 213.026169,61.635307 
	C214.496628,59.586002 215.786942,57.856815 216.946609,56.044048 
	C217.042282,55.894497 216.251526,55.177887 215.229660,54.723682 
M198.667389,54.704781 
	C198.025925,55.403744 196.859634,56.080822 196.829422,56.805279 
	C196.653091,61.034851 196.742981,65.275520 196.742981,70.375626 
	C198.509186,69.653206 200.494003,69.186783 200.479431,68.794708 
	C200.304932,64.101837 199.833664,59.420002 198.667389,54.704781 
z"/>
<path fill="#D42209" opacity="1.000000" stroke="none" 
	d="
M59.036026,88.282181 
	C58.703255,87.675018 58.079983,87.067932 58.079830,86.460678 
	C58.074959,67.078690 58.130432,47.696697 58.858566,28.438393 
	C61.344013,28.710131 63.147423,28.982893 64.951401,28.986698 
	C80.917084,29.020355 96.883698,29.092993 112.848000,28.940908 
	C116.502411,28.906094 118.162010,29.556360 118.095436,33.801849 
	C117.842560,49.929947 117.842888,66.066734 118.095314,82.194847 
	C118.161690,86.435722 116.510612,87.093399 112.851326,87.059402 
	C96.554359,86.907951 80.254982,86.957054 63.957138,87.050072 
	C62.314476,87.059441 60.676289,87.852715 59.036026,88.282181 
M105.647003,73.740097 
	C104.090858,73.491325 102.538071,73.054192 100.977997,73.026428 
	C94.276619,72.907196 87.573097,72.908318 81.070450,72.219154 
	C88.593948,62.938705 96.246918,53.757999 103.535774,44.296791 
	C105.061905,42.315819 105.246170,39.301079 105.755943,36.028332 
	C105.057861,35.686970 104.361931,35.053566 103.661369,35.048401 
	C94.356094,34.979790 85.049660,34.956055 75.745201,35.065102 
	C74.834618,35.075771 73.935196,36.038822 72.628777,37.149506 
	C72.434540,38.547596 72.240295,39.945683 72.408554,42.159641 
	C73.970520,42.441814 75.528206,42.937752 77.095192,42.969105 
	C83.835320,43.103981 90.578163,43.102421 97.053680,43.785034 
	C89.370041,53.269814 81.569115,62.663937 74.106277,72.319374 
	C72.691711,74.149544 72.618217,77.016251 72.271873,80.098946 
	C72.662949,80.373528 73.052513,80.885551 73.445312,80.888039 
	C83.848785,80.953773 94.253029,81.010048 104.655441,80.902573 
	C105.440376,80.894463 106.212608,79.656601 106.925331,78.178673 
	C106.606026,76.924294 106.286713,75.669922 105.647003,73.740097 
z"/>
<path fill="#D00000" opacity="1.000000" stroke="none" 
	d="
M59.485516,88.411827 
	C60.676289,87.852715 62.314476,87.059441 63.957138,87.050072 
	C80.254982,86.957054 96.554359,86.907951 112.851326,87.059402 
	C116.510612,87.093399 118.161690,86.435722 118.095314,82.194847 
	C117.842888,66.066734 117.842560,49.929947 118.095436,33.801849 
	C118.162010,29.556360 116.502411,28.906094 112.848000,28.940908 
	C96.883698,29.092993 80.917084,29.020355 64.951401,28.986698 
	C63.147423,28.982893 61.344013,28.710131 59.256607,28.248940 
	C78.897537,27.935795 98.822205,27.935795 119.032028,27.935795 
	C119.032028,48.096230 119.032028,68.117622 119.032028,88.541473 
	C99.138306,88.541473 79.536659,88.541473 59.485516,88.411827 
z"/>
<path fill="#191919" opacity="1.000000" stroke="none" 
	d="
M137.637344,69.813568 
	C133.206528,69.813538 129.229218,69.813538 124.761543,69.813538 
	C125.071281,62.048622 132.296082,58.927261 135.064575,52.538841 
	C132.071671,52.383160 129.235947,52.235653 126.392418,52.087742 
	C126.894005,48.302902 126.894005,48.302902 141.323425,49.096630 
	C140.593201,56.394646 133.498138,59.653854 130.779922,66.057587 
	C134.435654,66.057587 137.833420,66.057587 141.126541,66.057587 
	C142.709656,70.005150 140.372162,69.882874 137.637344,69.813568 
z"/>
<path fill="#121212" opacity="1.000000" stroke="none" 
	d="
M160.805084,59.965363 
	C160.805099,56.034847 160.805099,52.581631 160.805099,49.112545 
	C167.377563,47.938534 163.532013,53.303680 165.227112,55.114590 
	C172.781265,53.294952 176.978363,57.319244 175.094620,64.890991 
	C174.246582,68.299660 172.094818,70.353958 168.293961,69.989372 
	C166.035172,69.772697 163.781113,69.506844 160.805054,69.185333 
	C160.805054,66.579552 160.805054,63.511108 160.805084,59.965363 
M170.330322,65.978874 
	C170.631317,63.931171 171.496521,61.762459 171.089920,59.866516 
	C170.586136,57.517578 168.240646,55.908661 166.325760,58.115097 
	C165.089157,59.540001 164.883270,62.434177 165.287598,64.455437 
	C165.477386,65.404221 168.197220,65.846893 170.330322,65.978874 
z"/>
<path fill="#0B0B0B" opacity="1.000000" stroke="none" 
	d="
M187.515839,54.277496 
	C192.719711,56.741901 194.883133,60.709110 192.664230,65.220207 
	C191.602173,67.379425 188.510803,69.004013 185.996490,69.831688 
	C184.143616,70.441620 181.736267,69.367058 178.677902,68.908386 
	C178.677902,63.253361 178.592148,56.859859 178.808685,50.476612 
	C178.830658,49.828285 180.671997,49.241665 182.090637,48.366249 
	C182.314301,51.303295 182.462738,53.252506 182.627014,55.409576 
	C184.309250,54.960892 185.711975,54.586761 187.515839,54.277496 
M187.777100,58.025066 
	C184.237335,56.125099 182.408630,58.127647 182.525497,61.192101 
	C182.600555,63.160309 184.371140,66.494461 185.758179,66.702141 
	C189.303711,67.233025 189.094513,63.950611 188.990616,61.444042 
	C188.951202,60.493546 188.551392,59.557991 187.777100,58.025066 
z"/>
<path fill="#1C1C1C" opacity="1.000000" stroke="none" 
	d="
M145.242615,62.073479 
	C147.908249,61.180641 150.237991,60.489090 152.567734,59.797543 
	C152.515640,59.188675 152.463547,58.579811 152.411453,57.970943 
	C149.673523,58.223564 146.935593,58.476185 143.658447,58.778553 
	C145.507309,54.160931 148.793472,53.837238 152.372284,54.379948 
	C155.851303,54.907528 156.824966,57.352859 156.752304,60.536625 
	C156.685150,63.478764 156.737991,66.423645 156.737991,69.189430 
	C153.880737,69.493996 151.095154,70.122643 148.358765,69.953819 
	C146.804672,69.857925 144.502701,68.774796 144.036148,67.560493 
	C143.483612,66.122375 144.544907,64.064194 145.242615,62.073479 
z"/>
<path fill="#141414" opacity="1.000000" stroke="none" 
	d="
M215.551147,54.724213 
	C216.251526,55.177887 217.042282,55.894497 216.946609,56.044048 
	C215.786942,57.856815 214.496628,59.586002 213.026169,61.635307 
	C214.642929,64.154381 216.296143,66.730270 217.949356,69.306168 
	C217.660202,69.707642 217.371048,70.109116 217.081879,70.510590 
	C214.848267,69.157272 212.614655,67.803955 210.342529,66.427299 
	C208.728226,67.544289 206.548645,69.052414 204.369064,70.560547 
	C203.988556,70.144188 203.608063,69.727821 203.227570,69.311462 
	C204.813416,66.930817 206.399261,64.550171 208.150864,61.920681 
	C206.643448,59.783749 205.151291,57.668438 203.659134,55.553131 
	C203.883011,55.132828 204.106888,54.712524 204.330750,54.292221 
	C206.466003,55.320396 208.601273,56.348576 211.003128,57.505131 
	C211.943329,56.886402 213.586487,55.805042 215.551147,54.724213 
z"/>
<path fill="#1D1D1D" opacity="1.000000" stroke="none" 
	d="
M199.053711,54.720032 
	C199.833664,59.420002 200.304932,64.101837 200.479431,68.794708 
	C200.494003,69.186783 198.509186,69.653206 196.742981,70.375626 
	C196.742981,65.275520 196.653091,61.034851 196.829422,56.805279 
	C196.859634,56.080822 198.025925,55.403744 199.053711,54.720032 
z"/>
<path fill="#FDF3F3" opacity="1.000000" stroke="none" 
	d="
M72.046051,41.343773 
	C72.240295,39.945683 72.434540,38.547596 73.294006,36.905502 
	C84.655754,36.695232 95.352264,36.728973 106.048782,36.762714 
	C105.246170,39.301079 105.061905,42.315819 103.535774,44.296791 
	C96.246918,53.757999 88.593948,62.938705 80.989243,72.548370 
	C80.908043,72.877579 80.874153,72.863121 80.584290,72.995735 
	C80.496201,73.531410 80.697968,73.934464 81.349686,74.449509 
	C89.855560,74.512840 97.911476,74.464195 105.967400,74.415543 
	C106.286713,75.669922 106.606026,76.924294 106.518372,78.760666 
	C94.716248,79.363342 83.321098,79.384026 71.925941,79.404694 
	C72.618217,77.016251 72.691711,74.149544 74.106277,72.319374 
	C81.569115,62.663937 89.370041,53.269814 97.477676,43.177639 
	C96.364433,42.314072 94.832741,41.880463 93.288994,41.832111 
	C86.209862,41.610378 79.127350,41.496426 72.046051,41.343773 
z"/>
<path fill="#D00000" opacity="1.000000" stroke="none" 
	d="
M72.098907,79.751823 
	C83.321098,79.384026 94.716248,79.363342 106.551071,79.166519 
	C106.212608,79.656601 105.440376,80.894463 104.655441,80.902573 
	C94.253029,81.010048 83.848785,80.953773 73.445312,80.888039 
	C73.052513,80.885551 72.662949,80.373528 72.098907,79.751823 
z"/>
<path fill="#D00000" opacity="1.000000" stroke="none" 
	d="
M105.902359,36.395523 
	C95.352264,36.728973 84.655754,36.695232 73.494919,36.610649 
	C73.935196,36.038822 74.834618,35.075771 75.745201,35.065102 
	C85.049660,34.956055 94.356094,34.979790 103.661369,35.048401 
	C104.361931,35.053566 105.057861,35.686970 105.902359,36.395523 
z"/>
<path fill="#D00000" opacity="1.000000" stroke="none" 
	d="
M105.807205,74.077820 
	C97.911476,74.464195 89.855560,74.512840 81.367393,74.080101 
	C80.914825,73.353516 80.894493,73.108322 80.874153,72.863121 
	C80.874153,72.863121 80.908043,72.877579 80.889206,72.871582 
	C87.573097,72.908318 94.276619,72.907196 100.977997,73.026428 
	C102.538071,73.054192 104.090858,73.491325 105.807205,74.077820 
z"/>
<path fill="#D00000" opacity="1.000000" stroke="none" 
	d="
M72.227303,41.751709 
	C79.127350,41.496426 86.209862,41.610378 93.288994,41.832111 
	C94.832741,41.880463 96.364433,42.314072 97.610847,42.860397 
	C90.578163,43.102421 83.835320,43.103981 77.095192,42.969105 
	C75.528206,42.937752 73.970520,42.441814 72.227303,41.751709 
z"/>
<path fill="#EBEBEB" opacity="1.000000" stroke="none" 
	d="
M170.050415,66.248901 
	C168.197220,65.846893 165.477386,65.404221 165.287598,64.455437 
	C164.883270,62.434177 165.089157,59.540001 166.325760,58.115097 
	C168.240646,55.908661 170.586136,57.517578 171.089920,59.866516 
	C171.496521,61.762459 170.631317,63.931171 170.050415,66.248901 
z"/>
<path fill="#EAEAEA" opacity="1.000000" stroke="none" 
	d="
M188.046478,58.320347 
	C188.551392,59.557991 188.951202,60.493546 188.990616,61.444042 
	C189.094513,63.950611 189.303711,67.233025 185.758179,66.702141 
	C184.371140,66.494461 182.600555,63.160309 182.525497,61.192101 
	C182.408630,58.127647 184.237335,56.125099 188.046478,58.320347 
z"/>
<path fill="#D42209" opacity="1.000000" stroke="none" 
	d="
M80.584290,72.995735 
	C80.894493,73.108322 80.914825,73.353516 80.917442,73.968124 
	C80.697968,73.934464 80.496201,73.531410 80.584290,72.995735 
z"/>
</svg>