<svg width="100" height="100" viewBox="0 0 100 100" fill="none" xmlns="http://www.w3.org/2000/svg">
<rect opacity="0.0229128" x="-0.5" y="0.5" width="99" height="99" transform="matrix(-1 0 0 1 99 0)" stroke="#2B2B2B"/>
<path fill-rule="evenodd" clip-rule="evenodd" d="M80.948 60.2294H87.5794C91.9024 60.2294 95.4189 56.6956 95.4189 52.351C95.4189 48.005 91.9024 44.4697 87.5794 44.4697C87.2914 44.4697 86.9753 44.4932 86.5869 44.5402L85.3109 44.6988L85.1838 43.421C84.3952 35.6132 77.9056 29.7264 70.0853 29.7264C66.6898 29.7264 63.4849 30.8852 60.8973 32.871C60.339 32.2394 59.7542 31.6417 59.1368 31.085C62.2088 28.6469 66.0562 27.2148 70.0853 27.2148C78.8153 27.2148 86.0729 33.3865 87.5174 41.9596C87.5381 41.9596 87.5587 41.9596 87.5794 41.9596C93.2862 41.9596 97.9297 46.6214 97.9297 52.351C97.9297 58.0792 93.2862 62.741 87.5794 62.741H80.8889C80.948 62.221 80.9894 61.6938 80.9894 61.1562C80.9894 60.8433 80.9687 60.5364 80.948 60.2294Z" fill="white"/>
<path fill-rule="evenodd" clip-rule="evenodd" d="M19.0675 41.9841C20.1811 41.9841 21.2918 42.103 22.3773 42.3395C25.8496 34.2673 33.952 28.8828 42.719 28.8828C53.6585 28.8828 62.7564 36.6187 64.5671 47.3626C64.5937 47.3626 64.6188 47.3626 64.6439 47.3626C71.7981 47.3626 77.6172 53.2053 77.6172 60.386C77.6172 67.5667 71.7981 73.408 64.6439 73.408H19.0675C10.4393 73.408 3.41953 66.3594 3.41953 57.6968C3.41953 49.0326 10.4393 41.9841 19.0675 41.9841ZM6.56685 57.6968C6.56685 64.6248 12.1747 70.2604 19.0675 70.2604H64.6439C70.0627 70.2604 74.4713 65.8322 74.4713 60.386C74.4713 54.9399 70.0627 50.5102 64.6439 50.5102C64.2835 50.5102 63.8877 50.5381 63.4003 50.5983L61.8023 50.7966L61.6413 49.1942C60.6532 39.4093 52.5184 32.0303 42.719 32.0303C34.7022 32.0303 27.5067 37.1416 24.8128 44.7468L24.3047 46.1832L22.8544 45.7206C21.6226 45.3299 20.3495 45.1331 19.0675 45.1331C12.1747 45.1331 6.56685 50.7687 6.56685 57.6968Z" fill="white"/>
</svg>
