<svg width="100" height="100" viewBox="0 0 100 100" fill="none" xmlns="http://www.w3.org/2000/svg">
<g clip-path="url(#clip0_1669_756)">
<path d="M18.89 52.79C10.4 52.79 4 46.79 4 38.79C4 31.79 13 21.41 15.71 18.4C16.1139 17.9587 16.6052 17.6064 17.1527 17.3654C17.7002 17.1243 18.2918 16.9999 18.89 17C19.4869 17.0022 20.077 17.1267 20.6239 17.3658C21.1708 17.6048 21.663 17.9534 22.07 18.39C24.82 21.39 33.78 31.81 33.78 38.74C33.78 46.75 27.38 52.79 18.89 52.79ZM18.89 20C18.7027 19.9925 18.5161 20.0263 18.3433 20.0988C18.1705 20.1714 18.0158 20.2811 17.89 20.42C12.89 26 7 34.07 7 38.74C7 45 12.11 49.79 18.89 49.79C25.67 49.79 30.78 45.04 30.78 38.79C30.78 34.14 24.89 26.01 19.85 20.47C19.7316 20.3291 19.585 20.2144 19.4197 20.1335C19.2544 20.0525 19.0739 20.0071 18.89 20Z" fill="white"/>
<path d="M80.9994 52.79C72.5094 52.79 66.1094 46.79 66.1094 38.79C66.1094 31.84 75.1094 21.46 77.8194 18.45C78.2188 17.9997 78.7081 17.638 79.2558 17.3882C79.8035 17.1385 80.3975 17.0062 80.9994 17C81.5998 16.9983 82.1941 17.1209 82.7448 17.3602C83.2956 17.5994 83.7908 17.95 84.1994 18.39C86.9494 21.39 95.9094 31.81 95.9094 38.74C95.9094 46.75 89.5094 52.79 80.9994 52.79ZM80.9994 20C80.8122 19.9932 80.6258 20.0273 80.4531 20.0998C80.2804 20.1723 80.1256 20.2816 79.9994 20.42C74.9994 26 69.1294 34.07 69.1294 38.74C69.1294 45.04 74.2394 49.79 81.0194 49.79C87.7994 49.79 92.9094 45.04 92.9094 38.79C92.9094 34.09 86.9994 26 81.9994 20.42C81.8708 20.2847 81.7155 20.1775 81.5434 20.1052C81.3713 20.0329 81.186 19.9971 80.9994 20Z" fill="white"/>
<path d="M49.9994 82.7705C41.5094 82.7705 35.1094 76.7705 35.1094 68.7705C35.1094 61.7705 44.1094 51.4405 46.8194 48.4305C47.2231 47.9907 47.7138 47.6396 48.2603 47.3994C48.8069 47.1592 49.3974 47.0352 49.9944 47.0352C50.5914 47.0352 51.1819 47.1592 51.7284 47.3994C52.275 47.6396 52.7656 47.9907 53.1694 48.4305C55.9194 51.4305 64.8794 61.8505 64.8794 68.7805C64.8394 76.7305 58.4394 82.7705 49.9994 82.7705ZM49.9994 50.0005C49.8123 49.9943 49.6261 50.0287 49.4535 50.1012C49.2809 50.1737 49.126 50.2826 48.9994 50.4205C43.9994 55.9305 38.0694 64.0005 38.0694 68.7205C38.0694 75.0205 43.1794 79.7705 49.9594 79.7705C56.7394 79.7705 61.8394 75.0005 61.8394 68.7205C61.8394 64.0705 55.9594 55.9405 50.9194 50.4005C50.8005 50.2757 50.6579 50.1761 50.4999 50.1074C50.3418 50.0387 50.1717 50.0023 49.9994 50.0005Z" fill="white"/>
</g>
<defs>
<clipPath id="clip0_1669_756">
<rect width="91.91" height="65.77" fill="white" transform="translate(4 17)"/>
</clipPath>
</defs>
</svg>
