<svg width="100" height="100" viewBox="0 0 100 100" fill="none" xmlns="http://www.w3.org/2000/svg">
<rect opacity="0.0229128" x="0.5" y="0.5" width="99" height="99" stroke="#2B2B2B"/>
<path fill-rule="evenodd" clip-rule="evenodd" d="M69.0535 26.7374C67.9251 26.7374 66.7981 26.8599 65.6963 27.1019C62.1739 18.825 53.9559 13.3037 45.0631 13.3037C33.9653 13.3037 24.7379 21.2359 22.9011 32.253C22.8745 32.2516 22.8493 32.2516 22.8227 32.2516C15.5665 32.2516 9.66406 38.243 9.66406 45.6065C9.66406 52.9701 15.5665 58.96 22.8227 58.96H69.0535C77.8049 58.96 84.9253 51.7316 84.9253 42.848C84.9253 33.9659 77.8049 26.7374 69.0535 26.7374ZM81.7333 42.848C81.7333 49.9526 76.0451 55.7314 69.0535 55.7314H22.8227C17.3263 55.7314 12.8561 51.1897 12.8561 45.6065C12.8561 40.0219 17.3263 35.4788 22.8227 35.4788C23.1895 35.4788 23.5899 35.5084 24.0841 35.5703L25.7067 35.7744L25.8691 34.1305C26.8715 24.0971 35.1217 16.5309 45.0631 16.5309C53.1943 16.5309 60.4939 21.7707 63.2253 29.5705L63.7419 31.0427L65.2119 30.5684C66.4607 30.1687 67.7529 29.966 69.0535 29.966C76.0451 29.966 81.7333 35.7448 81.7333 42.848Z" fill="white"/>
<path fill-rule="evenodd" clip-rule="evenodd" d="M53.4375 68.1938C53.4375 69.8728 52.0823 71.2352 50.4121 71.2352C48.7419 71.2352 47.3867 69.8728 47.3867 68.1938C47.3867 66.5147 48.7419 65.1523 50.4121 65.1523C52.0823 65.1523 53.4375 66.5147 53.4375 68.1938Z" fill="white"/>
<path fill-rule="evenodd" clip-rule="evenodd" d="M59.4869 82.79C59.4869 84.4704 58.1331 85.8314 56.4629 85.8314C54.7913 85.8314 53.4375 84.4704 53.4375 82.79C53.4375 81.111 54.7913 79.75 56.4629 79.75C58.1331 79.75 59.4869 81.111 59.4869 82.79Z" fill="white"/>
<path fill-rule="evenodd" clip-rule="evenodd" d="M74.3541 68.1938C74.3541 69.8728 73.0003 71.2352 71.3287 71.2352C69.6585 71.2352 68.3047 69.8728 68.3047 68.1938C68.3047 66.5147 69.6585 65.1523 71.3287 65.1523C73.0003 65.1523 74.3541 66.5147 74.3541 68.1938Z" fill="white"/>
<path fill-rule="evenodd" clip-rule="evenodd" d="M79.1939 82.79C79.1939 84.4704 77.8401 85.8314 76.1685 85.8314C74.4983 85.8314 73.1445 84.4704 73.1445 82.79C73.1445 81.111 74.4983 79.75 76.1685 79.75C77.8401 79.75 79.1939 81.111 79.1939 82.79Z" fill="white"/>
<path fill-rule="evenodd" clip-rule="evenodd" d="M34.461 69.5121C34.461 71.1911 33.1058 72.5535 31.4356 72.5535C29.7654 72.5535 28.4102 71.1911 28.4102 69.5121C28.4102 67.8331 29.7654 66.4707 31.4356 66.4707C33.1058 66.4707 34.461 67.8331 34.461 69.5121Z" fill="white"/>
<path fill-rule="evenodd" clip-rule="evenodd" d="M40.5103 84.1084C40.5103 85.7874 39.1565 87.1498 37.4849 87.1498C35.8147 87.1498 34.4609 85.7874 34.4609 84.1084C34.4609 82.4293 35.8147 81.0684 37.4849 81.0684C39.1565 81.0684 40.5103 82.4293 40.5103 84.1084Z" fill="white"/>
</svg>
