<svg width="96" height="103" viewBox="0 0 96 103" fill="none" xmlns="http://www.w3.org/2000/svg">
<g clip-path="url(#clip0_1665_1258)">
<path fill-rule="evenodd" clip-rule="evenodd" d="M21.102 76.8897C20.282 75.4097 18.002 76.7297 18.812 78.2197L22.342 84.6097C23.152 86.0897 25.432 84.7697 24.622 83.2797C23.442 81.153 22.2686 79.023 21.102 76.8897Z" fill="white"/>
<path fill-rule="evenodd" clip-rule="evenodd" d="M61.2202 76.8897C60.4102 75.4097 58.1202 76.7297 58.9402 78.2197C60.1202 80.3464 61.2936 82.4764 62.4602 84.6097C63.2802 86.0897 65.5602 84.7697 64.7402 83.2797C63.5802 81.153 62.4069 79.023 61.2202 76.8897Z" fill="white"/>
<path fill-rule="evenodd" clip-rule="evenodd" d="M58.2717 83.9102C57.4617 82.4302 55.1817 83.7502 55.9917 85.2402L59.5217 91.6302C60.3317 93.1102 62.6117 91.7902 61.8017 90.3102L58.2717 83.9102Z" fill="white"/>
<path fill-rule="evenodd" clip-rule="evenodd" d="M11.8804 75.9403C11.0704 74.4503 8.78038 75.7803 9.60038 77.2603C10.7804 79.3903 11.9504 81.5303 13.1204 83.6603C13.9404 85.1403 16.2204 83.8203 15.4104 82.3303L11.8804 75.9403Z" fill="white"/>
<path fill-rule="evenodd" clip-rule="evenodd" d="M21.102 85.91C20.282 84.42 18.002 85.75 18.812 87.23L22.342 93.63C23.152 95.11 25.432 93.79 24.622 92.3C23.442 90.1734 22.2686 88.0434 21.102 85.91Z" fill="white"/>
<path fill-rule="evenodd" clip-rule="evenodd" d="M45.4986 73H43.1586L49.8586 87.19H45.6086C45.3315 87.1899 45.0586 87.2583 44.8144 87.3891C44.5701 87.52 44.362 87.7092 44.2086 87.94C44.0545 88.1684 43.9601 88.4317 43.9339 88.7059C43.9077 88.9802 43.9505 89.2566 44.0586 89.51L48.0586 99.01L31.7886 81.82H35.8586C36.1539 81.8237 36.445 81.7499 36.7029 81.606C36.9609 81.4622 37.1766 81.2532 37.3286 81C37.4827 80.7414 37.5641 80.446 37.5641 80.145C37.5641 79.844 37.4827 79.5486 37.3286 79.29L33.3286 73.01H30.7486L35.0686 79.76H30.7886C30.4612 79.7609 30.1412 79.8575 29.868 80.0378C29.5947 80.2181 29.3801 80.4743 29.2505 80.7749C29.1209 81.0755 29.082 81.4075 29.1385 81.73C29.195 82.0524 29.3445 82.3513 29.5686 82.59L48.1386 102.17C48.4089 102.451 48.7684 102.629 49.1556 102.674C49.5429 102.719 49.9337 102.628 50.2611 102.416C50.5885 102.205 50.8321 101.886 50.9503 101.514C51.0684 101.143 51.0537 100.742 50.9086 100.38L46.2586 89.25H50.5386C50.8287 89.2581 51.116 89.1904 51.372 89.0536C51.628 88.9168 51.844 88.7157 51.9986 88.47C52.1517 88.2345 52.2414 87.9635 52.2589 87.6831C52.2764 87.4028 52.2212 87.1227 52.0986 86.87L45.4986 73Z" fill="white"/>
<path fill-rule="evenodd" clip-rule="evenodd" d="M95.7313 48.29C95.3313 47.67 94.6613 47.52 93.7313 47.76C87.0013 49.47 80.3313 49.36 74.0013 46.31C63.7913 41.39 58.0013 33 56.5613 21.57C55.8205 15.0558 57.2966 8.48209 60.7513 2.90998C60.8513 2.72998 60.9613 2.54998 61.0713 2.36998C61.2625 2.10158 61.3594 1.77736 61.3467 1.44804C61.334 1.11872 61.2126 0.802886 61.0013 0.549976C60.8023 0.292419 60.5215 0.110427 60.2051 0.0340643C59.8887 -0.0422988 59.5558 -0.00846532 59.2612 0.129976C49.5112 3.93998 41.9013 10.24 38.3013 20.5C38.2013 20.78 38.1213 21.07 38.0312 21.35C38.9616 21.4907 39.8806 21.6979 40.7812 21.97C43.4613 13.97 48.9312 8.41998 56.2812 4.64998C56.3534 4.62857 56.4269 4.61187 56.5013 4.59998C51.7313 16.6 52.5612 28.03 60.1012 38.43C67.6413 48.83 78.2413 52.8 90.9013 51.43C90.3013 52.1 89.7912 52.71 89.2412 53.29C85.5412 57.29 81.2412 60.29 75.9512 61.4C73.3241 61.9635 70.6352 62.1854 67.9512 62.06C67.313 63.083 66.5431 64.0176 65.6613 64.84L66.1413 64.93C75.8713 65.93 84.1413 62.78 90.9212 55.72C92.5513 54.03 93.9212 52.14 95.4613 50.31C96.0913 49.52 96.1313 48.92 95.7313 48.29Z" fill="white"/>
<path fill-rule="evenodd" clip-rule="evenodd" d="M65.8004 54.6096C65.8459 51.5097 64.6614 48.518 62.506 46.2896C60.3507 44.0611 57.4001 42.7775 54.3004 42.7196H54.2304C53.5552 38.0531 51.2278 33.7837 47.6713 30.6879C44.1149 27.5921 39.5655 25.8752 34.8504 25.8496C30.9785 25.9143 27.2104 27.1117 24.0115 29.2941C20.8126 31.4765 18.3231 34.5481 16.8504 38.1296C15.888 37.9184 14.9057 37.8111 13.9204 37.8096C10.1815 37.9083 6.62882 39.463 4.01919 42.1424C1.40956 44.8219 -0.0507812 48.4143 -0.0507812 52.1546C-0.0507813 55.8949 1.40956 59.4873 4.01919 62.1668C6.62882 64.8462 10.1815 66.4009 13.9204 66.4996H54.3004C57.401 66.4444 60.3531 65.1615 62.509 62.9325C64.6649 60.7035 65.8486 57.7103 65.8004 54.6096ZM54.3004 63.6096H13.8804C10.8304 63.6096 7.90538 62.398 5.74871 60.2413C3.59204 58.0847 2.38044 55.1596 2.38044 52.1096C2.38044 49.0596 3.59204 46.1345 5.74871 43.9779C7.90538 41.8212 10.8304 40.6096 13.8804 40.6096C15.0187 40.6099 16.1497 40.7922 17.2304 41.1496L18.5204 41.5696L19.0004 40.3296C20.1158 36.9919 22.2394 34.0826 25.0784 32.003C27.9174 29.9235 31.3318 28.7763 34.8504 28.7196C39.0998 28.7616 43.1794 30.3936 46.2853 33.294C49.3912 36.1945 51.2982 40.153 51.6304 44.3896L51.7804 45.8596L53.1904 45.6696C53.5587 45.6224 53.9292 45.5957 54.3004 45.5896C56.6874 45.5896 58.9766 46.5378 60.6644 48.2256C62.3522 49.9135 63.3004 52.2027 63.3004 54.5896C63.3004 56.9766 62.3522 59.2657 60.6644 60.9536C58.9766 62.6414 56.6874 63.5896 54.3004 63.5896V63.6096Z" fill="white"/>
</g>
<defs>
<clipPath id="clip0_1665_1258">
<rect width="95.99" height="102.66" fill="white"/>
</clipPath>
</defs>
</svg>
