<svg width="36" height="36" viewBox="0 0 36 36" fill="none" xmlns="http://www.w3.org/2000/svg">
<path fill-rule="evenodd" clip-rule="evenodd" d="M17.9067 0.083252H18.0934C21.1567 0.083252 23.5834 0.083252 25.4817 0.338252C27.435 0.601585 29.0167 1.15492 30.265 2.40159C31.5117 3.64992 32.065 5.23159 32.3284 7.18492C32.5 8.45825 32.555 9.96825 32.5734 11.7499H33C34.61 11.7499 35.9167 13.0566 35.9167 14.6666V16.3333C35.9167 17.2499 35.4834 18.1166 34.75 18.6666L32.5784 20.2949C32.5667 22.3483 32.5184 24.0616 32.3284 25.4816C32.065 27.4349 31.5117 29.0166 30.265 30.2649C29.9484 30.5816 29.61 30.8533 29.25 31.0866V32.9999C29.25 33.7735 28.9427 34.5153 28.3958 35.0623C27.8488 35.6093 27.1069 35.9166 26.3334 35.9166H23.8334C23.0598 35.9166 22.318 35.6093 21.771 35.0623C21.224 34.5153 20.9167 33.7735 20.9167 32.9999V32.5732C20.0417 32.5833 19.1034 32.5833 18.0934 32.5833H17.9067C16.8967 32.5833 15.9567 32.5833 15.0834 32.5732V32.9999C15.0834 33.7735 14.7761 34.5153 14.2291 35.0623C13.6821 35.6093 12.9403 35.9166 12.1667 35.9166H9.66671C8.89316 35.9166 8.15129 35.6093 7.60431 35.0623C7.05733 34.5153 6.75004 33.7735 6.75004 32.9999V31.0866C6.38382 30.8491 6.04361 30.5737 5.73504 30.2649C4.48837 29.0166 3.93504 27.4349 3.67171 25.4816C3.48171 24.0616 3.43337 22.3483 3.42171 20.2949L1.25004 18.6666C0.516707 18.1166 0.083374 17.2499 0.083374 16.3333V14.6666C0.083374 13.0566 1.39004 11.7499 3.00004 11.7499H3.42504C3.44504 9.96825 3.50004 8.45825 3.67171 7.18492C3.93504 5.23159 4.48837 3.64992 5.73504 2.40159C6.98337 1.15492 8.56504 0.601585 10.5184 0.338252C12.4184 0.083252 14.8434 0.083252 17.9067 0.083252ZM3.41671 14.2499H3.00004C2.88953 14.2499 2.78355 14.2938 2.70541 14.372C2.62727 14.4501 2.58337 14.5561 2.58337 14.6666V16.3333C2.58337 16.3979 2.59843 16.4617 2.62736 16.5196C2.65629 16.5774 2.69829 16.6278 2.75004 16.6666L3.41671 17.1666V14.2499ZM5.92671 20.9166C5.94337 22.6399 5.99671 24.0133 6.15004 25.1499C6.37504 26.8249 6.79837 27.7916 7.50337 28.4966C8.20837 29.2016 9.17504 29.6249 10.8517 29.8499C12.565 30.0799 14.8217 30.0833 18 30.0833C21.1784 30.0833 23.435 30.0799 25.15 29.8499C26.825 29.6249 27.7917 29.2016 28.4967 28.4966C29.2017 27.7916 29.625 26.8249 29.85 25.1483C30.0034 24.0149 30.055 22.6399 30.0734 20.9166H5.92671ZM30.0834 18.4166H5.91671V14.6666C5.91671 11.5283 5.92004 9.28825 6.14171 7.58325H29.8584C30.08 9.28825 30.0834 11.5283 30.0834 14.6666V18.4166ZM32.5834 17.1666L33.25 16.6666C33.3018 16.6278 33.3438 16.5774 33.3727 16.5196C33.4016 16.4617 33.4167 16.3979 33.4167 16.3333V14.6666C33.4167 14.5561 33.3728 14.4501 33.2947 14.372C33.2165 14.2938 33.1105 14.2499 33 14.2499H32.5834V17.1666ZM29.1684 5.08325C28.992 4.74654 28.7656 4.43858 28.4967 4.16992C27.7917 3.46492 26.825 3.04159 25.1484 2.81659C23.435 2.58659 21.1784 2.58325 18 2.58325C14.8217 2.58325 12.565 2.58659 10.85 2.81659C9.17504 3.04159 8.20837 3.46492 7.50337 4.16992C7.23469 4.43873 7.00823 4.74666 6.83171 5.08325H29.1684ZM9.25004 32.0999V32.9999C9.25004 33.2299 9.43671 33.4166 9.66671 33.4166H12.1667C12.2772 33.4166 12.3832 33.3727 12.4613 33.2945C12.5395 33.2164 12.5834 33.1104 12.5834 32.9999V32.5066C11.8929 32.4755 11.204 32.416 10.5184 32.3283C10.0923 32.272 9.66902 32.1958 9.25004 32.0999ZM23.4167 32.5066V32.9999C23.4167 33.2299 23.6034 33.4166 23.8334 33.4166H26.3334C26.4439 33.4166 26.5499 33.3727 26.628 33.2945C26.7061 33.2164 26.75 33.1104 26.75 32.9999V32.0999C26.3312 32.1963 25.9079 32.2725 25.4817 32.3283C24.7961 32.416 24.1072 32.4755 23.4167 32.5066ZM8.41671 24.6666C8.41671 24.3351 8.5484 24.0171 8.78282 23.7827C9.01724 23.5483 9.33519 23.4166 9.66671 23.4166H12.1667C12.4982 23.4166 12.8162 23.5483 13.0506 23.7827C13.285 24.0171 13.4167 24.3351 13.4167 24.6666C13.4167 24.9981 13.285 25.316 13.0506 25.5505C12.8162 25.7849 12.4982 25.9166 12.1667 25.9166H9.66671C9.33519 25.9166 9.01724 25.7849 8.78282 25.5505C8.5484 25.316 8.41671 24.9981 8.41671 24.6666ZM22.5834 24.6666C22.5834 24.3351 22.7151 24.0171 22.9495 23.7827C23.1839 23.5483 23.5019 23.4166 23.8334 23.4166H26.3334C26.6649 23.4166 26.9828 23.5483 27.2173 23.7827C27.4517 24.0171 27.5834 24.3351 27.5834 24.6666C27.5834 24.9981 27.4517 25.316 27.2173 25.5505C26.9828 25.7849 26.6649 25.9166 26.3334 25.9166H23.8334C23.5019 25.9166 23.1839 25.7849 22.9495 25.5505C22.7151 25.316 22.5834 24.9981 22.5834 24.6666Z" fill="white"/>
</svg>
