<svg width="240" height="240" viewBox="0 0 240 240" fill="none" xmlns="http://www.w3.org/2000/svg">
<g clip-path="url(#clip0_449_334)">
<rect width="240" height="240" rx="23.1884" fill="#1B1D32"/>
<g filter="url(#filter0_f_449_334)">
<path d="M222.038 223.843C191.45 272.112 128.551 296.044 88.3603 278.87C48.1694 261.696 15.9704 216.803 37.5005 166.419C48.1697 141.451 18.0813 90.6363 50.7715 69.5248C84.0489 48.0341 156.176 82.393 176.45 91.0566C216.641 108.231 257.472 167.926 222.038 223.843Z" fill="#972FFF"/>
</g>
<g filter="url(#filter1_f_449_334)">
<path d="M199.005 156.917C232.413 203.28 231.202 270.567 200.296 301.472C169.391 332.377 115.737 345.544 76.9935 306.8C57.7942 287.601 -0.570164 296.603 -7.99037 258.403C-15.5439 219.516 43.2022 165.371 58.7924 149.781C89.6977 118.875 160.304 103.209 199.005 156.917Z" fill="#3F4FFD"/>
</g>
<path d="M70.4167 84.584V77.5007C70.4167 77.5007 70.4167 63.6019 118.6 63.3378M70.4167 84.584V120.001M70.4167 84.584H112.917M70.4167 120.001V162.501C70.4167 166.413 73.588 169.584 77.5 169.584M70.4167 120.001H131.916M77.5 169.584V183.042C77.5 183.434 77.8171 183.751 78.2083 183.751H83.875C84.2662 183.751 84.5833 183.434 84.5833 183.042V169.584M77.5 169.584H84.5833M84.5833 169.584H155.417M155.417 169.584V183.042C155.417 183.434 155.734 183.751 156.125 183.751H161.792C162.183 183.751 162.5 183.434 162.5 183.042V169.584M155.417 169.584H162.5M162.5 169.584C166.412 169.584 169.583 166.413 169.583 162.501V124.666M112.917 84.584C112.917 76.8445 114.985 69.5881 118.6 63.3378M112.917 84.584C112.917 99.3667 120.464 112.387 131.916 120.001M155.417 59.7923V84.584L173.125 102.292M118.6 63.3378C125.948 50.6324 139.684 42.084 155.417 42.084C178.889 42.084 197.917 61.1119 197.917 84.584C197.917 103.089 186.09 118.831 169.583 124.666M169.583 124.666C165.152 126.232 160.384 127.084 155.417 127.084C146.727 127.084 138.647 124.476 131.916 120.001" stroke="white" stroke-width="12"/>
<path d="M105.833 144.791C105.833 150.659 101.076 155.416 95.2083 155.416C89.3403 155.416 84.5833 150.659 84.5833 144.791C84.5833 138.923 89.3403 134.166 95.2083 134.166C101.076 134.166 105.833 138.923 105.833 144.791Z" fill="white"/>
<path d="M155.417 144.791C155.417 150.659 150.66 155.416 144.792 155.416C138.924 155.416 134.167 150.659 134.167 144.791C134.167 138.923 138.924 134.166 144.792 134.166C150.66 134.166 155.417 138.923 155.417 144.791Z" fill="white"/>
</g>
<defs>
<filter id="filter0_f_449_334" x="-92.6415" y="-60.68" width="451.462" height="468.342" filterUnits="userSpaceOnUse" color-interpolation-filters="sRGB">
<feFlood flood-opacity="0" result="BackgroundImageFix"/>
<feBlend mode="normal" in="SourceGraphic" in2="BackgroundImageFix" result="shape"/>
<feGaussianBlur stdDeviation="61.6232" result="effect1_foregroundBlur_449_334"/>
</filter>
<filter id="filter1_f_449_334" x="-131.904" y="-1.70731" width="478.918" height="455.659" filterUnits="userSpaceOnUse" color-interpolation-filters="sRGB">
<feFlood flood-opacity="0" result="BackgroundImageFix"/>
<feBlend mode="normal" in="SourceGraphic" in2="BackgroundImageFix" result="shape"/>
<feGaussianBlur stdDeviation="61.6232" result="effect1_foregroundBlur_449_334"/>
</filter>
<clipPath id="clip0_449_334">
<rect width="240" height="240" rx="13.913" fill="white"/>
</clipPath>
</defs>
</svg>
