<svg width="218" height="300" viewBox="0 0 218 300" fill="none" xmlns="http://www.w3.org/2000/svg">
<path fill-rule="evenodd" clip-rule="evenodd" d="M48.2146 202.146L8.53003 179.242L8.50701 179.219C3.44286 176.456 -0.125059 170.264 0.0130545 164.487V117.045C-0.447323 98.077 11.3153 77.7052 27.958 68.6127C29.9237 68.1678 45.2193 59.0352 64.4221 47.5699C99.8619 26.4099 148.609 -2.69586 151.431 0.200466C155.717 -1.23375 183.89 15.6449 202.182 26.604C208.09 30.1436 212.968 33.0657 215.676 34.5538C210.233 32.1068 203.935 32.4708 198.781 35.4425L84.6534 101.369C55.1042 118.07 55.8577 147.905 56.5916 176.961C56.765 183.826 56.9373 190.648 56.7085 197.243C56.7085 199.199 55.6957 201.11 53.8772 202.146C52.0587 203.204 49.9179 203.112 48.2146 202.146ZM217.403 35.4425C217.01 35.2676 216.426 34.9656 215.676 34.5538C216.263 34.8173 216.839 35.1135 217.403 35.4425ZM214.204 96.697C216.022 95.6382 217.035 93.7506 217.035 91.794V51.6029C217.242 44.9505 209.301 40.3467 203.661 43.8686L160.363 68.8902C161.435 69.0871 167 72.4851 174.177 76.8674C189.651 86.3149 212.616 100.337 214.204 96.72V96.697ZM163.128 243.483C126.984 265.244 71.8906 298.413 70.888 291.598L70.865 291.621C65.2732 289.39 65.8139 275.005 66.335 261.14C66.7599 249.835 67.1718 238.876 64.2355 235.133C68.6164 231.965 78.0259 226.841 89.1904 220.762L89.1908 220.762L89.191 220.762C114.691 206.878 149.344 188.009 154.147 176.066C161.353 165.753 160.813 144.582 160.379 127.567C160.218 121.263 160.072 115.529 160.339 111.13C161.999 101.727 169.438 106.309 174.832 109.631L174.832 109.631C175.724 110.181 176.56 110.695 177.304 111.107L208.932 129.361C213.766 131.985 217.173 137.878 217.035 143.379V185.665C217.035 193.768 214.894 201.755 210.843 208.776C206.814 215.797 200.968 221.644 193.947 225.695C192.881 225.57 180.091 233.27 163.128 243.483L163.128 243.483ZM66.0311 300.001L9.35868 267.269V267.246C3.37378 263.793 0.0360436 257.555 0.0360436 251.109V216.535C-0.194145 212.368 5.03114 209.376 8.53 211.632C10.0029 212.754 14.8471 215.425 20.8738 218.747L20.874 218.747C34.2497 226.121 53.4498 236.706 54.5447 240.705C57.3777 244.223 56.9897 259.761 56.6978 271.455C56.558 277.054 56.4402 281.771 56.7085 283.865C56.7085 290.31 60.0692 296.549 66.0311 300.001Z" fill="url(#paint0_linear_1531_294)"/>
<defs>
<linearGradient id="paint0_linear_1531_294" x1="93.5733" y1="1.4598" x2="150.197" y2="293.428" gradientUnits="userSpaceOnUse">
<stop stop-color="#7D2BD1"/>
<stop offset="0.1875" stop-color="#752FD1"/>
<stop offset="1" stop-color="#454AD1"/>
</linearGradient>
</defs>
</svg>
