<?xml version="1.0" encoding="UTF-8"?>
<svg version="1.1" xmlns="http://www.w3.org/2000/svg" width="240" height="240">
<path d="M0 0 C79.2 0 158.4 0 240 0 C240 79.2 240 158.4 240 240 C160.8 240 81.6 240 0 240 C0 160.8 0 81.6 0 0 Z " fill="#402776" transform="translate(0,0)"/>
<path d="M0 0 C79.2 0 158.4 0 240 0 C240 79.2 240 158.4 240 240 C160.8 240 81.6 240 0 240 C0 160.8 0 81.6 0 0 Z M9.65632534 35.82541656 C7.76036477 39.45929506 7.49952188 41.71353006 7.49879456 45.79333496 C7.49326016 46.45168005 7.48772576 47.11002513 7.48202366 47.78832006 C7.46847591 49.98101591 7.48335271 52.17256175 7.49829102 54.36523438 C7.49450567 55.9425759 7.48900384 57.51991411 7.48191833 59.09724426 C7.4679745 63.37209068 7.47912584 67.64653413 7.49562955 71.92135811 C7.50949691 76.3988691 7.50301805 80.87635711 7.49949646 85.35388184 C7.49679567 92.87254314 7.51025864 100.39104468 7.53344727 107.90966797 C7.56005619 116.5973153 7.56180362 125.28469555 7.5500589 133.97236967 C7.53927273 142.33596933 7.54547478 150.69947256 7.55961418 159.06306458 C7.5653667 162.61955551 7.56529708 166.1759757 7.56054878 169.73246765 C7.55576991 173.92192144 7.56591823 178.11108348 7.58750343 182.3004818 C7.5930591 183.8363363 7.5935478 185.37221891 7.58855057 186.90807533 C7.58257601 189.00792697 7.59514293 191.10689304 7.61231995 193.20666504 C7.61474984 194.38061073 7.61717974 195.55455643 7.61968327 196.76407623 C8.20409869 201.73657305 9.85901575 204.97033128 13.5625 208.3125 C17.75584756 211.21558677 20.93486404 211.14834628 25.90679932 211.14717102 C26.7332359 211.15084771 27.55967248 211.1545244 28.4111526 211.1583125 C31.19630844 211.16937602 33.98142701 211.17319769 36.76660156 211.17700195 C38.75713724 211.18326459 40.74767175 211.18991121 42.73820496 211.19691467 C48.15773396 211.21434295 53.57725414 211.2248814 58.99680424 211.2331202 C62.38089464 211.23826645 65.76498228 211.24434235 69.14907074 211.25063133 C79.73168502 211.26968845 90.3142923 211.28391852 100.89692044 211.2922433 C113.1227917 211.30201883 125.34848206 211.32834449 137.57428956 211.36874419 C147.01723456 211.39887984 156.46012764 211.41370975 165.9031198 211.41702431 C171.54615402 211.4193777 177.1889951 211.42837573 182.83197784 211.45348549 C188.14089552 211.47672653 193.44949233 211.48101536 198.75844765 211.47072411 C200.70713428 211.47022767 202.65583649 211.47657973 204.60447502 211.49028015 C207.26512489 211.50793996 209.92461594 211.50092226 212.58526611 211.48774719 C213.35628733 211.49871644 214.12730855 211.50968568 214.92169404 211.52098733 C220.10034314 211.45908315 223.00270324 210.25093464 227 207 C231.3094404 202.22467415 232.12381653 198.99308855 232.14717102 192.65008545 C232.15084771 192.00317631 232.1545244 191.35626717 232.1583125 190.68975472 C232.16934159 188.51809669 232.17319185 186.34648653 232.17700195 184.17480469 C232.1832672 182.61923572 232.18991405 181.06366825 232.19691467 179.50810242 C232.21795031 174.3960372 232.22831661 169.28397171 232.23828125 164.171875 C232.24232899 162.41158279 232.24644592 160.65129073 232.25063133 158.89099884 C232.26968193 150.62086327 232.28391322 142.35073663 232.2922433 134.08058333 C232.30201558 124.53635323 232.32833534 114.99235505 232.36874419 105.44820666 C232.39891096 98.06975189 232.41371271 90.69136358 232.41702431 83.31284833 C232.41937418 78.90664967 232.42832623 74.50069882 232.45348549 70.09456635 C232.4767811 65.94782454 232.48099359 61.80149345 232.47072411 57.65470314 C232.47022899 56.13537288 232.47654229 54.6160223 232.49028015 53.09675407 C232.83050341 42.2726052 232.83050341 42.2726052 228 33 C222.65349221 29.32675582 218.90236026 28.41733187 212.4919281 28.49206543 C211.66121939 28.48582547 210.83051068 28.4795855 209.97462898 28.47315645 C207.20471687 28.4572641 204.43568936 28.46981574 201.66577148 28.48242188 C199.67449431 28.47699913 197.68322115 28.46987561 195.69195557 28.46118164 C190.29327877 28.44296482 184.89490814 28.45000884 179.49622607 28.46269798 C173.84424188 28.47283267 168.1922837 28.46343112 162.54029846 28.45715332 C153.05033669 28.4498789 143.56049949 28.45945993 134.07055664 28.47851562 C123.09992541 28.50029017 112.12959148 28.49322784 101.15896744 28.47121 C91.73712858 28.45305771 82.31537921 28.45049668 72.89352852 28.46096468 C67.26736805 28.46719971 61.64134733 28.46803475 56.01519585 28.45481873 C50.72668412 28.4432632 45.43855577 28.45128078 40.15008545 28.47439575 C38.20947468 28.47968412 36.26883164 28.47816689 34.32823372 28.46934509 C31.67874988 28.45841126 29.03049389 28.47212668 26.38108826 28.49206543 C25.61347764 28.48314254 24.84586702 28.47421966 24.05499548 28.46502638 C17.36832834 28.56260974 13.8585895 30.75937776 9.65632534 35.82541656 Z " fill="#3F2675" transform="translate(0,0)"/>
<path d="M0 0 C0.82914872 -0.00623996 1.65829744 -0.01247993 2.51257187 -0.01890898 C5.2832548 -0.03482859 8.0530567 -0.02223887 10.82374573 -0.00964355 C12.81325289 -0.01506517 14.80275604 -0.02218806 16.79225159 -0.03088379 C22.19105461 -0.04911642 27.58955181 -0.04204944 32.98836017 -0.02936745 C38.63988235 -0.01923813 44.2913784 -0.02863307 49.94290161 -0.03491211 C59.43464354 -0.04218929 68.92626098 -0.03259951 78.41798401 -0.0135498 C89.3880065 0.00821273 100.35773154 0.00117224 111.32774681 -0.02085543 C120.74873188 -0.03901482 130.16962747 -0.04156489 139.59062439 -0.03110075 C145.2162727 -0.02486802 150.84178127 -0.02402411 156.46742058 -0.0372467 C161.75756354 -0.04881212 167.04732358 -0.04076654 172.33742523 -0.01766968 C174.27761512 -0.01238605 176.2178373 -0.01389042 178.1580143 -0.02272034 C180.80938938 -0.03367328 183.45954235 -0.01991552 186.11083984 0 C186.87621974 -0.00892289 187.64159963 -0.01784577 188.43017286 -0.02703905 C193.90409956 0.05255551 197.09493199 1.39940357 201.61891174 4.50793457 C207.1458188 10.92586783 206.17616926 18.77340301 206.12062073 26.80310059 C206.1244072 28.36088549 206.12990995 29.91866703 206.13699341 31.47644043 C206.15092141 35.69338045 206.1397976 39.90991125 206.12328219 44.12682843 C206.10940259 48.54560981 206.11589499 52.96436813 206.11941528 57.38316345 C206.12211482 64.80169244 206.1086629 72.22005938 206.08546448 79.6385498 C206.05884653 88.20977145 206.0571117 96.78072239 206.06885284 105.35197121 C206.07963897 113.60611652 206.07343764 121.86016412 206.05929756 130.11430168 C206.05354599 133.62334445 206.05361389 137.13231553 206.05836296 140.64135933 C206.06314197 144.77419442 206.05299298 148.90673377 206.03140831 153.03951263 C206.02585319 154.5544046 206.02536344 156.06932507 206.03036118 157.58421898 C206.03633677 159.6555575 206.02376703 161.72599865 206.0065918 163.79725647 C206.00294695 165.53410375 206.00294695 165.53410375 205.99922848 167.30603886 C205.4899479 171.59368427 204.04429804 174.98099403 201.08375549 178.15246582 C195.93091201 182.09287554 193.07887352 182.65661056 186.71211243 182.65510559 C185.88567584 182.65878228 185.05923926 182.66245897 184.20775914 182.66624707 C181.4226033 182.67731059 178.63748474 182.68113226 175.85231018 182.68493652 C173.8617745 182.69119916 171.87124 182.69784578 169.88070679 182.70484924 C164.46117778 182.72227752 159.04165761 182.73281597 153.62210751 182.74105477 C150.2380171 182.74620102 146.85392946 182.75227692 143.469841 182.7585659 C132.88722672 182.77762302 122.30461945 182.79185309 111.7219913 182.80017787 C99.49612004 182.8099534 87.27042968 182.83627906 75.04462218 182.87667876 C65.60167718 182.90681441 56.15878411 182.92164432 46.71579194 182.92495888 C41.07275772 182.92731228 35.42991664 182.9363103 29.7869339 182.96142006 C24.47801623 182.9846611 19.16941941 182.98894993 13.8604641 182.97865868 C11.91177746 182.97816224 9.96307525 182.9845143 8.01443672 182.99821472 C5.35378685 183.01587453 2.69429581 183.00885683 0.03364563 182.99568176 C-0.73737559 183.00665101 -1.5083968 183.01762025 -2.3027823 183.0289219 C-7.47581423 182.96708487 -10.38342428 181.7501525 -14.38108826 178.50793457 C-18.14509929 174.2247496 -18.50796518 170.66337981 -18.52825928 165.07536316 C-18.53193597 164.41958135 -18.53561265 163.76379954 -18.53940076 163.08814555 C-18.55043068 160.88651459 -18.55428023 158.68493082 -18.55809021 156.48327637 C-18.56435533 154.90638072 -18.57100217 153.32948655 -18.57800293 151.75259399 C-18.59903784 146.57079088 -18.60940392 141.38898749 -18.61936951 136.20715332 C-18.6234171 134.42331235 -18.62753402 132.63947153 -18.63171959 130.85563087 C-18.65076902 122.47604046 -18.66500128 114.09645884 -18.67333156 105.71685094 C-18.68310725 96.04300113 -18.7094364 86.36937994 -18.74983245 76.6956107 C-18.77998406 69.21865859 -18.79479948 61.74177205 -18.79811257 54.26476032 C-18.80046392 49.79879128 -18.80943547 45.33306655 -18.83457375 40.8671627 C-18.85784323 36.66543356 -18.86209236 32.46410978 -18.85181236 28.26233292 C-18.85131663 26.72161956 -18.85764808 25.18088633 -18.87136841 23.64023399 C-18.88907798 21.53349 -18.88198787 19.42820238 -18.86883545 17.32145691 C-18.8712238 16.14361476 -18.87361216 14.96577261 -18.87607288 13.75223827 C-18.07080976 8.47425993 -15.63865213 5.58885716 -11.65490627 2.16468048 C-7.68077496 0.15353455 -4.35252111 -0.05059473 0 0 Z M-4.38108826 45.50793457 C-4.38108826 86.09793457 -4.38108826 126.68793457 -4.38108826 168.50793457 C60.29891174 168.50793457 124.97891174 168.50793457 191.61891174 168.50793457 C191.61891174 127.91793457 191.61891174 87.32793457 191.61891174 45.50793457 C126.93891174 45.50793457 62.25891174 45.50793457 -4.38108826 45.50793457 Z " fill="#F6F9FD" transform="translate(26.381088256835938,28.4920654296875)"/>
<path d="M0 0 C1 1 1 1 1.11352539 3.95922852 C1.10828857 5.25272217 1.10305176 6.54621582 1.09765625 7.87890625 C1.09515869 9.13517822 1.09266113 10.3914502 1.09008789 11.68579102 C1.08098389 13.29510498 1.07187988 14.90441895 1.0625 16.5625 C1.041875 21.656875 1.02125 26.75125 1 32 C11.23 32 21.46 32 32 32 C32 42.66515874 29.60827452 50.31078639 22 58 C12.27923931 65.14016787 3.00513052 67.33657923 -9 66 C-18.51880953 63.09239616 -25.23270733 57.22756543 -30.33984375 48.78515625 C-34.37261345 41.07840419 -35.45690136 32.81095513 -33.31640625 24.2734375 C-29.12048623 13.02628258 -21.78324852 5.58029432 -10.875 0.5625 C-7.13136175 -0.16995096 -3.81429241 -0.19394707 0 0 Z " fill="#F6F9FD" transform="translate(66,109)"/>
<path d="M0 0 C6.27 0 12.54 0 19 0 C19.02255449 8.0665259 19.04091709 16.13302746 19.05181217 24.19957638 C19.05704014 27.94483037 19.06413622 31.69006176 19.07543945 35.43530273 C19.08627141 39.04681687 19.09227749 42.65830921 19.09487724 46.26983833 C19.09673094 47.65060329 19.10035049 49.031367 19.10573006 50.41212273 C19.11294447 52.33975952 19.11340809 54.26741807 19.11352539 56.19506836 C19.115746 57.29427109 19.11796661 58.39347382 19.12025452 59.52598572 C19 62 19 62 18 63 C12.06 63 6.12 63 0 63 C0 42.21 0 21.42 0 0 Z " fill="#F5F7FC" transform="translate(154,101)"/>
<path d="M0 0 C6.27 0 12.54 0 19 0 C19 17.16 19 34.32 19 52 C13.06 52 7.12 52 1 52 C0 51 0 51 -0.12025452 48.94358826 C-0.11803391 48.03979935 -0.11581329 47.13601044 -0.11352539 46.20483398 C-0.11344986 45.18385117 -0.11337433 44.16286835 -0.11329651 43.11094666 C-0.10813522 42.0005452 -0.10297394 40.89014374 -0.09765625 39.74609375 C-0.0962413 38.61551041 -0.09482635 37.48492706 -0.09336853 36.32008362 C-0.08775019 32.69252935 -0.07519458 29.06503576 -0.0625 25.4375 C-0.05748736 22.98502693 -0.05292405 20.5325529 -0.04882812 18.08007812 C-0.0377748 12.05336187 -0.02049788 6.02669124 0 0 Z " fill="#F6F8FC" transform="translate(180,112)"/>
<path d="M0 0 C10.00116073 0 18.03619236 3.14700828 25.31640625 10.109375 C32.27225577 17.92058421 34 24.45086055 34 35 C22.78 35 11.56 35 0 35 C0 23.45 0 11.9 0 0 Z " fill="#F5F8FC" transform="translate(73,100)"/>
<path d="M0 0 C1.226548 0.00303635 1.226548 0.00303635 2.47787476 0.00613403 C3.76315567 0.00350555 3.76315567 0.00350555 5.07440186 0.00082397 C7.9211527 -0.00359561 10.76784197 -0.00065618 13.61459351 0.00271606 C15.58375053 0.00204306 17.55290747 0.00107306 19.52206421 -0.00018311 C23.65480335 -0.00166022 27.78752093 0.00049492 31.92025757 0.00515747 C37.23033871 0.01085476 42.54036932 0.00757583 47.85044861 0.00158501 C51.91834904 -0.00202023 55.9862374 -0.00088219 60.05413818 0.0017128 C62.01265468 0.00238217 63.97117226 0.00155329 65.9296875 -0.00076675 C68.6619255 -0.00329267 71.39408047 0.00054645 74.12631226 0.00613403 C74.94401093 0.0041098 75.76170959 0.00208557 76.60418701 0 C82.18783105 0.02126611 82.18783105 0.02126611 83.30209351 1.13552856 C83.30209351 4.10552856 83.30209351 7.07552856 83.30209351 10.13552856 C53.60209351 10.13552856 23.90209351 10.13552856 -6.69790649 10.13552856 C-6.69790649 0.02550993 -6.69790649 0.02550993 0 0 Z " fill="#F5F8FC" transform="translate(124.69790649414063,165.86447143554688)"/>
<path d="M0 0 C6.27 0 12.54 0 19 0 C19 10.89 19 21.78 19 33 C12.73 33 6.46 33 0 33 C0 22.11 0 11.22 0 0 Z " fill="#F8FBFE" transform="translate(127,131)"/>
<path d="M0 0 C2 2 2 2 2.25 5 C2 8 2 8 0 10 C-3.5 10.3125 -3.5 10.3125 -7 10 C-9.14762184 6.77856724 -9.561068 5.7404533 -9 2 C-6.07557433 -1.24936186 -4.04996841 -1.38551551 0 0 Z " fill="#49327C" transform="translate(71,47)"/>
<path d="M0 0 C2.9375 0.8125 2.9375 0.8125 4.9375 2.8125 C4.36057692 9.38942308 4.36057692 9.38942308 2.9375 10.8125 C-0.5 11 -0.5 11 -4.0625 10.8125 C-6.0625 8.8125 -6.0625 8.8125 -6.375 5.875 C-6.0625 2.8125 -6.0625 2.8125 -4.9375 0.875 C-3.0625 -0.1875 -3.0625 -0.1875 0 0 Z " fill="#49327C" transform="translate(43.0625,46.1875)"/>
<path d="M0 0 C2.4375 0.75 2.4375 0.75 4.4375 2.75 C4.6875 5.75 4.6875 5.75 4.4375 8.75 C2.4375 10.75 2.4375 10.75 -0.5 11.0625 C-3.5625 10.75 -3.5625 10.75 -5.5 9.625 C-6.5625 7.75 -6.5625 7.75 -6.4375 4.6875 C-5.31039351 0.90364248 -4.04478927 -0.39461359 0 0 Z " fill="#48307B" transform="translate(93.5625,46.25)"/>
</svg>
