<svg width="414" height="414" viewBox="0 0 414 414" fill="none" xmlns="http://www.w3.org/2000/svg">
<g clip-path="url(#clip0_715_294)">
<rect width="414" height="414" rx="40" fill="#1B1D32"/>
<g filter="url(#filter0_f_715_294)">
<path d="M382.941 381.129C330.177 464.394 221.676 505.676 152.347 476.051C83.0172 446.425 27.474 368.985 64.6133 282.072C83.0177 239.003 31.1153 151.348 87.5058 114.93C144.909 77.8588 269.328 137.128 304.301 152.073C373.631 181.698 444.065 284.672 382.941 381.129Z" fill="#972FFF"/>
</g>
<g filter="url(#filter1_f_715_294)">
<path d="M343.209 265.682C400.837 345.657 398.748 461.727 345.436 515.039C292.125 568.351 199.571 591.063 132.739 524.23C99.6199 491.111 -1.05853 506.64 -13.8584 440.745C-26.8882 373.665 74.4488 280.264 101.342 253.371C154.653 200.06 276.449 173.036 343.209 265.682Z" fill="#3F4FFD"/>
</g>
<path d="M160.125 272.625H185.125V166.375H147.625V191.375H160.125V272.625ZM222.625 272.625H241.375C248.25 272.625 254.135 270.177 259.031 265.281C263.927 260.385 266.375 254.5 266.375 247.625V191.375C266.375 184.5 263.927 178.615 259.031 173.719C254.135 168.823 248.25 166.375 241.375 166.375H222.625C215.75 166.375 209.865 168.823 204.969 173.719C200.073 178.615 197.625 184.5 197.625 191.375V247.625C197.625 254.5 200.073 260.385 204.969 265.281C209.865 270.177 215.75 272.625 222.625 272.625ZM222.625 247.625V191.375H241.375V247.625H222.625ZM169.5 94.5V69.5H244.5V94.5H169.5ZM163.406 323.094C149.76 317.156 137.833 309.083 127.625 298.875C117.417 288.667 109.344 276.74 103.406 263.094C97.4688 249.448 94.5 234.917 94.5 219.5C94.5 204.083 97.4688 189.552 103.406 175.906C109.344 162.26 117.417 150.333 127.625 140.125C137.833 129.917 149.76 121.844 163.406 115.906C177.052 109.969 191.583 107 207 107C219.917 107 232.312 109.083 244.188 113.25C256.062 117.417 267.208 123.458 277.625 131.375L295.125 113.875L312.625 131.375L295.125 148.875C303.042 159.292 309.083 170.438 313.25 182.312C317.417 194.188 319.5 206.583 319.5 219.5C319.5 234.917 316.531 249.448 310.594 263.094C304.656 276.74 296.583 288.667 286.375 298.875C276.167 309.083 264.24 317.156 250.594 323.094C236.948 329.031 222.417 332 207 332C191.583 332 177.052 329.031 163.406 323.094ZM268.875 281.375C285.958 264.292 294.5 243.667 294.5 219.5C294.5 195.333 285.958 174.708 268.875 157.625C251.792 140.542 231.167 132 207 132C182.833 132 162.208 140.542 145.125 157.625C128.042 174.708 119.5 195.333 119.5 219.5C119.5 243.667 128.042 264.292 145.125 281.375C162.208 298.458 182.833 307 207 307C231.167 307 251.792 298.458 268.875 281.375Z" fill="white"/>
</g>
<defs>
<filter id="filter0_f_715_294" x="-159.882" y="-109.672" width="778.773" height="807.888" filterUnits="userSpaceOnUse" color-interpolation-filters="sRGB">
<feFlood flood-opacity="0" result="BackgroundImageFix"/>
<feBlend mode="normal" in="SourceGraphic" in2="BackgroundImageFix" result="shape"/>
<feGaussianBlur stdDeviation="106.3" result="effect1_foregroundBlur_715_294"/>
</filter>
<filter id="filter1_f_715_294" x="-227.609" y="-7.94571" width="826.134" height="786.013" filterUnits="userSpaceOnUse" color-interpolation-filters="sRGB">
<feFlood flood-opacity="0" result="BackgroundImageFix"/>
<feBlend mode="normal" in="SourceGraphic" in2="BackgroundImageFix" result="shape"/>
<feGaussianBlur stdDeviation="106.3" result="effect1_foregroundBlur_715_294"/>
</filter>
<clipPath id="clip0_715_294">
<rect width="414" height="414" rx="16" fill="white"/>
</clipPath>
</defs>
</svg>
