<svg width="414" height="414" viewBox="0 0 414 414" fill="none" xmlns="http://www.w3.org/2000/svg">
<rect width="414" height="414" rx="40" fill="url(#paint0_linear_374_40)"/>
<path fill-rule="evenodd" clip-rule="evenodd" d="M94 257.251V149.589H319V258.014C319 297.251 294.302 321.376 254.785 321.376H158.092C118.945 321.376 94 296.751 94 257.251ZM153.75 240.001H251.75C257.125 240.001 261.5 235.626 261.5 230.251C261.5 224.876 257.125 220.489 251.75 220.489H153.75C148.362 220.489 144 224.876 144 230.251C144 235.626 148.362 240.001 153.75 240.001ZM251.75 271.001H153.75C148.362 271.001 144 266.626 144 261.251C144 255.876 148.362 251.489 153.75 251.489H251.75C257.125 251.489 261.5 255.876 261.5 261.251C261.5 266.626 257.125 271.001 251.75 271.001ZM153.75 183.878V184.003C148.362 184.003 144 188.378 144 193.753C144 199.128 148.362 203.503 153.75 203.503H191.113C196.5 203.503 200.875 199.128 200.875 193.616C200.875 188.253 196.5 183.878 191.113 183.878H153.75Z" fill="#D8F2FA"/>
<path opacity="0.4" d="M94.042 138.088C99.9695 111.725 122.037 92.3875 150.811 90H262.199C290.726 92.5125 313.028 111.963 318.956 138.088H94.042Z" fill="white"/>
<path d="M94.5 321.376V264.376L175.5 321.376H94.5Z" fill="#D8F2FA" stroke="#D8F2FA"/>
<defs>
<linearGradient id="paint0_linear_374_40" x1="207" y1="0" x2="207" y2="414" gradientUnits="userSpaceOnUse">
<stop stop-color="#33CCFF"/>
<stop offset="1" stop-color="#44B4DA"/>
</linearGradient>
</defs>
</svg>
