<svg width="128" height="128" viewBox="0 0 128 128" fill="none" xmlns="http://www.w3.org/2000/svg">
<path d="M77.2804 30.4004L78.4004 32.3204L80.3204 33.2804L78.4004 34.4004L77.2804 36.3204L76.3204 34.4004L74.4004 33.2804L76.3204 32.3204L77.2804 30.4004Z" fill="#FFA500"/>
<path d="M109.28 46.4004L110.4 48.3204L112.32 49.2804L110.4 50.4004L109.28 52.3204L108.32 50.4004L106.4 49.2804L108.32 48.3204L109.28 46.4004Z" fill="#FFA500"/>
<path d="M95.2002 49.1211C95.2002 43.2011 98.4002 38.0811 103.2 35.2011C100.8 33.7611 98.0802 33.1211 95.2002 33.1211C86.4002 33.1211 79.2002 40.3211 79.2002 49.1211C79.2002 57.9211 86.4002 65.1211 95.2002 65.1211C98.0802 65.1211 100.8 64.3211 103.2 63.0411C98.4002 60.3211 95.2002 55.0411 95.2002 49.1211Z" fill="#FFA500" stroke="#FFA500" stroke-width="3.2" stroke-linejoin="round"/>
<path d="M95.4002 68.8C95.4002 59.6 88.0002 52.4 79.0002 52.4C77.0002 52.4 75.2002 52.8 73.4002 53.4C72.8002 46.6 67.2002 41 60.2002 41C52.8002 41 46.8002 47 46.8002 54.4C46.8002 56 47.2002 57.6 47.6002 59C47.0002 58.8 46.2002 58.8 45.6002 58.8C38.2002 58.8 32.2002 64.8 32.2002 72.2C32.2002 79.4 38.0002 85.4 45.2002 85.6H79.6002C88.4002 84.6 95.4002 77.6 95.4002 68.8Z" fill="white" stroke="white" stroke-width="2.4" stroke-linejoin="round"/>
</svg>
