<svg width="128" height="128" viewBox="0 0 128 128" fill="none" xmlns="http://www.w3.org/2000/svg">
<path d="M95.2 53.8C95.2 44.6 87.8 37.4 78.8 37.4C76.8 37.4 75 37.8 73.2 38.4C72.6 31.6 67 26 60 26C52.6 26 46.6 32 46.6 39.4C46.6 41 47 42.6 47.4 44C46.8 43.8 46 43.8 45.4 43.8C38 43.8 32 49.8 32 57.2C32 64.4 37.8 70.4 45 70.6H79.4C88.2 69.6 95.2 62.6 95.2 53.8Z" fill="white" stroke="white" stroke-width="2.4" stroke-linejoin="round"/>
<path d="M61.7998 74V84" stroke="white" stroke-width="2.4" stroke-linecap="round"/>
<path d="M65.335 75.4644L58.2639 82.5354" stroke="white" stroke-width="2" stroke-linecap="round"/>
<path d="M66.7998 79H56.7998" stroke="white" stroke-width="2" stroke-linecap="round"/>
<path d="M65.335 82.5356L58.2639 75.4646" stroke="white" stroke-width="2" stroke-linecap="round"/>
<path d="M80.7998 83V93" stroke="white" stroke-width="2.4" stroke-linecap="round"/>
<path d="M84.335 84.4644L77.2639 91.5354" stroke="white" stroke-width="2" stroke-linecap="round"/>
<path d="M85.7998 88H75.7998" stroke="white" stroke-width="2" stroke-linecap="round"/>
<path d="M84.335 91.5356L77.2639 84.4646" stroke="white" stroke-width="2" stroke-linecap="round"/>
<path d="M56.7998 93V103" stroke="white" stroke-width="2.4" stroke-linecap="round"/>
<path d="M60.335 94.4644L53.2639 101.535" stroke="white" stroke-width="2" stroke-linecap="round"/>
<path d="M61.7998 98H51.7998" stroke="white" stroke-width="2" stroke-linecap="round"/>
<path d="M60.335 101.536L53.2639 94.4646" stroke="white" stroke-width="2" stroke-linecap="round"/>
<path d="M40.7998 77V87" stroke="white" stroke-width="2.4" stroke-linecap="round"/>
<path d="M44.335 78.4644L37.2639 85.5354" stroke="white" stroke-width="2" stroke-linecap="round"/>
<path d="M45.7998 82H35.7998" stroke="white" stroke-width="2" stroke-linecap="round"/>
<path d="M44.335 85.5356L37.2639 78.4646" stroke="white" stroke-width="2" stroke-linecap="round"/>
</svg>
