<svg width="64" height="82" viewBox="0 0 64 82" fill="none" xmlns="http://www.w3.org/2000/svg">
<path d="M22.3545 10.4052L24.2845 11.508L26.4272 11.3794L25.3245 13.3093L25.3145 15.5321L23.5231 14.3493L21.3004 14.3394L22.4831 12.548L22.3545 10.4052Z" fill="#FFA500"/>
<path d="M58.0674 8.26166L59.9973 9.36443L62.1401 9.23581L61.0373 11.1658L61.0274 13.3885L59.236 12.2058L57.0132 12.1958L58.196 10.4044L58.0674 8.26166Z" fill="#FFA500"/>
<path d="M47.2334 17.6572C44.2734 12.5303 44.4846 6.49627 47.2016 1.60211C44.4031 1.55504 41.7275 2.36078 39.2334 3.80078C31.6123 8.20078 28.977 18.0362 33.377 25.6572C37.777 33.2782 47.6123 35.9136 55.2334 31.5136C57.7275 30.0736 59.6831 28.0208 61.1216 25.7123C55.6046 25.7567 50.1934 22.7841 47.2334 17.6572Z" fill="#FFA500" stroke="#FFA500" stroke-width="3.2" stroke-linejoin="round"/>
<path d="M57.0135 38.479C57.0135 31.053 51.0404 25.2413 43.7758 25.2413C42.1614 25.2413 40.7085 25.5642 39.2556 26.0485C38.7713 20.5597 34.2511 16.0396 28.6009 16.0396C22.6278 16.0396 17.7848 20.8826 17.7848 26.8557C17.7848 28.1472 18.1076 29.4387 18.4305 30.5687C17.9462 30.4073 17.3004 30.4073 16.8161 30.4073C10.843 30.4073 6 35.2503 6 41.2234C6 47.0351 10.6816 51.8781 16.4933 52.0396H44.2601C51.3632 51.2324 57.0135 45.5822 57.0135 38.479Z" fill="white" stroke="white" stroke-width="2.4" stroke-linejoin="round"/>
<path d="M24.1277 46.0396H36L28.1489 60.0281H35.617L18.766 80.0396L25.2766 65.0796H18L24.1277 46.0396Z" fill="#FFA500" stroke="white" stroke-width="2.4"/>
<path d="M10.7783 60.0396L7.99995 75.7965" stroke="white" stroke-width="4" stroke-linecap="round" stroke-dasharray="8 14"/>
<path d="M44.7783 62.0396L41.9999 77.7965" stroke="white" stroke-width="4" stroke-linecap="round" stroke-dasharray="8 14"/>
</svg>
