<svg width="64" height="64" viewBox="0 0 64 64" fill="none" xmlns="http://www.w3.org/2000/svg">
<path d="M47.6 29.9C47.6 25.3 43.9 21.7 39.4 21.7C38.4 21.7 37.5 21.9 36.6 22.2C36.3 18.8 33.5 16 30 16C26.3 16 23.3 19 23.3 22.7C23.3 23.5 23.5 24.3 23.7 25C23.4 24.9 23 24.9 22.7 24.9C19 24.9 16 27.9 16 31.6C16 35.2 18.9 38.2 22.5 38.3H39.7C44.1 37.8 47.6 34.3 47.6 29.9Z" fill="white" stroke="white" stroke-width="1.2" stroke-linejoin="round"/>
<path d="M17 42C26.5 42.0016 40.5 41.9994 45.5 42.0006" stroke="white" stroke-width="1.5" stroke-linecap="round"/>
<path d="M17 46C22.3333 46.0016 30.193 45.9994 33 46.0006" stroke="white" stroke-width="1.5" stroke-linecap="round"/>
<path d="M17 50C22.3333 50.0016 30.193 49.9994 33 50.0006" stroke="white" stroke-width="1.5" stroke-linecap="round"/>
</svg>
