<svg width="414" height="414" viewBox="0 0 414 414" fill="none" xmlns="http://www.w3.org/2000/svg">
<rect width="414" height="414" rx="40" fill="url(#paint0_linear_268_33)"/>
<g opacity="0.8">
<path fill-rule="evenodd" clip-rule="evenodd" d="M300.75 175.75C300.75 169.997 296.086 165.333 290.333 165.333H279.916C279.908 155.038 279.777 149.642 277.646 145.459C275.649 141.538 272.462 138.351 268.541 136.354C264.358 134.223 258.962 134.092 248.667 134.084L248.667 123.667C248.667 117.914 244.003 113.25 238.25 113.25C232.497 113.25 227.833 117.914 227.833 123.667L227.833 134.083H186.167V123.667C186.167 117.914 181.503 113.25 175.75 113.25C169.997 113.25 165.333 117.914 165.333 123.667V134.084C155.038 134.092 149.642 134.223 145.459 136.354C141.538 138.351 138.351 141.538 136.354 145.459C134.223 149.642 134.092 155.038 134.084 165.333H123.667C117.914 165.333 113.25 169.997 113.25 175.75C113.25 181.503 117.914 186.167 123.667 186.167H134.083L134.083 227.833H123.667C117.914 227.833 113.25 232.497 113.25 238.25C113.25 244.003 117.914 248.667 123.667 248.667H134.084C134.092 258.962 134.223 264.358 136.354 268.541C138.351 272.462 141.538 275.649 145.459 277.646C149.642 279.777 155.038 279.908 165.333 279.916V290.333C165.333 296.086 169.997 300.75 175.75 300.75C181.503 300.75 186.167 296.086 186.167 290.333V279.917H227.833V290.333C227.833 296.086 232.497 300.75 238.25 300.75C244.003 300.75 248.667 296.086 248.667 290.333V279.916C258.962 279.908 264.358 279.777 268.541 277.646C272.462 275.649 275.649 272.462 277.646 268.541C279.777 264.358 279.908 258.962 279.916 248.667L290.333 248.667C296.086 248.667 300.75 244.003 300.75 238.25C300.75 232.497 296.086 227.833 290.333 227.833L279.917 227.833V186.167H290.333C296.086 186.167 300.75 181.503 300.75 175.75ZM196.583 186.167C190.83 186.167 186.167 190.83 186.167 196.583V217.417C186.167 223.17 190.83 227.833 196.583 227.833H217.417C223.17 227.833 227.833 223.17 227.833 217.417V196.583C227.833 190.83 223.17 186.167 217.417 186.167H196.583Z" fill="white"/>
</g>
<defs>
<linearGradient id="paint0_linear_268_33" x1="207" y1="50.5" x2="207.676" y2="405.507" gradientUnits="userSpaceOnUse">
<stop stop-color="#972EFF"/>
<stop offset="1" stop-color="#3153FC"/>
</linearGradient>
</defs>
</svg>
