<svg width="102" height="76" viewBox="0 0 102 76" fill="none" xmlns="http://www.w3.org/2000/svg">
<path d="M32.1992 54.5107V61.8721" stroke="#FFA500" stroke-width="4.90759" stroke-linecap="round"/>
<path d="M16.584 48.041L11.3787 53.2463" stroke="#FFA500" stroke-width="4.90759" stroke-linecap="round"/>
<path d="M10.1152 32.4258H2.75385" stroke="#FFA500" stroke-width="4.90759" stroke-linecap="round"/>
<path d="M16.584 16.8125L11.3787 11.6072" stroke="#FFA500" stroke-width="4.90759" stroke-linecap="round"/>
<path d="M32.1992 10.3408V2.97943" stroke="#FFA500" stroke-width="4.90759" stroke-linecap="round"/>
<path d="M47.8164 16.8125L53.0217 11.6072" stroke="#FFA500" stroke-width="4.90759" stroke-linecap="round"/>
<path d="M54.2852 32.4258H61.6465" stroke="#FFA500" stroke-width="4.90759" stroke-linecap="round"/>
<path d="M47.8164 48.041L53.0217 53.2463" stroke="#FFA500" stroke-width="4.90759" stroke-linecap="round"/>
<path d="M32.2006 44.6942C38.9766 44.6942 44.4696 39.2012 44.4696 32.4252C44.4696 25.6493 38.9766 20.1562 32.2006 20.1562C25.4246 20.1562 19.9316 25.6493 19.9316 32.4252C19.9316 39.2012 25.4246 44.6942 32.2006 44.6942Z" fill="#FFA500" stroke="#FFA500" stroke-width="4.90759"/>
<path d="M100.173 53.0365C100.173 41.749 91.0937 32.9153 80.0516 32.9153C77.5978 32.9153 75.3894 33.4061 73.181 34.1422C72.4449 25.7993 65.5742 18.9287 56.9859 18.9287C47.9069 18.9287 40.5455 26.2901 40.5455 35.3691C40.5455 37.3322 41.0363 39.2952 41.527 41.0129C40.7909 40.7675 39.8094 40.7675 39.0732 40.7675C29.9942 40.7675 22.6328 48.1289 22.6328 57.2079C22.6328 66.0416 29.7488 73.403 38.5825 73.6483H80.7878C91.5845 72.4214 100.173 63.8332 100.173 53.0365Z" fill="#E1E7EF" stroke="white" stroke-width="2.94455" stroke-linejoin="round"/>
</svg>
