<svg width="97" height="106" viewBox="0 0 97 106" fill="none" xmlns="http://www.w3.org/2000/svg">
<path d="M94.8192 42.9509C94.8192 29.4208 83.9362 18.832 70.7002 18.832C67.7589 18.832 65.1117 19.4203 62.4645 20.3027C61.5821 10.3021 53.3464 2.06641 43.0517 2.06641C32.1688 2.06641 23.3448 10.8904 23.3448 21.7733C23.3448 24.1264 23.933 26.4795 24.5213 28.5384C23.6389 28.2443 22.4624 28.2443 21.58 28.2443C10.697 28.2443 1.87305 37.0683 1.87305 47.9512C1.87305 58.54 10.4029 67.364 20.9917 67.6581H71.5826C84.5245 66.1875 94.8192 55.8928 94.8192 42.9509Z" fill="#E1E7EF" stroke="#F4F7F8" stroke-width="3.5296" stroke-linejoin="round"/>
<path d="M60.5254 72.7793L70.228 94.2164" stroke="#91C0F8" stroke-width="4.12238" stroke-linecap="round" stroke-dasharray="11.77 11.77"/>
<path d="M47.3809 72.2773L57.0835 93.7145" stroke="#91C0F8" stroke-width="4.12238" stroke-linecap="round" stroke-dasharray="11.77 11.77"/>
<path d="M37.873 79.8027L47.5757 101.24" stroke="#91C0F8" stroke-width="4.12238" stroke-linecap="round" stroke-dasharray="11.77 11.77"/>
</svg>
