<svg width="576" height="576" viewBox="0 0 576 576" fill="none" xmlns="http://www.w3.org/2000/svg">
<g clip-path="url(#clip0_1462_804)">
<rect width="576" height="576" rx="144" fill="url(#paint0_linear_1462_804)"/>
<g filter="url(#filter0_f_1462_804)">
<path d="M382.854 515.277C440.468 648.801 438.379 842.587 385.081 931.594C331.784 1020.6 239.254 1058.52 172.439 946.939C139.329 891.645 38.6769 917.572 25.8804 807.555C12.8539 695.561 114.165 539.623 141.051 494.723C194.348 405.716 316.112 360.597 382.854 515.277Z" fill="#3F4FFD"/>
</g>
<g filter="url(#filter1_f_1462_804)">
<path d="M467.339 613.199C524.952 746.722 522.863 940.509 469.566 1029.52C416.268 1118.52 323.739 1156.44 256.924 1044.86C223.814 989.567 123.161 1015.49 110.365 905.477C97.3383 793.483 198.649 637.545 225.535 592.645C278.833 503.638 400.597 458.519 467.339 613.199Z" fill="#3F4FFD"/>
</g>
<rect x="-6" y="-12" width="600" height="600" rx="57.971" fill="white"/>
<path d="M440.608 268.245C440.011 262.989 439.414 256.565 437.025 249.557C435.233 242.549 432.246 234.957 428.662 226.782C424.481 219.19 419.106 210.43 412.535 202.838C410.146 199.918 407.16 196.414 403.576 193.494C408.354 175.391 397.603 159.623 397.603 159.623C379.684 158.455 368.335 164.879 364.154 168.383C363.557 168.383 362.96 167.799 361.765 167.215C358.779 166.047 355.792 164.879 352.208 163.711C348.625 162.543 345.638 161.959 342.054 160.791C338.47 160.207 335.484 159.623 331.9 159.039C331.303 159.039 330.706 159.039 330.108 159.039C322.343 134.512 300.243 124 300.243 124C275.157 139.768 270.379 161.375 270.379 161.375C270.379 161.375 270.379 161.959 270.379 162.543C269.184 163.127 267.392 163.127 266.197 163.711C264.406 164.295 262.614 164.879 260.224 165.463C258.433 166.047 256.641 166.631 254.251 167.799C250.668 169.551 246.487 171.303 242.903 173.055C239.319 174.807 235.735 177.143 232.151 179.479C231.554 179.479 231.554 178.895 231.554 178.895C196.911 166.047 165.851 181.815 165.851 181.815C162.865 218.606 179.589 241.381 183.173 245.469C182.576 247.805 181.381 250.141 180.784 252.477C178.395 260.653 176.005 268.829 174.811 277.589C174.811 278.756 174.811 279.924 174.811 281.092C142.557 296.86 133 328.395 133 328.395C159.878 358.763 190.938 360.515 190.938 360.515C195.119 367.522 199.3 373.946 204.676 380.37C207.065 382.706 208.857 385.626 211.246 387.962C201.689 415.409 212.441 438.185 212.441 438.185C242.306 439.353 262.016 425.337 266.197 422.417C269.184 423.585 272.17 424.169 275.157 425.337C284.116 427.673 293.673 428.841 303.23 429.425C305.619 429.425 308.008 429.425 310.397 429.425H312.189H312.787H313.981H315.176C329.511 449.281 354 451.617 354 451.617C371.322 433.513 372.516 415.409 372.516 411.321C372.516 410.737 372.516 410.737 372.516 410.737V410.154C376.1 407.818 379.684 404.898 383.268 401.978C390.435 395.554 396.408 388.546 401.784 380.954C402.381 380.37 402.979 379.786 402.979 378.618C422.689 379.786 437.025 366.354 437.025 366.354C433.441 345.915 422.092 335.987 419.703 334.235C419.703 334.235 419.703 334.235 419.106 334.235C419.106 333.067 419.106 331.899 419.106 330.731C419.106 328.395 419.106 326.643 419.106 324.307V322.555V321.971V321.387C419.106 320.804 419.106 320.804 419.106 320.804V319.636V317.884C419.106 317.3 419.106 316.716 419.106 316.132C419.106 315.548 419.106 314.964 419.106 314.38V312.628V310.876C418.508 308.54 418.508 306.204 417.911 304.452C416.119 295.692 412.535 287.516 407.757 279.924C402.979 272.333 397.603 265.909 391.033 260.069C384.462 254.229 377.295 250.141 369.53 246.637C361.765 243.133 354 241.381 346.235 240.213C342.054 239.629 338.47 239.629 334.289 239.629H333.095H332.498H331.9H331.303H330.108C329.511 239.629 328.914 239.629 328.316 239.629C326.525 239.629 324.135 240.213 322.343 240.213C314.579 241.381 306.814 244.301 300.243 248.389C293.673 252.477 287.7 257.149 283.519 262.405C278.741 267.661 275.157 274.085 272.768 279.924C270.379 286.348 269.184 292.772 268.587 298.612C268.587 300.364 268.587 301.532 268.587 303.284C268.587 303.868 268.587 303.868 268.587 304.452V305.62C268.587 306.204 268.587 307.372 268.587 307.956C269.184 310.876 269.781 314.38 270.379 317.3C272.17 323.139 275.157 328.395 278.143 333.067C281.727 337.739 285.908 341.243 290.089 344.163C294.27 347.083 299.049 349.419 303.827 350.587C308.606 351.755 312.787 352.339 317.565 352.339C318.162 352.339 318.76 352.339 319.357 352.339H319.954H320.552C321.149 352.339 321.746 352.339 321.746 352.339C321.746 352.339 321.746 352.339 322.343 352.339H322.941H323.538C324.135 352.339 324.733 352.339 325.33 352.339C325.927 352.339 326.525 352.339 327.122 351.755C328.316 351.755 328.914 351.171 330.108 351.171C331.9 350.587 333.692 350.003 335.484 348.835C337.276 348.251 338.47 347.083 340.262 345.915C340.86 345.915 340.86 345.331 341.457 344.747C343.249 343.579 343.249 341.243 342.054 340.075C340.86 338.907 339.068 338.323 337.873 339.491C337.276 339.491 337.276 340.075 336.679 340.075C335.484 340.659 334.289 341.243 332.498 341.827C331.303 342.411 329.511 342.411 328.316 342.995C327.719 342.995 326.525 342.995 325.927 342.995C325.33 342.995 325.33 342.995 324.733 342.995C324.135 342.995 324.135 342.995 323.538 342.995C322.941 342.995 322.941 342.995 322.343 342.995C321.746 342.995 321.149 342.995 321.149 342.995H320.552H319.954C319.357 342.995 319.357 342.995 318.76 342.995C315.176 342.411 312.189 341.827 308.606 340.075C305.022 338.907 302.035 336.571 299.049 334.235C296.062 331.899 293.673 328.979 291.881 325.475C290.089 321.971 288.297 318.468 287.7 314.38C287.103 312.628 287.103 310.292 287.103 308.54C287.103 307.956 287.103 307.372 287.103 306.788V306.204V305.62C287.103 304.452 287.103 303.284 287.7 302.116C289.492 293.356 293.673 285.18 300.841 278.756C302.633 277.005 304.424 275.837 306.216 274.085C308.008 272.917 310.397 271.749 312.189 270.581C314.579 269.413 316.37 268.829 318.76 268.245C321.149 267.661 323.538 267.077 325.927 267.077C327.122 267.077 328.316 267.077 329.511 267.077C330.108 267.077 330.108 267.077 330.108 267.077H331.303H331.9H333.095C335.484 267.077 338.47 267.661 340.86 268.245C346.235 269.413 351.014 271.165 355.792 273.501C365.349 278.756 373.114 286.348 377.892 296.276C380.281 300.948 382.073 306.204 382.671 311.46C382.671 312.628 383.268 314.38 383.268 315.548V316.716V317.884C383.268 318.468 383.268 318.468 383.268 319.052C383.268 319.636 383.268 319.636 383.268 320.22V321.387V322.555C383.268 323.139 383.268 324.307 383.268 324.891C383.268 326.643 383.268 327.811 382.671 329.563C382.671 330.731 382.073 332.483 382.073 333.651C382.073 334.819 381.476 336.571 380.879 337.739C380.281 340.659 379.087 343.579 377.892 345.915C375.503 351.171 372.516 356.427 368.933 361.099C361.765 370.442 352.208 378.618 340.86 383.29C335.484 385.626 329.511 387.378 323.538 388.546C320.552 389.13 317.565 389.13 314.579 389.714H313.981H313.384H312.189H311.592C309.8 389.714 308.606 389.714 306.814 389.714C300.243 389.13 293.673 387.962 287.7 386.21C281.727 384.458 275.754 382.122 269.781 379.202C258.433 373.362 248.278 365.187 240.514 355.259C236.333 350.587 232.749 345.331 230.36 339.491C227.373 334.235 224.984 328.395 223.789 321.971C221.997 316.132 220.803 309.708 220.803 303.868V302.7V299.196V298.028V297.444V296.86V295.692V295.108C220.803 294.524 220.803 293.356 220.803 292.772C220.803 289.852 221.4 286.932 221.4 283.428C221.997 280.508 222.595 277.005 223.192 274.085C223.789 271.165 224.387 267.661 225.581 264.741C227.373 258.901 229.762 253.061 232.151 247.221C237.527 236.125 244.097 226.198 252.46 218.606C254.251 216.854 256.641 214.518 259.03 212.766C261.419 211.014 263.808 209.262 266.197 208.094C268.587 206.342 270.976 205.174 273.365 204.006C274.56 203.422 275.754 202.838 276.949 202.254C277.546 202.254 278.143 201.67 278.741 201.67C279.338 201.67 279.935 201.086 280.533 201.086C282.922 199.918 285.908 199.334 288.297 198.166C288.895 198.166 289.492 197.582 290.089 197.582C290.687 197.582 291.284 196.998 291.881 196.998C293.076 196.414 294.868 196.414 296.062 195.83C296.66 195.83 297.257 195.246 297.854 195.246C298.452 195.246 299.049 195.246 299.646 194.662C300.243 194.662 300.841 194.662 302.035 194.078H303.23H304.424C305.022 194.078 305.619 194.078 306.814 193.494C307.411 193.494 308.606 193.494 309.203 192.91C309.8 192.91 310.995 192.91 311.592 192.91C312.189 192.91 312.787 192.91 313.384 192.91H314.579H315.176H315.773C316.37 192.91 317.565 192.91 318.162 192.91H319.357H319.954C320.552 192.91 321.149 192.91 321.746 192.91C324.733 192.91 327.122 192.91 330.108 192.91C335.484 192.91 340.86 193.494 345.638 194.662C355.792 196.414 365.349 199.918 374.308 204.006C383.268 208.094 391.033 213.35 397.603 218.606C398.2 219.19 398.2 219.19 398.798 219.774C399.395 220.358 399.395 220.358 399.992 220.942C400.589 221.526 401.784 222.11 402.381 223.278C402.979 223.862 404.173 224.446 404.771 225.614C405.368 226.198 406.562 227.366 407.16 227.95C410.146 230.87 412.535 233.789 414.925 236.709C419.703 242.549 423.884 248.973 426.871 254.813C426.871 255.397 427.468 255.397 427.468 255.981C427.468 256.565 428.065 256.565 428.065 257.149C428.662 257.733 428.662 258.317 429.26 259.485C429.857 260.069 429.857 260.653 430.454 261.821C431.052 262.405 431.052 262.989 431.649 263.573C432.844 266.493 434.038 268.829 434.635 271.165C435.83 275.253 437.025 278.756 437.622 281.676C438.219 282.844 439.414 283.428 440.608 283.428C441.803 283.428 442.998 282.26 442.998 281.092C441.206 276.421 440.608 272.917 440.608 268.245Z" fill="url(#paint1_linear_1462_804)"/>
</g>
<defs>
<filter id="filter0_f_1462_804" x="-1454.23" y="-1065.57" width="3358.74" height="3560.31" filterUnits="userSpaceOnUse" color-interpolation-filters="sRGB">
<feFlood flood-opacity="0" result="BackgroundImageFix"/>
<feBlend mode="normal" in="SourceGraphic" in2="BackgroundImageFix" result="shape"/>
<feGaussianBlur stdDeviation="739.478" result="effect1_foregroundBlur_1462_804"/>
</filter>
<filter id="filter1_f_1462_804" x="-1369.74" y="-967.647" width="3358.74" height="3560.31" filterUnits="userSpaceOnUse" color-interpolation-filters="sRGB">
<feFlood flood-opacity="0" result="BackgroundImageFix"/>
<feBlend mode="normal" in="SourceGraphic" in2="BackgroundImageFix" result="shape"/>
<feGaussianBlur stdDeviation="739.478" result="effect1_foregroundBlur_1462_804"/>
</filter>
<linearGradient id="paint0_linear_1462_804" x1="288" y1="0" x2="288" y2="576" gradientUnits="userSpaceOnUse">
<stop stop-color="#972FFF"/>
<stop offset="1" stop-color="#0E101F" stop-opacity="0.3"/>
</linearGradient>
<linearGradient id="paint1_linear_1462_804" x1="287.071" y1="524.51" x2="287.071" y2="225.782" gradientUnits="userSpaceOnUse">
<stop stop-color="#FFF100"/>
<stop offset="1" stop-color="#F05A28"/>
</linearGradient>
<clipPath id="clip0_1462_804">
<rect width="576" height="576" rx="144" fill="white"/>
</clipPath>
</defs>
</svg>
