<svg width="414" height="414" viewBox="0 0 414 414" fill="none" xmlns="http://www.w3.org/2000/svg">
<rect width="414" height="414" rx="40" fill="url(#paint0_linear_360_43)"/>
<g clip-path="url(#clip0_360_43)">
<path opacity="0.8" d="M207 148.949C207 145.636 204.304 142.924 201.001 143.184C162.092 146.242 131.471 178.784 131.471 218.474C131.471 260.183 165.287 293.999 207 293.999C246.694 293.999 279.232 263.378 282.29 224.473C282.55 221.17 279.838 218.474 276.525 218.474H213C209.686 218.474 207 215.788 207 212.474V148.949Z" fill="white"/>
<path opacity="0.5" d="M298.273 128.024C298.273 128.024 298.274 128.025 298.274 128.024C299.391 126.693 299.218 124.704 297.884 123.59L284.66 112.494C283.329 111.375 281.339 111.548 280.225 112.882L272.923 121.584C271.605 123.154 269.318 123.468 267.585 122.373C260.113 117.652 252.054 113.78 243.542 110.889C241.883 110.325 240.741 108.784 240.741 107.032V91.1248C240.741 86.1202 236.686 82.0654 231.682 82.0654H182.318C177.314 82.0654 173.259 86.1202 173.259 91.1248V107.032C173.259 108.784 172.116 110.325 170.458 110.888C161.944 113.78 153.885 117.652 146.415 122.372C144.682 123.467 142.394 123.154 141.076 121.583L133.775 112.882C132.657 111.552 130.671 111.375 129.34 112.494L116.116 123.59C114.781 124.709 114.609 126.695 115.727 128.026L123.043 136.745C124.359 138.315 124.272 140.62 122.894 142.137C104.577 162.303 93.4086 189.083 93.4086 218.474C93.4086 281.211 144.263 332.065 207 332.065C269.736 332.065 320.591 281.211 320.591 218.474C320.591 189.083 309.422 162.302 291.105 142.133C289.728 140.616 289.64 138.311 290.957 136.742L298.271 128.023C298.272 128.023 298.273 128.023 298.273 128.024ZM207 308.691C157.177 308.691 116.783 268.301 116.783 218.474C116.783 168.648 157.173 128.257 207 128.257C256.826 128.257 297.217 168.648 297.217 218.474C297.217 268.301 256.826 308.691 207 308.691Z" fill="white"/>
</g>
<defs>
<linearGradient id="paint0_linear_360_43" x1="207" y1="0" x2="207" y2="414" gradientUnits="userSpaceOnUse">
<stop stop-color="#FF324B"/>
<stop offset="1" stop-color="#DA4355"/>
</linearGradient>
<clipPath id="clip0_360_43">
<rect width="227.183" height="250" fill="white" transform="translate(93.4086 82.0654)"/>
</clipPath>
</defs>
</svg>