<svg width="414" height="414" viewBox="0 0 414 414" fill="none" xmlns="http://www.w3.org/2000/svg">
<rect width="414" height="414" rx="40" fill="url(#paint0_linear_228_610)"/>
<g clip-path="url(#clip0_228_610)">
<path opacity="0.6" d="M155.915 309.577C138.442 323.601 112.909 320.804 98.8858 303.331C84.8624 285.858 87.6589 260.325 105.132 246.302C122.605 232.278 148.138 235.075 162.161 252.548C176.185 270.021 173.388 295.554 155.915 309.577Z" fill="white"/>
<path d="M257.077 176.375C228.847 141.201 188.999 120.904 147.399 116.553C136.257 115.388 128.17 105.411 129.335 94.2695C130.501 83.128 140.477 75.0406 151.619 76.2059C203.545 81.6368 253.435 107.025 288.715 150.983C323.994 194.942 337.982 249.144 332.044 301.015C330.77 312.145 320.715 320.134 309.585 318.86C298.456 317.586 290.466 307.531 291.74 296.402C296.497 254.846 285.306 211.549 257.077 176.375Z" fill="white"/>
<path d="M133.44 196.855C156.221 197.687 178.445 208.024 193.799 227.156C209.153 246.287 214.434 270.221 210.316 292.642C208.292 303.66 215.583 314.233 226.601 316.257C237.618 318.281 248.191 310.99 250.215 299.972C256.372 266.455 248.475 230.469 225.437 201.764C202.399 173.058 168.976 157.559 134.921 156.315C123.726 155.906 114.319 164.65 113.91 175.845C113.501 187.04 122.245 196.447 133.44 196.855Z" fill="white"/>
</g>
<defs>
<linearGradient id="paint0_linear_228_610" x1="16.5" y1="-7.42916e-05" x2="412.513" y2="18.5392" gradientUnits="userSpaceOnUse">
<stop offset="0.388679" stop-color="#FF7C33"/>
<stop offset="0.949194" stop-color="#FF9D66"/>
</linearGradient>
<clipPath id="clip0_228_610">
<rect width="300" height="300" fill="white" transform="translate(57 52)"/>
</clipPath>
</defs>
</svg>
